<?xml version="1.0" encoding="UTF-8" standalone="no"?>
<!DOCTYPE svg PUBLIC "-//W3C//DTD SVG 1.1//EN"
 "http://www.w3.org/Graphics/SVG/1.1/DTD/svg11.dtd">
<!-- Generated by graphviz version 12.1.2 (20240928.0832)
 -->
<!-- Title: group_keys Pages: 1 -->
<svg width="725pt" height="694pt"
 viewBox="0.00 0.00 725.04 694.40" xmlns="http://www.w3.org/2000/svg" xmlns:xlink="http://www.w3.org/1999/xlink">
<g id="graph0" class="graph" transform="scale(1 1) rotate(0) translate(4 690.4)">
<title>group_keys</title>
<polygon fill="white" stroke="none" points="-4,4 -4,-690.4 721.04,-690.4 721.04,4 -4,4"/>
<!-- group_keys -->
<g id="node1" class="node">
<title>group_keys</title>
<polygon fill="#efefef" stroke="none" points="253.4,-604.6 253.4,-640.2 475.88,-640.2 475.88,-604.6 253.4,-604.6"/>
<polygon fill="none" stroke="black" points="253.4,-604.6 253.4,-640.2 475.88,-640.2 475.88,-604.6 253.4,-604.6"/>
<text text-anchor="start" x="260.4" y="-618" font-family="Arial Bold" font-size="18.00">group_keys</text>
<text text-anchor="start" x="344.39" y="-618" font-family="Arial" font-size="14.00">    </text>
<text text-anchor="start" x="375.51" y="-618" font-family="Arial" font-size="14.00" fill="#666666">[BASE TABLE]</text>
<polygon fill="none" stroke="black" points="253.4,-573.8 253.4,-604.6 475.88,-604.6 475.88,-573.8 253.4,-573.8"/>
<text text-anchor="start" x="260.4" y="-586" font-family="Arial" font-size="14.00">group_id </text>
<text text-anchor="start" x="318.78" y="-586" font-family="Arial" font-size="14.00" fill="#666666">[char(36)]</text>
<polygon fill="none" stroke="black" points="253.4,-543 253.4,-573.8 475.88,-573.8 475.88,-543 253.4,-543"/>
<text text-anchor="start" x="260.4" y="-555.2" font-family="Arial" font-size="14.00">user_id </text>
<text text-anchor="start" x="310.21" y="-555.2" font-family="Arial" font-size="14.00" fill="#666666">[char(36)]</text>
<polygon fill="none" stroke="black" points="253.4,-512.2 253.4,-543 475.88,-543 475.88,-512.2 253.4,-512.2"/>
<text text-anchor="start" x="260.4" y="-524.4" font-family="Arial" font-size="14.00">key_id </text>
<text text-anchor="start" x="304.76" y="-524.4" font-family="Arial" font-size="14.00" fill="#666666">[char(36)]</text>
<polygon fill="none" stroke="black" points="253.4,-481.4 253.4,-512.2 475.88,-512.2 475.88,-481.4 253.4,-481.4"/>
<text text-anchor="start" x="260.4" y="-493.6" font-family="Arial" font-size="14.00">encrypted_key </text>
<text text-anchor="start" x="355.35" y="-493.6" font-family="Arial" font-size="14.00" fill="#666666">[blob]</text>
<polygon fill="none" stroke="black" points="253.4,-450.6 253.4,-481.4 475.88,-481.4 475.88,-450.6 253.4,-450.6"/>
<text text-anchor="start" x="260.4" y="-462.8" font-family="Arial" font-size="14.00">created_at </text>
<text text-anchor="start" x="330.45" y="-462.8" font-family="Arial" font-size="14.00" fill="#666666">[datetime(6)]</text>
<polygon fill="none" stroke="black" stroke-width="3" points="251.9,-449.1 251.9,-641.7 477.38,-641.7 477.38,-449.1 251.9,-449.1"/>
</g>
<!-- groups -->
<g id="node2" class="node">
<title>groups</title>
<polygon fill="#efefef" stroke="none" points="120.9,-258.8 120.9,-294.4 308.39,-294.4 308.39,-258.8 120.9,-258.8"/>
<polygon fill="none" stroke="black" points="120.9,-258.8 120.9,-294.4 308.39,-294.4 308.39,-258.8 120.9,-258.8"/>
<text text-anchor="start" x="127.9" y="-272.2" font-family="Arial Bold" font-size="18.00">groups</text>
<text text-anchor="start" x="176.9" y="-272.2" font-family="Arial" font-size="14.00">    </text>
<text text-anchor="start" x="208.01" y="-272.2" font-family="Arial" font-size="14.00" fill="#666666">[BASE TABLE]</text>
<polygon fill="none" stroke="black" points="120.9,-228 120.9,-258.8 308.39,-258.8 308.39,-228 120.9,-228"/>
<text text-anchor="start" x="127.9" y="-240.2" font-family="Arial" font-size="14.00">id </text>
<text text-anchor="start" x="142.68" y="-240.2" font-family="Arial" font-size="14.00" fill="#666666">[char(36)]</text>
<polygon fill="none" stroke="black" points="120.9,-197.2 120.9,-228 308.39,-228 308.39,-197.2 120.9,-197.2"/>
<text text-anchor="start" x="127.9" y="-209.4" font-family="Arial" font-size="14.00">name </text>
<text text-anchor="start" x="166.81" y="-209.4" font-family="Arial" font-size="14.00" fill="#666666">[varchar(255)]</text>
<polygon fill="none" stroke="black" points="120.9,-166.4 120.9,-197.2 308.39,-197.2 308.39,-166.4 120.9,-166.4"/>
<text text-anchor="start" x="127.9" y="-178.6" font-family="Arial" font-size="14.00">description </text>
<text text-anchor="start" x="199.49" y="-178.6" font-family="Arial" font-size="14.00" fill="#666666">[text]</text>
<polygon fill="none" stroke="black" points="120.9,-135.6 120.9,-166.4 308.39,-166.4 308.39,-135.6 120.9,-135.6"/>
<text text-anchor="start" x="127.9" y="-147.8" font-family="Arial" font-size="14.00">parent_id </text>
<text text-anchor="start" x="190.17" y="-147.8" font-family="Arial" font-size="14.00" fill="#666666">[char(36)]</text>
<polygon fill="none" stroke="black" points="120.9,-104.8 120.9,-135.6 308.39,-135.6 308.39,-104.8 120.9,-104.8"/>
<text text-anchor="start" x="127.9" y="-117" font-family="Arial" font-size="14.00">created_at </text>
<text text-anchor="start" x="197.95" y="-117" font-family="Arial" font-size="14.00" fill="#666666">[datetime(6)]</text>
<polygon fill="none" stroke="black" points="120.9,-74 120.9,-104.8 308.39,-104.8 308.39,-74 120.9,-74"/>
<text text-anchor="start" x="127.9" y="-86.2" font-family="Arial" font-size="14.00">updated_at </text>
<text text-anchor="start" x="201.86" y="-86.2" font-family="Arial" font-size="14.00" fill="#666666">[datetime(6)]</text>
</g>
<!-- group_keys&#45;&gt;groups -->
<g id="edge1" class="edge">
<title>group_keys:group_id&#45;&gt;groups:id</title>
<path fill="none" stroke="black" d="M242.15,-588.56C175.17,-579.6 226.72,-478.17 253.4,-404.4 266.48,-368.24 295.21,-373.73 308.39,-337.6 322.73,-298.26 351.26,-243.4 309.39,-243.4"/>
<polygon fill="black" stroke="black" points="242.09,-588.56 251.79,-593.67 247.41,-588.89 251.74,-589.16 251.74,-589.16 251.74,-589.16 247.41,-588.89 252.35,-584.69 242.09,-588.56"/>
<text text-anchor="start" x="7" y="-599.2" font-family="Arial" font-size="10.00">FOREIGN KEY (group_id) REFERENCES groups (id)</text>
</g>
<!-- users -->
<g id="node3" class="node">
<title>users</title>
<polygon fill="#efefef" stroke="none" points="413.09,-289.6 413.09,-325.2 616.19,-325.2 616.19,-289.6 413.09,-289.6"/>
<polygon fill="none" stroke="black" points="413.09,-289.6 413.09,-325.2 616.19,-325.2 616.19,-289.6 413.09,-289.6"/>
<text text-anchor="start" x="433.9" y="-303" font-family="Arial Bold" font-size="18.00">users</text>
<text text-anchor="start" x="470.89" y="-303" font-family="Arial" font-size="14.00">    </text>
<text text-anchor="start" x="502.01" y="-303" font-family="Arial" font-size="14.00" fill="#666666">[BASE TABLE]</text>
<polygon fill="none" stroke="black" points="413.09,-258.8 413.09,-289.6 616.19,-289.6 616.19,-258.8 413.09,-258.8"/>
<text text-anchor="start" x="420.09" y="-271" font-family="Arial" font-size="14.00">id </text>
<text text-anchor="start" x="434.88" y="-271" font-family="Arial" font-size="14.00" fill="#666666">[char(36)]</text>
<polygon fill="none" stroke="black" points="413.09,-228 413.09,-258.8 616.19,-258.8 616.19,-228 413.09,-228"/>
<text text-anchor="start" x="420.09" y="-240.2" font-family="Arial" font-size="14.00">trap_id </text>
<text text-anchor="start" x="466.79" y="-240.2" font-family="Arial" font-size="14.00" fill="#666666">[varchar(32)]</text>
<polygon fill="none" stroke="black" points="413.09,-197.2 413.09,-228 616.19,-228 616.19,-197.2 413.09,-197.2"/>
<text text-anchor="start" x="420.09" y="-209.4" font-family="Arial" font-size="14.00">password_hash </text>
<text text-anchor="start" x="522.05" y="-209.4" font-family="Arial" font-size="14.00" fill="#666666">[varchar(255)]</text>
<polygon fill="none" stroke="black" points="413.09,-166.4 413.09,-197.2 616.19,-197.2 616.19,-166.4 413.09,-166.4"/>
<text text-anchor="start" x="420.09" y="-178.6" font-family="Arial" font-size="14.00">email </text>
<text text-anchor="start" x="457.44" y="-178.6" font-family="Arial" font-size="14.00" fill="#666666">[varbinary(512)]</text>
<polygon fill="none" stroke="black" points="413.09,-135.6 413.09,-166.4 616.19,-166.4 616.19,-135.6 413.09,-135.6"/>
<text text-anchor="start" x="420.09" y="-147.8" font-family="Arial" font-size="14.00">personal_info </text>
<text text-anchor="start" x="508.05" y="-147.8" font-family="Arial" font-size="14.00" fill="#666666">[blob]</text>
<polygon fill="none" stroke="black" points="413.09,-104.8 413.09,-135.6 616.19,-135.6 616.19,-104.8 413.09,-104.8"/>
<text text-anchor="start" x="420.09" y="-117" font-family="Arial" font-size="14.00">student_number </text>
<text text-anchor="start" x="525.16" y="-117" font-family="Arial" font-size="14.00" fill="#666666">[varchar(8)]</text>
<polygon fill="none" stroke="black" points="413.09,-74 413.09,-104.8 616.19,-104.8 616.19,-74 413.09,-74"/>
<text text-anchor="start" x="420.09" y="-86.2" font-family="Arial" font-size="14.00">created_at </text>
<text text-anchor="start" x="490.14" y="-86.2" font-family="Arial" font-size="14.00" fill="#666666">[datetime(6)]</text>
<polygon fill="none" stroke="black" points="413.09,-43.2 413.09,-74 616.19,-74 616.19,-43.2 413.09,-43.2"/>
<text text-anchor="start" x="420.09" y="-55.4" font-family="Arial" font-size="14.00">updated_at </text>
<text text-anchor="start" x="494.05" y="-55.4" font-family="Arial" font-size="14.00" fill="#666666">[datetime(6)]</text>
</g>
<!-- group_keys&#45;&gt;users -->
<g id="edge2" class="edge">
<title>group_keys:user_id&#45;&gt;users:id</title>
<path fill="none" stroke="black" d="M487.2,-557.57C541.51,-548.13 508.5,-460.28 475.88,-404.4 459.67,-376.62 429.37,-396.15 413.09,-368.4 391.91,-332.28 370.23,-274.2 412.09,-274.2"/>
<polygon fill="black" stroke="black" points="487.18,-557.57 476.85,-553.89 481.86,-558 477.55,-558.35 477.55,-558.35 477.55,-558.35 481.86,-558 477.58,-562.86 487.18,-557.57"/>
<text text-anchor="start" x="483.88" y="-568.4" font-family="Arial" font-size="10.00">FOREIGN KEY (user_id) REFERENCES users (id)</text>
</g>
</g>
</svg>
