<?xml version="1.0" encoding="UTF-8" standalone="no"?>
<!DOCTYPE svg PUBLIC "-//W3C//DTD SVG 1.1//EN"
 "http://www.w3.org/Graphics/SVG/1.1/DTD/svg11.dtd">
<!-- Generated by graphviz version 12.1.2 (20240928.0832)
 -->
<!-- Title: group_member_logs Pages: 1 -->
<svg width="440pt" height="787pt"
 viewBox="0.00 0.00 440.05 786.80" xmlns="http://www.w3.org/2000/svg" xmlns:xlink="http://www.w3.org/1999/xlink">
<g id="graph0" class="graph" transform="scale(1 1) rotate(0) translate(4 782.8)">
<title>group_member_logs</title>
<polygon fill="white" stroke="none" points="-4,4 -4,-782.8 436.05,-782.8 436.05,4 -4,4"/>
<!-- group_member_logs -->
<g id="node1" class="node">
<title>group_member_logs</title>
<polygon fill="#efefef" stroke="none" points="46.2,-697 46.2,-732.6 333.66,-732.6 333.66,-697 46.2,-697"/>
<polygon fill="none" stroke="black" points="46.2,-697 46.2,-732.6 333.66,-732.6 333.66,-697 46.2,-697"/>
<text text-anchor="start" x="53.2" y="-710.4" font-family="Arial Bold" font-size="18.00">group_member_logs</text>
<text text-anchor="start" x="202.17" y="-710.4" font-family="Arial" font-size="14.00">    </text>
<text text-anchor="start" x="233.29" y="-710.4" font-family="Arial" font-size="14.00" fill="#666666">[BASE TABLE]</text>
<polygon fill="none" stroke="black" points="46.2,-666.2 46.2,-697 333.66,-697 333.66,-666.2 46.2,-666.2"/>
<text text-anchor="start" x="53.2" y="-678.4" font-family="Arial" font-size="14.00">id </text>
<text text-anchor="start" x="67.99" y="-678.4" font-family="Arial" font-size="14.00" fill="#666666">[char(36)]</text>
<polygon fill="none" stroke="black" points="46.2,-635.4 46.2,-666.2 333.66,-666.2 333.66,-635.4 46.2,-635.4"/>
<text text-anchor="start" x="53.2" y="-647.6" font-family="Arial" font-size="14.00">group_id </text>
<text text-anchor="start" x="111.58" y="-647.6" font-family="Arial" font-size="14.00" fill="#666666">[char(36)]</text>
<polygon fill="none" stroke="black" points="46.2,-604.6 46.2,-635.4 333.66,-635.4 333.66,-604.6 46.2,-604.6"/>
<text text-anchor="start" x="53.2" y="-616.8" font-family="Arial" font-size="14.00">user_id </text>
<text text-anchor="start" x="103.01" y="-616.8" font-family="Arial" font-size="14.00" fill="#666666">[char(36)]</text>
<polygon fill="none" stroke="black" points="46.2,-573.8 46.2,-604.6 333.66,-604.6 333.66,-573.8 46.2,-573.8"/>
<text text-anchor="start" x="53.2" y="-586" font-family="Arial" font-size="14.00">action </text>
<text text-anchor="start" x="94.45" y="-586" font-family="Arial" font-size="14.00" fill="#666666">[varchar(32)]</text>
<polygon fill="none" stroke="black" points="46.2,-543 46.2,-573.8 333.66,-573.8 333.66,-543 46.2,-543"/>
<text text-anchor="start" x="53.2" y="-555.2" font-family="Arial" font-size="14.00">actor_id </text>
<text text-anchor="start" x="106.9" y="-555.2" font-family="Arial" font-size="14.00" fill="#666666">[char(36)]</text>
<polygon fill="none" stroke="black" points="46.2,-512.2 46.2,-543 333.66,-543 333.66,-512.2 46.2,-512.2"/>
<text text-anchor="start" x="53.2" y="-524.4" font-family="Arial" font-size="14.00">old_roles </text>
<text text-anchor="start" x="113.9" y="-524.4" font-family="Arial" font-size="14.00" fill="#666666">[longtext]</text>
<polygon fill="none" stroke="black" points="46.2,-481.4 46.2,-512.2 333.66,-512.2 333.66,-481.4 46.2,-481.4"/>
<text text-anchor="start" x="53.2" y="-493.6" font-family="Arial" font-size="14.00">new_roles </text>
<text text-anchor="start" x="120.9" y="-493.6" font-family="Arial" font-size="14.00" fill="#666666">[longtext]</text>
<polygon fill="none" stroke="black" points="46.2,-450.6 46.2,-481.4 333.66,-481.4 333.66,-450.6 46.2,-450.6"/>
<text text-anchor="start" x="53.2" y="-462.8" font-family="Arial" font-size="14.00">created_at </text>
<text text-anchor="start" x="123.25" y="-462.8" font-family="Arial" font-size="14.00" fill="#666666">[datetime(6)]</text>
<polygon fill="none" stroke="black" stroke-width="3" points="44.7,-449.1 44.7,-734.1 335.16,-734.1 335.16,-449.1 44.7,-449.1"/>
</g>
<!-- users -->
<g id="node2" class="node">
<title>users</title>
<polygon fill="#efefef" stroke="none" points="88.38,-289.6 88.38,-325.2 291.48,-325.2 291.48,-289.6 88.38,-289.6"/>
<polygon fill="none" stroke="black" points="88.38,-289.6 88.38,-325.2 291.48,-325.2 291.48,-289.6 88.38,-289.6"/>
<text text-anchor="start" x="109.19" y="-303" font-family="Arial Bold" font-size="18.00">users</text>
<text text-anchor="start" x="146.18" y="-303" font-family="Arial" font-size="14.00">    </text>
<text text-anchor="start" x="177.3" y="-303" font-family="Arial" font-size="14.00" fill="#666666">[BASE TABLE]</text>
<polygon fill="none" stroke="black" points="88.38,-258.8 88.38,-289.6 291.48,-289.6 291.48,-258.8 88.38,-258.8"/>
<text text-anchor="start" x="95.38" y="-271" font-family="Arial" font-size="14.00">id </text>
<text text-anchor="start" x="110.17" y="-271" font-family="Arial" font-size="14.00" fill="#666666">[char(36)]</text>
<polygon fill="none" stroke="black" points="88.38,-228 88.38,-258.8 291.48,-258.8 291.48,-228 88.38,-228"/>
<text text-anchor="start" x="95.38" y="-240.2" font-family="Arial" font-size="14.00">trap_id </text>
<text text-anchor="start" x="142.08" y="-240.2" font-family="Arial" font-size="14.00" fill="#666666">[varchar(32)]</text>
<polygon fill="none" stroke="black" points="88.38,-197.2 88.38,-228 291.48,-228 291.48,-197.2 88.38,-197.2"/>
<text text-anchor="start" x="95.38" y="-209.4" font-family="Arial" font-size="14.00">password_hash </text>
<text text-anchor="start" x="197.34" y="-209.4" font-family="Arial" font-size="14.00" fill="#666666">[varchar(255)]</text>
<polygon fill="none" stroke="black" points="88.38,-166.4 88.38,-197.2 291.48,-197.2 291.48,-166.4 88.38,-166.4"/>
<text text-anchor="start" x="95.38" y="-178.6" font-family="Arial" font-size="14.00">email </text>
<text text-anchor="start" x="132.73" y="-178.6" font-family="Arial" font-size="14.00" fill="#666666">[varbinary(512)]</text>
<polygon fill="none" stroke="black" points="88.38,-135.6 88.38,-166.4 291.48,-166.4 291.48,-135.6 88.38,-135.6"/>
<text text-anchor="start" x="95.38" y="-147.8" font-family="Arial" font-size="14.00">personal_info </text>
<text text-anchor="start" x="183.34" y="-147.8" font-family="Arial" font-size="14.00" fill="#666666">[blob]</text>
<polygon fill="none" stroke="black" points="88.38,-104.8 88.38,-135.6 291.48,-135.6 291.48,-104.8 88.38,-104.8"/>
<text text-anchor="start" x="95.38" y="-117" font-family="Arial" font-size="14.00">student_number </text>
<text text-anchor="start" x="200.45" y="-117" font-family="Arial" font-size="14.00" fill="#666666">[varchar(8)]</text>
<polygon fill="none" stroke="black" points="88.38,-74 88.38,-104.8 291.48,-104.8 291.48,-74 88.38,-74"/>
<text text-anchor="start" x="95.38" y="-86.2" font-family="Arial" font-size="14.00">created_at </text>
<text text-anchor="start" x="165.43" y="-86.2" font-family="Arial" font-size="14.00" fill="#666666">[datetime(6)]</text>
<polygon fill="none" stroke="black" points="88.38,-43.2 88.38,-74 291.48,-74 291.48,-43.2 88.38,-43.2"/>
<text text-anchor="start" x="95.38" y="-55.4" font-family="Arial" font-size="14.00">updated_at </text>
<text text-anchor="start" x="169.34" y="-55.4" font-family="Arial" font-size="14.00" fill="#666666">[datetime(6)]</text>
</g>
<!-- group_member_logs&#45;&gt;users -->
<g id="edge1" class="edge">
<title>group_member_logs:actor_id&#45;&gt;users:id</title>
<path fill="none" stroke="black" stroke-dasharray="5,2" d="M344.51,-555.77C393.66,-527.12 352.71,-274.2 292.48,-274.2"/>
<polygon fill="black" stroke="black" points="344.65,-555.73 333.82,-553.97 339.49,-557.11 335.31,-558.23 335.31,-558.23 335.31,-558.23 339.49,-557.11 336.15,-562.66 344.65,-555.73"/>
<text text-anchor="start" x="341.66" y="-568.4" font-family="Arial" font-size="10.00">Additional Relation</text>
</g>
</g>
</svg>
