<?xml version="1.0" encoding="UTF-8" standalone="no"?>
<!DOCTYPE svg PUBLIC "-//W3C//DTD SVG 1.1//EN"
 "http://www.w3.org/Graphics/SVG/1.1/DTD/svg11.dtd">
<!-- Generated by graphviz version 12.1.2 (20240928.0832)
 -->
<!-- Title: group_members Pages: 1 -->
<svg width="758pt" height="664pt"
 viewBox="0.00 0.00 758.02 663.60" xmlns="http://www.w3.org/2000/svg" xmlns:xlink="http://www.w3.org/1999/xlink">
<g id="graph0" class="graph" transform="scale(1 1) rotate(0) translate(4 659.6)">
<title>group_members</title>
<polygon fill="white" stroke="none" points="-4,4 -4,-659.6 754.02,-659.6 754.02,4 -4,4"/>
<!-- group_members -->
<g id="node1" class="node">
<title>group_members</title>
<polygon fill="#efefef" stroke="none" points="253.4,-573.8 253.4,-609.4 508.87,-609.4 508.87,-573.8 253.4,-573.8"/>
<polygon fill="none" stroke="black" points="253.4,-573.8 253.4,-609.4 508.87,-609.4 508.87,-573.8 253.4,-573.8"/>
<text text-anchor="start" x="260.4" y="-587.2" font-family="Arial Bold" font-size="18.00">group_members</text>
<text text-anchor="start" x="377.38" y="-587.2" font-family="Arial" font-size="14.00">    </text>
<text text-anchor="start" x="408.49" y="-587.2" font-family="Arial" font-size="14.00" fill="#666666">[BASE TABLE]</text>
<polygon fill="none" stroke="black" points="253.4,-543 253.4,-573.8 508.87,-573.8 508.87,-543 253.4,-543"/>
<text text-anchor="start" x="260.4" y="-555.2" font-family="Arial" font-size="14.00">group_id </text>
<text text-anchor="start" x="318.78" y="-555.2" font-family="Arial" font-size="14.00" fill="#666666">[char(36)]</text>
<polygon fill="none" stroke="black" points="253.4,-512.2 253.4,-543 508.87,-543 508.87,-512.2 253.4,-512.2"/>
<text text-anchor="start" x="260.4" y="-524.4" font-family="Arial" font-size="14.00">user_id </text>
<text text-anchor="start" x="310.21" y="-524.4" font-family="Arial" font-size="14.00" fill="#666666">[char(36)]</text>
<polygon fill="none" stroke="black" points="253.4,-481.4 253.4,-512.2 508.87,-512.2 508.87,-481.4 253.4,-481.4"/>
<text text-anchor="start" x="260.4" y="-493.6" font-family="Arial" font-size="14.00">roles </text>
<text text-anchor="start" x="294.64" y="-493.6" font-family="Arial" font-size="14.00" fill="#666666">[longtext]</text>
<polygon fill="none" stroke="black" points="253.4,-450.6 253.4,-481.4 508.87,-481.4 508.87,-450.6 253.4,-450.6"/>
<text text-anchor="start" x="260.4" y="-462.8" font-family="Arial" font-size="14.00">joined_at </text>
<text text-anchor="start" x="321.12" y="-462.8" font-family="Arial" font-size="14.00" fill="#666666">[datetime(6)]</text>
<polygon fill="none" stroke="black" stroke-width="3" points="251.9,-449.1 251.9,-610.9 510.37,-610.9 510.37,-449.1 251.9,-449.1"/>
</g>
<!-- groups -->
<g id="node2" class="node">
<title>groups</title>
<polygon fill="#efefef" stroke="none" points="137.39,-258.8 137.39,-294.4 324.88,-294.4 324.88,-258.8 137.39,-258.8"/>
<polygon fill="none" stroke="black" points="137.39,-258.8 137.39,-294.4 324.88,-294.4 324.88,-258.8 137.39,-258.8"/>
<text text-anchor="start" x="144.39" y="-272.2" font-family="Arial Bold" font-size="18.00">groups</text>
<text text-anchor="start" x="193.39" y="-272.2" font-family="Arial" font-size="14.00">    </text>
<text text-anchor="start" x="224.51" y="-272.2" font-family="Arial" font-size="14.00" fill="#666666">[BASE TABLE]</text>
<polygon fill="none" stroke="black" points="137.39,-228 137.39,-258.8 324.88,-258.8 324.88,-228 137.39,-228"/>
<text text-anchor="start" x="144.39" y="-240.2" font-family="Arial" font-size="14.00">id </text>
<text text-anchor="start" x="159.18" y="-240.2" font-family="Arial" font-size="14.00" fill="#666666">[char(36)]</text>
<polygon fill="none" stroke="black" points="137.39,-197.2 137.39,-228 324.88,-228 324.88,-197.2 137.39,-197.2"/>
<text text-anchor="start" x="144.39" y="-209.4" font-family="Arial" font-size="14.00">name </text>
<text text-anchor="start" x="183.3" y="-209.4" font-family="Arial" font-size="14.00" fill="#666666">[varchar(255)]</text>
<polygon fill="none" stroke="black" points="137.39,-166.4 137.39,-197.2 324.88,-197.2 324.88,-166.4 137.39,-166.4"/>
<text text-anchor="start" x="144.39" y="-178.6" font-family="Arial" font-size="14.00">description </text>
<text text-anchor="start" x="215.98" y="-178.6" font-family="Arial" font-size="14.00" fill="#666666">[text]</text>
<polygon fill="none" stroke="black" points="137.39,-135.6 137.39,-166.4 324.88,-166.4 324.88,-135.6 137.39,-135.6"/>
<text text-anchor="start" x="144.39" y="-147.8" font-family="Arial" font-size="14.00">parent_id </text>
<text text-anchor="start" x="206.66" y="-147.8" font-family="Arial" font-size="14.00" fill="#666666">[char(36)]</text>
<polygon fill="none" stroke="black" points="137.39,-104.8 137.39,-135.6 324.88,-135.6 324.88,-104.8 137.39,-104.8"/>
<text text-anchor="start" x="144.39" y="-117" font-family="Arial" font-size="14.00">created_at </text>
<text text-anchor="start" x="214.44" y="-117" font-family="Arial" font-size="14.00" fill="#666666">[datetime(6)]</text>
<polygon fill="none" stroke="black" points="137.39,-74 137.39,-104.8 324.88,-104.8 324.88,-74 137.39,-74"/>
<text text-anchor="start" x="144.39" y="-86.2" font-family="Arial" font-size="14.00">updated_at </text>
<text text-anchor="start" x="218.35" y="-86.2" font-family="Arial" font-size="14.00" fill="#666666">[datetime(6)]</text>
</g>
<!-- group_members&#45;&gt;groups -->
<g id="edge1" class="edge">
<title>group_members:group_id&#45;&gt;groups:id</title>
<path fill="none" stroke="black" d="M242.09,-558.27C18.73,-552.62 315.22,-359.53 324.88,-337.6 341.76,-299.28 367.75,-243.4 325.88,-243.4"/>
<polygon fill="black" stroke="black" points="242.07,-558.27 252.01,-562.9 247.4,-558.34 251.73,-558.39 251.73,-558.39 251.73,-558.39 247.4,-558.34 252.12,-553.9 242.07,-558.27"/>
<text text-anchor="start" x="7" y="-568.4" font-family="Arial" font-size="10.00">FOREIGN KEY (group_id) REFERENCES groups (id)</text>
</g>
<!-- users -->
<g id="node3" class="node">
<title>users</title>
<polygon fill="#efefef" stroke="none" points="429.59,-289.6 429.59,-325.2 632.68,-325.2 632.68,-289.6 429.59,-289.6"/>
<polygon fill="none" stroke="black" points="429.59,-289.6 429.59,-325.2 632.68,-325.2 632.68,-289.6 429.59,-289.6"/>
<text text-anchor="start" x="450.39" y="-303" font-family="Arial Bold" font-size="18.00">users</text>
<text text-anchor="start" x="487.39" y="-303" font-family="Arial" font-size="14.00">    </text>
<text text-anchor="start" x="518.5" y="-303" font-family="Arial" font-size="14.00" fill="#666666">[BASE TABLE]</text>
<polygon fill="none" stroke="black" points="429.59,-258.8 429.59,-289.6 632.68,-289.6 632.68,-258.8 429.59,-258.8"/>
<text text-anchor="start" x="436.59" y="-271" font-family="Arial" font-size="14.00">id </text>
<text text-anchor="start" x="451.37" y="-271" font-family="Arial" font-size="14.00" fill="#666666">[char(36)]</text>
<polygon fill="none" stroke="black" points="429.59,-228 429.59,-258.8 632.68,-258.8 632.68,-228 429.59,-228"/>
<text text-anchor="start" x="436.59" y="-240.2" font-family="Arial" font-size="14.00">trap_id </text>
<text text-anchor="start" x="483.28" y="-240.2" font-family="Arial" font-size="14.00" fill="#666666">[varchar(32)]</text>
<polygon fill="none" stroke="black" points="429.59,-197.2 429.59,-228 632.68,-228 632.68,-197.2 429.59,-197.2"/>
<text text-anchor="start" x="436.59" y="-209.4" font-family="Arial" font-size="14.00">password_hash </text>
<text text-anchor="start" x="538.54" y="-209.4" font-family="Arial" font-size="14.00" fill="#666666">[varchar(255)]</text>
<polygon fill="none" stroke="black" points="429.59,-166.4 429.59,-197.2 632.68,-197.2 632.68,-166.4 429.59,-166.4"/>
<text text-anchor="start" x="436.59" y="-178.6" font-family="Arial" font-size="14.00">email </text>
<text text-anchor="start" x="473.93" y="-178.6" font-family="Arial" font-size="14.00" fill="#666666">[varbinary(512)]</text>
<polygon fill="none" stroke="black" points="429.59,-135.6 429.59,-166.4 632.68,-166.4 632.68,-135.6 429.59,-135.6"/>
<text text-anchor="start" x="436.59" y="-147.8" font-family="Arial" font-size="14.00">personal_info </text>
<text text-anchor="start" x="524.54" y="-147.8" font-family="Arial" font-size="14.00" fill="#666666">[blob]</text>
<polygon fill="none" stroke="black" points="429.59,-104.8 429.59,-135.6 632.68,-135.6 632.68,-104.8 429.59,-104.8"/>
<text text-anchor="start" x="436.59" y="-117" font-family="Arial" font-size="14.00">student_number </text>
<text text-anchor="start" x="541.66" y="-117" font-family="Arial" font-size="14.00" fill="#666666">[varchar(8)]</text>
<polygon fill="none" stroke="black" points="429.59,-74 429.59,-104.8 632.68,-104.8 632.68,-74 429.59,-74"/>
<text text-anchor="start" x="436.59" y="-86.2" font-family="Arial" font-size="14.00">created_at </text>
<text text-anchor="start" x="506.63" y="-86.2" font-family="Arial" font-size="14.00" fill="#666666">[datetime(6)]</text>
<polygon fill="none" stroke="black" points="429.59,-43.2 429.59,-74 632.68,-74 632.68,-43.2 429.59,-43.2"/>
<text text-anchor="start" x="436.59" y="-55.4" font-family="Arial" font-size="14.00">updated_at </text>
<text text-anchor="start" x="510.54" y="-55.4" font-family="Arial" font-size="14.00" fill="#666666">[datetime(6)]</text>
</g>
<!-- group_members&#45;&gt;users -->
<g id="edge2" class="edge">
<title>group_members:user_id&#45;&gt;users:id</title>
<path fill="none" stroke="black" d="M520.25,-526.49C560.96,-516.89 536.61,-447.08 508.87,-404.4 487.78,-371.95 450.72,-400.82 429.59,-368.4 406.73,-333.32 386.72,-274.2 428.59,-274.2"/>
<polygon fill="black" stroke="black" points="520.14,-526.5 509.72,-523.09 514.84,-527.07 510.53,-527.53 510.53,-527.53 510.53,-527.53 514.84,-527.07 510.68,-532.04 520.14,-526.5"/>
<text text-anchor="start" x="516.87" y="-537.6" font-family="Arial" font-size="10.00">FOREIGN KEY (user_id) REFERENCES users (id)</text>
</g>
</g>
</svg>
