<?xml version="1.0" encoding="UTF-8" standalone="no"?>
<!DOCTYPE svg PUBLIC "-//W3C//DTD SVG 1.1//EN"
 "http://www.w3.org/Graphics/SVG/1.1/DTD/svg11.dtd">
<!-- Generated by graphviz version 12.1.2 (20240928.0832)
 -->
<!-- Title: groups Pages: 1 -->
<svg width="1369pt" height="694pt"
 viewBox="0.00 0.00 1369.11 694.40" xmlns="http://www.w3.org/2000/svg" xmlns:xlink="http://www.w3.org/1999/xlink">
<g id="graph0" class="graph" transform="scale(1 1) rotate(0) translate(4 690.4)">
<title>groups</title>
<polygon fill="white" stroke="none" points="-4,4 -4,-690.4 1365.11,-690.4 1365.11,4 -4,4"/>
<!-- groups -->
<g id="node1" class="node">
<title>groups</title>
<polygon fill="#efefef" stroke="none" points="588.69,-231 588.69,-266.6 776.18,-266.6 776.18,-231 588.69,-231"/>
<polygon fill="none" stroke="black" points="588.69,-231 588.69,-266.6 776.18,-266.6 776.18,-231 588.69,-231"/>
<text text-anchor="start" x="595.69" y="-244.4" font-family="Arial Bold" font-size="18.00">groups</text>
<text text-anchor="start" x="644.69" y="-244.4" font-family="Arial" font-size="14.00">    </text>
<text text-anchor="start" x="675.81" y="-244.4" font-family="Arial" font-size="14.00" fill="#666666">[BASE TABLE]</text>
<polygon fill="none" stroke="black" points="588.69,-200.2 588.69,-231 776.18,-231 776.18,-200.2 588.69,-200.2"/>
<text text-anchor="start" x="595.69" y="-212.4" font-family="Arial" font-size="14.00">id </text>
<text text-anchor="start" x="610.48" y="-212.4" font-family="Arial" font-size="14.00" fill="#666666">[char(36)]</text>
<polygon fill="none" stroke="black" points="588.69,-169.4 588.69,-200.2 776.18,-200.2 776.18,-169.4 588.69,-169.4"/>
<text text-anchor="start" x="595.69" y="-181.6" font-family="Arial" font-size="14.00">name </text>
<text text-anchor="start" x="634.6" y="-181.6" font-family="Arial" font-size="14.00" fill="#666666">[varchar(255)]</text>
<polygon fill="none" stroke="black" points="588.69,-138.6 588.69,-169.4 776.18,-169.4 776.18,-138.6 588.69,-138.6"/>
<text text-anchor="start" x="595.69" y="-150.8" font-family="Arial" font-size="14.00">description </text>
<text text-anchor="start" x="667.29" y="-150.8" font-family="Arial" font-size="14.00" fill="#666666">[text]</text>
<polygon fill="none" stroke="black" points="588.69,-107.8 588.69,-138.6 776.18,-138.6 776.18,-107.8 588.69,-107.8"/>
<text text-anchor="start" x="595.69" y="-120" font-family="Arial" font-size="14.00">parent_id </text>
<text text-anchor="start" x="657.96" y="-120" font-family="Arial" font-size="14.00" fill="#666666">[char(36)]</text>
<polygon fill="none" stroke="black" points="588.69,-77 588.69,-107.8 776.18,-107.8 776.18,-77 588.69,-77"/>
<text text-anchor="start" x="595.69" y="-89.2" font-family="Arial" font-size="14.00">created_at </text>
<text text-anchor="start" x="665.74" y="-89.2" font-family="Arial" font-size="14.00" fill="#666666">[datetime(6)]</text>
<polygon fill="none" stroke="black" points="588.69,-46.2 588.69,-77 776.18,-77 776.18,-46.2 588.69,-46.2"/>
<text text-anchor="start" x="595.69" y="-58.4" font-family="Arial" font-size="14.00">updated_at </text>
<text text-anchor="start" x="669.65" y="-58.4" font-family="Arial" font-size="14.00" fill="#666666">[datetime(6)]</text>
<polygon fill="none" stroke="black" stroke-width="3" points="587.19,-44.7 587.19,-268.1 777.68,-268.1 777.68,-44.7 587.19,-44.7"/>
</g>
<!-- groups&#45;&gt;groups -->
<g id="edge1" class="edge">
<title>groups:parent_id&#45;&gt;groups:id</title>
<path fill="none" stroke="black" d="M683.32,-148.82C686.92,-270.41 686.62,-493.4 682.44,-493.4 678.14,-493.4 677.95,-342.16 681.87,-230.7"/>
<polygon fill="black" stroke="black" points="683.32,-148.78 687.5,-138.65 683.15,-143.45 683.01,-139.12 683.01,-139.12 683.01,-139.12 683.15,-143.45 678.51,-138.93 683.32,-148.78"/>
<text text-anchor="start" x="434.81" y="-148.45" font-family="Arial" font-size="10.00">FOREIGN KEY (parent_id) REFERENCES groups (id)</text>
</g>
<!-- groups&#45;&gt;groups -->
<g id="edge6" class="edge">
<title>groups:parent_id&#45;&gt;groups:id</title>
<path fill="none" stroke="black" stroke-dasharray="5,2" d="M683.64,-148.73C691.42,-330.33 691.02,-674 682.44,-674 673.7,-674 673.45,-404.37 681.68,-230.78"/>
<polygon fill="black" stroke="black" points="683.64,-148.66 687.69,-138.47 683.4,-143.34 683.21,-139.01 683.21,-139.01 683.21,-139.01 683.4,-143.34 678.7,-138.87 683.64,-148.66"/>
<text text-anchor="start" x="592.79" y="-122.34" font-family="Arial" font-size="10.00">Additional Relation</text>
</g>
<!-- group_keys -->
<g id="node2" class="node">
<title>group_keys</title>
<polygon fill="#efefef" stroke="none" points="43.2,-576.8 43.2,-612.4 265.68,-612.4 265.68,-576.8 43.2,-576.8"/>
<polygon fill="none" stroke="black" points="43.2,-576.8 43.2,-612.4 265.68,-612.4 265.68,-576.8 43.2,-576.8"/>
<text text-anchor="start" x="50.2" y="-590.2" font-family="Arial Bold" font-size="18.00">group_keys</text>
<text text-anchor="start" x="134.19" y="-590.2" font-family="Arial" font-size="14.00">    </text>
<text text-anchor="start" x="165.31" y="-590.2" font-family="Arial" font-size="14.00" fill="#666666">[BASE TABLE]</text>
<polygon fill="none" stroke="black" points="43.2,-546 43.2,-576.8 265.68,-576.8 265.68,-546 43.2,-546"/>
<text text-anchor="start" x="50.2" y="-558.2" font-family="Arial" font-size="14.00">group_id </text>
<text text-anchor="start" x="108.58" y="-558.2" font-family="Arial" font-size="14.00" fill="#666666">[char(36)]</text>
<polygon fill="none" stroke="black" points="43.2,-515.2 43.2,-546 265.68,-546 265.68,-515.2 43.2,-515.2"/>
<text text-anchor="start" x="50.2" y="-527.4" font-family="Arial" font-size="14.00">user_id </text>
<text text-anchor="start" x="100.01" y="-527.4" font-family="Arial" font-size="14.00" fill="#666666">[char(36)]</text>
<polygon fill="none" stroke="black" points="43.2,-484.4 43.2,-515.2 265.68,-515.2 265.68,-484.4 43.2,-484.4"/>
<text text-anchor="start" x="50.2" y="-496.6" font-family="Arial" font-size="14.00">key_id </text>
<text text-anchor="start" x="94.56" y="-496.6" font-family="Arial" font-size="14.00" fill="#666666">[char(36)]</text>
<polygon fill="none" stroke="black" points="43.2,-453.6 43.2,-484.4 265.68,-484.4 265.68,-453.6 43.2,-453.6"/>
<text text-anchor="start" x="50.2" y="-465.8" font-family="Arial" font-size="14.00">encrypted_key </text>
<text text-anchor="start" x="145.14" y="-465.8" font-family="Arial" font-size="14.00" fill="#666666">[blob]</text>
<polygon fill="none" stroke="black" points="43.2,-422.8 43.2,-453.6 265.68,-453.6 265.68,-422.8 43.2,-422.8"/>
<text text-anchor="start" x="50.2" y="-435" font-family="Arial" font-size="14.00">created_at </text>
<text text-anchor="start" x="120.25" y="-435" font-family="Arial" font-size="14.00" fill="#666666">[datetime(6)]</text>
</g>
<!-- group_keys&#45;&gt;groups -->
<g id="edge2" class="edge">
<title>group_keys:group_id&#45;&gt;groups:id</title>
<path fill="none" stroke="black" d="M276.67,-560.85C356.11,-551.34 259.09,-421.91 317.44,-348.8 400.97,-244.14 453.78,-215.6 587.69,-215.6"/>
<polygon fill="black" stroke="black" points="277,-560.83 266.76,-556.89 271.67,-561.12 267.35,-561.36 267.35,-561.36 267.35,-561.36 271.67,-561.12 267.26,-565.87 277,-560.83"/>
<text text-anchor="start" x="147.48" y="-545.4" font-family="Arial" font-size="10.00">FOREIGN KEY (group_id) REFERENCES groups (id)</text>
</g>
<!-- group_members -->
<g id="node3" class="node">
<title>group_members</title>
<polygon fill="#efefef" stroke="none" points="369.71,-561.4 369.71,-597 625.17,-597 625.17,-561.4 369.71,-561.4"/>
<polygon fill="none" stroke="black" points="369.71,-561.4 369.71,-597 625.17,-597 625.17,-561.4 369.71,-561.4"/>
<text text-anchor="start" x="376.71" y="-574.8" font-family="Arial Bold" font-size="18.00">group_members</text>
<text text-anchor="start" x="493.68" y="-574.8" font-family="Arial" font-size="14.00">    </text>
<text text-anchor="start" x="524.8" y="-574.8" font-family="Arial" font-size="14.00" fill="#666666">[BASE TABLE]</text>
<polygon fill="none" stroke="black" points="369.71,-530.6 369.71,-561.4 625.17,-561.4 625.17,-530.6 369.71,-530.6"/>
<text text-anchor="start" x="376.71" y="-542.8" font-family="Arial" font-size="14.00">group_id </text>
<text text-anchor="start" x="435.09" y="-542.8" font-family="Arial" font-size="14.00" fill="#666666">[char(36)]</text>
<polygon fill="none" stroke="black" points="369.71,-499.8 369.71,-530.6 625.17,-530.6 625.17,-499.8 369.71,-499.8"/>
<text text-anchor="start" x="376.71" y="-512" font-family="Arial" font-size="14.00">user_id </text>
<text text-anchor="start" x="426.51" y="-512" font-family="Arial" font-size="14.00" fill="#666666">[char(36)]</text>
<polygon fill="none" stroke="black" points="369.71,-469 369.71,-499.8 625.17,-499.8 625.17,-469 369.71,-469"/>
<text text-anchor="start" x="376.71" y="-481.2" font-family="Arial" font-size="14.00">roles </text>
<text text-anchor="start" x="410.94" y="-481.2" font-family="Arial" font-size="14.00" fill="#666666">[longtext]</text>
<polygon fill="none" stroke="black" points="369.71,-438.2 369.71,-469 625.17,-469 625.17,-438.2 369.71,-438.2"/>
<text text-anchor="start" x="376.71" y="-450.4" font-family="Arial" font-size="14.00">joined_at </text>
<text text-anchor="start" x="437.42" y="-450.4" font-family="Arial" font-size="14.00" fill="#666666">[datetime(6)]</text>
</g>
<!-- group_members&#45;&gt;groups -->
<g id="edge3" class="edge">
<title>group_members:group_id&#45;&gt;groups:id</title>
<path fill="none" stroke="black" d="M636.44,-545.2C687.3,-536.39 638.5,-456.89 625.17,-395 616.76,-355.93 597.18,-351.86 588.69,-312.8 579.52,-270.58 544.49,-215.6 587.69,-215.6"/>
<polygon fill="black" stroke="black" points="636.47,-545.19 626.15,-541.49 631.16,-545.61 626.84,-545.95 626.84,-545.95 626.84,-545.95 631.16,-545.61 626.85,-550.46 636.47,-545.19"/>
<text text-anchor="start" x="633.17" y="-556" font-family="Arial" font-size="10.00">FOREIGN KEY (group_id) REFERENCES groups (id)</text>
</g>
<!-- group_permissions -->
<g id="node4" class="node">
<title>group_permissions</title>
<polygon fill="#efefef" stroke="none" points="729.7,-546 729.7,-581.6 1005.18,-581.6 1005.18,-546 729.7,-546"/>
<polygon fill="none" stroke="black" points="729.7,-546 729.7,-581.6 1005.18,-581.6 1005.18,-546 729.7,-546"/>
<text text-anchor="start" x="736.7" y="-559.4" font-family="Arial Bold" font-size="18.00">group_permissions</text>
<text text-anchor="start" x="873.69" y="-559.4" font-family="Arial" font-size="14.00">    </text>
<text text-anchor="start" x="904.81" y="-559.4" font-family="Arial" font-size="14.00" fill="#666666">[BASE TABLE]</text>
<polygon fill="none" stroke="black" points="729.7,-515.2 729.7,-546 1005.18,-546 1005.18,-515.2 729.7,-515.2"/>
<text text-anchor="start" x="736.7" y="-527.4" font-family="Arial" font-size="14.00">group_id </text>
<text text-anchor="start" x="795.08" y="-527.4" font-family="Arial" font-size="14.00" fill="#666666">[char(36)]</text>
<polygon fill="none" stroke="black" points="729.7,-484.4 729.7,-515.2 1005.18,-515.2 1005.18,-484.4 729.7,-484.4"/>
<text text-anchor="start" x="736.7" y="-496.6" font-family="Arial" font-size="14.00">permission </text>
<text text-anchor="start" x="808.28" y="-496.6" font-family="Arial" font-size="14.00" fill="#666666">[varchar(64)]</text>
<polygon fill="none" stroke="black" points="729.7,-453.6 729.7,-484.4 1005.18,-484.4 1005.18,-453.6 729.7,-453.6"/>
<text text-anchor="start" x="736.7" y="-465.8" font-family="Arial" font-size="14.00">created_at </text>
<text text-anchor="start" x="806.74" y="-465.8" font-family="Arial" font-size="14.00" fill="#666666">[datetime(6)]</text>
</g>
<!-- group_permissions&#45;&gt;groups -->
<g id="edge4" class="edge">
<title>group_permissions:group_id&#45;&gt;groups:id</title>
<path fill="none" stroke="black" d="M718.61,-529.67C644.42,-514.59 774.19,-321.43 776.18,-312.8 785.92,-270.71 820.39,-215.6 777.18,-215.6"/>
<polygon fill="black" stroke="black" points="718.41,-529.65 727.95,-535.05 723.72,-530.14 728.03,-530.54 728.03,-530.54 728.03,-530.54 723.72,-530.14 728.78,-526.09 718.41,-529.65"/>
<text text-anchor="start" x="735.7" y="-514.6" font-family="Arial" font-size="10.00">FOREIGN KEY (group_id) REFERENCES groups (id)</text>
</g>
<!-- secrets -->
<g id="node5" class="node">
<title>secrets</title>
<polygon fill="#efefef" stroke="none" points="1109.71,-607.6 1109.71,-643.2 1297.17,-643.2 1297.17,-607.6 1109.71,-607.6"/>
<polygon fill="none" stroke="black" points="1109.71,-607.6 1109.71,-643.2 1297.17,-643.2 1297.17,-607.6 1109.71,-607.6"/>
<text text-anchor="start" x="1116.71" y="-621" font-family="Arial Bold" font-size="18.00">secrets</text>
<text text-anchor="start" x="1165.68" y="-621" font-family="Arial" font-size="14.00">    </text>
<text text-anchor="start" x="1196.8" y="-621" font-family="Arial" font-size="14.00" fill="#666666">[BASE TABLE]</text>
<polygon fill="none" stroke="black" points="1109.71,-576.8 1109.71,-607.6 1297.17,-607.6 1297.17,-576.8 1109.71,-576.8"/>
<text text-anchor="start" x="1116.71" y="-589" font-family="Arial" font-size="14.00">id </text>
<text text-anchor="start" x="1131.49" y="-589" font-family="Arial" font-size="14.00" fill="#666666">[char(36)]</text>
<polygon fill="none" stroke="black" points="1109.71,-546 1109.71,-576.8 1297.17,-576.8 1297.17,-546 1109.71,-546"/>
<text text-anchor="start" x="1116.71" y="-558.2" font-family="Arial" font-size="14.00">group_id </text>
<text text-anchor="start" x="1175.09" y="-558.2" font-family="Arial" font-size="14.00" fill="#666666">[char(36)]</text>
<polygon fill="none" stroke="black" points="1109.71,-515.2 1109.71,-546 1297.17,-546 1297.17,-515.2 1109.71,-515.2"/>
<text text-anchor="start" x="1116.71" y="-527.4" font-family="Arial" font-size="14.00">name </text>
<text text-anchor="start" x="1155.62" y="-527.4" font-family="Arial" font-size="14.00" fill="#666666">[varchar(255)]</text>
<polygon fill="none" stroke="black" points="1109.71,-484.4 1109.71,-515.2 1297.17,-515.2 1297.17,-484.4 1109.71,-484.4"/>
<text text-anchor="start" x="1116.71" y="-496.6" font-family="Arial" font-size="14.00">encrypted_value </text>
<text text-anchor="start" x="1223.33" y="-496.6" font-family="Arial" font-size="14.00" fill="#666666">[blob]</text>
<polygon fill="none" stroke="black" points="1109.71,-453.6 1109.71,-484.4 1297.17,-484.4 1297.17,-453.6 1109.71,-453.6"/>
<text text-anchor="start" x="1116.71" y="-465.8" font-family="Arial" font-size="14.00">created_by </text>
<text text-anchor="start" x="1189.87" y="-465.8" font-family="Arial" font-size="14.00" fill="#666666">[char(36)]</text>
<polygon fill="none" stroke="black" points="1109.71,-422.8 1109.71,-453.6 1297.17,-453.6 1297.17,-422.8 1109.71,-422.8"/>
<text text-anchor="start" x="1116.71" y="-435" font-family="Arial" font-size="14.00">created_at </text>
<text text-anchor="start" x="1186.76" y="-435" font-family="Arial" font-size="14.00" fill="#666666">[datetime(6)]</text>
<polygon fill="none" stroke="black" points="1109.71,-392 1109.71,-422.8 1297.17,-422.8 1297.17,-392 1109.71,-392"/>
<text text-anchor="start" x="1116.71" y="-404.2" font-family="Arial" font-size="14.00">updated_at </text>
<text text-anchor="start" x="1190.67" y="-404.2" font-family="Arial" font-size="14.00" fill="#666666">[datetime(6)]</text>
</g>
<!-- secrets&#45;&gt;groups -->
<g id="edge5" class="edge">
<title>secrets:group_id&#45;&gt;groups:id</title>
<path fill="none" stroke="black" d="M1098.71,-560.84C1019.23,-551.31 1116.42,-421.46 1057.44,-348.8 970.52,-241.73 915.09,-215.6 777.18,-215.6"/>
<polygon fill="black" stroke="black" points="1098.39,-560.83 1108.12,-565.87 1103.72,-561.12 1108.04,-561.36 1108.04,-561.36 1108.04,-561.36 1103.72,-561.12 1108.62,-556.89 1098.39,-560.83"/>
<text text-anchor="start" x="1115.71" y="-571.4" font-family="Arial" font-size="10.00">FOREIGN KEY (group_id) REFERENCES groups (id)</text>
</g>
</g>
</svg>
