<?xml version="1.0" encoding="UTF-8" standalone="no"?>
<!DOCTYPE svg PUBLIC "-//W3C//DTD SVG 1.1//EN"
 "http://www.w3.org/Graphics/SVG/1.1/DTD/svg11.dtd">
<!-- Generated by graphviz version 12.1.2 (20240928.0832)
 -->
<!-- Title: invitations Pages: 1 -->
<svg width="527pt" height="756pt"
 viewBox="0.00 0.00 526.53 756.00" xmlns="http://www.w3.org/2000/svg" xmlns:xlink="http://www.w3.org/1999/xlink">
<g id="graph0" class="graph" transform="scale(1 1) rotate(0) translate(4 752)">
<title>invitations</title>
<polygon fill="white" stroke="none" points="-4,4 -4,-752 522.53,-752 522.53,4 -4,4"/>
<!-- invitations -->
<g id="node1" class="node">
<title>invitations</title>
<polygon fill="#efefef" stroke="none" points="46.2,-666.2 46.2,-701.8 260.69,-701.8 260.69,-666.2 46.2,-666.2"/>
<polygon fill="none" stroke="black" points="46.2,-666.2 46.2,-701.8 260.69,-701.8 260.69,-666.2 46.2,-666.2"/>
<text text-anchor="start" x="53.2" y="-679.6" font-family="Arial Bold" font-size="18.00">invitations</text>
<text text-anchor="start" x="129.2" y="-679.6" font-family="Arial" font-size="14.00">    </text>
<text text-anchor="start" x="160.32" y="-679.6" font-family="Arial" font-size="14.00" fill="#666666">[BASE TABLE]</text>
<polygon fill="none" stroke="black" points="46.2,-635.4 46.2,-666.2 260.69,-666.2 260.69,-635.4 46.2,-635.4"/>
<text text-anchor="start" x="53.2" y="-647.6" font-family="Arial" font-size="14.00">id </text>
<text text-anchor="start" x="67.99" y="-647.6" font-family="Arial" font-size="14.00" fill="#666666">[char(36)]</text>
<polygon fill="none" stroke="black" points="46.2,-604.6 46.2,-635.4 260.69,-635.4 260.69,-604.6 46.2,-604.6"/>
<text text-anchor="start" x="53.2" y="-616.8" font-family="Arial" font-size="14.00">code </text>
<text text-anchor="start" x="87.45" y="-616.8" font-family="Arial" font-size="14.00" fill="#666666">[varchar(20)]</text>
<polygon fill="none" stroke="black" points="46.2,-573.8 46.2,-604.6 260.69,-604.6 260.69,-573.8 46.2,-573.8"/>
<text text-anchor="start" x="53.2" y="-586" font-family="Arial" font-size="14.00">created_by </text>
<text text-anchor="start" x="126.36" y="-586" font-family="Arial" font-size="14.00" fill="#666666">[char(36)]</text>
<polygon fill="none" stroke="black" points="46.2,-543 46.2,-573.8 260.69,-573.8 260.69,-543 46.2,-543"/>
<text text-anchor="start" x="53.2" y="-555.2" font-family="Arial" font-size="14.00">used_by </text>
<text text-anchor="start" x="110.02" y="-555.2" font-family="Arial" font-size="14.00" fill="#666666">[char(36)]</text>
<polygon fill="none" stroke="black" points="46.2,-512.2 46.2,-543 260.69,-543 260.69,-512.2 46.2,-512.2"/>
<text text-anchor="start" x="53.2" y="-524.4" font-family="Arial" font-size="14.00">expires_at </text>
<text text-anchor="start" x="121.68" y="-524.4" font-family="Arial" font-size="14.00" fill="#666666">[datetime(6)]</text>
<polygon fill="none" stroke="black" points="46.2,-481.4 46.2,-512.2 260.69,-512.2 260.69,-481.4 46.2,-481.4"/>
<text text-anchor="start" x="53.2" y="-493.6" font-family="Arial" font-size="14.00">used_at </text>
<text text-anchor="start" x="106.91" y="-493.6" font-family="Arial" font-size="14.00" fill="#666666">[datetime(6)]</text>
<polygon fill="none" stroke="black" points="46.2,-450.6 46.2,-481.4 260.69,-481.4 260.69,-450.6 46.2,-450.6"/>
<text text-anchor="start" x="53.2" y="-462.8" font-family="Arial" font-size="14.00">created_at </text>
<text text-anchor="start" x="123.25" y="-462.8" font-family="Arial" font-size="14.00" fill="#666666">[datetime(6)]</text>
<polygon fill="none" stroke="black" stroke-width="3" points="44.7,-449.1 44.7,-703.3 262.19,-703.3 262.19,-449.1 44.7,-449.1"/>
</g>
<!-- users -->
<g id="node2" class="node">
<title>users</title>
<polygon fill="#efefef" stroke="none" points="51.9,-289.6 51.9,-325.2 254.99,-325.2 254.99,-289.6 51.9,-289.6"/>
<polygon fill="none" stroke="black" points="51.9,-289.6 51.9,-325.2 254.99,-325.2 254.99,-289.6 51.9,-289.6"/>
<text text-anchor="start" x="72.7" y="-303" font-family="Arial Bold" font-size="18.00">users</text>
<text text-anchor="start" x="109.7" y="-303" font-family="Arial" font-size="14.00">    </text>
<text text-anchor="start" x="140.81" y="-303" font-family="Arial" font-size="14.00" fill="#666666">[BASE TABLE]</text>
<polygon fill="none" stroke="black" points="51.9,-258.8 51.9,-289.6 254.99,-289.6 254.99,-258.8 51.9,-258.8"/>
<text text-anchor="start" x="58.9" y="-271" font-family="Arial" font-size="14.00">id </text>
<text text-anchor="start" x="73.68" y="-271" font-family="Arial" font-size="14.00" fill="#666666">[char(36)]</text>
<polygon fill="none" stroke="black" points="51.9,-228 51.9,-258.8 254.99,-258.8 254.99,-228 51.9,-228"/>
<text text-anchor="start" x="58.9" y="-240.2" font-family="Arial" font-size="14.00">trap_id </text>
<text text-anchor="start" x="105.59" y="-240.2" font-family="Arial" font-size="14.00" fill="#666666">[varchar(32)]</text>
<polygon fill="none" stroke="black" points="51.9,-197.2 51.9,-228 254.99,-228 254.99,-197.2 51.9,-197.2"/>
<text text-anchor="start" x="58.9" y="-209.4" font-family="Arial" font-size="14.00">password_hash </text>
<text text-anchor="start" x="160.85" y="-209.4" font-family="Arial" font-size="14.00" fill="#666666">[varchar(255)]</text>
<polygon fill="none" stroke="black" points="51.9,-166.4 51.9,-197.2 254.99,-197.2 254.99,-166.4 51.9,-166.4"/>
<text text-anchor="start" x="58.9" y="-178.6" font-family="Arial" font-size="14.00">email </text>
<text text-anchor="start" x="96.24" y="-178.6" font-family="Arial" font-size="14.00" fill="#666666">[varbinary(512)]</text>
<polygon fill="none" stroke="black" points="51.9,-135.6 51.9,-166.4 254.99,-166.4 254.99,-135.6 51.9,-135.6"/>
<text text-anchor="start" x="58.9" y="-147.8" font-family="Arial" font-size="14.00">personal_info </text>
<text text-anchor="start" x="146.85" y="-147.8" font-family="Arial" font-size="14.00" fill="#666666">[blob]</text>
<polygon fill="none" stroke="black" points="51.9,-104.8 51.9,-135.6 254.99,-135.6 254.99,-104.8 51.9,-104.8"/>
<text text-anchor="start" x="58.9" y="-117" font-family="Arial" font-size="14.00">student_number </text>
<text text-anchor="start" x="163.96" y="-117" font-family="Arial" font-size="14.00" fill="#666666">[varchar(8)]</text>
<polygon fill="none" stroke="black" points="51.9,-74 51.9,-104.8 254.99,-104.8 254.99,-74 51.9,-74"/>
<text text-anchor="start" x="58.9" y="-86.2" font-family="Arial" font-size="14.00">created_at </text>
<text text-anchor="start" x="128.94" y="-86.2" font-family="Arial" font-size="14.00" fill="#666666">[datetime(6)]</text>
<polygon fill="none" stroke="black" points="51.9,-43.2 51.9,-74 254.99,-74 254.99,-43.2 51.9,-43.2"/>
<text text-anchor="start" x="58.9" y="-55.4" font-family="Arial" font-size="14.00">updated_at </text>
<text text-anchor="start" x="132.85" y="-55.4" font-family="Arial" font-size="14.00" fill="#666666">[datetime(6)]</text>
</g>
<!-- invitations&#45;&gt;users -->
<g id="edge1" class="edge">
<title>invitations:created_by&#45;&gt;users:id</title>
<path fill="none" stroke="black" d="M271.42,-586.28C321.88,-554.53 313.55,-274.2 255.99,-274.2"/>
<polygon fill="black" stroke="black" points="271.59,-586.23 260.72,-584.79 266.48,-587.76 262.33,-589.01 262.33,-589.01 262.33,-589.01 266.48,-587.76 263.3,-593.41 271.59,-586.23"/>
<text text-anchor="start" x="268.69" y="-599.2" font-family="Arial" font-size="10.00">FOREIGN KEY (created_by) REFERENCES users (id)</text>
</g>
<!-- invitations&#45;&gt;users -->
<g id="edge2" class="edge">
<title>invitations:created_by&#45;&gt;users:id</title>
<path fill="none" stroke="black" stroke-dasharray="5,2" d="M272.2,-587.2C339.87,-560.52 331.35,-275.37 256.45,-274.2"/>
<polygon fill="black" stroke="black" points="272.29,-587.19 261.6,-584.72 267.05,-588.22 262.81,-589.07 262.81,-589.07 262.81,-589.07 267.05,-588.22 263.35,-593.55 272.29,-587.19"/>
<text text-anchor="start" x="269.15" y="-573.2" font-family="Arial" font-size="10.00">Additional Relation</text>
</g>
<!-- invitations&#45;&gt;users -->
<g id="edge3" class="edge">
<title>invitations:used_by&#45;&gt;users:id</title>
<path fill="none" stroke="black" d="M271.76,-555.77C324.03,-527.12 315.58,-274.2 255.99,-274.2"/>
<polygon fill="black" stroke="black" points="271.69,-555.79 260.87,-553.96 266.53,-557.14 262.34,-558.23 262.34,-558.23 262.34,-558.23 266.53,-557.14 263.15,-562.67 271.69,-555.79"/>
<text text-anchor="start" x="268.69" y="-542.4" font-family="Arial" font-size="10.00">FOREIGN KEY (used_by) REFERENCES users (id)</text>
</g>
</g>
</svg>
