<?xml version="1.0" encoding="UTF-8" standalone="no"?>
<!DOCTYPE svg PUBLIC "-//W3C//DTD SVG 1.1//EN"
 "http://www.w3.org/Graphics/SVG/1.1/DTD/svg11.dtd">
<!-- Generated by graphviz version 12.1.2 (20240928.0832)
 -->
<!-- Title: mails Pages: 1 -->
<svg width="504pt" height="1037pt"
 viewBox="0.00 0.00 503.64 1037.20" xmlns="http://www.w3.org/2000/svg" xmlns:xlink="http://www.w3.org/1999/xlink">
<g id="graph0" class="graph" transform="scale(1 1) rotate(0) translate(4 1033.2)">
<title>mails</title>
<polygon fill="white" stroke="none" points="-4,4 -4,-1033.2 499.64,-1033.2 499.64,4 -4,4"/>
<!-- mails -->
<g id="node1" class="node">
<title>mails</title>
<polygon fill="#efefef" stroke="none" points="59.2,-635.4 59.2,-671 236.69,-671 236.69,-635.4 59.2,-635.4"/>
<polygon fill="none" stroke="black" points="59.2,-635.4 59.2,-671 236.69,-671 236.69,-635.4 59.2,-635.4"/>
<text text-anchor="start" x="66.2" y="-648.8" font-family="Arial Bold" font-size="18.00">mails</text>
<text text-anchor="start" x="105.2" y="-648.8" font-family="Arial" font-size="14.00">    </text>
<text text-anchor="start" x="136.31" y="-648.8" font-family="Arial" font-size="14.00" fill="#666666">[BASE TABLE]</text>
<polygon fill="none" stroke="black" points="59.2,-604.6 59.2,-635.4 236.69,-635.4 236.69,-604.6 59.2,-604.6"/>
<text text-anchor="start" x="66.2" y="-616.8" font-family="Arial" font-size="14.00">id </text>
<text text-anchor="start" x="80.99" y="-616.8" font-family="Arial" font-size="14.00" fill="#666666">[char(36)]</text>
<polygon fill="none" stroke="black" points="59.2,-573.8 59.2,-604.6 236.69,-604.6 236.69,-573.8 59.2,-573.8"/>
<text text-anchor="start" x="66.2" y="-586" font-family="Arial" font-size="14.00">to </text>
<text text-anchor="start" x="81.77" y="-586" font-family="Arial" font-size="14.00" fill="#666666">[text]</text>
<polygon fill="none" stroke="black" points="59.2,-543 59.2,-573.8 236.69,-573.8 236.69,-543 59.2,-543"/>
<text text-anchor="start" x="66.2" y="-555.2" font-family="Arial" font-size="14.00">subject </text>
<text text-anchor="start" x="114.45" y="-555.2" font-family="Arial" font-size="14.00" fill="#666666">[varchar(255)]</text>
<polygon fill="none" stroke="black" points="59.2,-512.2 59.2,-543 236.69,-543 236.69,-512.2 59.2,-512.2"/>
<text text-anchor="start" x="66.2" y="-524.4" font-family="Arial" font-size="14.00">body </text>
<text text-anchor="start" x="100.45" y="-524.4" font-family="Arial" font-size="14.00" fill="#666666">[text]</text>
<polygon fill="none" stroke="black" points="59.2,-481.4 59.2,-512.2 236.69,-512.2 236.69,-481.4 59.2,-481.4"/>
<text text-anchor="start" x="66.2" y="-493.6" font-family="Arial" font-size="14.00">operator_id </text>
<text text-anchor="start" x="140.92" y="-493.6" font-family="Arial" font-size="14.00" fill="#666666">[char(36)]</text>
<polygon fill="none" stroke="black" points="59.2,-450.6 59.2,-481.4 236.69,-481.4 236.69,-450.6 59.2,-450.6"/>
<text text-anchor="start" x="66.2" y="-462.8" font-family="Arial" font-size="14.00">created_at </text>
<text text-anchor="start" x="136.25" y="-462.8" font-family="Arial" font-size="14.00" fill="#666666">[datetime(6)]</text>
<polygon fill="none" stroke="black" stroke-width="3" points="57.7,-449.1 57.7,-672.5 238.19,-672.5 238.19,-449.1 57.7,-449.1"/>
</g>
<!-- users -->
<g id="node3" class="node">
<title>users</title>
<polygon fill="#efefef" stroke="none" points="46.4,-289.6 46.4,-325.2 249.49,-325.2 249.49,-289.6 46.4,-289.6"/>
<polygon fill="none" stroke="black" points="46.4,-289.6 46.4,-325.2 249.49,-325.2 249.49,-289.6 46.4,-289.6"/>
<text text-anchor="start" x="67.2" y="-303" font-family="Arial Bold" font-size="18.00">users</text>
<text text-anchor="start" x="104.2" y="-303" font-family="Arial" font-size="14.00">    </text>
<text text-anchor="start" x="135.31" y="-303" font-family="Arial" font-size="14.00" fill="#666666">[BASE TABLE]</text>
<polygon fill="none" stroke="black" points="46.4,-258.8 46.4,-289.6 249.49,-289.6 249.49,-258.8 46.4,-258.8"/>
<text text-anchor="start" x="53.4" y="-271" font-family="Arial" font-size="14.00">id </text>
<text text-anchor="start" x="68.18" y="-271" font-family="Arial" font-size="14.00" fill="#666666">[char(36)]</text>
<polygon fill="none" stroke="black" points="46.4,-228 46.4,-258.8 249.49,-258.8 249.49,-228 46.4,-228"/>
<text text-anchor="start" x="53.4" y="-240.2" font-family="Arial" font-size="14.00">trap_id </text>
<text text-anchor="start" x="100.09" y="-240.2" font-family="Arial" font-size="14.00" fill="#666666">[varchar(32)]</text>
<polygon fill="none" stroke="black" points="46.4,-197.2 46.4,-228 249.49,-228 249.49,-197.2 46.4,-197.2"/>
<text text-anchor="start" x="53.4" y="-209.4" font-family="Arial" font-size="14.00">password_hash </text>
<text text-anchor="start" x="155.35" y="-209.4" font-family="Arial" font-size="14.00" fill="#666666">[varchar(255)]</text>
<polygon fill="none" stroke="black" points="46.4,-166.4 46.4,-197.2 249.49,-197.2 249.49,-166.4 46.4,-166.4"/>
<text text-anchor="start" x="53.4" y="-178.6" font-family="Arial" font-size="14.00">email </text>
<text text-anchor="start" x="90.74" y="-178.6" font-family="Arial" font-size="14.00" fill="#666666">[varbinary(512)]</text>
<polygon fill="none" stroke="black" points="46.4,-135.6 46.4,-166.4 249.49,-166.4 249.49,-135.6 46.4,-135.6"/>
<text text-anchor="start" x="53.4" y="-147.8" font-family="Arial" font-size="14.00">personal_info </text>
<text text-anchor="start" x="141.35" y="-147.8" font-family="Arial" font-size="14.00" fill="#666666">[blob]</text>
<polygon fill="none" stroke="black" points="46.4,-104.8 46.4,-135.6 249.49,-135.6 249.49,-104.8 46.4,-104.8"/>
<text text-anchor="start" x="53.4" y="-117" font-family="Arial" font-size="14.00">student_number </text>
<text text-anchor="start" x="158.46" y="-117" font-family="Arial" font-size="14.00" fill="#666666">[varchar(8)]</text>
<polygon fill="none" stroke="black" points="46.4,-74 46.4,-104.8 249.49,-104.8 249.49,-74 46.4,-74"/>
<text text-anchor="start" x="53.4" y="-86.2" font-family="Arial" font-size="14.00">created_at </text>
<text text-anchor="start" x="123.44" y="-86.2" font-family="Arial" font-size="14.00" fill="#666666">[datetime(6)]</text>
<polygon fill="none" stroke="black" points="46.4,-43.2 46.4,-74 249.49,-74 249.49,-43.2 46.4,-43.2"/>
<text text-anchor="start" x="53.4" y="-55.4" font-family="Arial" font-size="14.00">updated_at </text>
<text text-anchor="start" x="127.35" y="-55.4" font-family="Arial" font-size="14.00" fill="#666666">[datetime(6)]</text>
</g>
<!-- mails&#45;&gt;users -->
<g id="edge2" class="edge">
<title>mails:operator_id&#45;&gt;users:id</title>
<path fill="none" stroke="black" d="M247.89,-495.81C328.63,-479.75 337.07,-274.2 250.49,-274.2"/>
<polygon fill="black" stroke="black" points="247.97,-495.8 237.58,-492.29 242.66,-496.32 238.35,-496.74 238.35,-496.74 238.35,-496.74 242.66,-496.32 238.46,-501.25 247.97,-495.8"/>
<text text-anchor="start" x="244.69" y="-506.8" font-family="Arial" font-size="10.00">FOREIGN KEY (operator_id) REFERENCES users (id)</text>
</g>
<!-- mails&#45;&gt;users -->
<g id="edge3" class="edge">
<title>mails:operator_id&#45;&gt;users:id</title>
<path fill="none" stroke="black" stroke-dasharray="5,2" d="M248.42,-496.04C346.42,-481.89 354.88,-274.62 250.81,-274.2"/>
<polygon fill="black" stroke="black" points="248.31,-496.05 238.01,-492.29 242.99,-496.44 238.67,-496.75 238.67,-496.75 238.67,-496.75 242.99,-496.44 238.66,-501.26 248.31,-496.05"/>
<text text-anchor="start" x="245" y="-480.8" font-family="Arial" font-size="10.00">Additional Relation</text>
</g>
<!-- mail_logs -->
<g id="node2" class="node">
<title>mail_logs</title>
<polygon fill="#efefef" stroke="none" points="43.2,-950.4 43.2,-986 252.69,-986 252.69,-950.4 43.2,-950.4"/>
<polygon fill="none" stroke="black" points="43.2,-950.4 43.2,-986 252.69,-986 252.69,-950.4 43.2,-950.4"/>
<text text-anchor="start" x="50.2" y="-963.8" font-family="Arial Bold" font-size="18.00">mail_logs</text>
<text text-anchor="start" x="121.2" y="-963.8" font-family="Arial" font-size="14.00">    </text>
<text text-anchor="start" x="152.32" y="-963.8" font-family="Arial" font-size="14.00" fill="#666666">[BASE TABLE]</text>
<polygon fill="none" stroke="black" points="43.2,-919.6 43.2,-950.4 252.69,-950.4 252.69,-919.6 43.2,-919.6"/>
<text text-anchor="start" x="50.2" y="-931.8" font-family="Arial" font-size="14.00">id </text>
<text text-anchor="start" x="64.99" y="-931.8" font-family="Arial" font-size="14.00" fill="#666666">[char(36)]</text>
<polygon fill="none" stroke="black" points="43.2,-888.8 43.2,-919.6 252.69,-919.6 252.69,-888.8 43.2,-888.8"/>
<text text-anchor="start" x="50.2" y="-901" font-family="Arial" font-size="14.00">mail_id </text>
<text text-anchor="start" x="98.44" y="-901" font-family="Arial" font-size="14.00" fill="#666666">[char(36)]</text>
<polygon fill="none" stroke="black" points="43.2,-858 43.2,-888.8 252.69,-888.8 252.69,-858 43.2,-858"/>
<text text-anchor="start" x="50.2" y="-870.2" font-family="Arial" font-size="14.00">status </text>
<text text-anchor="start" x="91.44" y="-870.2" font-family="Arial" font-size="14.00" fill="#666666">[varchar(32)]</text>
<polygon fill="none" stroke="black" points="43.2,-827.2 43.2,-858 252.69,-858 252.69,-827.2 43.2,-827.2"/>
<text text-anchor="start" x="50.2" y="-839.4" font-family="Arial" font-size="14.00">error </text>
<text text-anchor="start" x="83.65" y="-839.4" font-family="Arial" font-size="14.00" fill="#666666">[text]</text>
<polygon fill="none" stroke="black" points="43.2,-796.4 43.2,-827.2 252.69,-827.2 252.69,-796.4 43.2,-796.4"/>
<text text-anchor="start" x="50.2" y="-808.6" font-family="Arial" font-size="14.00">created_at </text>
<text text-anchor="start" x="120.25" y="-808.6" font-family="Arial" font-size="14.00" fill="#666666">[datetime(6)]</text>
</g>
<!-- mail_logs&#45;&gt;mails -->
<g id="edge1" class="edge">
<title>mail_logs:mail_id&#45;&gt;mails:id</title>
<path fill="none" stroke="black" d="M264.09,-903.53C379.2,-888.33 360.62,-620 237.69,-620"/>
<polygon fill="black" stroke="black" points="264,-903.54 253.73,-899.69 258.68,-903.88 254.35,-904.16 254.35,-904.16 254.35,-904.16 258.68,-903.88 254.31,-908.67 264,-903.54"/>
<text text-anchor="start" x="260.69" y="-914.2" font-family="Arial" font-size="10.00">FOREIGN KEY (mail_id) REFERENCES mails (id)</text>
</g>
</g>
</svg>
