<?xml version="1.0" encoding="UTF-8" standalone="no"?>
<!DOCTYPE svg PUBLIC "-//W3C//DTD SVG 1.1//EN"
 "http://www.w3.org/Graphics/SVG/1.1/DTD/svg11.dtd">
<!-- Generated by graphviz version 12.1.2 (20240928.0832)
 -->
<!-- Title: secrets Pages: 1 -->
<svg width="797pt" height="756pt"
 viewBox="0.00 0.00 796.51 756.00" xmlns="http://www.w3.org/2000/svg" xmlns:xlink="http://www.w3.org/1999/xlink">
<g id="graph0" class="graph" transform="scale(1 1) rotate(0) translate(4 752)">
<title>secrets</title>
<polygon fill="white" stroke="none" points="-4,4 -4,-752 792.51,-752 792.51,4 -4,4"/>
<!-- secrets -->
<g id="node1" class="node">
<title>secrets</title>
<polygon fill="#efefef" stroke="none" points="343.21,-666.2 343.21,-701.8 530.68,-701.8 530.68,-666.2 343.21,-666.2"/>
<polygon fill="none" stroke="black" points="343.21,-666.2 343.21,-701.8 530.68,-701.8 530.68,-666.2 343.21,-666.2"/>
<text text-anchor="start" x="350.21" y="-679.6" font-family="Arial Bold" font-size="18.00">secrets</text>
<text text-anchor="start" x="399.19" y="-679.6" font-family="Arial" font-size="14.00">    </text>
<text text-anchor="start" x="430.3" y="-679.6" font-family="Arial" font-size="14.00" fill="#666666">[BASE TABLE]</text>
<polygon fill="none" stroke="black" points="343.21,-635.4 343.21,-666.2 530.68,-666.2 530.68,-635.4 343.21,-635.4"/>
<text text-anchor="start" x="350.21" y="-647.6" font-family="Arial" font-size="14.00">id </text>
<text text-anchor="start" x="365" y="-647.6" font-family="Arial" font-size="14.00" fill="#666666">[char(36)]</text>
<polygon fill="none" stroke="black" points="343.21,-604.6 343.21,-635.4 530.68,-635.4 530.68,-604.6 343.21,-604.6"/>
<text text-anchor="start" x="350.21" y="-616.8" font-family="Arial" font-size="14.00">group_id </text>
<text text-anchor="start" x="408.59" y="-616.8" font-family="Arial" font-size="14.00" fill="#666666">[char(36)]</text>
<polygon fill="none" stroke="black" points="343.21,-573.8 343.21,-604.6 530.68,-604.6 530.68,-573.8 343.21,-573.8"/>
<text text-anchor="start" x="350.21" y="-586" font-family="Arial" font-size="14.00">name </text>
<text text-anchor="start" x="389.12" y="-586" font-family="Arial" font-size="14.00" fill="#666666">[varchar(255)]</text>
<polygon fill="none" stroke="black" points="343.21,-543 343.21,-573.8 530.68,-573.8 530.68,-543 343.21,-543"/>
<text text-anchor="start" x="350.21" y="-555.2" font-family="Arial" font-size="14.00">encrypted_value </text>
<text text-anchor="start" x="456.84" y="-555.2" font-family="Arial" font-size="14.00" fill="#666666">[blob]</text>
<polygon fill="none" stroke="black" points="343.21,-512.2 343.21,-543 530.68,-543 530.68,-512.2 343.21,-512.2"/>
<text text-anchor="start" x="350.21" y="-524.4" font-family="Arial" font-size="14.00">created_by </text>
<text text-anchor="start" x="423.37" y="-524.4" font-family="Arial" font-size="14.00" fill="#666666">[char(36)]</text>
<polygon fill="none" stroke="black" points="343.21,-481.4 343.21,-512.2 530.68,-512.2 530.68,-481.4 343.21,-481.4"/>
<text text-anchor="start" x="350.21" y="-493.6" font-family="Arial" font-size="14.00">created_at </text>
<text text-anchor="start" x="420.26" y="-493.6" font-family="Arial" font-size="14.00" fill="#666666">[datetime(6)]</text>
<polygon fill="none" stroke="black" points="343.21,-450.6 343.21,-481.4 530.68,-481.4 530.68,-450.6 343.21,-450.6"/>
<text text-anchor="start" x="350.21" y="-462.8" font-family="Arial" font-size="14.00">updated_at </text>
<text text-anchor="start" x="424.17" y="-462.8" font-family="Arial" font-size="14.00" fill="#666666">[datetime(6)]</text>
<polygon fill="none" stroke="black" stroke-width="3" points="341.71,-449.1 341.71,-703.3 532.18,-703.3 532.18,-449.1 341.71,-449.1"/>
</g>
<!-- groups -->
<g id="node2" class="node">
<title>groups</title>
<polygon fill="#efefef" stroke="none" points="43.2,-258.8 43.2,-294.4 230.69,-294.4 230.69,-258.8 43.2,-258.8"/>
<polygon fill="none" stroke="black" points="43.2,-258.8 43.2,-294.4 230.69,-294.4 230.69,-258.8 43.2,-258.8"/>
<text text-anchor="start" x="50.2" y="-272.2" font-family="Arial Bold" font-size="18.00">groups</text>
<text text-anchor="start" x="99.2" y="-272.2" font-family="Arial" font-size="14.00">    </text>
<text text-anchor="start" x="130.32" y="-272.2" font-family="Arial" font-size="14.00" fill="#666666">[BASE TABLE]</text>
<polygon fill="none" stroke="black" points="43.2,-228 43.2,-258.8 230.69,-258.8 230.69,-228 43.2,-228"/>
<text text-anchor="start" x="50.2" y="-240.2" font-family="Arial" font-size="14.00">id </text>
<text text-anchor="start" x="64.99" y="-240.2" font-family="Arial" font-size="14.00" fill="#666666">[char(36)]</text>
<polygon fill="none" stroke="black" points="43.2,-197.2 43.2,-228 230.69,-228 230.69,-197.2 43.2,-197.2"/>
<text text-anchor="start" x="50.2" y="-209.4" font-family="Arial" font-size="14.00">name </text>
<text text-anchor="start" x="89.11" y="-209.4" font-family="Arial" font-size="14.00" fill="#666666">[varchar(255)]</text>
<polygon fill="none" stroke="black" points="43.2,-166.4 43.2,-197.2 230.69,-197.2 230.69,-166.4 43.2,-166.4"/>
<text text-anchor="start" x="50.2" y="-178.6" font-family="Arial" font-size="14.00">description </text>
<text text-anchor="start" x="121.79" y="-178.6" font-family="Arial" font-size="14.00" fill="#666666">[text]</text>
<polygon fill="none" stroke="black" points="43.2,-135.6 43.2,-166.4 230.69,-166.4 230.69,-135.6 43.2,-135.6"/>
<text text-anchor="start" x="50.2" y="-147.8" font-family="Arial" font-size="14.00">parent_id </text>
<text text-anchor="start" x="112.47" y="-147.8" font-family="Arial" font-size="14.00" fill="#666666">[char(36)]</text>
<polygon fill="none" stroke="black" points="43.2,-104.8 43.2,-135.6 230.69,-135.6 230.69,-104.8 43.2,-104.8"/>
<text text-anchor="start" x="50.2" y="-117" font-family="Arial" font-size="14.00">created_at </text>
<text text-anchor="start" x="120.25" y="-117" font-family="Arial" font-size="14.00" fill="#666666">[datetime(6)]</text>
<polygon fill="none" stroke="black" points="43.2,-74 43.2,-104.8 230.69,-104.8 230.69,-74 43.2,-74"/>
<text text-anchor="start" x="50.2" y="-86.2" font-family="Arial" font-size="14.00">updated_at </text>
<text text-anchor="start" x="124.16" y="-86.2" font-family="Arial" font-size="14.00" fill="#666666">[datetime(6)]</text>
</g>
<!-- secrets&#45;&gt;groups -->
<g id="edge1" class="edge">
<title>secrets:group_id&#45;&gt;groups:id</title>
<path fill="none" stroke="black" d="M332.22,-618.15C259.98,-589.74 315.33,-243.4 231.69,-243.4"/>
<polygon fill="black" stroke="black" points="332.05,-618.12 341.07,-624.36 337.3,-619.09 341.56,-619.88 341.56,-619.88 341.56,-619.88 337.3,-619.09 342.7,-615.51 332.05,-618.12"/>
<text text-anchor="start" x="96.81" y="-630" font-family="Arial" font-size="10.00">FOREIGN KEY (group_id) REFERENCES groups (id)</text>
</g>
<!-- users -->
<g id="node3" class="node">
<title>users</title>
<polygon fill="#efefef" stroke="none" points="335.4,-289.6 335.4,-325.2 538.49,-325.2 538.49,-289.6 335.4,-289.6"/>
<polygon fill="none" stroke="black" points="335.4,-289.6 335.4,-325.2 538.49,-325.2 538.49,-289.6 335.4,-289.6"/>
<text text-anchor="start" x="356.2" y="-303" font-family="Arial Bold" font-size="18.00">users</text>
<text text-anchor="start" x="393.2" y="-303" font-family="Arial" font-size="14.00">    </text>
<text text-anchor="start" x="424.31" y="-303" font-family="Arial" font-size="14.00" fill="#666666">[BASE TABLE]</text>
<polygon fill="none" stroke="black" points="335.4,-258.8 335.4,-289.6 538.49,-289.6 538.49,-258.8 335.4,-258.8"/>
<text text-anchor="start" x="342.4" y="-271" font-family="Arial" font-size="14.00">id </text>
<text text-anchor="start" x="357.18" y="-271" font-family="Arial" font-size="14.00" fill="#666666">[char(36)]</text>
<polygon fill="none" stroke="black" points="335.4,-228 335.4,-258.8 538.49,-258.8 538.49,-228 335.4,-228"/>
<text text-anchor="start" x="342.4" y="-240.2" font-family="Arial" font-size="14.00">trap_id </text>
<text text-anchor="start" x="389.09" y="-240.2" font-family="Arial" font-size="14.00" fill="#666666">[varchar(32)]</text>
<polygon fill="none" stroke="black" points="335.4,-197.2 335.4,-228 538.49,-228 538.49,-197.2 335.4,-197.2"/>
<text text-anchor="start" x="342.4" y="-209.4" font-family="Arial" font-size="14.00">password_hash </text>
<text text-anchor="start" x="444.35" y="-209.4" font-family="Arial" font-size="14.00" fill="#666666">[varchar(255)]</text>
<polygon fill="none" stroke="black" points="335.4,-166.4 335.4,-197.2 538.49,-197.2 538.49,-166.4 335.4,-166.4"/>
<text text-anchor="start" x="342.4" y="-178.6" font-family="Arial" font-size="14.00">email </text>
<text text-anchor="start" x="379.74" y="-178.6" font-family="Arial" font-size="14.00" fill="#666666">[varbinary(512)]</text>
<polygon fill="none" stroke="black" points="335.4,-135.6 335.4,-166.4 538.49,-166.4 538.49,-135.6 335.4,-135.6"/>
<text text-anchor="start" x="342.4" y="-147.8" font-family="Arial" font-size="14.00">personal_info </text>
<text text-anchor="start" x="430.35" y="-147.8" font-family="Arial" font-size="14.00" fill="#666666">[blob]</text>
<polygon fill="none" stroke="black" points="335.4,-104.8 335.4,-135.6 538.49,-135.6 538.49,-104.8 335.4,-104.8"/>
<text text-anchor="start" x="342.4" y="-117" font-family="Arial" font-size="14.00">student_number </text>
<text text-anchor="start" x="447.46" y="-117" font-family="Arial" font-size="14.00" fill="#666666">[varchar(8)]</text>
<polygon fill="none" stroke="black" points="335.4,-74 335.4,-104.8 538.49,-104.8 538.49,-74 335.4,-74"/>
<text text-anchor="start" x="342.4" y="-86.2" font-family="Arial" font-size="14.00">created_at </text>
<text text-anchor="start" x="412.44" y="-86.2" font-family="Arial" font-size="14.00" fill="#666666">[datetime(6)]</text>
<polygon fill="none" stroke="black" points="335.4,-43.2 335.4,-74 538.49,-74 538.49,-43.2 335.4,-43.2"/>
<text text-anchor="start" x="342.4" y="-55.4" font-family="Arial" font-size="14.00">updated_at </text>
<text text-anchor="start" x="416.35" y="-55.4" font-family="Arial" font-size="14.00" fill="#666666">[datetime(6)]</text>
</g>
<!-- secrets&#45;&gt;users -->
<g id="edge2" class="edge">
<title>secrets:created_by&#45;&gt;users:id</title>
<path fill="none" stroke="black" d="M541.07,-524.02C579.84,-493.22 583.5,-274.2 539.49,-274.2"/>
<polygon fill="black" stroke="black" points="541.33,-523.92 530.38,-523.28 536.35,-525.82 532.3,-527.36 532.3,-527.36 532.3,-527.36 536.35,-525.82 533.59,-531.69 541.33,-523.92"/>
<text text-anchor="start" x="538.68" y="-537.6" font-family="Arial" font-size="10.00">FOREIGN KEY (created_by) REFERENCES users (id)</text>
</g>
<!-- secrets&#45;&gt;users -->
<g id="edge3" class="edge">
<title>secrets:created_by&#45;&gt;users:id</title>
<path fill="none" stroke="black" stroke-dasharray="5,2" d="M542.18,-525.27C597.55,-499.86 601.13,-275.13 539.87,-274.2"/>
<polygon fill="black" stroke="black" points="542.13,-525.28 531.38,-523.14 536.93,-526.48 532.71,-527.45 532.71,-527.45 532.71,-527.45 536.93,-526.48 533.39,-531.91 542.13,-525.28"/>
<text text-anchor="start" x="539.06" y="-511.6" font-family="Arial" font-size="10.00">Additional Relation</text>
</g>
</g>
</svg>
