<?xml version="1.0" encoding="UTF-8" standalone="no"?>
<!DOCTYPE svg PUBLIC "-//W3C//DTD SVG 1.1//EN"
 "http://www.w3.org/Graphics/SVG/1.1/DTD/svg11.dtd">
<!-- Generated by graphviz version 12.1.2 (20240928.0832)
 -->
<!-- Title: secret_logs Pages: 1 -->
<svg width="320pt" height="290pt"
 viewBox="0.00 0.00 319.86 290.00" xmlns="http://www.w3.org/2000/svg" xmlns:xlink="http://www.w3.org/1999/xlink">
<g id="graph0" class="graph" transform="scale(1 1) rotate(0) translate(4 286)">
<title>secret_logs</title>
<polygon fill="white" stroke="none" points="-4,4 -4,-286 315.86,-286 315.86,4 -4,4"/>
<!-- secret_logs -->
<g id="node1" class="node">
<title>secret_logs</title>
<polygon fill="#efefef" stroke="none" points="46.2,-200.2 46.2,-235.8 265.66,-235.8 265.66,-200.2 46.2,-200.2"/>
<polygon fill="none" stroke="black" points="46.2,-200.2 46.2,-235.8 265.66,-235.8 265.66,-200.2 46.2,-200.2"/>
<text text-anchor="start" x="53.2" y="-213.6" font-family="Arial Bold" font-size="18.00">secret_logs</text>
<text text-anchor="start" x="134.17" y="-213.6" font-family="Arial" font-size="14.00">    </text>
<text text-anchor="start" x="165.29" y="-213.6" font-family="Arial" font-size="14.00" fill="#666666">[BASE TABLE]</text>
<polygon fill="none" stroke="black" points="46.2,-169.4 46.2,-200.2 265.66,-200.2 265.66,-169.4 46.2,-169.4"/>
<text text-anchor="start" x="53.2" y="-181.6" font-family="Arial" font-size="14.00">id </text>
<text text-anchor="start" x="67.99" y="-181.6" font-family="Arial" font-size="14.00" fill="#666666">[char(36)]</text>
<polygon fill="none" stroke="black" points="46.2,-138.6 46.2,-169.4 265.66,-169.4 265.66,-138.6 46.2,-138.6"/>
<text text-anchor="start" x="53.2" y="-150.8" font-family="Arial" font-size="14.00">secret_id </text>
<text text-anchor="start" x="113.9" y="-150.8" font-family="Arial" font-size="14.00" fill="#666666">[char(36)]</text>
<polygon fill="none" stroke="black" points="46.2,-107.8 46.2,-138.6 265.66,-138.6 265.66,-107.8 46.2,-107.8"/>
<text text-anchor="start" x="53.2" y="-120" font-family="Arial" font-size="14.00">action </text>
<text text-anchor="start" x="94.45" y="-120" font-family="Arial" font-size="14.00" fill="#666666">[varchar(32)]</text>
<polygon fill="none" stroke="black" points="46.2,-77 46.2,-107.8 265.66,-107.8 265.66,-77 46.2,-77"/>
<text text-anchor="start" x="53.2" y="-89.2" font-family="Arial" font-size="14.00">actor_id </text>
<text text-anchor="start" x="106.9" y="-89.2" font-family="Arial" font-size="14.00" fill="#666666">[char(36)]</text>
<polygon fill="none" stroke="black" points="46.2,-46.2 46.2,-77 265.66,-77 265.66,-46.2 46.2,-46.2"/>
<text text-anchor="start" x="53.2" y="-58.4" font-family="Arial" font-size="14.00">created_at </text>
<text text-anchor="start" x="123.25" y="-58.4" font-family="Arial" font-size="14.00" fill="#666666">[datetime(6)]</text>
<polygon fill="none" stroke="black" stroke-width="3" points="44.7,-44.7 44.7,-237.3 267.16,-237.3 267.16,-44.7 44.7,-44.7"/>
</g>
</g>
</svg>
