<?xml version="1.0" encoding="UTF-8" standalone="no"?>
<!DOCTYPE svg PUBLIC "-//W3C//DTD SVG 1.1//EN"
 "http://www.w3.org/Graphics/SVG/1.1/DTD/svg11.dtd">
<!-- Generated by graphviz version 12.1.2 (20240928.0832)
 -->
<!-- Title: users Pages: 1 -->
<svg width="3245pt" height="787pt"
 viewBox="0.00 0.00 3245.37 786.80" xmlns="http://www.w3.org/2000/svg" xmlns:xlink="http://www.w3.org/1999/xlink">
<g id="graph0" class="graph" transform="scale(1 1) rotate(0) translate(4 782.8)">
<title>users</title>
<polygon fill="white" stroke="none" points="-4,4 -4,-782.8 3241.37,-782.8 3241.37,4 -4,4"/>
<!-- users -->
<g id="node1" class="node">
<title>users</title>
<polygon fill="#efefef" stroke="none" points="1321.89,-292.6 1321.89,-328.2 1524.99,-328.2 1524.99,-292.6 1321.89,-292.6"/>
<polygon fill="none" stroke="black" points="1321.89,-292.6 1321.89,-328.2 1524.99,-328.2 1524.99,-292.6 1321.89,-292.6"/>
<text text-anchor="start" x="1342.7" y="-306" font-family="Arial Bold" font-size="18.00">users</text>
<text text-anchor="start" x="1379.69" y="-306" font-family="Arial" font-size="14.00">    </text>
<text text-anchor="start" x="1410.81" y="-306" font-family="Arial" font-size="14.00" fill="#666666">[BASE TABLE]</text>
<polygon fill="none" stroke="black" points="1321.89,-261.8 1321.89,-292.6 1524.99,-292.6 1524.99,-261.8 1321.89,-261.8"/>
<text text-anchor="start" x="1328.89" y="-274" font-family="Arial" font-size="14.00">id </text>
<text text-anchor="start" x="1343.68" y="-274" font-family="Arial" font-size="14.00" fill="#666666">[char(36)]</text>
<polygon fill="none" stroke="black" points="1321.89,-231 1321.89,-261.8 1524.99,-261.8 1524.99,-231 1321.89,-231"/>
<text text-anchor="start" x="1328.89" y="-243.2" font-family="Arial" font-size="14.00">trap_id </text>
<text text-anchor="start" x="1375.59" y="-243.2" font-family="Arial" font-size="14.00" fill="#666666">[varchar(32)]</text>
<polygon fill="none" stroke="black" points="1321.89,-200.2 1321.89,-231 1524.99,-231 1524.99,-200.2 1321.89,-200.2"/>
<text text-anchor="start" x="1328.89" y="-212.4" font-family="Arial" font-size="14.00">password_hash </text>
<text text-anchor="start" x="1430.84" y="-212.4" font-family="Arial" font-size="14.00" fill="#666666">[varchar(255)]</text>
<polygon fill="none" stroke="black" points="1321.89,-169.4 1321.89,-200.2 1524.99,-200.2 1524.99,-169.4 1321.89,-169.4"/>
<text text-anchor="start" x="1328.89" y="-181.6" font-family="Arial" font-size="14.00">email </text>
<text text-anchor="start" x="1366.24" y="-181.6" font-family="Arial" font-size="14.00" fill="#666666">[varbinary(512)]</text>
<polygon fill="none" stroke="black" points="1321.89,-138.6 1321.89,-169.4 1524.99,-169.4 1524.99,-138.6 1321.89,-138.6"/>
<text text-anchor="start" x="1328.89" y="-150.8" font-family="Arial" font-size="14.00">personal_info </text>
<text text-anchor="start" x="1416.84" y="-150.8" font-family="Arial" font-size="14.00" fill="#666666">[blob]</text>
<polygon fill="none" stroke="black" points="1321.89,-107.8 1321.89,-138.6 1524.99,-138.6 1524.99,-107.8 1321.89,-107.8"/>
<text text-anchor="start" x="1328.89" y="-120" font-family="Arial" font-size="14.00">student_number </text>
<text text-anchor="start" x="1433.96" y="-120" font-family="Arial" font-size="14.00" fill="#666666">[varchar(8)]</text>
<polygon fill="none" stroke="black" points="1321.89,-77 1321.89,-107.8 1524.99,-107.8 1524.99,-77 1321.89,-77"/>
<text text-anchor="start" x="1328.89" y="-89.2" font-family="Arial" font-size="14.00">created_at </text>
<text text-anchor="start" x="1398.94" y="-89.2" font-family="Arial" font-size="14.00" fill="#666666">[datetime(6)]</text>
<polygon fill="none" stroke="black" points="1321.89,-46.2 1321.89,-77 1524.99,-77 1524.99,-46.2 1321.89,-46.2"/>
<text text-anchor="start" x="1328.89" y="-58.4" font-family="Arial" font-size="14.00">updated_at </text>
<text text-anchor="start" x="1402.85" y="-58.4" font-family="Arial" font-size="14.00" fill="#666666">[datetime(6)]</text>
<polygon fill="none" stroke="black" stroke-width="3" points="1320.39,-44.7 1320.39,-329.7 1526.49,-329.7 1526.49,-44.7 1320.39,-44.7"/>
</g>
<!-- group_keys -->
<g id="node2" class="node">
<title>group_keys</title>
<polygon fill="#efefef" stroke="none" points="43.2,-653.8 43.2,-689.4 265.68,-689.4 265.68,-653.8 43.2,-653.8"/>
<polygon fill="none" stroke="black" points="43.2,-653.8 43.2,-689.4 265.68,-689.4 265.68,-653.8 43.2,-653.8"/>
<text text-anchor="start" x="50.2" y="-667.2" font-family="Arial Bold" font-size="18.00">group_keys</text>
<text text-anchor="start" x="134.19" y="-667.2" font-family="Arial" font-size="14.00">    </text>
<text text-anchor="start" x="165.31" y="-667.2" font-family="Arial" font-size="14.00" fill="#666666">[BASE TABLE]</text>
<polygon fill="none" stroke="black" points="43.2,-623 43.2,-653.8 265.68,-653.8 265.68,-623 43.2,-623"/>
<text text-anchor="start" x="50.2" y="-635.2" font-family="Arial" font-size="14.00">group_id </text>
<text text-anchor="start" x="108.58" y="-635.2" font-family="Arial" font-size="14.00" fill="#666666">[char(36)]</text>
<polygon fill="none" stroke="black" points="43.2,-592.2 43.2,-623 265.68,-623 265.68,-592.2 43.2,-592.2"/>
<text text-anchor="start" x="50.2" y="-604.4" font-family="Arial" font-size="14.00">user_id </text>
<text text-anchor="start" x="100.01" y="-604.4" font-family="Arial" font-size="14.00" fill="#666666">[char(36)]</text>
<polygon fill="none" stroke="black" points="43.2,-561.4 43.2,-592.2 265.68,-592.2 265.68,-561.4 43.2,-561.4"/>
<text text-anchor="start" x="50.2" y="-573.6" font-family="Arial" font-size="14.00">key_id </text>
<text text-anchor="start" x="94.56" y="-573.6" font-family="Arial" font-size="14.00" fill="#666666">[char(36)]</text>
<polygon fill="none" stroke="black" points="43.2,-530.6 43.2,-561.4 265.68,-561.4 265.68,-530.6 43.2,-530.6"/>
<text text-anchor="start" x="50.2" y="-542.8" font-family="Arial" font-size="14.00">encrypted_key </text>
<text text-anchor="start" x="145.14" y="-542.8" font-family="Arial" font-size="14.00" fill="#666666">[blob]</text>
<polygon fill="none" stroke="black" points="43.2,-499.8 43.2,-530.6 265.68,-530.6 265.68,-499.8 43.2,-499.8"/>
<text text-anchor="start" x="50.2" y="-512" font-family="Arial" font-size="14.00">created_at </text>
<text text-anchor="start" x="120.25" y="-512" font-family="Arial" font-size="14.00" fill="#666666">[datetime(6)]</text>
</g>
<!-- group_keys&#45;&gt;users -->
<g id="edge1" class="edge">
<title>group_keys:user_id&#45;&gt;users:id</title>
<path fill="none" stroke="black" d="M276.84,-606.92C348.66,-596.48 252.5,-467.98 317.44,-410.4 401.59,-335.78 1208.42,-277.2 1320.89,-277.2"/>
<polygon fill="black" stroke="black" points="276.99,-606.91 266.71,-603.09 271.67,-607.27 267.35,-607.56 267.35,-607.56 267.35,-607.56 271.67,-607.27 267.31,-612.07 276.99,-606.91"/>
<text text-anchor="start" x="153.6" y="-591.6" font-family="Arial" font-size="10.00">FOREIGN KEY (user_id) REFERENCES users (id)</text>
</g>
<!-- group_members -->
<g id="node3" class="node">
<title>group_members</title>
<polygon fill="#efefef" stroke="none" points="369.71,-638.4 369.71,-674 625.17,-674 625.17,-638.4 369.71,-638.4"/>
<polygon fill="none" stroke="black" points="369.71,-638.4 369.71,-674 625.17,-674 625.17,-638.4 369.71,-638.4"/>
<text text-anchor="start" x="376.71" y="-651.8" font-family="Arial Bold" font-size="18.00">group_members</text>
<text text-anchor="start" x="493.68" y="-651.8" font-family="Arial" font-size="14.00">    </text>
<text text-anchor="start" x="524.8" y="-651.8" font-family="Arial" font-size="14.00" fill="#666666">[BASE TABLE]</text>
<polygon fill="none" stroke="black" points="369.71,-607.6 369.71,-638.4 625.17,-638.4 625.17,-607.6 369.71,-607.6"/>
<text text-anchor="start" x="376.71" y="-619.8" font-family="Arial" font-size="14.00">group_id </text>
<text text-anchor="start" x="435.09" y="-619.8" font-family="Arial" font-size="14.00" fill="#666666">[char(36)]</text>
<polygon fill="none" stroke="black" points="369.71,-576.8 369.71,-607.6 625.17,-607.6 625.17,-576.8 369.71,-576.8"/>
<text text-anchor="start" x="376.71" y="-589" font-family="Arial" font-size="14.00">user_id </text>
<text text-anchor="start" x="426.51" y="-589" font-family="Arial" font-size="14.00" fill="#666666">[char(36)]</text>
<polygon fill="none" stroke="black" points="369.71,-546 369.71,-576.8 625.17,-576.8 625.17,-546 369.71,-546"/>
<text text-anchor="start" x="376.71" y="-558.2" font-family="Arial" font-size="14.00">roles </text>
<text text-anchor="start" x="410.94" y="-558.2" font-family="Arial" font-size="14.00" fill="#666666">[longtext]</text>
<polygon fill="none" stroke="black" points="369.71,-515.2 369.71,-546 625.17,-546 625.17,-515.2 369.71,-515.2"/>
<text text-anchor="start" x="376.71" y="-527.4" font-family="Arial" font-size="14.00">joined_at </text>
<text text-anchor="start" x="437.42" y="-527.4" font-family="Arial" font-size="14.00" fill="#666666">[datetime(6)]</text>
</g>
<!-- group_members&#45;&gt;users -->
<g id="edge2" class="edge">
<title>group_members:user_id&#45;&gt;users:id</title>
<path fill="none" stroke="black" d="M636.44,-591.46C701.98,-581.14 618.77,-465.06 677.44,-410.4 784.28,-310.86 1174.87,-277.2 1320.89,-277.2"/>
<polygon fill="black" stroke="black" points="636.48,-591.46 626.18,-587.69 631.16,-591.84 626.84,-592.15 626.84,-592.15 626.84,-592.15 631.16,-591.84 626.83,-596.66 636.48,-591.46"/>
<text text-anchor="start" x="513.09" y="-576.2" font-family="Arial" font-size="10.00">FOREIGN KEY (user_id) REFERENCES users (id)</text>
</g>
<!-- invitations -->
<g id="node4" class="node">
<title>invitations</title>
<polygon fill="#efefef" stroke="none" points="729.19,-684.6 729.19,-720.2 943.68,-720.2 943.68,-684.6 729.19,-684.6"/>
<polygon fill="none" stroke="black" points="729.19,-684.6 729.19,-720.2 943.68,-720.2 943.68,-684.6 729.19,-684.6"/>
<text text-anchor="start" x="736.19" y="-698" font-family="Arial Bold" font-size="18.00">invitations</text>
<text text-anchor="start" x="812.19" y="-698" font-family="Arial" font-size="14.00">    </text>
<text text-anchor="start" x="843.31" y="-698" font-family="Arial" font-size="14.00" fill="#666666">[BASE TABLE]</text>
<polygon fill="none" stroke="black" points="729.19,-653.8 729.19,-684.6 943.68,-684.6 943.68,-653.8 729.19,-653.8"/>
<text text-anchor="start" x="736.19" y="-666" font-family="Arial" font-size="14.00">id </text>
<text text-anchor="start" x="750.98" y="-666" font-family="Arial" font-size="14.00" fill="#666666">[char(36)]</text>
<polygon fill="none" stroke="black" points="729.19,-623 729.19,-653.8 943.68,-653.8 943.68,-623 729.19,-623"/>
<text text-anchor="start" x="736.19" y="-635.2" font-family="Arial" font-size="14.00">code </text>
<text text-anchor="start" x="770.44" y="-635.2" font-family="Arial" font-size="14.00" fill="#666666">[varchar(20)]</text>
<polygon fill="none" stroke="black" points="729.19,-592.2 729.19,-623 943.68,-623 943.68,-592.2 729.19,-592.2"/>
<text text-anchor="start" x="736.19" y="-604.4" font-family="Arial" font-size="14.00">created_by </text>
<text text-anchor="start" x="809.35" y="-604.4" font-family="Arial" font-size="14.00" fill="#666666">[char(36)]</text>
<polygon fill="none" stroke="black" points="729.19,-561.4 729.19,-592.2 943.68,-592.2 943.68,-561.4 729.19,-561.4"/>
<text text-anchor="start" x="736.19" y="-573.6" font-family="Arial" font-size="14.00">used_by </text>
<text text-anchor="start" x="793.01" y="-573.6" font-family="Arial" font-size="14.00" fill="#666666">[char(36)]</text>
<polygon fill="none" stroke="black" points="729.19,-530.6 729.19,-561.4 943.68,-561.4 943.68,-530.6 729.19,-530.6"/>
<text text-anchor="start" x="736.19" y="-542.8" font-family="Arial" font-size="14.00">expires_at </text>
<text text-anchor="start" x="804.68" y="-542.8" font-family="Arial" font-size="14.00" fill="#666666">[datetime(6)]</text>
<polygon fill="none" stroke="black" points="729.19,-499.8 729.19,-530.6 943.68,-530.6 943.68,-499.8 729.19,-499.8"/>
<text text-anchor="start" x="736.19" y="-512" font-family="Arial" font-size="14.00">used_at </text>
<text text-anchor="start" x="789.9" y="-512" font-family="Arial" font-size="14.00" fill="#666666">[datetime(6)]</text>
<polygon fill="none" stroke="black" points="729.19,-469 729.19,-499.8 943.68,-499.8 943.68,-469 729.19,-469"/>
<text text-anchor="start" x="736.19" y="-481.2" font-family="Arial" font-size="14.00">created_at </text>
<text text-anchor="start" x="806.24" y="-481.2" font-family="Arial" font-size="14.00" fill="#666666">[datetime(6)]</text>
</g>
<!-- invitations&#45;&gt;users -->
<g id="edge3" class="edge">
<title>invitations:created_by&#45;&gt;users:id</title>
<path fill="none" stroke="black" d="M954.89,-606.96C1027.31,-597.12 938.4,-475.81 995.44,-410.4 1098.16,-292.6 1164.6,-277.2 1320.89,-277.2"/>
<polygon fill="black" stroke="black" points="955,-606.96 944.74,-603.09 949.67,-607.29 945.35,-607.56 945.35,-607.56 945.35,-607.56 949.67,-607.29 945.3,-612.07 955,-606.96"/>
<text text-anchor="start" x="951.68" y="-617.6" font-family="Arial" font-size="10.00">FOREIGN KEY (created_by) REFERENCES users (id)</text>
</g>
<!-- invitations&#45;&gt;users -->
<g id="edge4" class="edge">
<title>invitations:used_by&#45;&gt;users:id</title>
<path fill="none" stroke="black" d="M954.93,-576.04C1014.63,-566.25 945.89,-464.75 995.44,-410.4 1100.73,-294.9 1164.6,-277.2 1320.89,-277.2"/>
<polygon fill="black" stroke="black" points="954.99,-576.03 944.68,-572.29 949.67,-576.43 945.35,-576.75 945.35,-576.75 945.35,-576.75 949.67,-576.43 945.35,-581.26 954.99,-576.03"/>
<text text-anchor="start" x="951.68" y="-586.8" font-family="Arial" font-size="10.00">FOREIGN KEY (used_by) REFERENCES users (id)</text>
</g>
<!-- invitations&#45;&gt;users -->
<g id="edge11" class="edge">
<title>invitations:created_by&#45;&gt;users:id</title>
<path fill="none" stroke="black" stroke-dasharray="5,2" d="M954.89,-606.96C1027.31,-597.12 938.4,-475.81 995.44,-410.4 1098.16,-292.6 1164.6,-277.2 1320.89,-277.2"/>
<polygon fill="black" stroke="black" points="955,-606.96 944.74,-603.09 949.67,-607.29 945.35,-607.56 945.35,-607.56 945.35,-607.56 949.67,-607.29 945.3,-612.07 955,-606.96"/>
<text text-anchor="start" x="854.29" y="-617.6" font-family="Arial" font-size="10.00">Additional Relation</text>
</g>
<!-- mails -->
<g id="node5" class="node">
<title>mails</title>
<polygon fill="#efefef" stroke="none" points="1047.7,-669.2 1047.7,-704.8 1225.18,-704.8 1225.18,-669.2 1047.7,-669.2"/>
<polygon fill="none" stroke="black" points="1047.7,-669.2 1047.7,-704.8 1225.18,-704.8 1225.18,-669.2 1047.7,-669.2"/>
<text text-anchor="start" x="1054.7" y="-682.6" font-family="Arial Bold" font-size="18.00">mails</text>
<text text-anchor="start" x="1093.69" y="-682.6" font-family="Arial" font-size="14.00">    </text>
<text text-anchor="start" x="1124.81" y="-682.6" font-family="Arial" font-size="14.00" fill="#666666">[BASE TABLE]</text>
<polygon fill="none" stroke="black" points="1047.7,-638.4 1047.7,-669.2 1225.18,-669.2 1225.18,-638.4 1047.7,-638.4"/>
<text text-anchor="start" x="1054.7" y="-650.6" font-family="Arial" font-size="14.00">id </text>
<text text-anchor="start" x="1069.48" y="-650.6" font-family="Arial" font-size="14.00" fill="#666666">[char(36)]</text>
<polygon fill="none" stroke="black" points="1047.7,-607.6 1047.7,-638.4 1225.18,-638.4 1225.18,-607.6 1047.7,-607.6"/>
<text text-anchor="start" x="1054.7" y="-619.8" font-family="Arial" font-size="14.00">to </text>
<text text-anchor="start" x="1070.26" y="-619.8" font-family="Arial" font-size="14.00" fill="#666666">[text]</text>
<polygon fill="none" stroke="black" points="1047.7,-576.8 1047.7,-607.6 1225.18,-607.6 1225.18,-576.8 1047.7,-576.8"/>
<text text-anchor="start" x="1054.7" y="-589" font-family="Arial" font-size="14.00">subject </text>
<text text-anchor="start" x="1102.94" y="-589" font-family="Arial" font-size="14.00" fill="#666666">[varchar(255)]</text>
<polygon fill="none" stroke="black" points="1047.7,-546 1047.7,-576.8 1225.18,-576.8 1225.18,-546 1047.7,-546"/>
<text text-anchor="start" x="1054.7" y="-558.2" font-family="Arial" font-size="14.00">body </text>
<text text-anchor="start" x="1088.94" y="-558.2" font-family="Arial" font-size="14.00" fill="#666666">[text]</text>
<polygon fill="none" stroke="black" points="1047.7,-515.2 1047.7,-546 1225.18,-546 1225.18,-515.2 1047.7,-515.2"/>
<text text-anchor="start" x="1054.7" y="-527.4" font-family="Arial" font-size="14.00">operator_id </text>
<text text-anchor="start" x="1129.41" y="-527.4" font-family="Arial" font-size="14.00" fill="#666666">[char(36)]</text>
<polygon fill="none" stroke="black" points="1047.7,-484.4 1047.7,-515.2 1225.18,-515.2 1225.18,-484.4 1047.7,-484.4"/>
<text text-anchor="start" x="1054.7" y="-496.6" font-family="Arial" font-size="14.00">created_at </text>
<text text-anchor="start" x="1124.74" y="-496.6" font-family="Arial" font-size="14.00" fill="#666666">[datetime(6)]</text>
</g>
<!-- mails&#45;&gt;users -->
<g id="edge5" class="edge">
<title>mails:operator_id&#45;&gt;users:id</title>
<path fill="none" stroke="black" d="M1235.89,-527.02C1274.18,-496.22 1256.63,-277.2 1320.89,-277.2"/>
<polygon fill="black" stroke="black" points="1235.88,-527.02 1224.94,-526.26 1230.87,-528.87 1226.81,-530.37 1226.81,-530.37 1226.81,-530.37 1230.87,-528.87 1228.05,-534.71 1235.88,-527.02"/>
<text text-anchor="start" x="1233.18" y="-540.6" font-family="Arial" font-size="10.00">FOREIGN KEY (operator_id) REFERENCES users (id)</text>
</g>
<!-- mails&#45;&gt;users -->
<g id="edge14" class="edge">
<title>mails:operator_id&#45;&gt;users:id</title>
<path fill="none" stroke="black" stroke-dasharray="5,2" d="M1236.66,-528.43C1292.63,-503.79 1272.64,-278.13 1320.59,-277.2"/>
<polygon fill="black" stroke="black" points="1236.69,-528.42 1225.96,-526.13 1231.47,-529.54 1227.24,-530.46 1227.24,-530.46 1227.24,-530.46 1231.47,-529.54 1227.86,-534.93 1236.69,-528.42"/>
<text text-anchor="start" x="1233.59" y="-514.6" font-family="Arial" font-size="10.00">Additional Relation</text>
</g>
<!-- secrets -->
<g id="node6" class="node">
<title>secrets</title>
<polygon fill="#efefef" stroke="none" points="1329.71,-684.6 1329.71,-720.2 1517.17,-720.2 1517.17,-684.6 1329.71,-684.6"/>
<polygon fill="none" stroke="black" points="1329.71,-684.6 1329.71,-720.2 1517.17,-720.2 1517.17,-684.6 1329.71,-684.6"/>
<text text-anchor="start" x="1336.71" y="-698" font-family="Arial Bold" font-size="18.00">secrets</text>
<text text-anchor="start" x="1385.68" y="-698" font-family="Arial" font-size="14.00">    </text>
<text text-anchor="start" x="1416.8" y="-698" font-family="Arial" font-size="14.00" fill="#666666">[BASE TABLE]</text>
<polygon fill="none" stroke="black" points="1329.71,-653.8 1329.71,-684.6 1517.17,-684.6 1517.17,-653.8 1329.71,-653.8"/>
<text text-anchor="start" x="1336.71" y="-666" font-family="Arial" font-size="14.00">id </text>
<text text-anchor="start" x="1351.49" y="-666" font-family="Arial" font-size="14.00" fill="#666666">[char(36)]</text>
<polygon fill="none" stroke="black" points="1329.71,-623 1329.71,-653.8 1517.17,-653.8 1517.17,-623 1329.71,-623"/>
<text text-anchor="start" x="1336.71" y="-635.2" font-family="Arial" font-size="14.00">group_id </text>
<text text-anchor="start" x="1395.09" y="-635.2" font-family="Arial" font-size="14.00" fill="#666666">[char(36)]</text>
<polygon fill="none" stroke="black" points="1329.71,-592.2 1329.71,-623 1517.17,-623 1517.17,-592.2 1329.71,-592.2"/>
<text text-anchor="start" x="1336.71" y="-604.4" font-family="Arial" font-size="14.00">name </text>
<text text-anchor="start" x="1375.62" y="-604.4" font-family="Arial" font-size="14.00" fill="#666666">[varchar(255)]</text>
<polygon fill="none" stroke="black" points="1329.71,-561.4 1329.71,-592.2 1517.17,-592.2 1517.17,-561.4 1329.71,-561.4"/>
<text text-anchor="start" x="1336.71" y="-573.6" font-family="Arial" font-size="14.00">encrypted_value </text>
<text text-anchor="start" x="1443.33" y="-573.6" font-family="Arial" font-size="14.00" fill="#666666">[blob]</text>
<polygon fill="none" stroke="black" points="1329.71,-530.6 1329.71,-561.4 1517.17,-561.4 1517.17,-530.6 1329.71,-530.6"/>
<text text-anchor="start" x="1336.71" y="-542.8" font-family="Arial" font-size="14.00">created_by </text>
<text text-anchor="start" x="1409.87" y="-542.8" font-family="Arial" font-size="14.00" fill="#666666">[char(36)]</text>
<polygon fill="none" stroke="black" points="1329.71,-499.8 1329.71,-530.6 1517.17,-530.6 1517.17,-499.8 1329.71,-499.8"/>
<text text-anchor="start" x="1336.71" y="-512" font-family="Arial" font-size="14.00">created_at </text>
<text text-anchor="start" x="1406.76" y="-512" font-family="Arial" font-size="14.00" fill="#666666">[datetime(6)]</text>
<polygon fill="none" stroke="black" points="1329.71,-469 1329.71,-499.8 1517.17,-499.8 1517.17,-469 1329.71,-469"/>
<text text-anchor="start" x="1336.71" y="-481.2" font-family="Arial" font-size="14.00">updated_at </text>
<text text-anchor="start" x="1410.67" y="-481.2" font-family="Arial" font-size="14.00" fill="#666666">[datetime(6)]</text>
</g>
<!-- secrets&#45;&gt;users -->
<g id="edge6" class="edge">
<title>secrets:created_by&#45;&gt;users:id</title>
<path fill="none" stroke="black" d="M1527.97,-542.4C1569.72,-510.51 1573.28,-277.2 1525.99,-277.2"/>
<polygon fill="black" stroke="black" points="1527.87,-542.44 1516.93,-541.66 1522.86,-544.28 1518.8,-545.77 1518.8,-545.77 1518.8,-545.77 1522.86,-544.28 1520.03,-550.11 1527.87,-542.44"/>
<text text-anchor="start" x="1525.17" y="-556" font-family="Arial" font-size="10.00">FOREIGN KEY (created_by) REFERENCES users (id)</text>
</g>
<!-- secrets&#45;&gt;users -->
<g id="edge12" class="edge">
<title>secrets:created_by&#45;&gt;users:id</title>
<path fill="none" stroke="black" stroke-dasharray="5,2" d="M1528.5,-543.85C1587.42,-518.55 1591.12,-278.19 1526.39,-277.2"/>
<polygon fill="black" stroke="black" points="1528.67,-543.81 1517.95,-541.53 1523.46,-544.94 1519.23,-545.86 1519.23,-545.86 1519.23,-545.86 1523.46,-544.94 1519.85,-550.32 1528.67,-543.81"/>
<text text-anchor="start" x="1525.57" y="-530" font-family="Arial" font-size="10.00">Additional Relation</text>
</g>
<!-- user_keys -->
<g id="node7" class="node">
<title>user_keys</title>
<polygon fill="#efefef" stroke="none" points="1621.2,-684.6 1621.2,-720.2 1831.67,-720.2 1831.67,-684.6 1621.2,-684.6"/>
<polygon fill="none" stroke="black" points="1621.2,-684.6 1621.2,-720.2 1831.67,-720.2 1831.67,-684.6 1621.2,-684.6"/>
<text text-anchor="start" x="1628.2" y="-698" font-family="Arial Bold" font-size="18.00">user_keys</text>
<text text-anchor="start" x="1700.19" y="-698" font-family="Arial" font-size="14.00">    </text>
<text text-anchor="start" x="1731.3" y="-698" font-family="Arial" font-size="14.00" fill="#666666">[BASE TABLE]</text>
<polygon fill="none" stroke="black" points="1621.2,-653.8 1621.2,-684.6 1831.67,-684.6 1831.67,-653.8 1621.2,-653.8"/>
<text text-anchor="start" x="1628.2" y="-666" font-family="Arial" font-size="14.00">user_id </text>
<text text-anchor="start" x="1678.01" y="-666" font-family="Arial" font-size="14.00" fill="#666666">[char(36)]</text>
<polygon fill="none" stroke="black" points="1621.2,-623 1621.2,-653.8 1831.67,-653.8 1831.67,-623 1621.2,-623"/>
<text text-anchor="start" x="1628.2" y="-635.2" font-family="Arial" font-size="14.00">key_id </text>
<text text-anchor="start" x="1672.56" y="-635.2" font-family="Arial" font-size="14.00" fill="#666666">[char(36)]</text>
<polygon fill="none" stroke="black" points="1621.2,-592.2 1621.2,-623 1831.67,-623 1831.67,-592.2 1621.2,-592.2"/>
<text text-anchor="start" x="1628.2" y="-604.4" font-family="Arial" font-size="14.00">public_key </text>
<text text-anchor="start" x="1698.24" y="-604.4" font-family="Arial" font-size="14.00" fill="#666666">[varbinary(4096)]</text>
<polygon fill="none" stroke="black" points="1621.2,-561.4 1621.2,-592.2 1831.67,-592.2 1831.67,-561.4 1621.2,-561.4"/>
<text text-anchor="start" x="1628.2" y="-573.6" font-family="Arial" font-size="14.00">encrypted_private_key </text>
<text text-anchor="start" x="1772.95" y="-573.6" font-family="Arial" font-size="14.00" fill="#666666">[blob]</text>
<polygon fill="none" stroke="black" points="1621.2,-530.6 1621.2,-561.4 1831.67,-561.4 1831.67,-530.6 1621.2,-530.6"/>
<text text-anchor="start" x="1628.2" y="-542.8" font-family="Arial" font-size="14.00">algorithm </text>
<text text-anchor="start" x="1689.67" y="-542.8" font-family="Arial" font-size="14.00" fill="#666666">[varchar(32)]</text>
<polygon fill="none" stroke="black" points="1621.2,-499.8 1621.2,-530.6 1831.67,-530.6 1831.67,-499.8 1621.2,-499.8"/>
<text text-anchor="start" x="1628.2" y="-512" font-family="Arial" font-size="14.00">is_active </text>
<text text-anchor="start" x="1686.56" y="-512" font-family="Arial" font-size="14.00" fill="#666666">[tinyint(1)]</text>
<polygon fill="none" stroke="black" points="1621.2,-469 1621.2,-499.8 1831.67,-499.8 1831.67,-469 1621.2,-469"/>
<text text-anchor="start" x="1628.2" y="-481.2" font-family="Arial" font-size="14.00">created_at </text>
<text text-anchor="start" x="1698.25" y="-481.2" font-family="Arial" font-size="14.00" fill="#666666">[datetime(6)]</text>
</g>
<!-- user_keys&#45;&gt;users -->
<g id="edge7" class="edge">
<title>user_keys:user_id&#45;&gt;users:id</title>
<path fill="none" stroke="black" d="M1610.04,-667.28C1537.29,-637.7 1611.9,-277.2 1525.99,-277.2"/>
<polygon fill="black" stroke="black" points="1610.05,-667.28 1619.04,-673.56 1615.29,-668.27 1619.55,-669.08 1619.55,-669.08 1619.55,-669.08 1615.29,-668.27 1620.71,-664.72 1610.05,-667.28"/>
<text text-anchor="start" x="1567.16" y="-653.2" font-family="Arial" font-size="10.00">FOREIGN KEY (user_id) REFERENCES users (id)</text>
</g>
<!-- user_links -->
<g id="node8" class="node">
<title>user_links</title>
<polygon fill="#efefef" stroke="none" points="1936.2,-684.6 1936.2,-720.2 2148.68,-720.2 2148.68,-684.6 1936.2,-684.6"/>
<polygon fill="none" stroke="black" points="1936.2,-684.6 1936.2,-720.2 2148.68,-720.2 2148.68,-684.6 1936.2,-684.6"/>
<text text-anchor="start" x="1943.2" y="-698" font-family="Arial Bold" font-size="18.00">user_links</text>
<text text-anchor="start" x="2017.19" y="-698" font-family="Arial" font-size="14.00">    </text>
<text text-anchor="start" x="2048.31" y="-698" font-family="Arial" font-size="14.00" fill="#666666">[BASE TABLE]</text>
<polygon fill="none" stroke="black" points="1936.2,-653.8 1936.2,-684.6 2148.68,-684.6 2148.68,-653.8 1936.2,-653.8"/>
<text text-anchor="start" x="1943.2" y="-666" font-family="Arial" font-size="14.00">user_id </text>
<text text-anchor="start" x="1993" y="-666" font-family="Arial" font-size="14.00" fill="#666666">[char(36)]</text>
<polygon fill="none" stroke="black" points="1936.2,-623 1936.2,-653.8 2148.68,-653.8 2148.68,-623 1936.2,-623"/>
<text text-anchor="start" x="1943.2" y="-635.2" font-family="Arial" font-size="14.00">service </text>
<text text-anchor="start" x="1991.43" y="-635.2" font-family="Arial" font-size="14.00" fill="#666666">[varchar(64)]</text>
<polygon fill="none" stroke="black" points="1936.2,-592.2 1936.2,-623 2148.68,-623 2148.68,-592.2 1936.2,-592.2"/>
<text text-anchor="start" x="1943.2" y="-604.4" font-family="Arial" font-size="14.00">external_id </text>
<text text-anchor="start" x="2015.58" y="-604.4" font-family="Arial" font-size="14.00" fill="#666666">[varchar(255)]</text>
<polygon fill="none" stroke="black" points="1936.2,-561.4 1936.2,-592.2 2148.68,-592.2 2148.68,-561.4 1936.2,-561.4"/>
<text text-anchor="start" x="1943.2" y="-573.6" font-family="Arial" font-size="14.00">account_name </text>
<text text-anchor="start" x="2038.93" y="-573.6" font-family="Arial" font-size="14.00" fill="#666666">[varchar(255)]</text>
<polygon fill="none" stroke="black" points="1936.2,-530.6 1936.2,-561.4 2148.68,-561.4 2148.68,-530.6 1936.2,-530.6"/>
<text text-anchor="start" x="1943.2" y="-542.8" font-family="Arial" font-size="14.00">access_token </text>
<text text-anchor="start" x="2032.69" y="-542.8" font-family="Arial" font-size="14.00" fill="#666666">[varbinary(1024)]</text>
<polygon fill="none" stroke="black" points="1936.2,-499.8 1936.2,-530.6 2148.68,-530.6 2148.68,-499.8 1936.2,-499.8"/>
<text text-anchor="start" x="1943.2" y="-512" font-family="Arial" font-size="14.00">created_at </text>
<text text-anchor="start" x="2013.24" y="-512" font-family="Arial" font-size="14.00" fill="#666666">[datetime(6)]</text>
<polygon fill="none" stroke="black" points="1936.2,-469 1936.2,-499.8 2148.68,-499.8 2148.68,-469 1936.2,-469"/>
<text text-anchor="start" x="1943.2" y="-481.2" font-family="Arial" font-size="14.00">updated_at </text>
<text text-anchor="start" x="2017.15" y="-481.2" font-family="Arial" font-size="14.00" fill="#666666">[datetime(6)]</text>
</g>
<!-- user_links&#45;&gt;users -->
<g id="edge8" class="edge">
<title>user_links:user_id&#45;&gt;users:id</title>
<path fill="none" stroke="black" d="M1924.94,-668.71C1826.54,-658.68 1957.14,-496.89 1883.44,-410.4 1773.48,-281.36 1695.53,-277.2 1525.99,-277.2"/>
<polygon fill="black" stroke="black" points="1924.87,-668.71 1934.65,-673.68 1930.2,-668.96 1934.53,-669.17 1934.53,-669.17 1934.53,-669.17 1930.2,-668.96 1935.08,-664.69 1924.87,-668.71"/>
<text text-anchor="start" x="1882.16" y="-653.2" font-family="Arial" font-size="10.00">FOREIGN KEY (user_id) REFERENCES users (id)</text>
</g>
<!-- user_statuses -->
<g id="node9" class="node">
<title>user_statuses</title>
<polygon fill="#efefef" stroke="none" points="2252.7,-638.4 2252.7,-674 2486.18,-674 2486.18,-638.4 2252.7,-638.4"/>
<polygon fill="none" stroke="black" points="2252.7,-638.4 2252.7,-674 2486.18,-674 2486.18,-638.4 2252.7,-638.4"/>
<text text-anchor="start" x="2259.7" y="-651.8" font-family="Arial Bold" font-size="18.00">user_statuses</text>
<text text-anchor="start" x="2354.69" y="-651.8" font-family="Arial" font-size="14.00">    </text>
<text text-anchor="start" x="2385.8" y="-651.8" font-family="Arial" font-size="14.00" fill="#666666">[BASE TABLE]</text>
<polygon fill="none" stroke="black" points="2252.7,-607.6 2252.7,-638.4 2486.18,-638.4 2486.18,-607.6 2252.7,-607.6"/>
<text text-anchor="start" x="2259.7" y="-619.8" font-family="Arial" font-size="14.00">user_id </text>
<text text-anchor="start" x="2309.51" y="-619.8" font-family="Arial" font-size="14.00" fill="#666666">[char(36)]</text>
<polygon fill="none" stroke="black" points="2252.7,-576.8 2252.7,-607.6 2486.18,-607.6 2486.18,-576.8 2252.7,-576.8"/>
<text text-anchor="start" x="2259.7" y="-589" font-family="Arial" font-size="14.00">status </text>
<text text-anchor="start" x="2300.94" y="-589" font-family="Arial" font-size="14.00" fill="#666666">[varchar(64)]</text>
<polygon fill="none" stroke="black" points="2252.7,-546 2252.7,-576.8 2486.18,-576.8 2486.18,-546 2252.7,-546"/>
<text text-anchor="start" x="2259.7" y="-558.2" font-family="Arial" font-size="14.00">detail </text>
<text text-anchor="start" x="2297.06" y="-558.2" font-family="Arial" font-size="14.00" fill="#666666">[varchar(255)]</text>
<polygon fill="none" stroke="black" points="2252.7,-515.2 2252.7,-546 2486.18,-546 2486.18,-515.2 2252.7,-515.2"/>
<text text-anchor="start" x="2259.7" y="-527.4" font-family="Arial" font-size="14.00">created_at </text>
<text text-anchor="start" x="2329.75" y="-527.4" font-family="Arial" font-size="14.00" fill="#666666">[datetime(6)]</text>
</g>
<!-- user_statuses&#45;&gt;users -->
<g id="edge9" class="edge">
<title>user_statuses:user_id&#45;&gt;users:id</title>
<path fill="none" stroke="black" d="M2241.74,-622.41C2162.86,-612.32 2267.98,-475.19 2200.44,-410.4 2090.19,-304.64 1678.76,-277.2 1525.99,-277.2"/>
<polygon fill="black" stroke="black" points="2241.39,-622.39 2251.1,-627.47 2246.71,-622.7 2251.03,-622.96 2251.03,-622.96 2251.03,-622.96 2246.71,-622.7 2251.63,-618.49 2241.39,-622.39"/>
<text text-anchor="start" x="2198.66" y="-607" font-family="Arial" font-size="10.00">FOREIGN KEY (user_id) REFERENCES users (id)</text>
</g>
<!-- webhooks -->
<g id="node10" class="node">
<title>webhooks</title>
<polygon fill="#efefef" stroke="none" points="2590.7,-700 2590.7,-735.6 2802.18,-735.6 2802.18,-700 2590.7,-700"/>
<polygon fill="none" stroke="black" points="2590.7,-700 2590.7,-735.6 2802.18,-735.6 2802.18,-700 2590.7,-700"/>
<text text-anchor="start" x="2597.7" y="-713.4" font-family="Arial Bold" font-size="18.00">webhooks</text>
<text text-anchor="start" x="2670.69" y="-713.4" font-family="Arial" font-size="14.00">    </text>
<text text-anchor="start" x="2701.81" y="-713.4" font-family="Arial" font-size="14.00" fill="#666666">[BASE TABLE]</text>
<polygon fill="none" stroke="black" points="2590.7,-669.2 2590.7,-700 2802.18,-700 2802.18,-669.2 2590.7,-669.2"/>
<text text-anchor="start" x="2597.7" y="-681.4" font-family="Arial" font-size="14.00">id </text>
<text text-anchor="start" x="2612.48" y="-681.4" font-family="Arial" font-size="14.00" fill="#666666">[char(36)]</text>
<polygon fill="none" stroke="black" points="2590.7,-638.4 2590.7,-669.2 2802.18,-669.2 2802.18,-638.4 2590.7,-638.4"/>
<text text-anchor="start" x="2597.7" y="-650.6" font-family="Arial" font-size="14.00">name </text>
<text text-anchor="start" x="2636.61" y="-650.6" font-family="Arial" font-size="14.00" fill="#666666">[varchar(255)]</text>
<polygon fill="none" stroke="black" points="2590.7,-607.6 2590.7,-638.4 2802.18,-638.4 2802.18,-607.6 2590.7,-607.6"/>
<text text-anchor="start" x="2597.7" y="-619.8" font-family="Arial" font-size="14.00">url </text>
<text text-anchor="start" x="2617.15" y="-619.8" font-family="Arial" font-size="14.00" fill="#666666">[varchar(2048)]</text>
<polygon fill="none" stroke="black" points="2590.7,-576.8 2590.7,-607.6 2802.18,-607.6 2802.18,-576.8 2590.7,-576.8"/>
<text text-anchor="start" x="2597.7" y="-589" font-family="Arial" font-size="14.00">secret </text>
<text text-anchor="start" x="2639.71" y="-589" font-family="Arial" font-size="14.00" fill="#666666">[varbinary(512)]</text>
<polygon fill="none" stroke="black" points="2590.7,-546 2590.7,-576.8 2802.18,-576.8 2802.18,-546 2590.7,-546"/>
<text text-anchor="start" x="2597.7" y="-558.2" font-family="Arial" font-size="14.00">owner_id </text>
<text text-anchor="start" x="2658.4" y="-558.2" font-family="Arial" font-size="14.00" fill="#666666">[char(36)]</text>
<polygon fill="none" stroke="black" points="2590.7,-515.2 2590.7,-546 2802.18,-546 2802.18,-515.2 2590.7,-515.2"/>
<text text-anchor="start" x="2597.7" y="-527.4" font-family="Arial" font-size="14.00">is_active </text>
<text text-anchor="start" x="2656.06" y="-527.4" font-family="Arial" font-size="14.00" fill="#666666">[tinyint(1)]</text>
<polygon fill="none" stroke="black" points="2590.7,-484.4 2590.7,-515.2 2802.18,-515.2 2802.18,-484.4 2590.7,-484.4"/>
<text text-anchor="start" x="2597.7" y="-496.6" font-family="Arial" font-size="14.00">created_at </text>
<text text-anchor="start" x="2667.75" y="-496.6" font-family="Arial" font-size="14.00" fill="#666666">[datetime(6)]</text>
<polygon fill="none" stroke="black" points="2590.7,-453.6 2590.7,-484.4 2802.18,-484.4 2802.18,-453.6 2590.7,-453.6"/>
<text text-anchor="start" x="2597.7" y="-465.8" font-family="Arial" font-size="14.00">updated_at </text>
<text text-anchor="start" x="2671.66" y="-465.8" font-family="Arial" font-size="14.00" fill="#666666">[datetime(6)]</text>
</g>
<!-- webhooks&#45;&gt;users -->
<g id="edge10" class="edge">
<title>webhooks:owner_id&#45;&gt;users:id</title>
<path fill="none" stroke="black" d="M2579.45,-560.72C2516.52,-551.59 2581.66,-453.25 2529.44,-410.4 2441.73,-338.42 1630.45,-277.2 1525.99,-277.2"/>
<polygon fill="black" stroke="black" points="2579.39,-560.71 2589.06,-565.87 2584.71,-561.07 2589.03,-561.36 2589.03,-561.36 2589.03,-561.36 2584.71,-561.07 2589.66,-556.89 2579.39,-560.71"/>
<text text-anchor="start" x="2348.76" y="-571.4" font-family="Arial" font-size="10.00">FOREIGN KEY (owner_id) REFERENCES users (id)</text>
</g>
<!-- webhooks&#45;&gt;users -->
<g id="edge13" class="edge">
<title>webhooks:owner_id&#45;&gt;users:id</title>
<path fill="none" stroke="black" stroke-dasharray="5,2" d="M2579.11,-560.05C2537.12,-547.61 2598.59,-452.38 2547.44,-410.4 2459.81,-338.49 1650.03,-277.32 1526.35,-277.2"/>
<polygon fill="black" stroke="black" points="2579.09,-560.05 2588.42,-565.82 2584.38,-560.75 2588.67,-561.31 2588.67,-561.31 2588.67,-561.31 2584.38,-560.75 2589.59,-556.89 2579.09,-560.05"/>
<text text-anchor="start" x="2498.95" y="-545.4" font-family="Arial" font-size="10.00">Additional Relation</text>
</g>
<!-- group_member_logs -->
<g id="node11" class="node">
<title>group_member_logs</title>
<polygon fill="#efefef" stroke="none" points="2906.71,-700 2906.71,-735.6 3194.17,-735.6 3194.17,-700 2906.71,-700"/>
<polygon fill="none" stroke="black" points="2906.71,-700 2906.71,-735.6 3194.17,-735.6 3194.17,-700 2906.71,-700"/>
<text text-anchor="start" x="2913.71" y="-713.4" font-family="Arial Bold" font-size="18.00">group_member_logs</text>
<text text-anchor="start" x="3062.68" y="-713.4" font-family="Arial" font-size="14.00">    </text>
<text text-anchor="start" x="3093.8" y="-713.4" font-family="Arial" font-size="14.00" fill="#666666">[BASE TABLE]</text>
<polygon fill="none" stroke="black" points="2906.71,-669.2 2906.71,-700 3194.17,-700 3194.17,-669.2 2906.71,-669.2"/>
<text text-anchor="start" x="2913.71" y="-681.4" font-family="Arial" font-size="14.00">id </text>
<text text-anchor="start" x="2928.49" y="-681.4" font-family="Arial" font-size="14.00" fill="#666666">[char(36)]</text>
<polygon fill="none" stroke="black" points="2906.71,-638.4 2906.71,-669.2 3194.17,-669.2 3194.17,-638.4 2906.71,-638.4"/>
<text text-anchor="start" x="2913.71" y="-650.6" font-family="Arial" font-size="14.00">group_id </text>
<text text-anchor="start" x="2972.09" y="-650.6" font-family="Arial" font-size="14.00" fill="#666666">[char(36)]</text>
<polygon fill="none" stroke="black" points="2906.71,-607.6 2906.71,-638.4 3194.17,-638.4 3194.17,-607.6 2906.71,-607.6"/>
<text text-anchor="start" x="2913.71" y="-619.8" font-family="Arial" font-size="14.00">user_id </text>
<text text-anchor="start" x="2963.51" y="-619.8" font-family="Arial" font-size="14.00" fill="#666666">[char(36)]</text>
<polygon fill="none" stroke="black" points="2906.71,-576.8 2906.71,-607.6 3194.17,-607.6 3194.17,-576.8 2906.71,-576.8"/>
<text text-anchor="start" x="2913.71" y="-589" font-family="Arial" font-size="14.00">action </text>
<text text-anchor="start" x="2954.95" y="-589" font-family="Arial" font-size="14.00" fill="#666666">[varchar(32)]</text>
<polygon fill="none" stroke="black" points="2906.71,-546 2906.71,-576.8 3194.17,-576.8 3194.17,-546 2906.71,-546"/>
<text text-anchor="start" x="2913.71" y="-558.2" font-family="Arial" font-size="14.00">actor_id </text>
<text text-anchor="start" x="2967.4" y="-558.2" font-family="Arial" font-size="14.00" fill="#666666">[char(36)]</text>
<polygon fill="none" stroke="black" points="2906.71,-515.2 2906.71,-546 3194.17,-546 3194.17,-515.2 2906.71,-515.2"/>
<text text-anchor="start" x="2913.71" y="-527.4" font-family="Arial" font-size="14.00">old_roles </text>
<text text-anchor="start" x="2974.41" y="-527.4" font-family="Arial" font-size="14.00" fill="#666666">[longtext]</text>
<polygon fill="none" stroke="black" points="2906.71,-484.4 2906.71,-515.2 3194.17,-515.2 3194.17,-484.4 2906.71,-484.4"/>
<text text-anchor="start" x="2913.71" y="-496.6" font-family="Arial" font-size="14.00">new_roles </text>
<text text-anchor="start" x="2981.41" y="-496.6" font-family="Arial" font-size="14.00" fill="#666666">[longtext]</text>
<polygon fill="none" stroke="black" points="2906.71,-453.6 2906.71,-484.4 3194.17,-484.4 3194.17,-453.6 2906.71,-453.6"/>
<text text-anchor="start" x="2913.71" y="-465.8" font-family="Arial" font-size="14.00">created_at </text>
<text text-anchor="start" x="2983.75" y="-465.8" font-family="Arial" font-size="14.00" fill="#666666">[datetime(6)]</text>
</g>
<!-- group_member_logs&#45;&gt;users -->
<g id="edge15" class="edge">
<title>group_member_logs:actor_id&#45;&gt;users:id</title>
<path fill="none" stroke="black" stroke-dasharray="5,2" d="M2895.34,-560.47C2842.65,-549.9 2906.88,-452.09 2854.44,-410.4 2738.32,-318.08 1674.33,-277.2 1525.99,-277.2"/>
<polygon fill="black" stroke="black" points="2895.41,-560.47 2904.97,-565.85 2900.73,-560.95 2905.04,-561.34 2905.04,-561.34 2905.04,-561.34 2900.73,-560.95 2905.78,-556.89 2895.41,-560.47"/>
<text text-anchor="start" x="2815.32" y="-571.4" font-family="Arial" font-size="10.00">Additional Relation</text>
</g>
</g>
</svg>
