<?xml version="1.0" encoding="UTF-8" standalone="no"?>
<!DOCTYPE svg PUBLIC "-//W3C//DTD SVG 1.1//EN"
 "http://www.w3.org/Graphics/SVG/1.1/DTD/svg11.dtd">
<!-- Generated by graphviz version 12.1.2 (20240928.0832)
 -->
<!-- Title: user_links Pages: 1 -->
<svg width="508pt" height="756pt"
 viewBox="0.00 0.00 507.84 756.00" xmlns="http://www.w3.org/2000/svg" xmlns:xlink="http://www.w3.org/1999/xlink">
<g id="graph0" class="graph" transform="scale(1 1) rotate(0) translate(4 752)">
<title>user_links</title>
<polygon fill="white" stroke="none" points="-4,4 -4,-752 503.84,-752 503.84,4 -4,4"/>
<!-- user_links -->
<g id="node1" class="node">
<title>user_links</title>
<polygon fill="#efefef" stroke="none" points="46.2,-666.2 46.2,-701.8 258.68,-701.8 258.68,-666.2 46.2,-666.2"/>
<polygon fill="none" stroke="black" points="46.2,-666.2 46.2,-701.8 258.68,-701.8 258.68,-666.2 46.2,-666.2"/>
<text text-anchor="start" x="53.2" y="-679.6" font-family="Arial Bold" font-size="18.00">user_links</text>
<text text-anchor="start" x="127.2" y="-679.6" font-family="Arial" font-size="14.00">    </text>
<text text-anchor="start" x="158.31" y="-679.6" font-family="Arial" font-size="14.00" fill="#666666">[BASE TABLE]</text>
<polygon fill="none" stroke="black" points="46.2,-635.4 46.2,-666.2 258.68,-666.2 258.68,-635.4 46.2,-635.4"/>
<text text-anchor="start" x="53.2" y="-647.6" font-family="Arial" font-size="14.00">user_id </text>
<text text-anchor="start" x="103.01" y="-647.6" font-family="Arial" font-size="14.00" fill="#666666">[char(36)]</text>
<polygon fill="none" stroke="black" points="46.2,-604.6 46.2,-635.4 258.68,-635.4 258.68,-604.6 46.2,-604.6"/>
<text text-anchor="start" x="53.2" y="-616.8" font-family="Arial" font-size="14.00">service </text>
<text text-anchor="start" x="101.43" y="-616.8" font-family="Arial" font-size="14.00" fill="#666666">[varchar(64)]</text>
<polygon fill="none" stroke="black" points="46.2,-573.8 46.2,-604.6 258.68,-604.6 258.68,-573.8 46.2,-573.8"/>
<text text-anchor="start" x="53.2" y="-586" font-family="Arial" font-size="14.00">external_id </text>
<text text-anchor="start" x="125.58" y="-586" font-family="Arial" font-size="14.00" fill="#666666">[varchar(255)]</text>
<polygon fill="none" stroke="black" points="46.2,-543 46.2,-573.8 258.68,-573.8 258.68,-543 46.2,-543"/>
<text text-anchor="start" x="53.2" y="-555.2" font-family="Arial" font-size="14.00">account_name </text>
<text text-anchor="start" x="148.93" y="-555.2" font-family="Arial" font-size="14.00" fill="#666666">[varchar(255)]</text>
<polygon fill="none" stroke="black" points="46.2,-512.2 46.2,-543 258.68,-543 258.68,-512.2 46.2,-512.2"/>
<text text-anchor="start" x="53.2" y="-524.4" font-family="Arial" font-size="14.00">access_token </text>
<text text-anchor="start" x="142.7" y="-524.4" font-family="Arial" font-size="14.00" fill="#666666">[varbinary(1024)]</text>
<polygon fill="none" stroke="black" points="46.2,-481.4 46.2,-512.2 258.68,-512.2 258.68,-481.4 46.2,-481.4"/>
<text text-anchor="start" x="53.2" y="-493.6" font-family="Arial" font-size="14.00">created_at </text>
<text text-anchor="start" x="123.25" y="-493.6" font-family="Arial" font-size="14.00" fill="#666666">[datetime(6)]</text>
<polygon fill="none" stroke="black" points="46.2,-450.6 46.2,-481.4 258.68,-481.4 258.68,-450.6 46.2,-450.6"/>
<text text-anchor="start" x="53.2" y="-462.8" font-family="Arial" font-size="14.00">updated_at </text>
<text text-anchor="start" x="127.16" y="-462.8" font-family="Arial" font-size="14.00" fill="#666666">[datetime(6)]</text>
<polygon fill="none" stroke="black" stroke-width="3" points="44.7,-449.1 44.7,-703.3 260.18,-703.3 260.18,-449.1 44.7,-449.1"/>
</g>
<!-- users -->
<g id="node2" class="node">
<title>users</title>
<polygon fill="#efefef" stroke="none" points="50.89,-289.6 50.89,-325.2 253.99,-325.2 253.99,-289.6 50.89,-289.6"/>
<polygon fill="none" stroke="black" points="50.89,-289.6 50.89,-325.2 253.99,-325.2 253.99,-289.6 50.89,-289.6"/>
<text text-anchor="start" x="71.7" y="-303" font-family="Arial Bold" font-size="18.00">users</text>
<text text-anchor="start" x="108.69" y="-303" font-family="Arial" font-size="14.00">    </text>
<text text-anchor="start" x="139.81" y="-303" font-family="Arial" font-size="14.00" fill="#666666">[BASE TABLE]</text>
<polygon fill="none" stroke="black" points="50.89,-258.8 50.89,-289.6 253.99,-289.6 253.99,-258.8 50.89,-258.8"/>
<text text-anchor="start" x="57.89" y="-271" font-family="Arial" font-size="14.00">id </text>
<text text-anchor="start" x="72.68" y="-271" font-family="Arial" font-size="14.00" fill="#666666">[char(36)]</text>
<polygon fill="none" stroke="black" points="50.89,-228 50.89,-258.8 253.99,-258.8 253.99,-228 50.89,-228"/>
<text text-anchor="start" x="57.89" y="-240.2" font-family="Arial" font-size="14.00">trap_id </text>
<text text-anchor="start" x="104.59" y="-240.2" font-family="Arial" font-size="14.00" fill="#666666">[varchar(32)]</text>
<polygon fill="none" stroke="black" points="50.89,-197.2 50.89,-228 253.99,-228 253.99,-197.2 50.89,-197.2"/>
<text text-anchor="start" x="57.89" y="-209.4" font-family="Arial" font-size="14.00">password_hash </text>
<text text-anchor="start" x="159.85" y="-209.4" font-family="Arial" font-size="14.00" fill="#666666">[varchar(255)]</text>
<polygon fill="none" stroke="black" points="50.89,-166.4 50.89,-197.2 253.99,-197.2 253.99,-166.4 50.89,-166.4"/>
<text text-anchor="start" x="57.89" y="-178.6" font-family="Arial" font-size="14.00">email </text>
<text text-anchor="start" x="95.24" y="-178.6" font-family="Arial" font-size="14.00" fill="#666666">[varbinary(512)]</text>
<polygon fill="none" stroke="black" points="50.89,-135.6 50.89,-166.4 253.99,-166.4 253.99,-135.6 50.89,-135.6"/>
<text text-anchor="start" x="57.89" y="-147.8" font-family="Arial" font-size="14.00">personal_info </text>
<text text-anchor="start" x="145.85" y="-147.8" font-family="Arial" font-size="14.00" fill="#666666">[blob]</text>
<polygon fill="none" stroke="black" points="50.89,-104.8 50.89,-135.6 253.99,-135.6 253.99,-104.8 50.89,-104.8"/>
<text text-anchor="start" x="57.89" y="-117" font-family="Arial" font-size="14.00">student_number </text>
<text text-anchor="start" x="162.96" y="-117" font-family="Arial" font-size="14.00" fill="#666666">[varchar(8)]</text>
<polygon fill="none" stroke="black" points="50.89,-74 50.89,-104.8 253.99,-104.8 253.99,-74 50.89,-74"/>
<text text-anchor="start" x="57.89" y="-86.2" font-family="Arial" font-size="14.00">created_at </text>
<text text-anchor="start" x="127.94" y="-86.2" font-family="Arial" font-size="14.00" fill="#666666">[datetime(6)]</text>
<polygon fill="none" stroke="black" points="50.89,-43.2 50.89,-74 253.99,-74 253.99,-43.2 50.89,-43.2"/>
<text text-anchor="start" x="57.89" y="-55.4" font-family="Arial" font-size="14.00">updated_at </text>
<text text-anchor="start" x="131.85" y="-55.4" font-family="Arial" font-size="14.00" fill="#666666">[datetime(6)]</text>
</g>
<!-- user_links&#45;&gt;users -->
<g id="edge1" class="edge">
<title>user_links:user_id&#45;&gt;users:id</title>
<path fill="none" stroke="black" d="M269.54,-648.95C342.86,-620.54 335.25,-274.2 254.99,-274.2"/>
<polygon fill="black" stroke="black" points="269.84,-648.89 259.18,-646.32 264.6,-649.88 260.34,-650.68 260.34,-650.68 260.34,-650.68 264.6,-649.88 260.84,-655.16 269.84,-648.89"/>
<text text-anchor="start" x="266.68" y="-660.8" font-family="Arial" font-size="10.00">FOREIGN KEY (user_id) REFERENCES users (id)</text>
</g>
</g>
</svg>
