<?xml version="1.0" encoding="UTF-8" standalone="no"?>
<!DOCTYPE svg PUBLIC "-//W3C//DTD SVG 1.1//EN"
 "http://www.w3.org/Graphics/SVG/1.1/DTD/svg11.dtd">
<!-- Generated by graphviz version 12.1.2 (20240928.0832)
 -->
<!-- Title: user_keys Pages: 1 -->
<svg width="506pt" height="756pt"
 viewBox="0.00 0.00 505.83 756.00" xmlns="http://www.w3.org/2000/svg" xmlns:xlink="http://www.w3.org/1999/xlink">
<g id="graph0" class="graph" transform="scale(1 1) rotate(0) translate(4 752)">
<title>user_keys</title>
<polygon fill="white" stroke="none" points="-4,4 -4,-752 501.83,-752 501.83,4 -4,4"/>
<!-- user_keys -->
<g id="node1" class="node">
<title>user_keys</title>
<polygon fill="#efefef" stroke="none" points="46.2,-666.2 46.2,-701.8 256.67,-701.8 256.67,-666.2 46.2,-666.2"/>
<polygon fill="none" stroke="black" points="46.2,-666.2 46.2,-701.8 256.67,-701.8 256.67,-666.2 46.2,-666.2"/>
<text text-anchor="start" x="53.2" y="-679.6" font-family="Arial Bold" font-size="18.00">user_keys</text>
<text text-anchor="start" x="125.18" y="-679.6" font-family="Arial" font-size="14.00">    </text>
<text text-anchor="start" x="156.3" y="-679.6" font-family="Arial" font-size="14.00" fill="#666666">[BASE TABLE]</text>
<polygon fill="none" stroke="black" points="46.2,-635.4 46.2,-666.2 256.67,-666.2 256.67,-635.4 46.2,-635.4"/>
<text text-anchor="start" x="53.2" y="-647.6" font-family="Arial" font-size="14.00">user_id </text>
<text text-anchor="start" x="103.01" y="-647.6" font-family="Arial" font-size="14.00" fill="#666666">[char(36)]</text>
<polygon fill="none" stroke="black" points="46.2,-604.6 46.2,-635.4 256.67,-635.4 256.67,-604.6 46.2,-604.6"/>
<text text-anchor="start" x="53.2" y="-616.8" font-family="Arial" font-size="14.00">key_id </text>
<text text-anchor="start" x="97.56" y="-616.8" font-family="Arial" font-size="14.00" fill="#666666">[char(36)]</text>
<polygon fill="none" stroke="black" points="46.2,-573.8 46.2,-604.6 256.67,-604.6 256.67,-573.8 46.2,-573.8"/>
<text text-anchor="start" x="53.2" y="-586" font-family="Arial" font-size="14.00">public_key </text>
<text text-anchor="start" x="123.24" y="-586" font-family="Arial" font-size="14.00" fill="#666666">[varbinary(4096)]</text>
<polygon fill="none" stroke="black" points="46.2,-543 46.2,-573.8 256.67,-573.8 256.67,-543 46.2,-543"/>
<text text-anchor="start" x="53.2" y="-555.2" font-family="Arial" font-size="14.00">encrypted_private_key </text>
<text text-anchor="start" x="197.95" y="-555.2" font-family="Arial" font-size="14.00" fill="#666666">[blob]</text>
<polygon fill="none" stroke="black" points="46.2,-512.2 46.2,-543 256.67,-543 256.67,-512.2 46.2,-512.2"/>
<text text-anchor="start" x="53.2" y="-524.4" font-family="Arial" font-size="14.00">algorithm </text>
<text text-anchor="start" x="114.67" y="-524.4" font-family="Arial" font-size="14.00" fill="#666666">[varchar(32)]</text>
<polygon fill="none" stroke="black" points="46.2,-481.4 46.2,-512.2 256.67,-512.2 256.67,-481.4 46.2,-481.4"/>
<text text-anchor="start" x="53.2" y="-493.6" font-family="Arial" font-size="14.00">is_active </text>
<text text-anchor="start" x="111.56" y="-493.6" font-family="Arial" font-size="14.00" fill="#666666">[tinyint(1)]</text>
<polygon fill="none" stroke="black" points="46.2,-450.6 46.2,-481.4 256.67,-481.4 256.67,-450.6 46.2,-450.6"/>
<text text-anchor="start" x="53.2" y="-462.8" font-family="Arial" font-size="14.00">created_at </text>
<text text-anchor="start" x="123.25" y="-462.8" font-family="Arial" font-size="14.00" fill="#666666">[datetime(6)]</text>
<polygon fill="none" stroke="black" stroke-width="3" points="44.7,-449.1 44.7,-703.3 258.17,-703.3 258.17,-449.1 44.7,-449.1"/>
</g>
<!-- users -->
<g id="node2" class="node">
<title>users</title>
<polygon fill="#efefef" stroke="none" points="49.89,-289.6 49.89,-325.2 252.98,-325.2 252.98,-289.6 49.89,-289.6"/>
<polygon fill="none" stroke="black" points="49.89,-289.6 49.89,-325.2 252.98,-325.2 252.98,-289.6 49.89,-289.6"/>
<text text-anchor="start" x="70.69" y="-303" font-family="Arial Bold" font-size="18.00">users</text>
<text text-anchor="start" x="107.69" y="-303" font-family="Arial" font-size="14.00">    </text>
<text text-anchor="start" x="138.8" y="-303" font-family="Arial" font-size="14.00" fill="#666666">[BASE TABLE]</text>
<polygon fill="none" stroke="black" points="49.89,-258.8 49.89,-289.6 252.98,-289.6 252.98,-258.8 49.89,-258.8"/>
<text text-anchor="start" x="56.89" y="-271" font-family="Arial" font-size="14.00">id </text>
<text text-anchor="start" x="71.67" y="-271" font-family="Arial" font-size="14.00" fill="#666666">[char(36)]</text>
<polygon fill="none" stroke="black" points="49.89,-228 49.89,-258.8 252.98,-258.8 252.98,-228 49.89,-228"/>
<text text-anchor="start" x="56.89" y="-240.2" font-family="Arial" font-size="14.00">trap_id </text>
<text text-anchor="start" x="103.58" y="-240.2" font-family="Arial" font-size="14.00" fill="#666666">[varchar(32)]</text>
<polygon fill="none" stroke="black" points="49.89,-197.2 49.89,-228 252.98,-228 252.98,-197.2 49.89,-197.2"/>
<text text-anchor="start" x="56.89" y="-209.4" font-family="Arial" font-size="14.00">password_hash </text>
<text text-anchor="start" x="158.84" y="-209.4" font-family="Arial" font-size="14.00" fill="#666666">[varchar(255)]</text>
<polygon fill="none" stroke="black" points="49.89,-166.4 49.89,-197.2 252.98,-197.2 252.98,-166.4 49.89,-166.4"/>
<text text-anchor="start" x="56.89" y="-178.6" font-family="Arial" font-size="14.00">email </text>
<text text-anchor="start" x="94.23" y="-178.6" font-family="Arial" font-size="14.00" fill="#666666">[varbinary(512)]</text>
<polygon fill="none" stroke="black" points="49.89,-135.6 49.89,-166.4 252.98,-166.4 252.98,-135.6 49.89,-135.6"/>
<text text-anchor="start" x="56.89" y="-147.8" font-family="Arial" font-size="14.00">personal_info </text>
<text text-anchor="start" x="144.84" y="-147.8" font-family="Arial" font-size="14.00" fill="#666666">[blob]</text>
<polygon fill="none" stroke="black" points="49.89,-104.8 49.89,-135.6 252.98,-135.6 252.98,-104.8 49.89,-104.8"/>
<text text-anchor="start" x="56.89" y="-117" font-family="Arial" font-size="14.00">student_number </text>
<text text-anchor="start" x="161.96" y="-117" font-family="Arial" font-size="14.00" fill="#666666">[varchar(8)]</text>
<polygon fill="none" stroke="black" points="49.89,-74 49.89,-104.8 252.98,-104.8 252.98,-74 49.89,-74"/>
<text text-anchor="start" x="56.89" y="-86.2" font-family="Arial" font-size="14.00">created_at </text>
<text text-anchor="start" x="126.94" y="-86.2" font-family="Arial" font-size="14.00" fill="#666666">[datetime(6)]</text>
<polygon fill="none" stroke="black" points="49.89,-43.2 49.89,-74 252.98,-74 252.98,-43.2 49.89,-43.2"/>
<text text-anchor="start" x="56.89" y="-55.4" font-family="Arial" font-size="14.00">updated_at </text>
<text text-anchor="start" x="130.85" y="-55.4" font-family="Arial" font-size="14.00" fill="#666666">[datetime(6)]</text>
</g>
<!-- user_keys&#45;&gt;users -->
<g id="edge1" class="edge">
<title>user_keys:user_id&#45;&gt;users:id</title>
<path fill="none" stroke="black" d="M267.53,-648.95C340.93,-620.54 334.24,-274.2 253.98,-274.2"/>
<polygon fill="black" stroke="black" points="267.83,-648.9 257.17,-646.32 262.59,-649.88 258.33,-650.68 258.33,-650.68 258.33,-650.68 262.59,-649.88 258.83,-655.16 267.83,-648.9"/>
<text text-anchor="start" x="264.67" y="-660.8" font-family="Arial" font-size="10.00">FOREIGN KEY (user_id) REFERENCES users (id)</text>
</g>
</g>
</svg>
