<?xml version="1.0" encoding="UTF-8" standalone="no"?>
<!DOCTYPE svg PUBLIC "-//W3C//DTD SVG 1.1//EN"
 "http://www.w3.org/Graphics/SVG/1.1/DTD/svg11.dtd">
<!-- Generated by graphviz version 12.1.2 (20240928.0832)
 -->
<!-- Title: webhook_subscribe_events Pages: 1 -->
<svg width="673pt" height="633pt"
 viewBox="0.00 0.00 672.95 632.80" xmlns="http://www.w3.org/2000/svg" xmlns:xlink="http://www.w3.org/1999/xlink">
<g id="graph0" class="graph" transform="scale(1 1) rotate(0) translate(4 628.8)">
<title>webhook_subscribe_events</title>
<polygon fill="white" stroke="none" points="-4,4 -4,-628.8 668.95,-628.8 668.95,4 -4,4"/>
<!-- webhook_subscribe_events -->
<g id="node1" class="node">
<title>webhook_subscribe_events</title>
<polygon fill="#efefef" stroke="none" points="46.2,-543 46.2,-578.6 382.65,-578.6 382.65,-543 46.2,-543"/>
<polygon fill="none" stroke="black" points="46.2,-543 46.2,-578.6 382.65,-578.6 382.65,-543 46.2,-543"/>
<text text-anchor="start" x="53.2" y="-556.4" font-family="Arial Bold" font-size="18.00">webhook_subscribe_events</text>
<text text-anchor="start" x="251.16" y="-556.4" font-family="Arial" font-size="14.00">    </text>
<text text-anchor="start" x="282.27" y="-556.4" font-family="Arial" font-size="14.00" fill="#666666">[BASE TABLE]</text>
<polygon fill="none" stroke="black" points="46.2,-512.2 46.2,-543 382.65,-543 382.65,-512.2 46.2,-512.2"/>
<text text-anchor="start" x="53.2" y="-524.4" font-family="Arial" font-size="14.00">webhook_id </text>
<text text-anchor="start" x="131.81" y="-524.4" font-family="Arial" font-size="14.00" fill="#666666">[char(36)]</text>
<polygon fill="none" stroke="black" points="46.2,-481.4 46.2,-512.2 382.65,-512.2 382.65,-481.4 46.2,-481.4"/>
<text text-anchor="start" x="53.2" y="-493.6" font-family="Arial" font-size="14.00">event_type </text>
<text text-anchor="start" x="125.59" y="-493.6" font-family="Arial" font-size="14.00" fill="#666666">[varchar(64)]</text>
<polygon fill="none" stroke="black" points="46.2,-450.6 46.2,-481.4 382.65,-481.4 382.65,-450.6 46.2,-450.6"/>
<text text-anchor="start" x="53.2" y="-462.8" font-family="Arial" font-size="14.00">created_at </text>
<text text-anchor="start" x="123.25" y="-462.8" font-family="Arial" font-size="14.00" fill="#666666">[datetime(6)]</text>
<polygon fill="none" stroke="black" stroke-width="3" points="44.7,-449.1 44.7,-580.1 384.15,-580.1 384.15,-449.1 44.7,-449.1"/>
</g>
<!-- webhooks -->
<g id="node2" class="node">
<title>webhooks</title>
<polygon fill="#efefef" stroke="none" points="108.68,-289.6 108.68,-325.2 320.16,-325.2 320.16,-289.6 108.68,-289.6"/>
<polygon fill="none" stroke="black" points="108.68,-289.6 108.68,-325.2 320.16,-325.2 320.16,-289.6 108.68,-289.6"/>
<text text-anchor="start" x="115.68" y="-303" font-family="Arial Bold" font-size="18.00">webhooks</text>
<text text-anchor="start" x="188.67" y="-303" font-family="Arial" font-size="14.00">    </text>
<text text-anchor="start" x="219.79" y="-303" font-family="Arial" font-size="14.00" fill="#666666">[BASE TABLE]</text>
<polygon fill="none" stroke="black" points="108.68,-258.8 108.68,-289.6 320.16,-289.6 320.16,-258.8 108.68,-258.8"/>
<text text-anchor="start" x="115.68" y="-271" font-family="Arial" font-size="14.00">id </text>
<text text-anchor="start" x="130.47" y="-271" font-family="Arial" font-size="14.00" fill="#666666">[char(36)]</text>
<polygon fill="none" stroke="black" points="108.68,-228 108.68,-258.8 320.16,-258.8 320.16,-228 108.68,-228"/>
<text text-anchor="start" x="115.68" y="-240.2" font-family="Arial" font-size="14.00">name </text>
<text text-anchor="start" x="154.59" y="-240.2" font-family="Arial" font-size="14.00" fill="#666666">[varchar(255)]</text>
<polygon fill="none" stroke="black" points="108.68,-197.2 108.68,-228 320.16,-228 320.16,-197.2 108.68,-197.2"/>
<text text-anchor="start" x="115.68" y="-209.4" font-family="Arial" font-size="14.00">url </text>
<text text-anchor="start" x="135.13" y="-209.4" font-family="Arial" font-size="14.00" fill="#666666">[varchar(2048)]</text>
<polygon fill="none" stroke="black" points="108.68,-166.4 108.68,-197.2 320.16,-197.2 320.16,-166.4 108.68,-166.4"/>
<text text-anchor="start" x="115.68" y="-178.6" font-family="Arial" font-size="14.00">secret </text>
<text text-anchor="start" x="157.7" y="-178.6" font-family="Arial" font-size="14.00" fill="#666666">[varbinary(512)]</text>
<polygon fill="none" stroke="black" points="108.68,-135.6 108.68,-166.4 320.16,-166.4 320.16,-135.6 108.68,-135.6"/>
<text text-anchor="start" x="115.68" y="-147.8" font-family="Arial" font-size="14.00">owner_id </text>
<text text-anchor="start" x="176.38" y="-147.8" font-family="Arial" font-size="14.00" fill="#666666">[char(36)]</text>
<polygon fill="none" stroke="black" points="108.68,-104.8 108.68,-135.6 320.16,-135.6 320.16,-104.8 108.68,-104.8"/>
<text text-anchor="start" x="115.68" y="-117" font-family="Arial" font-size="14.00">is_active </text>
<text text-anchor="start" x="174.04" y="-117" font-family="Arial" font-size="14.00" fill="#666666">[tinyint(1)]</text>
<polygon fill="none" stroke="black" points="108.68,-74 108.68,-104.8 320.16,-104.8 320.16,-74 108.68,-74"/>
<text text-anchor="start" x="115.68" y="-86.2" font-family="Arial" font-size="14.00">created_at </text>
<text text-anchor="start" x="185.73" y="-86.2" font-family="Arial" font-size="14.00" fill="#666666">[datetime(6)]</text>
<polygon fill="none" stroke="black" points="108.68,-43.2 108.68,-74 320.16,-74 320.16,-43.2 108.68,-43.2"/>
<text text-anchor="start" x="115.68" y="-55.4" font-family="Arial" font-size="14.00">updated_at </text>
<text text-anchor="start" x="189.64" y="-55.4" font-family="Arial" font-size="14.00" fill="#666666">[datetime(6)]</text>
</g>
<!-- webhook_subscribe_events&#45;&gt;webhooks -->
<g id="edge1" class="edge">
<title>webhook_subscribe_events:webhook_id&#45;&gt;webhooks:id</title>
<path fill="none" stroke="black" d="M394,-526.87C495.68,-512.01 433.53,-274.2 321.16,-274.2"/>
<polygon fill="black" stroke="black" points="393.95,-526.88 383.66,-523.09 388.63,-527.25 384.31,-527.55 384.31,-527.55 384.31,-527.55 388.63,-527.25 384.29,-532.07 393.95,-526.88"/>
<text text-anchor="start" x="390.65" y="-537.6" font-family="Arial" font-size="10.00">FOREIGN KEY (webhook_id) REFERENCES webhooks (id)</text>
</g>
</g>
</svg>
