<?xml version="1.0" encoding="UTF-8" standalone="no"?>
<!DOCTYPE svg PUBLIC "-//W3C//DTD SVG 1.1//EN"
 "http://www.w3.org/Graphics/SVG/1.1/DTD/svg11.dtd">
<!-- Generated by graphviz version 12.1.2 (20240928.0832)
 -->
<!-- Title: group_member_logs Pages: 1 -->
<svg width="388pt" height="382pt"
 viewBox="0.00 0.00 387.86 382.40" xmlns="http://www.w3.org/2000/svg" xmlns:xlink="http://www.w3.org/1999/xlink">
<g id="graph0" class="graph" transform="scale(1 1) rotate(0) translate(4 378.4)">
<title>group_member_logs</title>
<polygon fill="white" stroke="none" points="-4,4 -4,-378.4 383.86,-378.4 383.86,4 -4,4"/>
<!-- group_member_logs -->
<g id="node1" class="node">
<title>group_member_logs</title>
<polygon fill="#efefef" stroke="none" points="46.2,-292.6 46.2,-328.2 333.66,-328.2 333.66,-292.6 46.2,-292.6"/>
<polygon fill="none" stroke="black" points="46.2,-292.6 46.2,-328.2 333.66,-328.2 333.66,-292.6 46.2,-292.6"/>
<text text-anchor="start" x="53.2" y="-306" font-family="Arial Bold" font-size="18.00">group_member_logs</text>
<text text-anchor="start" x="202.17" y="-306" font-family="Arial" font-size="14.00">    </text>
<text text-anchor="start" x="233.29" y="-306" font-family="Arial" font-size="14.00" fill="#666666">[BASE TABLE]</text>
<polygon fill="none" stroke="black" points="46.2,-261.8 46.2,-292.6 333.66,-292.6 333.66,-261.8 46.2,-261.8"/>
<text text-anchor="start" x="53.2" y="-274" font-family="Arial" font-size="14.00">id </text>
<text text-anchor="start" x="67.99" y="-274" font-family="Arial" font-size="14.00" fill="#666666">[char(36)]</text>
<polygon fill="none" stroke="black" points="46.2,-231 46.2,-261.8 333.66,-261.8 333.66,-231 46.2,-231"/>
<text text-anchor="start" x="53.2" y="-243.2" font-family="Arial" font-size="14.00">group_id </text>
<text text-anchor="start" x="111.58" y="-243.2" font-family="Arial" font-size="14.00" fill="#666666">[char(36)]</text>
<polygon fill="none" stroke="black" points="46.2,-200.2 46.2,-231 333.66,-231 333.66,-200.2 46.2,-200.2"/>
<text text-anchor="start" x="53.2" y="-212.4" font-family="Arial" font-size="14.00">user_id </text>
<text text-anchor="start" x="103.01" y="-212.4" font-family="Arial" font-size="14.00" fill="#666666">[char(36)]</text>
<polygon fill="none" stroke="black" points="46.2,-169.4 46.2,-200.2 333.66,-200.2 333.66,-169.4 46.2,-169.4"/>
<text text-anchor="start" x="53.2" y="-181.6" font-family="Arial" font-size="14.00">action </text>
<text text-anchor="start" x="94.45" y="-181.6" font-family="Arial" font-size="14.00" fill="#666666">[varchar(32)]</text>
<polygon fill="none" stroke="black" points="46.2,-138.6 46.2,-169.4 333.66,-169.4 333.66,-138.6 46.2,-138.6"/>
<text text-anchor="start" x="53.2" y="-150.8" font-family="Arial" font-size="14.00">actor_id </text>
<text text-anchor="start" x="106.9" y="-150.8" font-family="Arial" font-size="14.00" fill="#666666">[char(36)]</text>
<polygon fill="none" stroke="black" points="46.2,-107.8 46.2,-138.6 333.66,-138.6 333.66,-107.8 46.2,-107.8"/>
<text text-anchor="start" x="53.2" y="-120" font-family="Arial" font-size="14.00">old_roles </text>
<text text-anchor="start" x="113.9" y="-120" font-family="Arial" font-size="14.00" fill="#666666">[longtext]</text>
<polygon fill="none" stroke="black" points="46.2,-77 46.2,-107.8 333.66,-107.8 333.66,-77 46.2,-77"/>
<text text-anchor="start" x="53.2" y="-89.2" font-family="Arial" font-size="14.00">new_roles </text>
<text text-anchor="start" x="120.9" y="-89.2" font-family="Arial" font-size="14.00" fill="#666666">[longtext]</text>
<polygon fill="none" stroke="black" points="46.2,-46.2 46.2,-77 333.66,-77 333.66,-46.2 46.2,-46.2"/>
<text text-anchor="start" x="53.2" y="-58.4" font-family="Arial" font-size="14.00">created_at </text>
<text text-anchor="start" x="123.25" y="-58.4" font-family="Arial" font-size="14.00" fill="#666666">[datetime(6)]</text>
<polygon fill="none" stroke="black" stroke-width="3" points="44.7,-44.7 44.7,-329.7 335.16,-329.7 335.16,-44.7 44.7,-44.7"/>
</g>
</g>
</svg>
