<?xml version="1.0" encoding="UTF-8" standalone="no"?>
<!DOCTYPE svg PUBLIC "-//W3C//DTD SVG 1.1//EN"
 "http://www.w3.org/Graphics/SVG/1.1/DTD/svg11.dtd">
<!-- Generated by graphviz version 12.1.2 (20240928.0832)
 -->
<!-- Title: secrets Pages: 1 -->
<svg width="707pt" height="756pt"
 viewBox="0.00 0.00 706.70 756.00" xmlns="http://www.w3.org/2000/svg" xmlns:xlink="http://www.w3.org/1999/xlink">
<g id="graph0" class="graph" transform="scale(1 1) rotate(0) translate(4 752)">
<title>secrets</title>
<polygon fill="white" stroke="none" points="-4,4 -4,-752 702.7,-752 702.7,4 -4,4"/>
<!-- secrets -->
<g id="node1" class="node">
<title>secrets</title>
<polygon fill="#efefef" stroke="none" points="253.4,-666.2 253.4,-701.8 440.87,-701.8 440.87,-666.2 253.4,-666.2"/>
<polygon fill="none" stroke="black" points="253.4,-666.2 253.4,-701.8 440.87,-701.8 440.87,-666.2 253.4,-666.2"/>
<text text-anchor="start" x="260.4" y="-679.6" font-family="Arial Bold" font-size="18.00">secrets</text>
<text text-anchor="start" x="309.38" y="-679.6" font-family="Arial" font-size="14.00">    </text>
<text text-anchor="start" x="340.49" y="-679.6" font-family="Arial" font-size="14.00" fill="#666666">[BASE TABLE]</text>
<polygon fill="none" stroke="black" points="253.4,-635.4 253.4,-666.2 440.87,-666.2 440.87,-635.4 253.4,-635.4"/>
<text text-anchor="start" x="260.4" y="-647.6" font-family="Arial" font-size="14.00">id </text>
<text text-anchor="start" x="275.19" y="-647.6" font-family="Arial" font-size="14.00" fill="#666666">[char(36)]</text>
<polygon fill="none" stroke="black" points="253.4,-604.6 253.4,-635.4 440.87,-635.4 440.87,-604.6 253.4,-604.6"/>
<text text-anchor="start" x="260.4" y="-616.8" font-family="Arial" font-size="14.00">group_id </text>
<text text-anchor="start" x="318.78" y="-616.8" font-family="Arial" font-size="14.00" fill="#666666">[char(36)]</text>
<polygon fill="none" stroke="black" points="253.4,-573.8 253.4,-604.6 440.87,-604.6 440.87,-573.8 253.4,-573.8"/>
<text text-anchor="start" x="260.4" y="-586" font-family="Arial" font-size="14.00">name </text>
<text text-anchor="start" x="299.31" y="-586" font-family="Arial" font-size="14.00" fill="#666666">[varchar(255)]</text>
<polygon fill="none" stroke="black" points="253.4,-543 253.4,-573.8 440.87,-573.8 440.87,-543 253.4,-543"/>
<text text-anchor="start" x="260.4" y="-555.2" font-family="Arial" font-size="14.00">encrypted_value </text>
<text text-anchor="start" x="367.03" y="-555.2" font-family="Arial" font-size="14.00" fill="#666666">[blob]</text>
<polygon fill="none" stroke="black" points="253.4,-512.2 253.4,-543 440.87,-543 440.87,-512.2 253.4,-512.2"/>
<text text-anchor="start" x="260.4" y="-524.4" font-family="Arial" font-size="14.00">created_by </text>
<text text-anchor="start" x="333.56" y="-524.4" font-family="Arial" font-size="14.00" fill="#666666">[char(36)]</text>
<polygon fill="none" stroke="black" points="253.4,-481.4 253.4,-512.2 440.87,-512.2 440.87,-481.4 253.4,-481.4"/>
<text text-anchor="start" x="260.4" y="-493.6" font-family="Arial" font-size="14.00">created_at </text>
<text text-anchor="start" x="330.45" y="-493.6" font-family="Arial" font-size="14.00" fill="#666666">[datetime(6)]</text>
<polygon fill="none" stroke="black" points="253.4,-450.6 253.4,-481.4 440.87,-481.4 440.87,-450.6 253.4,-450.6"/>
<text text-anchor="start" x="260.4" y="-462.8" font-family="Arial" font-size="14.00">updated_at </text>
<text text-anchor="start" x="334.36" y="-462.8" font-family="Arial" font-size="14.00" fill="#666666">[datetime(6)]</text>
<polygon fill="none" stroke="black" stroke-width="3" points="251.9,-449.1 251.9,-703.3 442.37,-703.3 442.37,-449.1 251.9,-449.1"/>
</g>
<!-- groups -->
<g id="node2" class="node">
<title>groups</title>
<polygon fill="#efefef" stroke="none" points="103.39,-258.8 103.39,-294.4 290.88,-294.4 290.88,-258.8 103.39,-258.8"/>
<polygon fill="none" stroke="black" points="103.39,-258.8 103.39,-294.4 290.88,-294.4 290.88,-258.8 103.39,-258.8"/>
<text text-anchor="start" x="110.39" y="-272.2" font-family="Arial Bold" font-size="18.00">groups</text>
<text text-anchor="start" x="159.39" y="-272.2" font-family="Arial" font-size="14.00">    </text>
<text text-anchor="start" x="190.51" y="-272.2" font-family="Arial" font-size="14.00" fill="#666666">[BASE TABLE]</text>
<polygon fill="none" stroke="black" points="103.39,-228 103.39,-258.8 290.88,-258.8 290.88,-228 103.39,-228"/>
<text text-anchor="start" x="110.39" y="-240.2" font-family="Arial" font-size="14.00">id </text>
<text text-anchor="start" x="125.18" y="-240.2" font-family="Arial" font-size="14.00" fill="#666666">[char(36)]</text>
<polygon fill="none" stroke="black" points="103.39,-197.2 103.39,-228 290.88,-228 290.88,-197.2 103.39,-197.2"/>
<text text-anchor="start" x="110.39" y="-209.4" font-family="Arial" font-size="14.00">name </text>
<text text-anchor="start" x="149.3" y="-209.4" font-family="Arial" font-size="14.00" fill="#666666">[varchar(255)]</text>
<polygon fill="none" stroke="black" points="103.39,-166.4 103.39,-197.2 290.88,-197.2 290.88,-166.4 103.39,-166.4"/>
<text text-anchor="start" x="110.39" y="-178.6" font-family="Arial" font-size="14.00">description </text>
<text text-anchor="start" x="181.98" y="-178.6" font-family="Arial" font-size="14.00" fill="#666666">[text]</text>
<polygon fill="none" stroke="black" points="103.39,-135.6 103.39,-166.4 290.88,-166.4 290.88,-135.6 103.39,-135.6"/>
<text text-anchor="start" x="110.39" y="-147.8" font-family="Arial" font-size="14.00">parent_id </text>
<text text-anchor="start" x="172.66" y="-147.8" font-family="Arial" font-size="14.00" fill="#666666">[char(36)]</text>
<polygon fill="none" stroke="black" points="103.39,-104.8 103.39,-135.6 290.88,-135.6 290.88,-104.8 103.39,-104.8"/>
<text text-anchor="start" x="110.39" y="-117" font-family="Arial" font-size="14.00">created_at </text>
<text text-anchor="start" x="180.44" y="-117" font-family="Arial" font-size="14.00" fill="#666666">[datetime(6)]</text>
<polygon fill="none" stroke="black" points="103.39,-74 103.39,-104.8 290.88,-104.8 290.88,-74 103.39,-74"/>
<text text-anchor="start" x="110.39" y="-86.2" font-family="Arial" font-size="14.00">updated_at </text>
<text text-anchor="start" x="184.35" y="-86.2" font-family="Arial" font-size="14.00" fill="#666666">[datetime(6)]</text>
</g>
<!-- secrets&#45;&gt;groups -->
<g id="edge1" class="edge">
<title>secrets:group_id&#45;&gt;groups:id</title>
<path fill="none" stroke="black" d="M242.42,-619.5C161.89,-610.92 229.87,-493.61 253.4,-404.4 262.09,-371.48 282.1,-370.49 290.88,-337.6 301.68,-297.15 333.75,-243.4 291.88,-243.4"/>
<polygon fill="black" stroke="black" points="242.08,-619.48 251.84,-624.48 247.41,-619.75 251.74,-619.97 251.74,-619.97 251.74,-619.97 247.41,-619.75 252.29,-615.49 242.08,-619.48"/>
<text text-anchor="start" x="7" y="-630" font-family="Arial" font-size="10.00">FOREIGN KEY (group_id) REFERENCES groups (id)</text>
</g>
<!-- users -->
<g id="node3" class="node">
<title>users</title>
<polygon fill="#efefef" stroke="none" points="395.59,-289.6 395.59,-325.2 598.68,-325.2 598.68,-289.6 395.59,-289.6"/>
<polygon fill="none" stroke="black" points="395.59,-289.6 395.59,-325.2 598.68,-325.2 598.68,-289.6 395.59,-289.6"/>
<text text-anchor="start" x="416.39" y="-303" font-family="Arial Bold" font-size="18.00">users</text>
<text text-anchor="start" x="453.39" y="-303" font-family="Arial" font-size="14.00">    </text>
<text text-anchor="start" x="484.5" y="-303" font-family="Arial" font-size="14.00" fill="#666666">[BASE TABLE]</text>
<polygon fill="none" stroke="black" points="395.59,-258.8 395.59,-289.6 598.68,-289.6 598.68,-258.8 395.59,-258.8"/>
<text text-anchor="start" x="402.59" y="-271" font-family="Arial" font-size="14.00">id </text>
<text text-anchor="start" x="417.37" y="-271" font-family="Arial" font-size="14.00" fill="#666666">[char(36)]</text>
<polygon fill="none" stroke="black" points="395.59,-228 395.59,-258.8 598.68,-258.8 598.68,-228 395.59,-228"/>
<text text-anchor="start" x="402.59" y="-240.2" font-family="Arial" font-size="14.00">trap_id </text>
<text text-anchor="start" x="449.28" y="-240.2" font-family="Arial" font-size="14.00" fill="#666666">[varchar(32)]</text>
<polygon fill="none" stroke="black" points="395.59,-197.2 395.59,-228 598.68,-228 598.68,-197.2 395.59,-197.2"/>
<text text-anchor="start" x="402.59" y="-209.4" font-family="Arial" font-size="14.00">password_hash </text>
<text text-anchor="start" x="504.54" y="-209.4" font-family="Arial" font-size="14.00" fill="#666666">[varchar(255)]</text>
<polygon fill="none" stroke="black" points="395.59,-166.4 395.59,-197.2 598.68,-197.2 598.68,-166.4 395.59,-166.4"/>
<text text-anchor="start" x="402.59" y="-178.6" font-family="Arial" font-size="14.00">email </text>
<text text-anchor="start" x="439.93" y="-178.6" font-family="Arial" font-size="14.00" fill="#666666">[varbinary(512)]</text>
<polygon fill="none" stroke="black" points="395.59,-135.6 395.59,-166.4 598.68,-166.4 598.68,-135.6 395.59,-135.6"/>
<text text-anchor="start" x="402.59" y="-147.8" font-family="Arial" font-size="14.00">personal_info </text>
<text text-anchor="start" x="490.54" y="-147.8" font-family="Arial" font-size="14.00" fill="#666666">[blob]</text>
<polygon fill="none" stroke="black" points="395.59,-104.8 395.59,-135.6 598.68,-135.6 598.68,-104.8 395.59,-104.8"/>
<text text-anchor="start" x="402.59" y="-117" font-family="Arial" font-size="14.00">student_number </text>
<text text-anchor="start" x="507.65" y="-117" font-family="Arial" font-size="14.00" fill="#666666">[varchar(8)]</text>
<polygon fill="none" stroke="black" points="395.59,-74 395.59,-104.8 598.68,-104.8 598.68,-74 395.59,-74"/>
<text text-anchor="start" x="402.59" y="-86.2" font-family="Arial" font-size="14.00">created_at </text>
<text text-anchor="start" x="472.63" y="-86.2" font-family="Arial" font-size="14.00" fill="#666666">[datetime(6)]</text>
<polygon fill="none" stroke="black" points="395.59,-43.2 395.59,-74 598.68,-74 598.68,-43.2 395.59,-43.2"/>
<text text-anchor="start" x="402.59" y="-55.4" font-family="Arial" font-size="14.00">updated_at </text>
<text text-anchor="start" x="476.54" y="-55.4" font-family="Arial" font-size="14.00" fill="#666666">[datetime(6)]</text>
</g>
<!-- secrets&#45;&gt;users -->
<g id="edge2" class="edge">
<title>secrets:created_by&#45;&gt;users:id</title>
<path fill="none" stroke="black" d="M452.09,-527.49C659.28,-522.88 399.01,-375.41 395.59,-368.4 377.19,-330.79 352.72,-274.2 394.59,-274.2"/>
<polygon fill="black" stroke="black" points="452.2,-527.49 442.15,-523.1 446.86,-527.55 442.53,-527.59 442.53,-527.59 442.53,-527.59 446.86,-527.55 442.25,-532.1 452.2,-527.49"/>
<text text-anchor="start" x="448.87" y="-537.6" font-family="Arial" font-size="10.00">FOREIGN KEY (created_by) REFERENCES users (id)</text>
</g>
</g>
</svg>
