<?xml version="1.0" encoding="UTF-8" standalone="no"?>
<!DOCTYPE svg PUBLIC "-//W3C//DTD SVG 1.1//EN"
 "http://www.w3.org/Graphics/SVG/1.1/DTD/svg11.dtd">
<!-- Generated by graphviz version 12.1.2 (20240928.0832)
 -->
<!-- Title: oidc Pages: 1 -->
<svg width="1774pt" height="469pt"
 viewBox="0.00 0.00 1774.00 468.80" xmlns="http://www.w3.org/2000/svg" xmlns:xlink="http://www.w3.org/1999/xlink">
<g id="graph0" class="graph" transform="scale(1 1) rotate(0) translate(4 464.8)">
<title>oidc</title>
<polygon fill="white" stroke="none" points="-4,4 -4,-464.8 1770,-464.8 1770,4 -4,4"/>
<!-- authorization_codes -->
<g id="node1" class="node">
<title>authorization_codes</title>
<polygon fill="#efefef" stroke="none" points="43.2,-382 43.2,-417.6 326.64,-417.6 326.64,-382 43.2,-382"/>
<polygon fill="none" stroke="black" points="43.2,-382 43.2,-417.6 326.64,-417.6 326.64,-382 43.2,-382"/>
<text text-anchor="start" x="50.2" y="-395.4" font-family="Arial Bold" font-size="18.00">authorization_codes</text>
<text text-anchor="start" x="195.15" y="-395.4" font-family="Arial" font-size="14.00">    </text>
<text text-anchor="start" x="226.27" y="-395.4" font-family="Arial" font-size="14.00" fill="#666666">[BASE TABLE]</text>
<polygon fill="none" stroke="black" points="43.2,-351.2 43.2,-382 326.64,-382 326.64,-351.2 43.2,-351.2"/>
<text text-anchor="start" x="50.2" y="-363.4" font-family="Arial" font-size="14.00">code </text>
<text text-anchor="start" x="84.45" y="-363.4" font-family="Arial" font-size="14.00" fill="#666666">[varchar(64)]</text>
<polygon fill="none" stroke="black" points="43.2,-320.4 43.2,-351.2 326.64,-351.2 326.64,-320.4 43.2,-320.4"/>
<text text-anchor="start" x="50.2" y="-332.6" font-family="Arial" font-size="14.00">client_id </text>
<text text-anchor="start" x="105.45" y="-332.6" font-family="Arial" font-size="14.00" fill="#666666">[varchar(64)]</text>
<polygon fill="none" stroke="black" points="43.2,-289.6 43.2,-320.4 326.64,-320.4 326.64,-289.6 43.2,-289.6"/>
<text text-anchor="start" x="50.2" y="-301.8" font-family="Arial" font-size="14.00">user_id </text>
<text text-anchor="start" x="100.01" y="-301.8" font-family="Arial" font-size="14.00" fill="#666666">[varchar(32)]</text>
<polygon fill="none" stroke="black" points="43.2,-258.8 43.2,-289.6 326.64,-289.6 326.64,-258.8 43.2,-258.8"/>
<text text-anchor="start" x="50.2" y="-271" font-family="Arial" font-size="14.00">redirect_uri </text>
<text text-anchor="start" x="124.12" y="-271" font-family="Arial" font-size="14.00" fill="#666666">[text]</text>
<polygon fill="none" stroke="black" points="43.2,-228 43.2,-258.8 326.64,-258.8 326.64,-228 43.2,-228"/>
<text text-anchor="start" x="50.2" y="-240.2" font-family="Arial" font-size="14.00">scope </text>
<text text-anchor="start" x="91.45" y="-240.2" font-family="Arial" font-size="14.00" fill="#666666">[text]</text>
<polygon fill="none" stroke="black" points="43.2,-197.2 43.2,-228 326.64,-228 326.64,-197.2 43.2,-197.2"/>
<text text-anchor="start" x="50.2" y="-209.4" font-family="Arial" font-size="14.00">code_challenge </text>
<text text-anchor="start" x="152.17" y="-209.4" font-family="Arial" font-size="14.00" fill="#666666">[varchar(128)]</text>
<polygon fill="none" stroke="black" points="43.2,-166.4 43.2,-197.2 326.64,-197.2 326.64,-166.4 43.2,-166.4"/>
<text text-anchor="start" x="50.2" y="-178.6" font-family="Arial" font-size="14.00">code_challenge_method </text>
<text text-anchor="start" x="206.65" y="-178.6" font-family="Arial" font-size="14.00" fill="#666666">[varchar(10)]</text>
<polygon fill="none" stroke="black" points="43.2,-135.6 43.2,-166.4 326.64,-166.4 326.64,-135.6 43.2,-135.6"/>
<text text-anchor="start" x="50.2" y="-147.8" font-family="Arial" font-size="14.00">session_data </text>
<text text-anchor="start" x="136.59" y="-147.8" font-family="Arial" font-size="14.00" fill="#666666">[text]</text>
<polygon fill="none" stroke="black" points="43.2,-104.8 43.2,-135.6 326.64,-135.6 326.64,-104.8 43.2,-104.8"/>
<text text-anchor="start" x="50.2" y="-117" font-family="Arial" font-size="14.00">used </text>
<text text-anchor="start" x="84.45" y="-117" font-family="Arial" font-size="14.00" fill="#666666">[tinyint(1)]</text>
<polygon fill="none" stroke="black" points="43.2,-74 43.2,-104.8 326.64,-104.8 326.64,-74 43.2,-74"/>
<text text-anchor="start" x="50.2" y="-86.2" font-family="Arial" font-size="14.00">expires_at </text>
<text text-anchor="start" x="118.68" y="-86.2" font-family="Arial" font-size="14.00" fill="#666666">[datetime(6)]</text>
<polygon fill="none" stroke="black" points="43.2,-43.2 43.2,-74 326.64,-74 326.64,-43.2 43.2,-43.2"/>
<text text-anchor="start" x="50.2" y="-55.4" font-family="Arial" font-size="14.00">created_at </text>
<text text-anchor="start" x="120.25" y="-55.4" font-family="Arial" font-size="14.00" fill="#666666">[datetime(6)]</text>
</g>
<!-- authorization_requests -->
<g id="node2" class="node">
<title>authorization_requests</title>
<polygon fill="#efefef" stroke="none" points="431.2,-366.6 431.2,-402.2 732.64,-402.2 732.64,-366.6 431.2,-366.6"/>
<polygon fill="none" stroke="black" points="431.2,-366.6 431.2,-402.2 732.64,-402.2 732.64,-366.6 431.2,-366.6"/>
<text text-anchor="start" x="438.2" y="-380" font-family="Arial Bold" font-size="18.00">authorization_requests</text>
<text text-anchor="start" x="601.15" y="-380" font-family="Arial" font-size="14.00">    </text>
<text text-anchor="start" x="632.27" y="-380" font-family="Arial" font-size="14.00" fill="#666666">[BASE TABLE]</text>
<polygon fill="none" stroke="black" points="431.2,-335.8 431.2,-366.6 732.64,-366.6 732.64,-335.8 431.2,-335.8"/>
<text text-anchor="start" x="438.2" y="-348" font-family="Arial" font-size="14.00">id </text>
<text text-anchor="start" x="452.99" y="-348" font-family="Arial" font-size="14.00" fill="#666666">[char(36)]</text>
<polygon fill="none" stroke="black" points="431.2,-305 431.2,-335.8 732.64,-335.8 732.64,-305 431.2,-305"/>
<text text-anchor="start" x="438.2" y="-317.2" font-family="Arial" font-size="14.00">client_id </text>
<text text-anchor="start" x="493.45" y="-317.2" font-family="Arial" font-size="14.00" fill="#666666">[varchar(64)]</text>
<polygon fill="none" stroke="black" points="431.2,-274.2 431.2,-305 732.64,-305 732.64,-274.2 431.2,-274.2"/>
<text text-anchor="start" x="438.2" y="-286.4" font-family="Arial" font-size="14.00">redirect_uri </text>
<text text-anchor="start" x="512.12" y="-286.4" font-family="Arial" font-size="14.00" fill="#666666">[text]</text>
<polygon fill="none" stroke="black" points="431.2,-243.4 431.2,-274.2 732.64,-274.2 732.64,-243.4 431.2,-243.4"/>
<text text-anchor="start" x="438.2" y="-255.6" font-family="Arial" font-size="14.00">scope </text>
<text text-anchor="start" x="479.45" y="-255.6" font-family="Arial" font-size="14.00" fill="#666666">[text]</text>
<polygon fill="none" stroke="black" points="431.2,-212.6 431.2,-243.4 732.64,-243.4 732.64,-212.6 431.2,-212.6"/>
<text text-anchor="start" x="438.2" y="-224.8" font-family="Arial" font-size="14.00">state </text>
<text text-anchor="start" x="472.44" y="-224.8" font-family="Arial" font-size="14.00" fill="#666666">[varchar(255)]</text>
<polygon fill="none" stroke="black" points="431.2,-181.8 431.2,-212.6 732.64,-212.6 732.64,-181.8 431.2,-181.8"/>
<text text-anchor="start" x="438.2" y="-194" font-family="Arial" font-size="14.00">code_challenge </text>
<text text-anchor="start" x="540.17" y="-194" font-family="Arial" font-size="14.00" fill="#666666">[varchar(128)]</text>
<polygon fill="none" stroke="black" points="431.2,-151 431.2,-181.8 732.64,-181.8 732.64,-151 431.2,-151"/>
<text text-anchor="start" x="438.2" y="-163.2" font-family="Arial" font-size="14.00">code_challenge_method </text>
<text text-anchor="start" x="594.65" y="-163.2" font-family="Arial" font-size="14.00" fill="#666666">[varchar(10)]</text>
<polygon fill="none" stroke="black" points="431.2,-120.2 431.2,-151 732.64,-151 732.64,-120.2 431.2,-120.2"/>
<text text-anchor="start" x="438.2" y="-132.4" font-family="Arial" font-size="14.00">user_id </text>
<text text-anchor="start" x="488.01" y="-132.4" font-family="Arial" font-size="14.00" fill="#666666">[varchar(32)]</text>
<polygon fill="none" stroke="black" points="431.2,-89.4 431.2,-120.2 732.64,-120.2 732.64,-89.4 431.2,-89.4"/>
<text text-anchor="start" x="438.2" y="-101.6" font-family="Arial" font-size="14.00">expires_at </text>
<text text-anchor="start" x="506.68" y="-101.6" font-family="Arial" font-size="14.00" fill="#666666">[datetime(6)]</text>
<polygon fill="none" stroke="black" points="431.2,-58.6 431.2,-89.4 732.64,-89.4 732.64,-58.6 431.2,-58.6"/>
<text text-anchor="start" x="438.2" y="-70.8" font-family="Arial" font-size="14.00">created_at </text>
<text text-anchor="start" x="508.25" y="-70.8" font-family="Arial" font-size="14.00" fill="#666666">[datetime(6)]</text>
</g>
<!-- sessions -->
<g id="node3" class="node">
<title>sessions</title>
<polygon fill="#efefef" stroke="none" points="837.17,-335.8 837.17,-371.4 1034.67,-371.4 1034.67,-335.8 837.17,-335.8"/>
<polygon fill="none" stroke="black" points="837.17,-335.8 837.17,-371.4 1034.67,-371.4 1034.67,-335.8 837.17,-335.8"/>
<text text-anchor="start" x="844.17" y="-349.2" font-family="Arial Bold" font-size="18.00">sessions</text>
<text text-anchor="start" x="903.18" y="-349.2" font-family="Arial" font-size="14.00">    </text>
<text text-anchor="start" x="934.3" y="-349.2" font-family="Arial" font-size="14.00" fill="#666666">[BASE TABLE]</text>
<polygon fill="none" stroke="black" points="837.17,-305 837.17,-335.8 1034.67,-335.8 1034.67,-305 837.17,-305"/>
<text text-anchor="start" x="844.17" y="-317.2" font-family="Arial" font-size="14.00">id </text>
<text text-anchor="start" x="858.96" y="-317.2" font-family="Arial" font-size="14.00" fill="#666666">[char(36)]</text>
<polygon fill="none" stroke="black" points="837.17,-274.2 837.17,-305 1034.67,-305 1034.67,-274.2 837.17,-274.2"/>
<text text-anchor="start" x="844.17" y="-286.4" font-family="Arial" font-size="14.00">user_id </text>
<text text-anchor="start" x="893.98" y="-286.4" font-family="Arial" font-size="14.00" fill="#666666">[varchar(32)]</text>
<polygon fill="none" stroke="black" points="837.17,-243.4 837.17,-274.2 1034.67,-274.2 1034.67,-243.4 837.17,-243.4"/>
<text text-anchor="start" x="844.17" y="-255.6" font-family="Arial" font-size="14.00">user_agent </text>
<text text-anchor="start" x="918.11" y="-255.6" font-family="Arial" font-size="14.00" fill="#666666">[text]</text>
<polygon fill="none" stroke="black" points="837.17,-212.6 837.17,-243.4 1034.67,-243.4 1034.67,-212.6 837.17,-212.6"/>
<text text-anchor="start" x="844.17" y="-224.8" font-family="Arial" font-size="14.00">ip_address </text>
<text text-anchor="start" x="916.55" y="-224.8" font-family="Arial" font-size="14.00" fill="#666666">[varchar(45)]</text>
<polygon fill="none" stroke="black" points="837.17,-181.8 837.17,-212.6 1034.67,-212.6 1034.67,-181.8 837.17,-181.8"/>
<text text-anchor="start" x="844.17" y="-194" font-family="Arial" font-size="14.00">auth_time </text>
<text text-anchor="start" x="909.54" y="-194" font-family="Arial" font-size="14.00" fill="#666666">[datetime(6)]</text>
<polygon fill="none" stroke="black" points="837.17,-151 837.17,-181.8 1034.67,-181.8 1034.67,-151 837.17,-151"/>
<text text-anchor="start" x="844.17" y="-163.2" font-family="Arial" font-size="14.00">last_active_at </text>
<text text-anchor="start" x="933.67" y="-163.2" font-family="Arial" font-size="14.00" fill="#666666">[datetime(6)]</text>
<polygon fill="none" stroke="black" points="837.17,-120.2 837.17,-151 1034.67,-151 1034.67,-120.2 837.17,-120.2"/>
<text text-anchor="start" x="844.17" y="-132.4" font-family="Arial" font-size="14.00">expires_at </text>
<text text-anchor="start" x="912.65" y="-132.4" font-family="Arial" font-size="14.00" fill="#666666">[datetime(6)]</text>
<polygon fill="none" stroke="black" points="837.17,-89.4 837.17,-120.2 1034.67,-120.2 1034.67,-89.4 837.17,-89.4"/>
<text text-anchor="start" x="844.17" y="-101.6" font-family="Arial" font-size="14.00">created_at </text>
<text text-anchor="start" x="914.22" y="-101.6" font-family="Arial" font-size="14.00" fill="#666666">[datetime(6)]</text>
</g>
<!-- gorp_migrations -->
<g id="node4" class="node">
<title>gorp_migrations</title>
<polygon fill="#efefef" stroke="none" points="1139.18,-243.4 1139.18,-279 1396.66,-279 1396.66,-243.4 1139.18,-243.4"/>
<polygon fill="none" stroke="black" points="1139.18,-243.4 1139.18,-279 1396.66,-279 1396.66,-243.4 1139.18,-243.4"/>
<text text-anchor="start" x="1146.18" y="-256.8" font-family="Arial Bold" font-size="18.00">gorp_migrations</text>
<text text-anchor="start" x="1265.17" y="-256.8" font-family="Arial" font-size="14.00">    </text>
<text text-anchor="start" x="1296.28" y="-256.8" font-family="Arial" font-size="14.00" fill="#666666">[BASE TABLE]</text>
<polygon fill="none" stroke="black" points="1139.18,-212.6 1139.18,-243.4 1396.66,-243.4 1396.66,-212.6 1139.18,-212.6"/>
<text text-anchor="start" x="1146.18" y="-224.8" font-family="Arial" font-size="14.00">id </text>
<text text-anchor="start" x="1160.97" y="-224.8" font-family="Arial" font-size="14.00" fill="#666666">[varchar(255)]</text>
<polygon fill="none" stroke="black" points="1139.18,-181.8 1139.18,-212.6 1396.66,-212.6 1396.66,-181.8 1139.18,-181.8"/>
<text text-anchor="start" x="1146.18" y="-194" font-family="Arial" font-size="14.00">applied_at </text>
<text text-anchor="start" x="1214.68" y="-194" font-family="Arial" font-size="14.00" fill="#666666">[datetime]</text>
</g>
<!-- clients -->
<g id="node5" class="node">
<title>clients</title>
<polygon fill="#efefef" stroke="none" points="1501.03,-320.4 1501.03,-356 1722.8,-356 1722.8,-320.4 1501.03,-320.4"/>
<polygon fill="none" stroke="black" points="1501.03,-320.4 1501.03,-356 1722.8,-356 1722.8,-320.4 1501.03,-320.4"/>
<text text-anchor="start" x="1526.18" y="-333.8" font-family="Arial Bold" font-size="18.00">clients</text>
<text text-anchor="start" x="1573.17" y="-333.8" font-family="Arial" font-size="14.00">    </text>
<text text-anchor="start" x="1604.28" y="-333.8" font-family="Arial" font-size="14.00" fill="#666666">[BASE TABLE]</text>
<polygon fill="none" stroke="black" points="1501.03,-289.6 1501.03,-320.4 1722.8,-320.4 1722.8,-289.6 1501.03,-289.6"/>
<text text-anchor="start" x="1508.03" y="-301.8" font-family="Arial" font-size="14.00">client_id </text>
<text text-anchor="start" x="1563.29" y="-301.8" font-family="Arial" font-size="14.00" fill="#666666">[char(36)]</text>
<polygon fill="none" stroke="black" points="1501.03,-258.8 1501.03,-289.6 1722.8,-289.6 1722.8,-258.8 1501.03,-258.8"/>
<text text-anchor="start" x="1508.03" y="-271" font-family="Arial" font-size="14.00">client_secret_hash </text>
<text text-anchor="start" x="1628.66" y="-271" font-family="Arial" font-size="14.00" fill="#666666">[varchar(255)]</text>
<polygon fill="none" stroke="black" points="1501.03,-228 1501.03,-258.8 1722.8,-258.8 1722.8,-228 1501.03,-228"/>
<text text-anchor="start" x="1508.03" y="-240.2" font-family="Arial" font-size="14.00">name </text>
<text text-anchor="start" x="1546.94" y="-240.2" font-family="Arial" font-size="14.00" fill="#666666">[varchar(255)]</text>
<polygon fill="none" stroke="black" points="1501.03,-197.2 1501.03,-228 1722.8,-228 1722.8,-197.2 1501.03,-197.2"/>
<text text-anchor="start" x="1508.03" y="-209.4" font-family="Arial" font-size="14.00">client_type </text>
<text text-anchor="start" x="1578.85" y="-209.4" font-family="Arial" font-size="14.00" fill="#666666">[varchar(20)]</text>
<polygon fill="none" stroke="black" points="1501.03,-166.4 1501.03,-197.2 1722.8,-197.2 1722.8,-166.4 1501.03,-166.4"/>
<text text-anchor="start" x="1508.03" y="-178.6" font-family="Arial" font-size="14.00">redirect_uris </text>
<text text-anchor="start" x="1588.95" y="-178.6" font-family="Arial" font-size="14.00" fill="#666666">[longtext]</text>
<polygon fill="none" stroke="black" points="1501.03,-135.6 1501.03,-166.4 1722.8,-166.4 1722.8,-135.6 1501.03,-135.6"/>
<text text-anchor="start" x="1508.03" y="-147.8" font-family="Arial" font-size="14.00">created_at </text>
<text text-anchor="start" x="1578.08" y="-147.8" font-family="Arial" font-size="14.00" fill="#666666">[datetime(6)]</text>
<polygon fill="none" stroke="black" points="1501.03,-104.8 1501.03,-135.6 1722.8,-135.6 1722.8,-104.8 1501.03,-104.8"/>
<text text-anchor="start" x="1508.03" y="-117" font-family="Arial" font-size="14.00">updated_at </text>
<text text-anchor="start" x="1581.99" y="-117" font-family="Arial" font-size="14.00" fill="#666666">[datetime(6)]</text>
</g>
</g>
</svg>
