<?xml version="1.0" encoding="UTF-8" standalone="no"?>
<!DOCTYPE svg PUBLIC "-//W3C//DTD SVG 1.1//EN"
 "http://www.w3.org/Graphics/SVG/1.1/DTD/svg11.dtd">
<!-- Generated by graphviz version 12.1.2 (20240928.0832)
 -->
<!-- Title: client_redirect_urls Pages: 1 -->
<svg width="379pt" height="198pt"
 viewBox="0.00 0.00 378.83 197.60" xmlns="http://www.w3.org/2000/svg" xmlns:xlink="http://www.w3.org/1999/xlink">
<g id="graph0" class="graph" transform="scale(1 1) rotate(0) translate(4 193.6)">
<title>client_redirect_urls</title>
<polygon fill="white" stroke="none" points="-4,4 -4,-193.6 374.83,-193.6 374.83,4 -4,4"/>
<!-- client_redirect_urls -->
<g id="node1" class="node">
<title>client_redirect_urls</title>
<polygon fill="#efefef" stroke="none" points="46.2,-107.8 46.2,-143.4 324.63,-143.4 324.63,-107.8 46.2,-107.8"/>
<polygon fill="none" stroke="black" points="46.2,-107.8 46.2,-143.4 324.63,-143.4 324.63,-107.8 46.2,-107.8"/>
<text text-anchor="start" x="53.2" y="-121.2" font-family="Arial Bold" font-size="18.00">client_redirect_urls</text>
<text text-anchor="start" x="193.14" y="-121.2" font-family="Arial" font-size="14.00">    </text>
<text text-anchor="start" x="224.26" y="-121.2" font-family="Arial" font-size="14.00" fill="#666666">[BASE TABLE]</text>
<polygon fill="none" stroke="black" points="46.2,-77 46.2,-107.8 324.63,-107.8 324.63,-77 46.2,-77"/>
<text text-anchor="start" x="53.2" y="-89.2" font-family="Arial" font-size="14.00">client_id </text>
<text text-anchor="start" x="108.45" y="-89.2" font-family="Arial" font-size="14.00" fill="#666666">[varchar(86)]</text>
<polygon fill="none" stroke="black" points="46.2,-46.2 46.2,-77 324.63,-77 324.63,-46.2 46.2,-46.2"/>
<text text-anchor="start" x="53.2" y="-58.4" font-family="Arial" font-size="14.00">url </text>
<text text-anchor="start" x="72.65" y="-58.4" font-family="Arial" font-size="14.00" fill="#666666">[varchar(105)]</text>
<polygon fill="none" stroke="black" stroke-width="3" points="44.7,-44.7 44.7,-144.9 326.13,-144.9 326.13,-44.7 44.7,-44.7"/>
</g>
</g>
</svg>
