<?xml version="1.0" encoding="UTF-8" standalone="no"?>
<!DOCTYPE svg PUBLIC "-//W3C//DTD SVG 1.1//EN"
 "http://www.w3.org/Graphics/SVG/1.1/DTD/svg11.dtd">
<!-- Generated by graphviz version 12.1.2 (20240928.0832)
 -->
<!-- Title: clients Pages: 1 -->
<svg width="286pt" height="352pt"
 viewBox="0.00 0.00 285.88 351.60" xmlns="http://www.w3.org/2000/svg" xmlns:xlink="http://www.w3.org/1999/xlink">
<g id="graph0" class="graph" transform="scale(1 1) rotate(0) translate(4 347.6)">
<title>clients</title>
<polygon fill="white" stroke="none" points="-4,4 -4,-347.6 281.88,-347.6 281.88,4 -4,4"/>
<!-- clients -->
<g id="node1" class="node">
<title>clients</title>
<polygon fill="#efefef" stroke="none" points="46.2,-261.8 46.2,-297.4 231.68,-297.4 231.68,-261.8 46.2,-261.8"/>
<polygon fill="none" stroke="black" points="46.2,-261.8 46.2,-297.4 231.68,-297.4 231.68,-261.8 46.2,-261.8"/>
<text text-anchor="start" x="53.2" y="-275.2" font-family="Arial Bold" font-size="18.00">clients</text>
<text text-anchor="start" x="100.19" y="-275.2" font-family="Arial" font-size="14.00">    </text>
<text text-anchor="start" x="131.3" y="-275.2" font-family="Arial" font-size="14.00" fill="#666666">[BASE TABLE]</text>
<polygon fill="none" stroke="black" points="46.2,-231 46.2,-261.8 231.68,-261.8 231.68,-231 46.2,-231"/>
<text text-anchor="start" x="53.2" y="-243.2" font-family="Arial" font-size="14.00">id </text>
<text text-anchor="start" x="67.99" y="-243.2" font-family="Arial" font-size="14.00" fill="#666666">[varchar(86)]</text>
<polygon fill="none" stroke="black" points="46.2,-200.2 46.2,-231 231.68,-231 231.68,-200.2 46.2,-200.2"/>
<text text-anchor="start" x="53.2" y="-212.4" font-family="Arial" font-size="14.00">secret </text>
<text text-anchor="start" x="95.21" y="-212.4" font-family="Arial" font-size="14.00" fill="#666666">[varchar(86)]</text>
<polygon fill="none" stroke="black" points="46.2,-169.4 46.2,-200.2 231.68,-200.2 231.68,-169.4 46.2,-169.4"/>
<text text-anchor="start" x="53.2" y="-181.6" font-family="Arial" font-size="14.00">owner_id </text>
<text text-anchor="start" x="113.9" y="-181.6" font-family="Arial" font-size="14.00" fill="#666666">[varchar(32)]</text>
<polygon fill="none" stroke="black" points="46.2,-138.6 46.2,-169.4 231.68,-169.4 231.68,-138.6 46.2,-138.6"/>
<text text-anchor="start" x="53.2" y="-150.8" font-family="Arial" font-size="14.00">name </text>
<text text-anchor="start" x="92.11" y="-150.8" font-family="Arial" font-size="14.00" fill="#666666">[tinytext]</text>
<polygon fill="none" stroke="black" points="46.2,-107.8 46.2,-138.6 231.68,-138.6 231.68,-107.8 46.2,-107.8"/>
<text text-anchor="start" x="53.2" y="-120" font-family="Arial" font-size="14.00">description </text>
<text text-anchor="start" x="124.79" y="-120" font-family="Arial" font-size="14.00" fill="#666666">[text]</text>
<polygon fill="none" stroke="black" points="46.2,-77 46.2,-107.8 231.68,-107.8 231.68,-77 46.2,-77"/>
<text text-anchor="start" x="53.2" y="-89.2" font-family="Arial" font-size="14.00">created_at </text>
<text text-anchor="start" x="123.25" y="-89.2" font-family="Arial" font-size="14.00" fill="#666666">[timestamp]</text>
<polygon fill="none" stroke="black" points="46.2,-46.2 46.2,-77 231.68,-77 231.68,-46.2 46.2,-46.2"/>
<text text-anchor="start" x="53.2" y="-58.4" font-family="Arial" font-size="14.00">updated_at </text>
<text text-anchor="start" x="127.16" y="-58.4" font-family="Arial" font-size="14.00" fill="#666666">[timestamp]</text>
<polygon fill="none" stroke="black" stroke-width="3" points="44.7,-44.7 44.7,-298.9 233.18,-298.9 233.18,-44.7 44.7,-44.7"/>
</g>
</g>
</svg>
