<?xml version="1.0" encoding="UTF-8" standalone="no"?>
<!DOCTYPE svg PUBLIC "-//W3C//DTD SVG 1.1//EN"
 "http://www.w3.org/Graphics/SVG/1.1/DTD/svg11.dtd">
<!-- Generated by graphviz version 12.1.2 (20240928.0832)
 -->
<!-- Title: group_permissions Pages: 1 -->
<svg width="583pt" height="571pt"
 viewBox="0.00 0.00 583.09 571.20" xmlns="http://www.w3.org/2000/svg" xmlns:xlink="http://www.w3.org/1999/xlink">
<g id="graph0" class="graph" transform="scale(1 1) rotate(0) translate(4 567.2)">
<title>group_permissions</title>
<polygon fill="white" stroke="none" points="-4,4 -4,-567.2 579.09,-567.2 579.09,4 -4,4"/>
<!-- group_permissions -->
<g id="node1" class="node">
<title>group_permissions</title>
<polygon fill="#efefef" stroke="none" points="46.2,-481.4 46.2,-517 321.68,-517 321.68,-481.4 46.2,-481.4"/>
<polygon fill="none" stroke="black" points="46.2,-481.4 46.2,-517 321.68,-517 321.68,-481.4 46.2,-481.4"/>
<text text-anchor="start" x="53.2" y="-494.8" font-family="Arial Bold" font-size="18.00">group_permissions</text>
<text text-anchor="start" x="190.2" y="-494.8" font-family="Arial" font-size="14.00">    </text>
<text text-anchor="start" x="221.31" y="-494.8" font-family="Arial" font-size="14.00" fill="#666666">[BASE TABLE]</text>
<polygon fill="none" stroke="black" points="46.2,-450.6 46.2,-481.4 321.68,-481.4 321.68,-450.6 46.2,-450.6"/>
<text text-anchor="start" x="53.2" y="-462.8" font-family="Arial" font-size="14.00">group_id </text>
<text text-anchor="start" x="111.58" y="-462.8" font-family="Arial" font-size="14.00" fill="#666666">[char(36)]</text>
<polygon fill="none" stroke="black" points="46.2,-419.8 46.2,-450.6 321.68,-450.6 321.68,-419.8 46.2,-419.8"/>
<text text-anchor="start" x="53.2" y="-432" font-family="Arial" font-size="14.00">permission </text>
<text text-anchor="start" x="124.78" y="-432" font-family="Arial" font-size="14.00" fill="#666666">[varchar(64)]</text>
<polygon fill="none" stroke="black" points="46.2,-389 46.2,-419.8 321.68,-419.8 321.68,-389 46.2,-389"/>
<text text-anchor="start" x="53.2" y="-401.2" font-family="Arial" font-size="14.00">created_at </text>
<text text-anchor="start" x="123.25" y="-401.2" font-family="Arial" font-size="14.00" fill="#666666">[datetime(6)]</text>
<polygon fill="none" stroke="black" stroke-width="3" points="44.7,-387.5 44.7,-518.5 323.18,-518.5 323.18,-387.5 44.7,-387.5"/>
</g>
<!-- groups -->
<g id="node2" class="node">
<title>groups</title>
<polygon fill="#efefef" stroke="none" points="90.2,-228 90.2,-263.6 277.69,-263.6 277.69,-228 90.2,-228"/>
<polygon fill="none" stroke="black" points="90.2,-228 90.2,-263.6 277.69,-263.6 277.69,-228 90.2,-228"/>
<text text-anchor="start" x="97.2" y="-241.4" font-family="Arial Bold" font-size="18.00">groups</text>
<text text-anchor="start" x="146.2" y="-241.4" font-family="Arial" font-size="14.00">    </text>
<text text-anchor="start" x="177.31" y="-241.4" font-family="Arial" font-size="14.00" fill="#666666">[BASE TABLE]</text>
<polygon fill="none" stroke="black" points="90.2,-197.2 90.2,-228 277.69,-228 277.69,-197.2 90.2,-197.2"/>
<text text-anchor="start" x="97.2" y="-209.4" font-family="Arial" font-size="14.00">id </text>
<text text-anchor="start" x="111.98" y="-209.4" font-family="Arial" font-size="14.00" fill="#666666">[char(36)]</text>
<polygon fill="none" stroke="black" points="90.2,-166.4 90.2,-197.2 277.69,-197.2 277.69,-166.4 90.2,-166.4"/>
<text text-anchor="start" x="97.2" y="-178.6" font-family="Arial" font-size="14.00">name </text>
<text text-anchor="start" x="136.11" y="-178.6" font-family="Arial" font-size="14.00" fill="#666666">[varchar(255)]</text>
<polygon fill="none" stroke="black" points="90.2,-135.6 90.2,-166.4 277.69,-166.4 277.69,-135.6 90.2,-135.6"/>
<text text-anchor="start" x="97.2" y="-147.8" font-family="Arial" font-size="14.00">description </text>
<text text-anchor="start" x="168.79" y="-147.8" font-family="Arial" font-size="14.00" fill="#666666">[text]</text>
<polygon fill="none" stroke="black" points="90.2,-104.8 90.2,-135.6 277.69,-135.6 277.69,-104.8 90.2,-104.8"/>
<text text-anchor="start" x="97.2" y="-117" font-family="Arial" font-size="14.00">parent_id </text>
<text text-anchor="start" x="159.47" y="-117" font-family="Arial" font-size="14.00" fill="#666666">[char(36)]</text>
<polygon fill="none" stroke="black" points="90.2,-74 90.2,-104.8 277.69,-104.8 277.69,-74 90.2,-74"/>
<text text-anchor="start" x="97.2" y="-86.2" font-family="Arial" font-size="14.00">created_at </text>
<text text-anchor="start" x="167.25" y="-86.2" font-family="Arial" font-size="14.00" fill="#666666">[datetime(6)]</text>
<polygon fill="none" stroke="black" points="90.2,-43.2 90.2,-74 277.69,-74 277.69,-43.2 90.2,-43.2"/>
<text text-anchor="start" x="97.2" y="-55.4" font-family="Arial" font-size="14.00">updated_at </text>
<text text-anchor="start" x="171.16" y="-55.4" font-family="Arial" font-size="14.00" fill="#666666">[datetime(6)]</text>
</g>
<!-- group_permissions&#45;&gt;groups -->
<g id="edge1" class="edge">
<title>group_permissions:group_id&#45;&gt;groups:id</title>
<path fill="none" stroke="black" d="M332.94,-465.27C434.17,-450.41 389.42,-212.6 278.69,-212.6"/>
<polygon fill="black" stroke="black" points="332.99,-465.27 322.7,-461.49 327.67,-465.65 323.35,-465.95 323.35,-465.95 323.35,-465.95 327.67,-465.65 323.34,-470.47 332.99,-465.27"/>
<text text-anchor="start" x="329.68" y="-476" font-family="Arial" font-size="10.00">FOREIGN KEY (group_id) REFERENCES groups (id)</text>
</g>
</g>
</svg>
