<?xml version="1.0" encoding="UTF-8" standalone="no"?>
<!DOCTYPE svg PUBLIC "-//W3C//DTD SVG 1.1//EN"
 "http://www.w3.org/Graphics/SVG/1.1/DTD/svg11.dtd">
<!-- Generated by graphviz version 12.1.2 (20240928.0832)
 -->
<!-- Title: groups Pages: 1 -->
<svg width="1761pt" height="725pt"
 viewBox="0.00 0.00 1760.61 725.20" xmlns="http://www.w3.org/2000/svg" xmlns:xlink="http://www.w3.org/1999/xlink">
<g id="graph0" class="graph" transform="scale(1 1) rotate(0) translate(4 721.2)">
<title>groups</title>
<polygon fill="white" stroke="none" points="-4,4 -4,-721.2 1756.61,-721.2 1756.61,4 -4,4"/>
<!-- groups -->
<g id="node1" class="node">
<title>groups</title>
<polygon fill="#efefef" stroke="none" points="833.2,-231 833.2,-266.6 1020.69,-266.6 1020.69,-231 833.2,-231"/>
<polygon fill="none" stroke="black" points="833.2,-231 833.2,-266.6 1020.69,-266.6 1020.69,-231 833.2,-231"/>
<text text-anchor="start" x="840.2" y="-244.4" font-family="Arial Bold" font-size="18.00">groups</text>
<text text-anchor="start" x="889.2" y="-244.4" font-family="Arial" font-size="14.00">    </text>
<text text-anchor="start" x="920.31" y="-244.4" font-family="Arial" font-size="14.00" fill="#666666">[BASE TABLE]</text>
<polygon fill="none" stroke="black" points="833.2,-200.2 833.2,-231 1020.69,-231 1020.69,-200.2 833.2,-200.2"/>
<text text-anchor="start" x="840.2" y="-212.4" font-family="Arial" font-size="14.00">id </text>
<text text-anchor="start" x="854.98" y="-212.4" font-family="Arial" font-size="14.00" fill="#666666">[char(36)]</text>
<polygon fill="none" stroke="black" points="833.2,-169.4 833.2,-200.2 1020.69,-200.2 1020.69,-169.4 833.2,-169.4"/>
<text text-anchor="start" x="840.2" y="-181.6" font-family="Arial" font-size="14.00">name </text>
<text text-anchor="start" x="879.11" y="-181.6" font-family="Arial" font-size="14.00" fill="#666666">[varchar(255)]</text>
<polygon fill="none" stroke="black" points="833.2,-138.6 833.2,-169.4 1020.69,-169.4 1020.69,-138.6 833.2,-138.6"/>
<text text-anchor="start" x="840.2" y="-150.8" font-family="Arial" font-size="14.00">description </text>
<text text-anchor="start" x="911.79" y="-150.8" font-family="Arial" font-size="14.00" fill="#666666">[text]</text>
<polygon fill="none" stroke="black" points="833.2,-107.8 833.2,-138.6 1020.69,-138.6 1020.69,-107.8 833.2,-107.8"/>
<text text-anchor="start" x="840.2" y="-120" font-family="Arial" font-size="14.00">parent_id </text>
<text text-anchor="start" x="902.47" y="-120" font-family="Arial" font-size="14.00" fill="#666666">[char(36)]</text>
<polygon fill="none" stroke="black" points="833.2,-77 833.2,-107.8 1020.69,-107.8 1020.69,-77 833.2,-77"/>
<text text-anchor="start" x="840.2" y="-89.2" font-family="Arial" font-size="14.00">created_at </text>
<text text-anchor="start" x="910.25" y="-89.2" font-family="Arial" font-size="14.00" fill="#666666">[datetime(6)]</text>
<polygon fill="none" stroke="black" points="833.2,-46.2 833.2,-77 1020.69,-77 1020.69,-46.2 833.2,-46.2"/>
<text text-anchor="start" x="840.2" y="-58.4" font-family="Arial" font-size="14.00">updated_at </text>
<text text-anchor="start" x="914.16" y="-58.4" font-family="Arial" font-size="14.00" fill="#666666">[datetime(6)]</text>
<polygon fill="none" stroke="black" stroke-width="3" points="831.7,-44.7 831.7,-268.1 1022.19,-268.1 1022.19,-44.7 831.7,-44.7"/>
</g>
<!-- groups&#45;&gt;groups -->
<g id="edge1" class="edge">
<title>groups:parent_id&#45;&gt;groups:id</title>
<path fill="none" stroke="black" d="M928.66,-148.64C935.9,-272.74 935.33,-501.1 926.94,-501.1 918.33,-501.1 917.96,-344.85 925.83,-230.7"/>
<polygon fill="black" stroke="black" points="928.66,-148.74 932.54,-138.48 928.34,-143.42 928.07,-139.1 928.07,-139.1 928.07,-139.1 928.34,-143.42 923.56,-139.04 928.66,-148.74"/>
<text text-anchor="start" x="935.03" y="-148.43" font-family="Arial" font-size="10.00">FOREIGN KEY (parent_id) REFERENCES groups (id)</text>
</g>
<!-- group_permissions -->
<g id="node2" class="node">
<title>group_permissions</title>
<polygon fill="#efefef" stroke="none" points="43.2,-561.4 43.2,-597 318.68,-597 318.68,-561.4 43.2,-561.4"/>
<polygon fill="none" stroke="black" points="43.2,-561.4 43.2,-597 318.68,-597 318.68,-561.4 43.2,-561.4"/>
<text text-anchor="start" x="50.2" y="-574.8" font-family="Arial Bold" font-size="18.00">group_permissions</text>
<text text-anchor="start" x="187.2" y="-574.8" font-family="Arial" font-size="14.00">    </text>
<text text-anchor="start" x="218.31" y="-574.8" font-family="Arial" font-size="14.00" fill="#666666">[BASE TABLE]</text>
<polygon fill="none" stroke="black" points="43.2,-530.6 43.2,-561.4 318.68,-561.4 318.68,-530.6 43.2,-530.6"/>
<text text-anchor="start" x="50.2" y="-542.8" font-family="Arial" font-size="14.00">group_id </text>
<text text-anchor="start" x="108.58" y="-542.8" font-family="Arial" font-size="14.00" fill="#666666">[char(36)]</text>
<polygon fill="none" stroke="black" points="43.2,-499.8 43.2,-530.6 318.68,-530.6 318.68,-499.8 43.2,-499.8"/>
<text text-anchor="start" x="50.2" y="-512" font-family="Arial" font-size="14.00">permission </text>
<text text-anchor="start" x="121.78" y="-512" font-family="Arial" font-size="14.00" fill="#666666">[varchar(64)]</text>
<polygon fill="none" stroke="black" points="43.2,-469 43.2,-499.8 318.68,-499.8 318.68,-469 43.2,-469"/>
<text text-anchor="start" x="50.2" y="-481.2" font-family="Arial" font-size="14.00">created_at </text>
<text text-anchor="start" x="120.25" y="-481.2" font-family="Arial" font-size="14.00" fill="#666666">[datetime(6)]</text>
</g>
<!-- group_permissions&#45;&gt;groups -->
<g id="edge2" class="edge">
<title>group_permissions:group_id&#45;&gt;groups:id</title>
<path fill="none" stroke="black" d="M329.88,-545.35C402.11,-535.26 310.36,-411.03 370.94,-348.8 445.36,-272.35 725.51,-215.6 832.2,-215.6"/>
<polygon fill="black" stroke="black" points="330,-545.34 319.73,-541.49 324.67,-545.68 320.35,-545.96 320.35,-545.96 320.35,-545.96 324.67,-545.68 320.31,-550.47 330,-545.34"/>
<text text-anchor="start" x="200.48" y="-530" font-family="Arial" font-size="10.00">FOREIGN KEY (group_id) REFERENCES groups (id)</text>
</g>
<!-- group_members -->
<g id="node3" class="node">
<title>group_members</title>
<polygon fill="#efefef" stroke="none" points="423.21,-576.8 423.21,-612.4 678.67,-612.4 678.67,-576.8 423.21,-576.8"/>
<polygon fill="none" stroke="black" points="423.21,-576.8 423.21,-612.4 678.67,-612.4 678.67,-576.8 423.21,-576.8"/>
<text text-anchor="start" x="430.21" y="-590.2" font-family="Arial Bold" font-size="18.00">group_members</text>
<text text-anchor="start" x="547.18" y="-590.2" font-family="Arial" font-size="14.00">    </text>
<text text-anchor="start" x="578.3" y="-590.2" font-family="Arial" font-size="14.00" fill="#666666">[BASE TABLE]</text>
<polygon fill="none" stroke="black" points="423.21,-546 423.21,-576.8 678.67,-576.8 678.67,-546 423.21,-546"/>
<text text-anchor="start" x="430.21" y="-558.2" font-family="Arial" font-size="14.00">group_id </text>
<text text-anchor="start" x="488.59" y="-558.2" font-family="Arial" font-size="14.00" fill="#666666">[char(36)]</text>
<polygon fill="none" stroke="black" points="423.21,-515.2 423.21,-546 678.67,-546 678.67,-515.2 423.21,-515.2"/>
<text text-anchor="start" x="430.21" y="-527.4" font-family="Arial" font-size="14.00">user_id </text>
<text text-anchor="start" x="480.02" y="-527.4" font-family="Arial" font-size="14.00" fill="#666666">[char(36)]</text>
<polygon fill="none" stroke="black" points="423.21,-484.4 423.21,-515.2 678.67,-515.2 678.67,-484.4 423.21,-484.4"/>
<text text-anchor="start" x="430.21" y="-496.6" font-family="Arial" font-size="14.00">roles </text>
<text text-anchor="start" x="464.45" y="-496.6" font-family="Arial" font-size="14.00" fill="#666666">[longtext]</text>
<polygon fill="none" stroke="black" points="423.21,-453.6 423.21,-484.4 678.67,-484.4 678.67,-453.6 423.21,-453.6"/>
<text text-anchor="start" x="430.21" y="-465.8" font-family="Arial" font-size="14.00">joined_at </text>
<text text-anchor="start" x="490.93" y="-465.8" font-family="Arial" font-size="14.00" fill="#666666">[datetime(6)]</text>
</g>
<!-- group_members&#45;&gt;groups -->
<g id="edge3" class="edge">
<title>group_members:group_id&#45;&gt;groups:id</title>
<path fill="none" stroke="black" d="M689.75,-560.89C770.55,-552.19 690.8,-433.34 730.94,-348.8 762.84,-281.62 757.83,-215.6 832.2,-215.6"/>
<polygon fill="black" stroke="black" points="690,-560.88 679.78,-556.89 684.67,-561.15 680.34,-561.37 680.34,-561.37 680.34,-561.37 684.67,-561.15 680.23,-565.88 690,-560.88"/>
<text text-anchor="start" x="686.67" y="-571.4" font-family="Arial" font-size="10.00">FOREIGN KEY (group_id) REFERENCES groups (id)</text>
</g>
<!-- group_member_logs -->
<g id="node4" class="node">
<title>group_member_logs</title>
<polygon fill="#efefef" stroke="none" points="783.21,-638.4 783.21,-674 1070.67,-674 1070.67,-638.4 783.21,-638.4"/>
<polygon fill="none" stroke="black" points="783.21,-638.4 783.21,-674 1070.67,-674 1070.67,-638.4 783.21,-638.4"/>
<text text-anchor="start" x="790.21" y="-651.8" font-family="Arial Bold" font-size="18.00">group_member_logs</text>
<text text-anchor="start" x="939.18" y="-651.8" font-family="Arial" font-size="14.00">    </text>
<text text-anchor="start" x="970.3" y="-651.8" font-family="Arial" font-size="14.00" fill="#666666">[BASE TABLE]</text>
<polygon fill="none" stroke="black" points="783.21,-607.6 783.21,-638.4 1070.67,-638.4 1070.67,-607.6 783.21,-607.6"/>
<text text-anchor="start" x="790.21" y="-619.8" font-family="Arial" font-size="14.00">id </text>
<text text-anchor="start" x="805" y="-619.8" font-family="Arial" font-size="14.00" fill="#666666">[char(36)]</text>
<polygon fill="none" stroke="black" points="783.21,-576.8 783.21,-607.6 1070.67,-607.6 1070.67,-576.8 783.21,-576.8"/>
<text text-anchor="start" x="790.21" y="-589" font-family="Arial" font-size="14.00">group_id </text>
<text text-anchor="start" x="848.59" y="-589" font-family="Arial" font-size="14.00" fill="#666666">[char(36)]</text>
<polygon fill="none" stroke="black" points="783.21,-546 783.21,-576.8 1070.67,-576.8 1070.67,-546 783.21,-546"/>
<text text-anchor="start" x="790.21" y="-558.2" font-family="Arial" font-size="14.00">user_id </text>
<text text-anchor="start" x="840.02" y="-558.2" font-family="Arial" font-size="14.00" fill="#666666">[char(36)]</text>
<polygon fill="none" stroke="black" points="783.21,-515.2 783.21,-546 1070.67,-546 1070.67,-515.2 783.21,-515.2"/>
<text text-anchor="start" x="790.21" y="-527.4" font-family="Arial" font-size="14.00">action </text>
<text text-anchor="start" x="831.46" y="-527.4" font-family="Arial" font-size="14.00" fill="#666666">[varchar(32)]</text>
<polygon fill="none" stroke="black" points="783.21,-484.4 783.21,-515.2 1070.67,-515.2 1070.67,-484.4 783.21,-484.4"/>
<text text-anchor="start" x="790.21" y="-496.6" font-family="Arial" font-size="14.00">actor_id </text>
<text text-anchor="start" x="843.91" y="-496.6" font-family="Arial" font-size="14.00" fill="#666666">[char(36)]</text>
<polygon fill="none" stroke="black" points="783.21,-453.6 783.21,-484.4 1070.67,-484.4 1070.67,-453.6 783.21,-453.6"/>
<text text-anchor="start" x="790.21" y="-465.8" font-family="Arial" font-size="14.00">old_roles </text>
<text text-anchor="start" x="850.91" y="-465.8" font-family="Arial" font-size="14.00" fill="#666666">[longtext]</text>
<polygon fill="none" stroke="black" points="783.21,-422.8 783.21,-453.6 1070.67,-453.6 1070.67,-422.8 783.21,-422.8"/>
<text text-anchor="start" x="790.21" y="-435" font-family="Arial" font-size="14.00">new_roles </text>
<text text-anchor="start" x="857.91" y="-435" font-family="Arial" font-size="14.00" fill="#666666">[longtext]</text>
<polygon fill="none" stroke="black" points="783.21,-392 783.21,-422.8 1070.67,-422.8 1070.67,-392 783.21,-392"/>
<text text-anchor="start" x="790.21" y="-404.2" font-family="Arial" font-size="14.00">created_at </text>
<text text-anchor="start" x="860.26" y="-404.2" font-family="Arial" font-size="14.00" fill="#666666">[datetime(6)]</text>
</g>
<!-- group_member_logs&#45;&gt;groups -->
<g id="edge4" class="edge">
<title>group_member_logs:group_id&#45;&gt;groups:id</title>
<path fill="none" stroke="black" d="M1081.82,-590.17C1151.74,-560.53 1102.48,-215.6 1021.69,-215.6"/>
<polygon fill="black" stroke="black" points="1081.81,-590.18 1071.12,-587.72 1076.58,-591.22 1072.33,-592.07 1072.33,-592.07 1072.33,-592.07 1076.58,-591.22 1072.88,-596.55 1081.81,-590.18"/>
<text text-anchor="start" x="952.47" y="-576.2" font-family="Arial" font-size="10.00">FOREIGN KEY (group_id) REFERENCES groups (id)</text>
</g>
<!-- group_keys -->
<g id="node5" class="node">
<title>group_keys</title>
<polygon fill="#efefef" stroke="none" points="1174.7,-592.2 1174.7,-627.8 1397.18,-627.8 1397.18,-592.2 1174.7,-592.2"/>
<polygon fill="none" stroke="black" points="1174.7,-592.2 1174.7,-627.8 1397.18,-627.8 1397.18,-592.2 1174.7,-592.2"/>
<text text-anchor="start" x="1181.7" y="-605.6" font-family="Arial Bold" font-size="18.00">group_keys</text>
<text text-anchor="start" x="1265.69" y="-605.6" font-family="Arial" font-size="14.00">    </text>
<text text-anchor="start" x="1296.81" y="-605.6" font-family="Arial" font-size="14.00" fill="#666666">[BASE TABLE]</text>
<polygon fill="none" stroke="black" points="1174.7,-561.4 1174.7,-592.2 1397.18,-592.2 1397.18,-561.4 1174.7,-561.4"/>
<text text-anchor="start" x="1181.7" y="-573.6" font-family="Arial" font-size="14.00">group_id </text>
<text text-anchor="start" x="1240.08" y="-573.6" font-family="Arial" font-size="14.00" fill="#666666">[char(36)]</text>
<polygon fill="none" stroke="black" points="1174.7,-530.6 1174.7,-561.4 1397.18,-561.4 1397.18,-530.6 1174.7,-530.6"/>
<text text-anchor="start" x="1181.7" y="-542.8" font-family="Arial" font-size="14.00">user_id </text>
<text text-anchor="start" x="1231.51" y="-542.8" font-family="Arial" font-size="14.00" fill="#666666">[char(36)]</text>
<polygon fill="none" stroke="black" points="1174.7,-499.8 1174.7,-530.6 1397.18,-530.6 1397.18,-499.8 1174.7,-499.8"/>
<text text-anchor="start" x="1181.7" y="-512" font-family="Arial" font-size="14.00">key_id </text>
<text text-anchor="start" x="1226.06" y="-512" font-family="Arial" font-size="14.00" fill="#666666">[char(36)]</text>
<polygon fill="none" stroke="black" points="1174.7,-469 1174.7,-499.8 1397.18,-499.8 1397.18,-469 1174.7,-469"/>
<text text-anchor="start" x="1181.7" y="-481.2" font-family="Arial" font-size="14.00">encrypted_key </text>
<text text-anchor="start" x="1276.65" y="-481.2" font-family="Arial" font-size="14.00" fill="#666666">[blob]</text>
<polygon fill="none" stroke="black" points="1174.7,-438.2 1174.7,-469 1397.18,-469 1397.18,-438.2 1174.7,-438.2"/>
<text text-anchor="start" x="1181.7" y="-450.4" font-family="Arial" font-size="14.00">created_at </text>
<text text-anchor="start" x="1251.75" y="-450.4" font-family="Arial" font-size="14.00" fill="#666666">[datetime(6)]</text>
</g>
<!-- group_keys&#45;&gt;groups -->
<g id="edge5" class="edge">
<title>group_keys:group_id&#45;&gt;groups:id</title>
<path fill="none" stroke="black" d="M1163.48,-576.31C1076.52,-567.44 1165.11,-439.66 1122.94,-348.8 1091.64,-281.35 1096.05,-215.6 1021.69,-215.6"/>
<polygon fill="black" stroke="black" points="1163.38,-576.31 1173.15,-581.28 1168.71,-576.56 1173.04,-576.77 1173.04,-576.77 1173.04,-576.77 1168.71,-576.56 1173.58,-572.29 1163.38,-576.31"/>
<text text-anchor="start" x="991.4" y="-560.8" font-family="Arial" font-size="10.00">FOREIGN KEY (group_id) REFERENCES groups (id)</text>
</g>
<!-- secrets -->
<g id="node6" class="node">
<title>secrets</title>
<polygon fill="#efefef" stroke="none" points="1501.21,-623 1501.21,-658.6 1688.67,-658.6 1688.67,-623 1501.21,-623"/>
<polygon fill="none" stroke="black" points="1501.21,-623 1501.21,-658.6 1688.67,-658.6 1688.67,-623 1501.21,-623"/>
<text text-anchor="start" x="1508.21" y="-636.4" font-family="Arial Bold" font-size="18.00">secrets</text>
<text text-anchor="start" x="1557.18" y="-636.4" font-family="Arial" font-size="14.00">    </text>
<text text-anchor="start" x="1588.3" y="-636.4" font-family="Arial" font-size="14.00" fill="#666666">[BASE TABLE]</text>
<polygon fill="none" stroke="black" points="1501.21,-592.2 1501.21,-623 1688.67,-623 1688.67,-592.2 1501.21,-592.2"/>
<text text-anchor="start" x="1508.21" y="-604.4" font-family="Arial" font-size="14.00">id </text>
<text text-anchor="start" x="1523" y="-604.4" font-family="Arial" font-size="14.00" fill="#666666">[char(36)]</text>
<polygon fill="none" stroke="black" points="1501.21,-561.4 1501.21,-592.2 1688.67,-592.2 1688.67,-561.4 1501.21,-561.4"/>
<text text-anchor="start" x="1508.21" y="-573.6" font-family="Arial" font-size="14.00">group_id </text>
<text text-anchor="start" x="1566.59" y="-573.6" font-family="Arial" font-size="14.00" fill="#666666">[char(36)]</text>
<polygon fill="none" stroke="black" points="1501.21,-530.6 1501.21,-561.4 1688.67,-561.4 1688.67,-530.6 1501.21,-530.6"/>
<text text-anchor="start" x="1508.21" y="-542.8" font-family="Arial" font-size="14.00">name </text>
<text text-anchor="start" x="1547.12" y="-542.8" font-family="Arial" font-size="14.00" fill="#666666">[varchar(255)]</text>
<polygon fill="none" stroke="black" points="1501.21,-499.8 1501.21,-530.6 1688.67,-530.6 1688.67,-499.8 1501.21,-499.8"/>
<text text-anchor="start" x="1508.21" y="-512" font-family="Arial" font-size="14.00">encrypted_value </text>
<text text-anchor="start" x="1614.84" y="-512" font-family="Arial" font-size="14.00" fill="#666666">[blob]</text>
<polygon fill="none" stroke="black" points="1501.21,-469 1501.21,-499.8 1688.67,-499.8 1688.67,-469 1501.21,-469"/>
<text text-anchor="start" x="1508.21" y="-481.2" font-family="Arial" font-size="14.00">created_by </text>
<text text-anchor="start" x="1581.37" y="-481.2" font-family="Arial" font-size="14.00" fill="#666666">[char(36)]</text>
<polygon fill="none" stroke="black" points="1501.21,-438.2 1501.21,-469 1688.67,-469 1688.67,-438.2 1501.21,-438.2"/>
<text text-anchor="start" x="1508.21" y="-450.4" font-family="Arial" font-size="14.00">created_at </text>
<text text-anchor="start" x="1578.26" y="-450.4" font-family="Arial" font-size="14.00" fill="#666666">[datetime(6)]</text>
<polygon fill="none" stroke="black" points="1501.21,-407.4 1501.21,-438.2 1688.67,-438.2 1688.67,-407.4 1501.21,-407.4"/>
<text text-anchor="start" x="1508.21" y="-419.6" font-family="Arial" font-size="14.00">updated_at </text>
<text text-anchor="start" x="1582.17" y="-419.6" font-family="Arial" font-size="14.00" fill="#666666">[datetime(6)]</text>
</g>
<!-- secrets&#45;&gt;groups -->
<g id="edge6" class="edge">
<title>secrets:group_id&#45;&gt;groups:id</title>
<path fill="none" stroke="black" d="M1489.82,-576.22C1404.98,-565.94 1516.81,-422.4 1448.94,-348.8 1381.52,-275.69 1121.14,-215.6 1021.69,-215.6"/>
<polygon fill="black" stroke="black" points="1489.89,-576.22 1499.63,-581.27 1495.22,-576.52 1499.54,-576.76 1499.54,-576.76 1499.54,-576.76 1495.22,-576.52 1500.13,-572.29 1489.89,-576.22"/>
<text text-anchor="start" x="1507.21" y="-586.8" font-family="Arial" font-size="10.00">FOREIGN KEY (group_id) REFERENCES groups (id)</text>
</g>
</g>
</svg>
