<?xml version="1.0" encoding="UTF-8" standalone="no"?>
<!DOCTYPE svg PUBLIC "-//W3C//DTD SVG 1.1//EN"
 "http://www.w3.org/Graphics/SVG/1.1/DTD/svg11.dtd">
<!-- Generated by graphviz version 12.1.2 (20240928.0832)
 -->
<!-- Title: group_keys Pages: 1 -->
<svg width="912pt" height="694pt"
 viewBox="0.00 0.00 912.40 694.40" xmlns="http://www.w3.org/2000/svg" xmlns:xlink="http://www.w3.org/1999/xlink">
<g id="graph0" class="graph" transform="scale(1 1) rotate(0) translate(4 690.4)">
<title>group_keys</title>
<polygon fill="white" stroke="none" points="-4,4 -4,-690.4 908.4,-690.4 908.4,4 -4,4"/>
<!-- group_keys -->
<g id="node1" class="node">
<title>group_keys</title>
<polygon fill="#efefef" stroke="none" points="325.71,-604.6 325.71,-640.2 548.18,-640.2 548.18,-604.6 325.71,-604.6"/>
<polygon fill="none" stroke="black" points="325.71,-604.6 325.71,-640.2 548.18,-640.2 548.18,-604.6 325.71,-604.6"/>
<text text-anchor="start" x="332.71" y="-618" font-family="Arial Bold" font-size="18.00">group_keys</text>
<text text-anchor="start" x="416.69" y="-618" font-family="Arial" font-size="14.00">    </text>
<text text-anchor="start" x="447.81" y="-618" font-family="Arial" font-size="14.00" fill="#666666">[BASE TABLE]</text>
<polygon fill="none" stroke="black" points="325.71,-573.8 325.71,-604.6 548.18,-604.6 548.18,-573.8 325.71,-573.8"/>
<text text-anchor="start" x="332.71" y="-586" font-family="Arial" font-size="14.00">group_id </text>
<text text-anchor="start" x="391.08" y="-586" font-family="Arial" font-size="14.00" fill="#666666">[char(36)]</text>
<polygon fill="none" stroke="black" points="325.71,-543 325.71,-573.8 548.18,-573.8 548.18,-543 325.71,-543"/>
<text text-anchor="start" x="332.71" y="-555.2" font-family="Arial" font-size="14.00">user_id </text>
<text text-anchor="start" x="382.51" y="-555.2" font-family="Arial" font-size="14.00" fill="#666666">[char(36)]</text>
<polygon fill="none" stroke="black" points="325.71,-512.2 325.71,-543 548.18,-543 548.18,-512.2 325.71,-512.2"/>
<text text-anchor="start" x="332.71" y="-524.4" font-family="Arial" font-size="14.00">key_id </text>
<text text-anchor="start" x="377.06" y="-524.4" font-family="Arial" font-size="14.00" fill="#666666">[char(36)]</text>
<polygon fill="none" stroke="black" points="325.71,-481.4 325.71,-512.2 548.18,-512.2 548.18,-481.4 325.71,-481.4"/>
<text text-anchor="start" x="332.71" y="-493.6" font-family="Arial" font-size="14.00">encrypted_key </text>
<text text-anchor="start" x="427.65" y="-493.6" font-family="Arial" font-size="14.00" fill="#666666">[blob]</text>
<polygon fill="none" stroke="black" points="325.71,-450.6 325.71,-481.4 548.18,-481.4 548.18,-450.6 325.71,-450.6"/>
<text text-anchor="start" x="332.71" y="-462.8" font-family="Arial" font-size="14.00">created_at </text>
<text text-anchor="start" x="402.75" y="-462.8" font-family="Arial" font-size="14.00" fill="#666666">[datetime(6)]</text>
<polygon fill="none" stroke="black" stroke-width="3" points="324.21,-449.1 324.21,-641.7 549.68,-641.7 549.68,-449.1 324.21,-449.1"/>
</g>
<!-- groups -->
<g id="node2" class="node">
<title>groups</title>
<polygon fill="#efefef" stroke="none" points="43.2,-258.8 43.2,-294.4 230.69,-294.4 230.69,-258.8 43.2,-258.8"/>
<polygon fill="none" stroke="black" points="43.2,-258.8 43.2,-294.4 230.69,-294.4 230.69,-258.8 43.2,-258.8"/>
<text text-anchor="start" x="50.2" y="-272.2" font-family="Arial Bold" font-size="18.00">groups</text>
<text text-anchor="start" x="99.2" y="-272.2" font-family="Arial" font-size="14.00">    </text>
<text text-anchor="start" x="130.32" y="-272.2" font-family="Arial" font-size="14.00" fill="#666666">[BASE TABLE]</text>
<polygon fill="none" stroke="black" points="43.2,-228 43.2,-258.8 230.69,-258.8 230.69,-228 43.2,-228"/>
<text text-anchor="start" x="50.2" y="-240.2" font-family="Arial" font-size="14.00">id </text>
<text text-anchor="start" x="64.99" y="-240.2" font-family="Arial" font-size="14.00" fill="#666666">[char(36)]</text>
<polygon fill="none" stroke="black" points="43.2,-197.2 43.2,-228 230.69,-228 230.69,-197.2 43.2,-197.2"/>
<text text-anchor="start" x="50.2" y="-209.4" font-family="Arial" font-size="14.00">name </text>
<text text-anchor="start" x="89.11" y="-209.4" font-family="Arial" font-size="14.00" fill="#666666">[varchar(255)]</text>
<polygon fill="none" stroke="black" points="43.2,-166.4 43.2,-197.2 230.69,-197.2 230.69,-166.4 43.2,-166.4"/>
<text text-anchor="start" x="50.2" y="-178.6" font-family="Arial" font-size="14.00">description </text>
<text text-anchor="start" x="121.79" y="-178.6" font-family="Arial" font-size="14.00" fill="#666666">[text]</text>
<polygon fill="none" stroke="black" points="43.2,-135.6 43.2,-166.4 230.69,-166.4 230.69,-135.6 43.2,-135.6"/>
<text text-anchor="start" x="50.2" y="-147.8" font-family="Arial" font-size="14.00">parent_id </text>
<text text-anchor="start" x="112.47" y="-147.8" font-family="Arial" font-size="14.00" fill="#666666">[char(36)]</text>
<polygon fill="none" stroke="black" points="43.2,-104.8 43.2,-135.6 230.69,-135.6 230.69,-104.8 43.2,-104.8"/>
<text text-anchor="start" x="50.2" y="-117" font-family="Arial" font-size="14.00">created_at </text>
<text text-anchor="start" x="120.25" y="-117" font-family="Arial" font-size="14.00" fill="#666666">[datetime(6)]</text>
<polygon fill="none" stroke="black" points="43.2,-74 43.2,-104.8 230.69,-104.8 230.69,-74 43.2,-74"/>
<text text-anchor="start" x="50.2" y="-86.2" font-family="Arial" font-size="14.00">updated_at </text>
<text text-anchor="start" x="124.16" y="-86.2" font-family="Arial" font-size="14.00" fill="#666666">[datetime(6)]</text>
</g>
<!-- group_keys&#45;&gt;groups -->
<g id="edge1" class="edge">
<title>group_keys:group_id&#45;&gt;groups:id</title>
<path fill="none" stroke="black" d="M314.84,-587.17C250.78,-558.83 307.69,-243.4 231.69,-243.4"/>
<polygon fill="black" stroke="black" points="314.58,-587.12 323.47,-593.54 319.81,-588.19 324.05,-589.07 324.05,-589.07 324.05,-589.07 319.81,-588.19 325.28,-584.72 314.58,-587.12"/>
<text text-anchor="start" x="79.3" y="-599.2" font-family="Arial" font-size="10.00">FOREIGN KEY (group_id) REFERENCES groups (id)</text>
</g>
<!-- users -->
<g id="node3" class="node">
<title>users</title>
<polygon fill="#efefef" stroke="none" points="335.4,-289.6 335.4,-325.2 538.49,-325.2 538.49,-289.6 335.4,-289.6"/>
<polygon fill="none" stroke="black" points="335.4,-289.6 335.4,-325.2 538.49,-325.2 538.49,-289.6 335.4,-289.6"/>
<text text-anchor="start" x="356.2" y="-303" font-family="Arial Bold" font-size="18.00">users</text>
<text text-anchor="start" x="393.2" y="-303" font-family="Arial" font-size="14.00">    </text>
<text text-anchor="start" x="424.31" y="-303" font-family="Arial" font-size="14.00" fill="#666666">[BASE TABLE]</text>
<polygon fill="none" stroke="black" points="335.4,-258.8 335.4,-289.6 538.49,-289.6 538.49,-258.8 335.4,-258.8"/>
<text text-anchor="start" x="342.4" y="-271" font-family="Arial" font-size="14.00">id </text>
<text text-anchor="start" x="357.18" y="-271" font-family="Arial" font-size="14.00" fill="#666666">[char(36)]</text>
<polygon fill="none" stroke="black" points="335.4,-228 335.4,-258.8 538.49,-258.8 538.49,-228 335.4,-228"/>
<text text-anchor="start" x="342.4" y="-240.2" font-family="Arial" font-size="14.00">trap_id </text>
<text text-anchor="start" x="389.09" y="-240.2" font-family="Arial" font-size="14.00" fill="#666666">[varchar(32)]</text>
<polygon fill="none" stroke="black" points="335.4,-197.2 335.4,-228 538.49,-228 538.49,-197.2 335.4,-197.2"/>
<text text-anchor="start" x="342.4" y="-209.4" font-family="Arial" font-size="14.00">password_hash </text>
<text text-anchor="start" x="444.35" y="-209.4" font-family="Arial" font-size="14.00" fill="#666666">[varchar(255)]</text>
<polygon fill="none" stroke="black" points="335.4,-166.4 335.4,-197.2 538.49,-197.2 538.49,-166.4 335.4,-166.4"/>
<text text-anchor="start" x="342.4" y="-178.6" font-family="Arial" font-size="14.00">email </text>
<text text-anchor="start" x="379.74" y="-178.6" font-family="Arial" font-size="14.00" fill="#666666">[varbinary(512)]</text>
<polygon fill="none" stroke="black" points="335.4,-135.6 335.4,-166.4 538.49,-166.4 538.49,-135.6 335.4,-135.6"/>
<text text-anchor="start" x="342.4" y="-147.8" font-family="Arial" font-size="14.00">personal_info </text>
<text text-anchor="start" x="430.35" y="-147.8" font-family="Arial" font-size="14.00" fill="#666666">[blob]</text>
<polygon fill="none" stroke="black" points="335.4,-104.8 335.4,-135.6 538.49,-135.6 538.49,-104.8 335.4,-104.8"/>
<text text-anchor="start" x="342.4" y="-117" font-family="Arial" font-size="14.00">student_number </text>
<text text-anchor="start" x="447.46" y="-117" font-family="Arial" font-size="14.00" fill="#666666">[varchar(8)]</text>
<polygon fill="none" stroke="black" points="335.4,-74 335.4,-104.8 538.49,-104.8 538.49,-74 335.4,-74"/>
<text text-anchor="start" x="342.4" y="-86.2" font-family="Arial" font-size="14.00">created_at </text>
<text text-anchor="start" x="412.44" y="-86.2" font-family="Arial" font-size="14.00" fill="#666666">[datetime(6)]</text>
<polygon fill="none" stroke="black" points="335.4,-43.2 335.4,-74 538.49,-74 538.49,-43.2 335.4,-43.2"/>
<text text-anchor="start" x="342.4" y="-55.4" font-family="Arial" font-size="14.00">updated_at </text>
<text text-anchor="start" x="416.35" y="-55.4" font-family="Arial" font-size="14.00" fill="#666666">[datetime(6)]</text>
</g>
<!-- group_keys&#45;&gt;users -->
<g id="edge2" class="edge">
<title>group_keys:user_id&#45;&gt;users:id</title>
<path fill="none" stroke="black" d="M559.22,-555.77C611.11,-527.12 599.11,-274.2 539.49,-274.2"/>
<polygon fill="black" stroke="black" points="559.18,-555.78 548.37,-553.96 554.02,-557.13 549.83,-558.23 549.83,-558.23 549.83,-558.23 554.02,-557.13 550.65,-562.67 559.18,-555.78"/>
<text text-anchor="start" x="556.18" y="-568.4" font-family="Arial" font-size="10.00">FOREIGN KEY (user_id) REFERENCES users (id)</text>
</g>
<!-- user_keys -->
<g id="node4" class="node">
<title>user_keys</title>
<polygon fill="#efefef" stroke="none" points="642.71,-274.2 642.71,-309.8 853.18,-309.8 853.18,-274.2 642.71,-274.2"/>
<polygon fill="none" stroke="black" points="642.71,-274.2 642.71,-309.8 853.18,-309.8 853.18,-274.2 642.71,-274.2"/>
<text text-anchor="start" x="649.71" y="-287.6" font-family="Arial Bold" font-size="18.00">user_keys</text>
<text text-anchor="start" x="721.69" y="-287.6" font-family="Arial" font-size="14.00">    </text>
<text text-anchor="start" x="752.81" y="-287.6" font-family="Arial" font-size="14.00" fill="#666666">[BASE TABLE]</text>
<polygon fill="none" stroke="black" points="642.71,-243.4 642.71,-274.2 853.18,-274.2 853.18,-243.4 642.71,-243.4"/>
<text text-anchor="start" x="649.71" y="-255.6" font-family="Arial" font-size="14.00">user_id </text>
<text text-anchor="start" x="699.51" y="-255.6" font-family="Arial" font-size="14.00" fill="#666666">[char(36)]</text>
<polygon fill="none" stroke="black" points="642.71,-212.6 642.71,-243.4 853.18,-243.4 853.18,-212.6 642.71,-212.6"/>
<text text-anchor="start" x="649.71" y="-224.8" font-family="Arial" font-size="14.00">key_id </text>
<text text-anchor="start" x="694.07" y="-224.8" font-family="Arial" font-size="14.00" fill="#666666">[char(36)]</text>
<polygon fill="none" stroke="black" points="642.71,-181.8 642.71,-212.6 853.18,-212.6 853.18,-181.8 642.71,-181.8"/>
<text text-anchor="start" x="649.71" y="-194" font-family="Arial" font-size="14.00">public_key </text>
<text text-anchor="start" x="719.75" y="-194" font-family="Arial" font-size="14.00" fill="#666666">[varbinary(4096)]</text>
<polygon fill="none" stroke="black" points="642.71,-151 642.71,-181.8 853.18,-181.8 853.18,-151 642.71,-151"/>
<text text-anchor="start" x="649.71" y="-163.2" font-family="Arial" font-size="14.00">encrypted_private_key </text>
<text text-anchor="start" x="794.46" y="-163.2" font-family="Arial" font-size="14.00" fill="#666666">[blob]</text>
<polygon fill="none" stroke="black" points="642.71,-120.2 642.71,-151 853.18,-151 853.18,-120.2 642.71,-120.2"/>
<text text-anchor="start" x="649.71" y="-132.4" font-family="Arial" font-size="14.00">algorithm </text>
<text text-anchor="start" x="711.18" y="-132.4" font-family="Arial" font-size="14.00" fill="#666666">[varchar(32)]</text>
<polygon fill="none" stroke="black" points="642.71,-89.4 642.71,-120.2 853.18,-120.2 853.18,-89.4 642.71,-89.4"/>
<text text-anchor="start" x="649.71" y="-101.6" font-family="Arial" font-size="14.00">is_active </text>
<text text-anchor="start" x="708.07" y="-101.6" font-family="Arial" font-size="14.00" fill="#666666">[tinyint(1)]</text>
<polygon fill="none" stroke="black" points="642.71,-58.6 642.71,-89.4 853.18,-89.4 853.18,-58.6 642.71,-58.6"/>
<text text-anchor="start" x="649.71" y="-70.8" font-family="Arial" font-size="14.00">created_at </text>
<text text-anchor="start" x="719.76" y="-70.8" font-family="Arial" font-size="14.00" fill="#666666">[datetime(6)]</text>
</g>
<!-- group_keys&#45;&gt;user_keys -->
<g id="edge3" class="edge">
<title>group_keys:user_id&#45;&gt;user_keys:user_id</title>
<path fill="none" stroke="black" d="M559.27,-555.99C614.25,-527.63 575.7,-258.8 641.71,-258.8"/>
<polygon fill="black" stroke="black" points="559.23,-556 548.46,-553.95 554.05,-557.24 549.83,-558.24 549.83,-558.24 549.83,-558.24 554.05,-557.24 550.55,-562.7 559.23,-556"/>
<text text-anchor="start" x="556.18" y="-542.4" font-family="Arial" font-size="10.00">FOREIGN KEY (user_id, key_id) REFERENCES user_keys (user_id, key_id)</text>
</g>
</g>
</svg>
