<?xml version="1.0" encoding="UTF-8" standalone="no"?>
<!DOCTYPE svg PUBLIC "-//W3C//DTD SVG 1.1//EN"
 "http://www.w3.org/Graphics/SVG/1.1/DTD/svg11.dtd">
<!-- Generated by graphviz version 12.1.2 (20240928.0832)
 -->
<!-- Title: group_member_logs Pages: 1 -->
<svg width="833pt" height="787pt"
 viewBox="0.00 0.00 832.61 786.80" xmlns="http://www.w3.org/2000/svg" xmlns:xlink="http://www.w3.org/1999/xlink">
<g id="graph0" class="graph" transform="scale(1 1) rotate(0) translate(4 782.8)">
<title>group_member_logs</title>
<polygon fill="white" stroke="none" points="-4,4 -4,-782.8 828.61,-782.8 828.61,4 -4,4"/>
<!-- group_member_logs -->
<g id="node1" class="node">
<title>group_member_logs</title>
<polygon fill="#efefef" stroke="none" points="293.21,-697 293.21,-732.6 580.68,-732.6 580.68,-697 293.21,-697"/>
<polygon fill="none" stroke="black" points="293.21,-697 293.21,-732.6 580.68,-732.6 580.68,-697 293.21,-697"/>
<text text-anchor="start" x="300.21" y="-710.4" font-family="Arial Bold" font-size="18.00">group_member_logs</text>
<text text-anchor="start" x="449.19" y="-710.4" font-family="Arial" font-size="14.00">    </text>
<text text-anchor="start" x="480.3" y="-710.4" font-family="Arial" font-size="14.00" fill="#666666">[BASE TABLE]</text>
<polygon fill="none" stroke="black" points="293.21,-666.2 293.21,-697 580.68,-697 580.68,-666.2 293.21,-666.2"/>
<text text-anchor="start" x="300.21" y="-678.4" font-family="Arial" font-size="14.00">id </text>
<text text-anchor="start" x="315" y="-678.4" font-family="Arial" font-size="14.00" fill="#666666">[char(36)]</text>
<polygon fill="none" stroke="black" points="293.21,-635.4 293.21,-666.2 580.68,-666.2 580.68,-635.4 293.21,-635.4"/>
<text text-anchor="start" x="300.21" y="-647.6" font-family="Arial" font-size="14.00">group_id </text>
<text text-anchor="start" x="358.59" y="-647.6" font-family="Arial" font-size="14.00" fill="#666666">[char(36)]</text>
<polygon fill="none" stroke="black" points="293.21,-604.6 293.21,-635.4 580.68,-635.4 580.68,-604.6 293.21,-604.6"/>
<text text-anchor="start" x="300.21" y="-616.8" font-family="Arial" font-size="14.00">user_id </text>
<text text-anchor="start" x="350.02" y="-616.8" font-family="Arial" font-size="14.00" fill="#666666">[char(36)]</text>
<polygon fill="none" stroke="black" points="293.21,-573.8 293.21,-604.6 580.68,-604.6 580.68,-573.8 293.21,-573.8"/>
<text text-anchor="start" x="300.21" y="-586" font-family="Arial" font-size="14.00">action </text>
<text text-anchor="start" x="341.46" y="-586" font-family="Arial" font-size="14.00" fill="#666666">[varchar(32)]</text>
<polygon fill="none" stroke="black" points="293.21,-543 293.21,-573.8 580.68,-573.8 580.68,-543 293.21,-543"/>
<text text-anchor="start" x="300.21" y="-555.2" font-family="Arial" font-size="14.00">actor_id </text>
<text text-anchor="start" x="353.91" y="-555.2" font-family="Arial" font-size="14.00" fill="#666666">[char(36)]</text>
<polygon fill="none" stroke="black" points="293.21,-512.2 293.21,-543 580.68,-543 580.68,-512.2 293.21,-512.2"/>
<text text-anchor="start" x="300.21" y="-524.4" font-family="Arial" font-size="14.00">old_roles </text>
<text text-anchor="start" x="360.92" y="-524.4" font-family="Arial" font-size="14.00" fill="#666666">[longtext]</text>
<polygon fill="none" stroke="black" points="293.21,-481.4 293.21,-512.2 580.68,-512.2 580.68,-481.4 293.21,-481.4"/>
<text text-anchor="start" x="300.21" y="-493.6" font-family="Arial" font-size="14.00">new_roles </text>
<text text-anchor="start" x="367.92" y="-493.6" font-family="Arial" font-size="14.00" fill="#666666">[longtext]</text>
<polygon fill="none" stroke="black" points="293.21,-450.6 293.21,-481.4 580.68,-481.4 580.68,-450.6 293.21,-450.6"/>
<text text-anchor="start" x="300.21" y="-462.8" font-family="Arial" font-size="14.00">created_at </text>
<text text-anchor="start" x="370.26" y="-462.8" font-family="Arial" font-size="14.00" fill="#666666">[datetime(6)]</text>
<polygon fill="none" stroke="black" stroke-width="3" points="291.71,-449.1 291.71,-734.1 582.18,-734.1 582.18,-449.1 291.71,-449.1"/>
</g>
<!-- groups -->
<g id="node2" class="node">
<title>groups</title>
<polygon fill="#efefef" stroke="none" points="43.2,-258.8 43.2,-294.4 230.69,-294.4 230.69,-258.8 43.2,-258.8"/>
<polygon fill="none" stroke="black" points="43.2,-258.8 43.2,-294.4 230.69,-294.4 230.69,-258.8 43.2,-258.8"/>
<text text-anchor="start" x="50.2" y="-272.2" font-family="Arial Bold" font-size="18.00">groups</text>
<text text-anchor="start" x="99.2" y="-272.2" font-family="Arial" font-size="14.00">    </text>
<text text-anchor="start" x="130.32" y="-272.2" font-family="Arial" font-size="14.00" fill="#666666">[BASE TABLE]</text>
<polygon fill="none" stroke="black" points="43.2,-228 43.2,-258.8 230.69,-258.8 230.69,-228 43.2,-228"/>
<text text-anchor="start" x="50.2" y="-240.2" font-family="Arial" font-size="14.00">id </text>
<text text-anchor="start" x="64.99" y="-240.2" font-family="Arial" font-size="14.00" fill="#666666">[char(36)]</text>
<polygon fill="none" stroke="black" points="43.2,-197.2 43.2,-228 230.69,-228 230.69,-197.2 43.2,-197.2"/>
<text text-anchor="start" x="50.2" y="-209.4" font-family="Arial" font-size="14.00">name </text>
<text text-anchor="start" x="89.11" y="-209.4" font-family="Arial" font-size="14.00" fill="#666666">[varchar(255)]</text>
<polygon fill="none" stroke="black" points="43.2,-166.4 43.2,-197.2 230.69,-197.2 230.69,-166.4 43.2,-166.4"/>
<text text-anchor="start" x="50.2" y="-178.6" font-family="Arial" font-size="14.00">description </text>
<text text-anchor="start" x="121.79" y="-178.6" font-family="Arial" font-size="14.00" fill="#666666">[text]</text>
<polygon fill="none" stroke="black" points="43.2,-135.6 43.2,-166.4 230.69,-166.4 230.69,-135.6 43.2,-135.6"/>
<text text-anchor="start" x="50.2" y="-147.8" font-family="Arial" font-size="14.00">parent_id </text>
<text text-anchor="start" x="112.47" y="-147.8" font-family="Arial" font-size="14.00" fill="#666666">[char(36)]</text>
<polygon fill="none" stroke="black" points="43.2,-104.8 43.2,-135.6 230.69,-135.6 230.69,-104.8 43.2,-104.8"/>
<text text-anchor="start" x="50.2" y="-117" font-family="Arial" font-size="14.00">created_at </text>
<text text-anchor="start" x="120.25" y="-117" font-family="Arial" font-size="14.00" fill="#666666">[datetime(6)]</text>
<polygon fill="none" stroke="black" points="43.2,-74 43.2,-104.8 230.69,-104.8 230.69,-74 43.2,-74"/>
<text text-anchor="start" x="50.2" y="-86.2" font-family="Arial" font-size="14.00">updated_at </text>
<text text-anchor="start" x="124.16" y="-86.2" font-family="Arial" font-size="14.00" fill="#666666">[datetime(6)]</text>
</g>
<!-- group_member_logs&#45;&gt;groups -->
<g id="edge1" class="edge">
<title>group_member_logs:group_id&#45;&gt;groups:id</title>
<path fill="none" stroke="black" d="M282,-648.8C210.38,-618.07 319.46,-243.4 231.69,-243.4"/>
<polygon fill="black" stroke="black" points="282.07,-648.81 291.02,-655.15 287.31,-649.84 291.56,-650.67 291.56,-650.67 291.56,-650.67 287.31,-649.84 292.75,-646.32 282.07,-648.81"/>
<text text-anchor="start" x="46.81" y="-660.8" font-family="Arial" font-size="10.00">FOREIGN KEY (group_id) REFERENCES groups (id)</text>
</g>
<!-- users -->
<g id="node3" class="node">
<title>users</title>
<polygon fill="#efefef" stroke="none" points="335.4,-289.6 335.4,-325.2 538.49,-325.2 538.49,-289.6 335.4,-289.6"/>
<polygon fill="none" stroke="black" points="335.4,-289.6 335.4,-325.2 538.49,-325.2 538.49,-289.6 335.4,-289.6"/>
<text text-anchor="start" x="356.2" y="-303" font-family="Arial Bold" font-size="18.00">users</text>
<text text-anchor="start" x="393.2" y="-303" font-family="Arial" font-size="14.00">    </text>
<text text-anchor="start" x="424.31" y="-303" font-family="Arial" font-size="14.00" fill="#666666">[BASE TABLE]</text>
<polygon fill="none" stroke="black" points="335.4,-258.8 335.4,-289.6 538.49,-289.6 538.49,-258.8 335.4,-258.8"/>
<text text-anchor="start" x="342.4" y="-271" font-family="Arial" font-size="14.00">id </text>
<text text-anchor="start" x="357.18" y="-271" font-family="Arial" font-size="14.00" fill="#666666">[char(36)]</text>
<polygon fill="none" stroke="black" points="335.4,-228 335.4,-258.8 538.49,-258.8 538.49,-228 335.4,-228"/>
<text text-anchor="start" x="342.4" y="-240.2" font-family="Arial" font-size="14.00">trap_id </text>
<text text-anchor="start" x="389.09" y="-240.2" font-family="Arial" font-size="14.00" fill="#666666">[varchar(32)]</text>
<polygon fill="none" stroke="black" points="335.4,-197.2 335.4,-228 538.49,-228 538.49,-197.2 335.4,-197.2"/>
<text text-anchor="start" x="342.4" y="-209.4" font-family="Arial" font-size="14.00">password_hash </text>
<text text-anchor="start" x="444.35" y="-209.4" font-family="Arial" font-size="14.00" fill="#666666">[varchar(255)]</text>
<polygon fill="none" stroke="black" points="335.4,-166.4 335.4,-197.2 538.49,-197.2 538.49,-166.4 335.4,-166.4"/>
<text text-anchor="start" x="342.4" y="-178.6" font-family="Arial" font-size="14.00">email </text>
<text text-anchor="start" x="379.74" y="-178.6" font-family="Arial" font-size="14.00" fill="#666666">[varbinary(512)]</text>
<polygon fill="none" stroke="black" points="335.4,-135.6 335.4,-166.4 538.49,-166.4 538.49,-135.6 335.4,-135.6"/>
<text text-anchor="start" x="342.4" y="-147.8" font-family="Arial" font-size="14.00">personal_info </text>
<text text-anchor="start" x="430.35" y="-147.8" font-family="Arial" font-size="14.00" fill="#666666">[blob]</text>
<polygon fill="none" stroke="black" points="335.4,-104.8 335.4,-135.6 538.49,-135.6 538.49,-104.8 335.4,-104.8"/>
<text text-anchor="start" x="342.4" y="-117" font-family="Arial" font-size="14.00">student_number </text>
<text text-anchor="start" x="447.46" y="-117" font-family="Arial" font-size="14.00" fill="#666666">[varchar(8)]</text>
<polygon fill="none" stroke="black" points="335.4,-74 335.4,-104.8 538.49,-104.8 538.49,-74 335.4,-74"/>
<text text-anchor="start" x="342.4" y="-86.2" font-family="Arial" font-size="14.00">created_at </text>
<text text-anchor="start" x="412.44" y="-86.2" font-family="Arial" font-size="14.00" fill="#666666">[datetime(6)]</text>
<polygon fill="none" stroke="black" points="335.4,-43.2 335.4,-74 538.49,-74 538.49,-43.2 335.4,-43.2"/>
<text text-anchor="start" x="342.4" y="-55.4" font-family="Arial" font-size="14.00">updated_at </text>
<text text-anchor="start" x="416.35" y="-55.4" font-family="Arial" font-size="14.00" fill="#666666">[datetime(6)]</text>
</g>
<!-- group_member_logs&#45;&gt;users -->
<g id="edge2" class="edge">
<title>group_member_logs:user_id&#45;&gt;users:id</title>
<path fill="none" stroke="black" d="M591.78,-617.79C655.06,-588.34 613.28,-274.2 539.49,-274.2"/>
<polygon fill="black" stroke="black" points="591.77,-617.79 581.04,-615.53 586.56,-618.93 582.33,-619.86 582.33,-619.86 582.33,-619.86 586.56,-618.93 582.96,-624.32 591.77,-617.79"/>
<text text-anchor="start" x="588.68" y="-630" font-family="Arial" font-size="10.00">FOREIGN KEY (user_id) REFERENCES users (id)</text>
</g>
<!-- group_member_logs&#45;&gt;users -->
<g id="edge3" class="edge">
<title>group_member_logs:actor_id&#45;&gt;users:id</title>
<path fill="none" stroke="black" d="M591.52,-555.77C640.68,-527.12 599.72,-274.2 539.49,-274.2"/>
<polygon fill="black" stroke="black" points="591.66,-555.73 580.84,-553.97 586.51,-557.11 582.32,-558.23 582.32,-558.23 582.32,-558.23 586.51,-557.11 583.16,-562.66 591.66,-555.73"/>
<text text-anchor="start" x="588.68" y="-568.4" font-family="Arial" font-size="10.00">FOREIGN KEY (actor_id) REFERENCES users (id)</text>
</g>
</g>
</svg>
