<?xml version="1.0" encoding="UTF-8" standalone="no"?>
<!DOCTYPE svg PUBLIC "-//W3C//DTD SVG 1.1//EN"
 "http://www.w3.org/Graphics/SVG/1.1/DTD/svg11.dtd">
<!-- Generated by graphviz version 12.1.2 (20240928.0832)
 -->
<!-- Title: mail_logs Pages: 1 -->
<svg width="503pt" height="633pt"
 viewBox="0.00 0.00 502.61 632.80" xmlns="http://www.w3.org/2000/svg" xmlns:xlink="http://www.w3.org/1999/xlink">
<g id="graph0" class="graph" transform="scale(1 1) rotate(0) translate(4 628.8)">
<title>mail_logs</title>
<polygon fill="white" stroke="none" points="-4,4 -4,-628.8 498.61,-628.8 498.61,4 -4,4"/>
<!-- mail_logs -->
<g id="node1" class="node">
<title>mail_logs</title>
<polygon fill="#efefef" stroke="none" points="46.2,-543 46.2,-578.6 255.69,-578.6 255.69,-543 46.2,-543"/>
<polygon fill="none" stroke="black" points="46.2,-543 46.2,-578.6 255.69,-578.6 255.69,-543 46.2,-543"/>
<text text-anchor="start" x="53.2" y="-556.4" font-family="Arial Bold" font-size="18.00">mail_logs</text>
<text text-anchor="start" x="124.2" y="-556.4" font-family="Arial" font-size="14.00">    </text>
<text text-anchor="start" x="155.32" y="-556.4" font-family="Arial" font-size="14.00" fill="#666666">[BASE TABLE]</text>
<polygon fill="none" stroke="black" points="46.2,-512.2 46.2,-543 255.69,-543 255.69,-512.2 46.2,-512.2"/>
<text text-anchor="start" x="53.2" y="-524.4" font-family="Arial" font-size="14.00">id </text>
<text text-anchor="start" x="67.99" y="-524.4" font-family="Arial" font-size="14.00" fill="#666666">[char(36)]</text>
<polygon fill="none" stroke="black" points="46.2,-481.4 46.2,-512.2 255.69,-512.2 255.69,-481.4 46.2,-481.4"/>
<text text-anchor="start" x="53.2" y="-493.6" font-family="Arial" font-size="14.00">mail_id </text>
<text text-anchor="start" x="101.44" y="-493.6" font-family="Arial" font-size="14.00" fill="#666666">[char(36)]</text>
<polygon fill="none" stroke="black" points="46.2,-450.6 46.2,-481.4 255.69,-481.4 255.69,-450.6 46.2,-450.6"/>
<text text-anchor="start" x="53.2" y="-462.8" font-family="Arial" font-size="14.00">status </text>
<text text-anchor="start" x="94.44" y="-462.8" font-family="Arial" font-size="14.00" fill="#666666">[varchar(32)]</text>
<polygon fill="none" stroke="black" points="46.2,-419.8 46.2,-450.6 255.69,-450.6 255.69,-419.8 46.2,-419.8"/>
<text text-anchor="start" x="53.2" y="-432" font-family="Arial" font-size="14.00">error </text>
<text text-anchor="start" x="86.65" y="-432" font-family="Arial" font-size="14.00" fill="#666666">[text]</text>
<polygon fill="none" stroke="black" points="46.2,-389 46.2,-419.8 255.69,-419.8 255.69,-389 46.2,-389"/>
<text text-anchor="start" x="53.2" y="-401.2" font-family="Arial" font-size="14.00">created_at </text>
<text text-anchor="start" x="123.25" y="-401.2" font-family="Arial" font-size="14.00" fill="#666666">[datetime(6)]</text>
<polygon fill="none" stroke="black" stroke-width="3" points="44.7,-387.5 44.7,-580.1 257.19,-580.1 257.19,-387.5 44.7,-387.5"/>
</g>
<!-- mails -->
<g id="node2" class="node">
<title>mails</title>
<polygon fill="#efefef" stroke="none" points="62.2,-228 62.2,-263.6 239.69,-263.6 239.69,-228 62.2,-228"/>
<polygon fill="none" stroke="black" points="62.2,-228 62.2,-263.6 239.69,-263.6 239.69,-228 62.2,-228"/>
<text text-anchor="start" x="69.2" y="-241.4" font-family="Arial Bold" font-size="18.00">mails</text>
<text text-anchor="start" x="108.2" y="-241.4" font-family="Arial" font-size="14.00">    </text>
<text text-anchor="start" x="139.31" y="-241.4" font-family="Arial" font-size="14.00" fill="#666666">[BASE TABLE]</text>
<polygon fill="none" stroke="black" points="62.2,-197.2 62.2,-228 239.69,-228 239.69,-197.2 62.2,-197.2"/>
<text text-anchor="start" x="69.2" y="-209.4" font-family="Arial" font-size="14.00">id </text>
<text text-anchor="start" x="83.99" y="-209.4" font-family="Arial" font-size="14.00" fill="#666666">[char(36)]</text>
<polygon fill="none" stroke="black" points="62.2,-166.4 62.2,-197.2 239.69,-197.2 239.69,-166.4 62.2,-166.4"/>
<text text-anchor="start" x="69.2" y="-178.6" font-family="Arial" font-size="14.00">to </text>
<text text-anchor="start" x="84.77" y="-178.6" font-family="Arial" font-size="14.00" fill="#666666">[text]</text>
<polygon fill="none" stroke="black" points="62.2,-135.6 62.2,-166.4 239.69,-166.4 239.69,-135.6 62.2,-135.6"/>
<text text-anchor="start" x="69.2" y="-147.8" font-family="Arial" font-size="14.00">subject </text>
<text text-anchor="start" x="117.45" y="-147.8" font-family="Arial" font-size="14.00" fill="#666666">[varchar(255)]</text>
<polygon fill="none" stroke="black" points="62.2,-104.8 62.2,-135.6 239.69,-135.6 239.69,-104.8 62.2,-104.8"/>
<text text-anchor="start" x="69.2" y="-117" font-family="Arial" font-size="14.00">body </text>
<text text-anchor="start" x="103.45" y="-117" font-family="Arial" font-size="14.00" fill="#666666">[text]</text>
<polygon fill="none" stroke="black" points="62.2,-74 62.2,-104.8 239.69,-104.8 239.69,-74 62.2,-74"/>
<text text-anchor="start" x="69.2" y="-86.2" font-family="Arial" font-size="14.00">operator_id </text>
<text text-anchor="start" x="143.92" y="-86.2" font-family="Arial" font-size="14.00" fill="#666666">[char(36)]</text>
<polygon fill="none" stroke="black" points="62.2,-43.2 62.2,-74 239.69,-74 239.69,-43.2 62.2,-43.2"/>
<text text-anchor="start" x="69.2" y="-55.4" font-family="Arial" font-size="14.00">created_at </text>
<text text-anchor="start" x="139.25" y="-55.4" font-family="Arial" font-size="14.00" fill="#666666">[datetime(6)]</text>
</g>
<!-- mail_logs&#45;&gt;mails -->
<g id="edge1" class="edge">
<title>mail_logs:mail_id&#45;&gt;mails:id</title>
<path fill="none" stroke="black" d="M266.68,-494.17C317.98,-465.52 300.36,-212.6 240.69,-212.6"/>
<polygon fill="black" stroke="black" points="266.68,-494.17 255.86,-492.36 261.52,-495.53 257.33,-496.63 257.33,-496.63 257.33,-496.63 261.52,-495.53 258.16,-501.07 266.68,-494.17"/>
<text text-anchor="start" x="263.69" y="-506.8" font-family="Arial" font-size="10.00">FOREIGN KEY (mail_id) REFERENCES mails (id)</text>
</g>
</g>
</svg>
