<?xml version="1.0" encoding="UTF-8" standalone="no"?>
<!DOCTYPE svg PUBLIC "-//W3C//DTD SVG 1.1//EN"
 "http://www.w3.org/Graphics/SVG/1.1/DTD/svg11.dtd">
<!-- Generated by graphviz version 12.1.2 (20240928.0832)
 -->
<!-- Title: mail_logs Pages: 1 -->
<svg width="310pt" height="290pt"
 viewBox="0.00 0.00 309.89 290.00" xmlns="http://www.w3.org/2000/svg" xmlns:xlink="http://www.w3.org/1999/xlink">
<g id="graph0" class="graph" transform="scale(1 1) rotate(0) translate(4 286)">
<title>mail_logs</title>
<polygon fill="white" stroke="none" points="-4,4 -4,-286 305.89,-286 305.89,4 -4,4"/>
<!-- mail_logs -->
<g id="node1" class="node">
<title>mail_logs</title>
<polygon fill="#efefef" stroke="none" points="46.2,-200.2 46.2,-235.8 255.69,-235.8 255.69,-200.2 46.2,-200.2"/>
<polygon fill="none" stroke="black" points="46.2,-200.2 46.2,-235.8 255.69,-235.8 255.69,-200.2 46.2,-200.2"/>
<text text-anchor="start" x="53.2" y="-213.6" font-family="Arial Bold" font-size="18.00">mail_logs</text>
<text text-anchor="start" x="124.2" y="-213.6" font-family="Arial" font-size="14.00">    </text>
<text text-anchor="start" x="155.32" y="-213.6" font-family="Arial" font-size="14.00" fill="#666666">[BASE TABLE]</text>
<polygon fill="none" stroke="black" points="46.2,-169.4 46.2,-200.2 255.69,-200.2 255.69,-169.4 46.2,-169.4"/>
<text text-anchor="start" x="53.2" y="-181.6" font-family="Arial" font-size="14.00">id </text>
<text text-anchor="start" x="67.99" y="-181.6" font-family="Arial" font-size="14.00" fill="#666666">[char(36)]</text>
<polygon fill="none" stroke="black" points="46.2,-138.6 46.2,-169.4 255.69,-169.4 255.69,-138.6 46.2,-138.6"/>
<text text-anchor="start" x="53.2" y="-150.8" font-family="Arial" font-size="14.00">mail_id </text>
<text text-anchor="start" x="101.44" y="-150.8" font-family="Arial" font-size="14.00" fill="#666666">[char(36)]</text>
<polygon fill="none" stroke="black" points="46.2,-107.8 46.2,-138.6 255.69,-138.6 255.69,-107.8 46.2,-107.8"/>
<text text-anchor="start" x="53.2" y="-120" font-family="Arial" font-size="14.00">status </text>
<text text-anchor="start" x="94.44" y="-120" font-family="Arial" font-size="14.00" fill="#666666">[varchar(32)]</text>
<polygon fill="none" stroke="black" points="46.2,-77 46.2,-107.8 255.69,-107.8 255.69,-77 46.2,-77"/>
<text text-anchor="start" x="53.2" y="-89.2" font-family="Arial" font-size="14.00">error </text>
<text text-anchor="start" x="86.65" y="-89.2" font-family="Arial" font-size="14.00" fill="#666666">[text]</text>
<polygon fill="none" stroke="black" points="46.2,-46.2 46.2,-77 255.69,-77 255.69,-46.2 46.2,-46.2"/>
<text text-anchor="start" x="53.2" y="-58.4" font-family="Arial" font-size="14.00">created_at </text>
<text text-anchor="start" x="123.25" y="-58.4" font-family="Arial" font-size="14.00" fill="#666666">[datetime]</text>
<polygon fill="none" stroke="black" stroke-width="3" points="44.7,-44.7 44.7,-237.3 257.19,-237.3 257.19,-44.7 44.7,-44.7"/>
</g>
</g>
</svg>
