<?xml version="1.0" encoding="UTF-8" standalone="no"?>
<!DOCTYPE svg PUBLIC "-//W3C//DTD SVG 1.1//EN"
 "http://www.w3.org/Graphics/SVG/1.1/DTD/svg11.dtd">
<!-- Generated by graphviz version 12.1.2 (20240928.0832)
 -->
<!-- Title: roles_users Pages: 1 -->
<svg width="320pt" height="198pt"
 viewBox="0.00 0.00 319.87 197.60" xmlns="http://www.w3.org/2000/svg" xmlns:xlink="http://www.w3.org/1999/xlink">
<g id="graph0" class="graph" transform="scale(1 1) rotate(0) translate(4 193.6)">
<title>roles_users</title>
<polygon fill="white" stroke="none" points="-4,4 -4,-193.6 315.87,-193.6 315.87,4 -4,4"/>
<!-- roles_users -->
<g id="node1" class="node">
<title>roles_users</title>
<polygon fill="#efefef" stroke="none" points="46.2,-107.8 46.2,-143.4 265.67,-143.4 265.67,-107.8 46.2,-107.8"/>
<polygon fill="none" stroke="black" points="46.2,-107.8 46.2,-143.4 265.67,-143.4 265.67,-107.8 46.2,-107.8"/>
<text text-anchor="start" x="53.2" y="-121.2" font-family="Arial Bold" font-size="18.00">roles_users</text>
<text text-anchor="start" x="134.18" y="-121.2" font-family="Arial" font-size="14.00">    </text>
<text text-anchor="start" x="165.3" y="-121.2" font-family="Arial" font-size="14.00" fill="#666666">[BASE TABLE]</text>
<polygon fill="none" stroke="black" points="46.2,-77 46.2,-107.8 265.67,-107.8 265.67,-77 46.2,-77"/>
<text text-anchor="start" x="53.2" y="-89.2" font-family="Arial" font-size="14.00">user_id </text>
<text text-anchor="start" x="103.01" y="-89.2" font-family="Arial" font-size="14.00" fill="#666666">[varchar(32)]</text>
<polygon fill="none" stroke="black" points="46.2,-46.2 46.2,-77 265.67,-77 265.67,-46.2 46.2,-46.2"/>
<text text-anchor="start" x="53.2" y="-58.4" font-family="Arial" font-size="14.00">role_id </text>
<text text-anchor="start" x="99.12" y="-58.4" font-family="Arial" font-size="14.00" fill="#666666">[varchar(32)]</text>
<polygon fill="none" stroke="black" stroke-width="3" points="44.7,-44.7 44.7,-144.9 267.17,-144.9 267.17,-44.7 44.7,-44.7"/>
</g>
</g>
</svg>
