<?xml version="1.0" encoding="UTF-8" standalone="no"?>
<!DOCTYPE svg PUBLIC "-//W3C//DTD SVG 1.1//EN"
 "http://www.w3.org/Graphics/SVG/1.1/DTD/svg11.dtd">
<!-- Generated by graphviz version 12.1.2 (20240928.0832)
 -->
<!-- Title: roles_privileges Pages: 1 -->
<svg width="354pt" height="198pt"
 viewBox="0.00 0.00 353.86 197.60" xmlns="http://www.w3.org/2000/svg" xmlns:xlink="http://www.w3.org/1999/xlink">
<g id="graph0" class="graph" transform="scale(1 1) rotate(0) translate(4 193.6)">
<title>roles_privileges</title>
<polygon fill="white" stroke="none" points="-4,4 -4,-193.6 349.86,-193.6 349.86,4 -4,4"/>
<!-- roles_privileges -->
<g id="node1" class="node">
<title>roles_privileges</title>
<polygon fill="#efefef" stroke="none" points="46.2,-107.8 46.2,-143.4 299.66,-143.4 299.66,-107.8 46.2,-107.8"/>
<polygon fill="none" stroke="black" points="46.2,-107.8 46.2,-143.4 299.66,-143.4 299.66,-107.8 46.2,-107.8"/>
<text text-anchor="start" x="53.2" y="-121.2" font-family="Arial Bold" font-size="18.00">roles_privileges</text>
<text text-anchor="start" x="168.17" y="-121.2" font-family="Arial" font-size="14.00">    </text>
<text text-anchor="start" x="199.29" y="-121.2" font-family="Arial" font-size="14.00" fill="#666666">[BASE TABLE]</text>
<polygon fill="none" stroke="black" points="46.2,-77 46.2,-107.8 299.66,-107.8 299.66,-77 46.2,-77"/>
<text text-anchor="start" x="53.2" y="-89.2" font-family="Arial" font-size="14.00">role_id </text>
<text text-anchor="start" x="99.12" y="-89.2" font-family="Arial" font-size="14.00" fill="#666666">[varchar(32)]</text>
<polygon fill="none" stroke="black" points="46.2,-46.2 46.2,-77 299.66,-77 299.66,-46.2 46.2,-46.2"/>
<text text-anchor="start" x="53.2" y="-58.4" font-family="Arial" font-size="14.00">privilege_id </text>
<text text-anchor="start" x="127.91" y="-58.4" font-family="Arial" font-size="14.00" fill="#666666">[varchar(64)]</text>
<polygon fill="none" stroke="black" stroke-width="3" points="44.7,-44.7 44.7,-144.9 301.16,-144.9 301.16,-44.7 44.7,-44.7"/>
</g>
</g>
</svg>
