<?xml version="1.0" encoding="UTF-8" standalone="no"?>
<!DOCTYPE svg PUBLIC "-//W3C//DTD SVG 1.1//EN"
 "http://www.w3.org/Graphics/SVG/1.1/DTD/svg11.dtd">
<!-- Generated by graphviz version 12.1.2 (20240928.0832)
 -->
<!-- Title: portal Pages: 1 -->
<svg width="5046pt" height="684pt"
 viewBox="0.00 0.00 5046.46 684.40" xmlns="http://www.w3.org/2000/svg" xmlns:xlink="http://www.w3.org/1999/xlink">
<g id="graph0" class="graph" transform="scale(1 1) rotate(0) translate(4 680.4)">
<title>portal</title>
<polygon fill="white" stroke="none" points="-4,4 -4,-680.4 5042.46,-680.4 5042.46,4 -4,4"/>
<!-- users -->
<g id="node1" class="node">
<title>users</title>
<polygon fill="#efefef" stroke="none" points="43.2,-597.6 43.2,-633.2 233.84,-633.2 233.84,-597.6 43.2,-597.6"/>
<polygon fill="none" stroke="black" points="43.2,-597.6 43.2,-633.2 233.84,-633.2 233.84,-597.6 43.2,-597.6"/>
<text text-anchor="start" x="57.78" y="-611" font-family="Arial Bold" font-size="18.00">users</text>
<text text-anchor="start" x="94.77" y="-611" font-family="Arial" font-size="14.00">    </text>
<text text-anchor="start" x="125.89" y="-611" font-family="Arial" font-size="14.00" fill="#666666">[BASE TABLE]</text>
<polygon fill="none" stroke="black" points="43.2,-566.8 43.2,-597.6 233.84,-597.6 233.84,-566.8 43.2,-566.8"/>
<text text-anchor="start" x="50.2" y="-579" font-family="Arial" font-size="14.00">id </text>
<text text-anchor="start" x="64.99" y="-579" font-family="Arial" font-size="14.00" fill="#666666">[varchar(32)]</text>
<polygon fill="none" stroke="black" points="43.2,-536 43.2,-566.8 233.84,-566.8 233.84,-536 43.2,-536"/>
<text text-anchor="start" x="50.2" y="-548.2" font-family="Arial" font-size="14.00">password </text>
<text text-anchor="start" x="114.01" y="-548.2" font-family="Arial" font-size="14.00" fill="#666666">[varchar(86)]</text>
<polygon fill="none" stroke="black" points="43.2,-505.2 43.2,-536 233.84,-536 233.84,-505.2 43.2,-505.2"/>
<text text-anchor="start" x="50.2" y="-517.4" font-family="Arial" font-size="14.00">salt </text>
<text text-anchor="start" x="75.88" y="-517.4" font-family="Arial" font-size="14.00" fill="#666666">[varchar(86)]</text>
<polygon fill="none" stroke="black" points="43.2,-474.4 43.2,-505.2 233.84,-505.2 233.84,-474.4 43.2,-474.4"/>
<text text-anchor="start" x="50.2" y="-486.6" font-family="Arial" font-size="14.00">email </text>
<text text-anchor="start" x="87.54" y="-486.6" font-family="Arial" font-size="14.00" fill="#666666">[varchar(191)]</text>
<polygon fill="none" stroke="black" points="43.2,-443.6 43.2,-474.4 233.84,-474.4 233.84,-443.6 43.2,-443.6"/>
<text text-anchor="start" x="50.2" y="-455.8" font-family="Arial" font-size="14.00">student_number </text>
<text text-anchor="start" x="155.27" y="-455.8" font-family="Arial" font-size="14.00" fill="#666666">[varchar(8)]</text>
<polygon fill="none" stroke="black" points="43.2,-412.8 43.2,-443.6 233.84,-443.6 233.84,-412.8 43.2,-412.8"/>
<text text-anchor="start" x="50.2" y="-425" font-family="Arial" font-size="14.00">phone_number </text>
<text text-anchor="start" x="148.28" y="-425" font-family="Arial" font-size="14.00" fill="#666666">[tinytext]</text>
<polygon fill="none" stroke="black" points="43.2,-382 43.2,-412.8 233.84,-412.8 233.84,-382 43.2,-382"/>
<text text-anchor="start" x="50.2" y="-394.2" font-family="Arial" font-size="14.00">postcode </text>
<text text-anchor="start" x="110.91" y="-394.2" font-family="Arial" font-size="14.00" fill="#666666">[varchar(8)]</text>
<polygon fill="none" stroke="black" points="43.2,-351.2 43.2,-382 233.84,-382 233.84,-351.2 43.2,-351.2"/>
<text text-anchor="start" x="50.2" y="-363.4" font-family="Arial" font-size="14.00">address </text>
<text text-anchor="start" x="103.9" y="-363.4" font-family="Arial" font-size="14.00" fill="#666666">[text]</text>
<polygon fill="none" stroke="black" points="43.2,-320.4 43.2,-351.2 233.84,-351.2 233.84,-320.4 43.2,-320.4"/>
<text text-anchor="start" x="50.2" y="-332.6" font-family="Arial" font-size="14.00">birthdate </text>
<text text-anchor="start" x="108.57" y="-332.6" font-family="Arial" font-size="14.00" fill="#666666">[varchar(10)]</text>
<polygon fill="none" stroke="black" points="43.2,-289.6 43.2,-320.4 233.84,-320.4 233.84,-289.6 43.2,-289.6"/>
<text text-anchor="start" x="50.2" y="-301.8" font-family="Arial" font-size="14.00">name </text>
<text text-anchor="start" x="89.11" y="-301.8" font-family="Arial" font-size="14.00" fill="#666666">[tinytext]</text>
<polygon fill="none" stroke="black" points="43.2,-258.8 43.2,-289.6 233.84,-289.6 233.84,-258.8 43.2,-258.8"/>
<text text-anchor="start" x="50.2" y="-271" font-family="Arial" font-size="14.00">alphabetic_name </text>
<text text-anchor="start" x="160.72" y="-271" font-family="Arial" font-size="14.00" fill="#666666">[tinytext]</text>
<polygon fill="none" stroke="black" points="43.2,-228 43.2,-258.8 233.84,-258.8 233.84,-228 43.2,-228"/>
<text text-anchor="start" x="50.2" y="-240.2" font-family="Arial" font-size="14.00">nickname </text>
<text text-anchor="start" x="114.01" y="-240.2" font-family="Arial" font-size="14.00" fill="#666666">[tinytext]</text>
<polygon fill="none" stroke="black" points="43.2,-197.2 43.2,-228 233.84,-228 233.84,-197.2 43.2,-197.2"/>
<text text-anchor="start" x="50.2" y="-209.4" font-family="Arial" font-size="14.00">sex </text>
<text text-anchor="start" x="75.88" y="-209.4" font-family="Arial" font-size="14.00" fill="#666666">[tinytext]</text>
<polygon fill="none" stroke="black" points="43.2,-166.4 43.2,-197.2 233.84,-197.2 233.84,-166.4 43.2,-166.4"/>
<text text-anchor="start" x="50.2" y="-178.6" font-family="Arial" font-size="14.00">student_prefix </text>
<text text-anchor="start" x="142.03" y="-178.6" font-family="Arial" font-size="14.00" fill="#666666">[varchar(3)]</text>
<polygon fill="none" stroke="black" points="43.2,-135.6 43.2,-166.4 233.84,-166.4 233.84,-135.6 43.2,-135.6"/>
<text text-anchor="start" x="50.2" y="-147.8" font-family="Arial" font-size="14.00">department </text>
<text text-anchor="start" x="124.91" y="-147.8" font-family="Arial" font-size="14.00" fill="#666666">[text]</text>
<polygon fill="none" stroke="black" points="43.2,-104.8 43.2,-135.6 233.84,-135.6 233.84,-104.8 43.2,-104.8"/>
<text text-anchor="start" x="50.2" y="-117" font-family="Arial" font-size="14.00">affiliation </text>
<text text-anchor="start" x="109.34" y="-117" font-family="Arial" font-size="14.00" fill="#666666">[text]</text>
<polygon fill="none" stroke="black" points="43.2,-74 43.2,-104.8 233.84,-104.8 233.84,-74 43.2,-74"/>
<text text-anchor="start" x="50.2" y="-86.2" font-family="Arial" font-size="14.00">created_at </text>
<text text-anchor="start" x="120.25" y="-86.2" font-family="Arial" font-size="14.00" fill="#666666">[timestamp]</text>
<polygon fill="none" stroke="black" points="43.2,-43.2 43.2,-74 233.84,-74 233.84,-43.2 43.2,-43.2"/>
<text text-anchor="start" x="50.2" y="-55.4" font-family="Arial" font-size="14.00">updated_at </text>
<text text-anchor="start" x="124.16" y="-55.4" font-family="Arial" font-size="14.00" fill="#666666">[timestamp]</text>
</g>
<!-- privileges -->
<g id="node2" class="node">
<title>privileges</title>
<polygon fill="#efefef" stroke="none" points="337.79,-366.6 337.79,-402.2 547.26,-402.2 547.26,-366.6 337.79,-366.6"/>
<polygon fill="none" stroke="black" points="337.79,-366.6 337.79,-402.2 547.26,-402.2 547.26,-366.6 337.79,-366.6"/>
<text text-anchor="start" x="344.79" y="-380" font-family="Arial Bold" font-size="18.00">privileges</text>
<text text-anchor="start" x="415.77" y="-380" font-family="Arial" font-size="14.00">    </text>
<text text-anchor="start" x="446.88" y="-380" font-family="Arial" font-size="14.00" fill="#666666">[BASE TABLE]</text>
<polygon fill="none" stroke="black" points="337.79,-335.8 337.79,-366.6 547.26,-366.6 547.26,-335.8 337.79,-335.8"/>
<text text-anchor="start" x="344.79" y="-348" font-family="Arial" font-size="14.00">id </text>
<text text-anchor="start" x="359.57" y="-348" font-family="Arial" font-size="14.00" fill="#666666">[varchar(64)]</text>
<polygon fill="none" stroke="black" points="337.79,-305 337.79,-335.8 547.26,-335.8 547.26,-305 337.79,-305"/>
<text text-anchor="start" x="344.79" y="-317.2" font-family="Arial" font-size="14.00">name </text>
<text text-anchor="start" x="383.7" y="-317.2" font-family="Arial" font-size="14.00" fill="#666666">[tinytext]</text>
<polygon fill="none" stroke="black" points="337.79,-274.2 337.79,-305 547.26,-305 547.26,-274.2 337.79,-274.2"/>
<text text-anchor="start" x="344.79" y="-286.4" font-family="Arial" font-size="14.00">description </text>
<text text-anchor="start" x="416.38" y="-286.4" font-family="Arial" font-size="14.00" fill="#666666">[text]</text>
</g>
<!-- mails -->
<g id="node3" class="node">
<title>mails</title>
<polygon fill="#efefef" stroke="none" points="651.78,-412.8 651.78,-448.4 829.26,-448.4 829.26,-412.8 651.78,-412.8"/>
<polygon fill="none" stroke="black" points="651.78,-412.8 651.78,-448.4 829.26,-448.4 829.26,-412.8 651.78,-412.8"/>
<text text-anchor="start" x="658.78" y="-426.2" font-family="Arial Bold" font-size="18.00">mails</text>
<text text-anchor="start" x="697.77" y="-426.2" font-family="Arial" font-size="14.00">    </text>
<text text-anchor="start" x="728.89" y="-426.2" font-family="Arial" font-size="14.00" fill="#666666">[BASE TABLE]</text>
<polygon fill="none" stroke="black" points="651.78,-382 651.78,-412.8 829.26,-412.8 829.26,-382 651.78,-382"/>
<text text-anchor="start" x="658.78" y="-394.2" font-family="Arial" font-size="14.00">id </text>
<text text-anchor="start" x="673.56" y="-394.2" font-family="Arial" font-size="14.00" fill="#666666">[char(36)]</text>
<polygon fill="none" stroke="black" points="651.78,-351.2 651.78,-382 829.26,-382 829.26,-351.2 651.78,-351.2"/>
<text text-anchor="start" x="658.78" y="-363.4" font-family="Arial" font-size="14.00">to </text>
<text text-anchor="start" x="674.34" y="-363.4" font-family="Arial" font-size="14.00" fill="#666666">[text]</text>
<polygon fill="none" stroke="black" points="651.78,-320.4 651.78,-351.2 829.26,-351.2 829.26,-320.4 651.78,-320.4"/>
<text text-anchor="start" x="658.78" y="-332.6" font-family="Arial" font-size="14.00">sub </text>
<text text-anchor="start" x="685.24" y="-332.6" font-family="Arial" font-size="14.00" fill="#666666">[varchar(255)]</text>
<polygon fill="none" stroke="black" points="651.78,-289.6 651.78,-320.4 829.26,-320.4 829.26,-289.6 651.78,-289.6"/>
<text text-anchor="start" x="658.78" y="-301.8" font-family="Arial" font-size="14.00">main </text>
<text text-anchor="start" x="693.01" y="-301.8" font-family="Arial" font-size="14.00" fill="#666666">[text]</text>
<polygon fill="none" stroke="black" points="651.78,-258.8 651.78,-289.6 829.26,-289.6 829.26,-258.8 651.78,-258.8"/>
<text text-anchor="start" x="658.78" y="-271" font-family="Arial" font-size="14.00">operator_id </text>
<text text-anchor="start" x="733.49" y="-271" font-family="Arial" font-size="14.00" fill="#666666">[varchar(32)]</text>
<polygon fill="none" stroke="black" points="651.78,-228 651.78,-258.8 829.26,-258.8 829.26,-228 651.78,-228"/>
<text text-anchor="start" x="658.78" y="-240.2" font-family="Arial" font-size="14.00">created_at </text>
<text text-anchor="start" x="728.83" y="-240.2" font-family="Arial" font-size="14.00" fill="#666666">[datetime]</text>
</g>
<!-- tokens -->
<g id="node4" class="node">
<title>tokens</title>
<polygon fill="#efefef" stroke="none" points="933.78,-428.2 933.78,-463.8 1119.26,-463.8 1119.26,-428.2 933.78,-428.2"/>
<polygon fill="none" stroke="black" points="933.78,-428.2 933.78,-463.8 1119.26,-463.8 1119.26,-428.2 933.78,-428.2"/>
<text text-anchor="start" x="940.78" y="-441.6" font-family="Arial Bold" font-size="18.00">tokens</text>
<text text-anchor="start" x="987.77" y="-441.6" font-family="Arial" font-size="14.00">    </text>
<text text-anchor="start" x="1018.89" y="-441.6" font-family="Arial" font-size="14.00" fill="#666666">[BASE TABLE]</text>
<polygon fill="none" stroke="black" points="933.78,-397.4 933.78,-428.2 1119.26,-428.2 1119.26,-397.4 933.78,-397.4"/>
<text text-anchor="start" x="940.78" y="-409.6" font-family="Arial" font-size="14.00">id </text>
<text text-anchor="start" x="955.56" y="-409.6" font-family="Arial" font-size="14.00" fill="#666666">[varchar(86)]</text>
<polygon fill="none" stroke="black" points="933.78,-366.6 933.78,-397.4 1119.26,-397.4 1119.26,-366.6 933.78,-366.6"/>
<text text-anchor="start" x="940.78" y="-378.8" font-family="Arial" font-size="14.00">owner_id </text>
<text text-anchor="start" x="1001.48" y="-378.8" font-family="Arial" font-size="14.00" fill="#666666">[varchar(32)]</text>
<polygon fill="none" stroke="black" points="933.78,-335.8 933.78,-366.6 1119.26,-366.6 1119.26,-335.8 933.78,-335.8"/>
<text text-anchor="start" x="940.78" y="-348" font-family="Arial" font-size="14.00">issuer_id </text>
<text text-anchor="start" x="1000.7" y="-348" font-family="Arial" font-size="14.00" fill="#666666">[varchar(86)]</text>
<polygon fill="none" stroke="black" points="933.78,-305 933.78,-335.8 1119.26,-335.8 1119.26,-305 933.78,-305"/>
<text text-anchor="start" x="940.78" y="-317.2" font-family="Arial" font-size="14.00">active </text>
<text text-anchor="start" x="981.24" y="-317.2" font-family="Arial" font-size="14.00" fill="#666666">[tinyint(1)]</text>
<polygon fill="none" stroke="black" points="933.78,-274.2 933.78,-305 1119.26,-305 1119.26,-274.2 933.78,-274.2"/>
<text text-anchor="start" x="940.78" y="-286.4" font-family="Arial" font-size="14.00">expires_at </text>
<text text-anchor="start" x="1009.26" y="-286.4" font-family="Arial" font-size="14.00" fill="#666666">[timestamp]</text>
<polygon fill="none" stroke="black" points="933.78,-243.4 933.78,-274.2 1119.26,-274.2 1119.26,-243.4 933.78,-243.4"/>
<text text-anchor="start" x="940.78" y="-255.6" font-family="Arial" font-size="14.00">created_at </text>
<text text-anchor="start" x="1010.83" y="-255.6" font-family="Arial" font-size="14.00" fill="#666666">[timestamp]</text>
<polygon fill="none" stroke="black" points="933.78,-212.6 933.78,-243.4 1119.26,-243.4 1119.26,-212.6 933.78,-212.6"/>
<text text-anchor="start" x="940.78" y="-224.8" font-family="Arial" font-size="14.00">updated_at </text>
<text text-anchor="start" x="1014.74" y="-224.8" font-family="Arial" font-size="14.00" fill="#666666">[timestamp]</text>
</g>
<!-- roles_privileges -->
<g id="node5" class="node">
<title>roles_privileges</title>
<polygon fill="#efefef" stroke="none" points="1223.79,-351.2 1223.79,-386.8 1477.25,-386.8 1477.25,-351.2 1223.79,-351.2"/>
<polygon fill="none" stroke="black" points="1223.79,-351.2 1223.79,-386.8 1477.25,-386.8 1477.25,-351.2 1223.79,-351.2"/>
<text text-anchor="start" x="1230.79" y="-364.6" font-family="Arial Bold" font-size="18.00">roles_privileges</text>
<text text-anchor="start" x="1345.76" y="-364.6" font-family="Arial" font-size="14.00">    </text>
<text text-anchor="start" x="1376.88" y="-364.6" font-family="Arial" font-size="14.00" fill="#666666">[BASE TABLE]</text>
<polygon fill="none" stroke="black" points="1223.79,-320.4 1223.79,-351.2 1477.25,-351.2 1477.25,-320.4 1223.79,-320.4"/>
<text text-anchor="start" x="1230.79" y="-332.6" font-family="Arial" font-size="14.00">role_id </text>
<text text-anchor="start" x="1276.71" y="-332.6" font-family="Arial" font-size="14.00" fill="#666666">[varchar(32)]</text>
<polygon fill="none" stroke="black" points="1223.79,-289.6 1223.79,-320.4 1477.25,-320.4 1477.25,-289.6 1223.79,-289.6"/>
<text text-anchor="start" x="1230.79" y="-301.8" font-family="Arial" font-size="14.00">privilege_id </text>
<text text-anchor="start" x="1305.5" y="-301.8" font-family="Arial" font-size="14.00" fill="#666666">[varchar(64)]</text>
</g>
<!-- namecards -->
<g id="node6" class="node">
<title>namecards</title>
<polygon fill="#efefef" stroke="none" points="1581.8,-351.2 1581.8,-386.8 1797.24,-386.8 1797.24,-351.2 1581.8,-351.2"/>
<polygon fill="none" stroke="black" points="1581.8,-351.2 1581.8,-386.8 1797.24,-386.8 1797.24,-351.2 1581.8,-351.2"/>
<text text-anchor="start" x="1588.8" y="-364.6" font-family="Arial Bold" font-size="18.00">namecards</text>
<text text-anchor="start" x="1665.75" y="-364.6" font-family="Arial" font-size="14.00">    </text>
<text text-anchor="start" x="1696.87" y="-364.6" font-family="Arial" font-size="14.00" fill="#666666">[BASE TABLE]</text>
<polygon fill="none" stroke="black" points="1581.8,-320.4 1581.8,-351.2 1797.24,-351.2 1797.24,-320.4 1581.8,-320.4"/>
<text text-anchor="start" x="1588.8" y="-332.6" font-family="Arial" font-size="14.00">student_prefix </text>
<text text-anchor="start" x="1680.63" y="-332.6" font-family="Arial" font-size="14.00" fill="#666666">[varchar(32)]</text>
<polygon fill="none" stroke="black" points="1581.8,-289.6 1581.8,-320.4 1797.24,-320.4 1797.24,-289.6 1581.8,-289.6"/>
<text text-anchor="start" x="1588.8" y="-301.8" font-family="Arial" font-size="14.00">color </text>
<text text-anchor="start" x="1623.03" y="-301.8" font-family="Arial" font-size="14.00" fill="#666666">[varchar(32)]</text>
</g>
<!-- user_links -->
<g id="node7" class="node">
<title>user_links</title>
<polygon fill="#efefef" stroke="none" points="1901.28,-366.6 1901.28,-402.2 2113.76,-402.2 2113.76,-366.6 1901.28,-366.6"/>
<polygon fill="none" stroke="black" points="1901.28,-366.6 1901.28,-402.2 2113.76,-402.2 2113.76,-366.6 1901.28,-366.6"/>
<text text-anchor="start" x="1908.28" y="-380" font-family="Arial Bold" font-size="18.00">user_links</text>
<text text-anchor="start" x="1982.27" y="-380" font-family="Arial" font-size="14.00">    </text>
<text text-anchor="start" x="2013.39" y="-380" font-family="Arial" font-size="14.00" fill="#666666">[BASE TABLE]</text>
<polygon fill="none" stroke="black" points="1901.28,-335.8 1901.28,-366.6 2113.76,-366.6 2113.76,-335.8 1901.28,-335.8"/>
<text text-anchor="start" x="1908.28" y="-348" font-family="Arial" font-size="14.00">user_id </text>
<text text-anchor="start" x="1958.08" y="-348" font-family="Arial" font-size="14.00" fill="#666666">[varchar(32)]</text>
<polygon fill="none" stroke="black" points="1901.28,-305 1901.28,-335.8 2113.76,-335.8 2113.76,-305 1901.28,-305"/>
<text text-anchor="start" x="1908.28" y="-317.2" font-family="Arial" font-size="14.00">service </text>
<text text-anchor="start" x="1956.51" y="-317.2" font-family="Arial" font-size="14.00" fill="#666666">[varchar(64)]</text>
<polygon fill="none" stroke="black" points="1901.28,-274.2 1901.28,-305 2113.76,-305 2113.76,-274.2 1901.28,-274.2"/>
<text text-anchor="start" x="1908.28" y="-286.4" font-family="Arial" font-size="14.00">account </text>
<text text-anchor="start" x="1961.2" y="-286.4" font-family="Arial" font-size="14.00" fill="#666666">[varchar(255)]</text>
</g>
<!-- roles_users -->
<g id="node8" class="node">
<title>roles_users</title>
<polygon fill="#efefef" stroke="none" points="2217.78,-351.2 2217.78,-386.8 2437.26,-386.8 2437.26,-351.2 2217.78,-351.2"/>
<polygon fill="none" stroke="black" points="2217.78,-351.2 2217.78,-386.8 2437.26,-386.8 2437.26,-351.2 2217.78,-351.2"/>
<text text-anchor="start" x="2224.78" y="-364.6" font-family="Arial Bold" font-size="18.00">roles_users</text>
<text text-anchor="start" x="2305.77" y="-364.6" font-family="Arial" font-size="14.00">    </text>
<text text-anchor="start" x="2336.88" y="-364.6" font-family="Arial" font-size="14.00" fill="#666666">[BASE TABLE]</text>
<polygon fill="none" stroke="black" points="2217.78,-320.4 2217.78,-351.2 2437.26,-351.2 2437.26,-320.4 2217.78,-320.4"/>
<text text-anchor="start" x="2224.78" y="-332.6" font-family="Arial" font-size="14.00">user_id </text>
<text text-anchor="start" x="2274.59" y="-332.6" font-family="Arial" font-size="14.00" fill="#666666">[varchar(32)]</text>
<polygon fill="none" stroke="black" points="2217.78,-289.6 2217.78,-320.4 2437.26,-320.4 2437.26,-289.6 2217.78,-289.6"/>
<text text-anchor="start" x="2224.78" y="-301.8" font-family="Arial" font-size="14.00">role_id </text>
<text text-anchor="start" x="2270.7" y="-301.8" font-family="Arial" font-size="14.00" fill="#666666">[varchar(32)]</text>
</g>
<!-- invitations -->
<g id="node9" class="node">
<title>invitations</title>
<polygon fill="#efefef" stroke="none" points="2541.28,-366.6 2541.28,-402.2 2755.76,-402.2 2755.76,-366.6 2541.28,-366.6"/>
<polygon fill="none" stroke="black" points="2541.28,-366.6 2541.28,-402.2 2755.76,-402.2 2755.76,-366.6 2541.28,-366.6"/>
<text text-anchor="start" x="2548.28" y="-380" font-family="Arial Bold" font-size="18.00">invitations</text>
<text text-anchor="start" x="2624.28" y="-380" font-family="Arial" font-size="14.00">    </text>
<text text-anchor="start" x="2655.39" y="-380" font-family="Arial" font-size="14.00" fill="#666666">[BASE TABLE]</text>
<polygon fill="none" stroke="black" points="2541.28,-335.8 2541.28,-366.6 2755.76,-366.6 2755.76,-335.8 2541.28,-335.8"/>
<text text-anchor="start" x="2548.28" y="-348" font-family="Arial" font-size="14.00">id </text>
<text text-anchor="start" x="2563.06" y="-348" font-family="Arial" font-size="14.00" fill="#666666">[varchar(14)]</text>
<polygon fill="none" stroke="black" points="2541.28,-305 2541.28,-335.8 2755.76,-335.8 2755.76,-305 2541.28,-305"/>
<text text-anchor="start" x="2548.28" y="-317.2" font-family="Arial" font-size="14.00">created_at </text>
<text text-anchor="start" x="2618.32" y="-317.2" font-family="Arial" font-size="14.00" fill="#666666">[timestamp]</text>
<polygon fill="none" stroke="black" points="2541.28,-274.2 2541.28,-305 2755.76,-305 2755.76,-274.2 2541.28,-274.2"/>
<text text-anchor="start" x="2548.28" y="-286.4" font-family="Arial" font-size="14.00">updated_at </text>
<text text-anchor="start" x="2622.23" y="-286.4" font-family="Arial" font-size="14.00" fill="#666666">[timestamp]</text>
</g>
<!-- tokens_scopes -->
<g id="node10" class="node">
<title>tokens_scopes</title>
<polygon fill="#efefef" stroke="none" points="2860.28,-351.2 2860.28,-386.8 3102.76,-386.8 3102.76,-351.2 2860.28,-351.2"/>
<polygon fill="none" stroke="black" points="2860.28,-351.2 2860.28,-386.8 3102.76,-386.8 3102.76,-351.2 2860.28,-351.2"/>
<text text-anchor="start" x="2867.28" y="-364.6" font-family="Arial Bold" font-size="18.00">tokens_scopes</text>
<text text-anchor="start" x="2971.27" y="-364.6" font-family="Arial" font-size="14.00">    </text>
<text text-anchor="start" x="3002.38" y="-364.6" font-family="Arial" font-size="14.00" fill="#666666">[BASE TABLE]</text>
<polygon fill="none" stroke="black" points="2860.28,-320.4 2860.28,-351.2 3102.76,-351.2 3102.76,-320.4 2860.28,-320.4"/>
<text text-anchor="start" x="2867.28" y="-332.6" font-family="Arial" font-size="14.00">token_id </text>
<text text-anchor="start" x="2924.1" y="-332.6" font-family="Arial" font-size="14.00" fill="#666666">[varchar(86)]</text>
<polygon fill="none" stroke="black" points="2860.28,-289.6 2860.28,-320.4 3102.76,-320.4 3102.76,-289.6 2860.28,-289.6"/>
<text text-anchor="start" x="2867.28" y="-301.8" font-family="Arial" font-size="14.00">scope_id </text>
<text text-anchor="start" x="2927.21" y="-301.8" font-family="Arial" font-size="14.00" fill="#666666">[varchar(64)]</text>
</g>
<!-- client_redirect_urls -->
<g id="node11" class="node">
<title>client_redirect_urls</title>
<polygon fill="#efefef" stroke="none" points="3207.31,-351.2 3207.31,-386.8 3485.73,-386.8 3485.73,-351.2 3207.31,-351.2"/>
<polygon fill="none" stroke="black" points="3207.31,-351.2 3207.31,-386.8 3485.73,-386.8 3485.73,-351.2 3207.31,-351.2"/>
<text text-anchor="start" x="3214.31" y="-364.6" font-family="Arial Bold" font-size="18.00">client_redirect_urls</text>
<text text-anchor="start" x="3354.25" y="-364.6" font-family="Arial" font-size="14.00">    </text>
<text text-anchor="start" x="3385.36" y="-364.6" font-family="Arial" font-size="14.00" fill="#666666">[BASE TABLE]</text>
<polygon fill="none" stroke="black" points="3207.31,-320.4 3207.31,-351.2 3485.73,-351.2 3485.73,-320.4 3207.31,-320.4"/>
<text text-anchor="start" x="3214.31" y="-332.6" font-family="Arial" font-size="14.00">client_id </text>
<text text-anchor="start" x="3269.56" y="-332.6" font-family="Arial" font-size="14.00" fill="#666666">[varchar(86)]</text>
<polygon fill="none" stroke="black" points="3207.31,-289.6 3207.31,-320.4 3485.73,-320.4 3485.73,-289.6 3207.31,-289.6"/>
<text text-anchor="start" x="3214.31" y="-301.8" font-family="Arial" font-size="14.00">url </text>
<text text-anchor="start" x="3233.75" y="-301.8" font-family="Arial" font-size="14.00" fill="#666666">[varchar(105)]</text>
</g>
<!-- roles -->
<g id="node12" class="node">
<title>roles</title>
<polygon fill="#efefef" stroke="none" points="3589.78,-397.4 3589.78,-433 3763.26,-433 3763.26,-397.4 3589.78,-397.4"/>
<polygon fill="none" stroke="black" points="3589.78,-397.4 3589.78,-433 3763.26,-433 3763.26,-397.4 3589.78,-397.4"/>
<text text-anchor="start" x="3596.78" y="-410.8" font-family="Arial Bold" font-size="18.00">roles</text>
<text text-anchor="start" x="3631.77" y="-410.8" font-family="Arial" font-size="14.00">    </text>
<text text-anchor="start" x="3662.89" y="-410.8" font-family="Arial" font-size="14.00" fill="#666666">[BASE TABLE]</text>
<polygon fill="none" stroke="black" points="3589.78,-366.6 3589.78,-397.4 3763.26,-397.4 3763.26,-366.6 3589.78,-366.6"/>
<text text-anchor="start" x="3596.78" y="-378.8" font-family="Arial" font-size="14.00">id </text>
<text text-anchor="start" x="3611.57" y="-378.8" font-family="Arial" font-size="14.00" fill="#666666">[varchar(32)]</text>
<polygon fill="none" stroke="black" points="3589.78,-335.8 3589.78,-366.6 3763.26,-366.6 3763.26,-335.8 3589.78,-335.8"/>
<text text-anchor="start" x="3596.78" y="-348" font-family="Arial" font-size="14.00">name </text>
<text text-anchor="start" x="3635.69" y="-348" font-family="Arial" font-size="14.00" fill="#666666">[tinytext]</text>
<polygon fill="none" stroke="black" points="3589.78,-305 3589.78,-335.8 3763.26,-335.8 3763.26,-305 3589.78,-305"/>
<text text-anchor="start" x="3596.78" y="-317.2" font-family="Arial" font-size="14.00">description </text>
<text text-anchor="start" x="3668.37" y="-317.2" font-family="Arial" font-size="14.00" fill="#666666">[text]</text>
<polygon fill="none" stroke="black" points="3589.78,-274.2 3589.78,-305 3763.26,-305 3763.26,-274.2 3589.78,-274.2"/>
<text text-anchor="start" x="3596.78" y="-286.4" font-family="Arial" font-size="14.00">created_at </text>
<text text-anchor="start" x="3666.83" y="-286.4" font-family="Arial" font-size="14.00" fill="#666666">[timestamp]</text>
<polygon fill="none" stroke="black" points="3589.78,-243.4 3589.78,-274.2 3763.26,-274.2 3763.26,-243.4 3589.78,-243.4"/>
<text text-anchor="start" x="3596.78" y="-255.6" font-family="Arial" font-size="14.00">updated_at </text>
<text text-anchor="start" x="3670.74" y="-255.6" font-family="Arial" font-size="14.00" fill="#666666">[timestamp]</text>
</g>
<!-- user_statuses -->
<g id="node13" class="node">
<title>user_statuses</title>
<polygon fill="#efefef" stroke="none" points="3867.78,-366.6 3867.78,-402.2 4101.26,-402.2 4101.26,-366.6 3867.78,-366.6"/>
<polygon fill="none" stroke="black" points="3867.78,-366.6 3867.78,-402.2 4101.26,-402.2 4101.26,-366.6 3867.78,-366.6"/>
<text text-anchor="start" x="3874.78" y="-380" font-family="Arial Bold" font-size="18.00">user_statuses</text>
<text text-anchor="start" x="3969.77" y="-380" font-family="Arial" font-size="14.00">    </text>
<text text-anchor="start" x="4000.88" y="-380" font-family="Arial" font-size="14.00" fill="#666666">[BASE TABLE]</text>
<polygon fill="none" stroke="black" points="3867.78,-335.8 3867.78,-366.6 4101.26,-366.6 4101.26,-335.8 3867.78,-335.8"/>
<text text-anchor="start" x="3874.78" y="-348" font-family="Arial" font-size="14.00">user_id </text>
<text text-anchor="start" x="3924.59" y="-348" font-family="Arial" font-size="14.00" fill="#666666">[varchar(32)]</text>
<polygon fill="none" stroke="black" points="3867.78,-305 3867.78,-335.8 4101.26,-335.8 4101.26,-305 3867.78,-305"/>
<text text-anchor="start" x="3874.78" y="-317.2" font-family="Arial" font-size="14.00">status </text>
<text text-anchor="start" x="3916.03" y="-317.2" font-family="Arial" font-size="14.00" fill="#666666">[varchar(64)]</text>
<polygon fill="none" stroke="black" points="3867.78,-274.2 3867.78,-305 4101.26,-305 4101.26,-274.2 3867.78,-274.2"/>
<text text-anchor="start" x="3874.78" y="-286.4" font-family="Arial" font-size="14.00">detail </text>
<text text-anchor="start" x="3912.14" y="-286.4" font-family="Arial" font-size="14.00" fill="#666666">[varchar(255)]</text>
</g>
<!-- mail_logs -->
<g id="node14" class="node">
<title>mail_logs</title>
<polygon fill="#efefef" stroke="none" points="4205.78,-397.4 4205.78,-433 4415.26,-433 4415.26,-397.4 4205.78,-397.4"/>
<polygon fill="none" stroke="black" points="4205.78,-397.4 4205.78,-433 4415.26,-433 4415.26,-397.4 4205.78,-397.4"/>
<text text-anchor="start" x="4212.78" y="-410.8" font-family="Arial Bold" font-size="18.00">mail_logs</text>
<text text-anchor="start" x="4283.77" y="-410.8" font-family="Arial" font-size="14.00">    </text>
<text text-anchor="start" x="4314.89" y="-410.8" font-family="Arial" font-size="14.00" fill="#666666">[BASE TABLE]</text>
<polygon fill="none" stroke="black" points="4205.78,-366.6 4205.78,-397.4 4415.26,-397.4 4415.26,-366.6 4205.78,-366.6"/>
<text text-anchor="start" x="4212.78" y="-378.8" font-family="Arial" font-size="14.00">id </text>
<text text-anchor="start" x="4227.56" y="-378.8" font-family="Arial" font-size="14.00" fill="#666666">[char(36)]</text>
<polygon fill="none" stroke="black" points="4205.78,-335.8 4205.78,-366.6 4415.26,-366.6 4415.26,-335.8 4205.78,-335.8"/>
<text text-anchor="start" x="4212.78" y="-348" font-family="Arial" font-size="14.00">mail_id </text>
<text text-anchor="start" x="4261.02" y="-348" font-family="Arial" font-size="14.00" fill="#666666">[char(36)]</text>
<polygon fill="none" stroke="black" points="4205.78,-305 4205.78,-335.8 4415.26,-335.8 4415.26,-305 4205.78,-305"/>
<text text-anchor="start" x="4212.78" y="-317.2" font-family="Arial" font-size="14.00">status </text>
<text text-anchor="start" x="4254.02" y="-317.2" font-family="Arial" font-size="14.00" fill="#666666">[varchar(32)]</text>
<polygon fill="none" stroke="black" points="4205.78,-274.2 4205.78,-305 4415.26,-305 4415.26,-274.2 4205.78,-274.2"/>
<text text-anchor="start" x="4212.78" y="-286.4" font-family="Arial" font-size="14.00">error </text>
<text text-anchor="start" x="4246.22" y="-286.4" font-family="Arial" font-size="14.00" fill="#666666">[text]</text>
<polygon fill="none" stroke="black" points="4205.78,-243.4 4205.78,-274.2 4415.26,-274.2 4415.26,-243.4 4205.78,-243.4"/>
<text text-anchor="start" x="4212.78" y="-255.6" font-family="Arial" font-size="14.00">created_at </text>
<text text-anchor="start" x="4282.82" y="-255.6" font-family="Arial" font-size="14.00" fill="#666666">[datetime]</text>
</g>
<!-- scopes -->
<g id="node15" class="node">
<title>scopes</title>
<polygon fill="#efefef" stroke="none" points="4519.28,-382 4519.28,-417.6 4705.76,-417.6 4705.76,-382 4519.28,-382"/>
<polygon fill="none" stroke="black" points="4519.28,-382 4519.28,-417.6 4705.76,-417.6 4705.76,-382 4519.28,-382"/>
<text text-anchor="start" x="4526.28" y="-395.4" font-family="Arial Bold" font-size="18.00">scopes</text>
<text text-anchor="start" x="4574.27" y="-395.4" font-family="Arial" font-size="14.00">    </text>
<text text-anchor="start" x="4605.39" y="-395.4" font-family="Arial" font-size="14.00" fill="#666666">[BASE TABLE]</text>
<polygon fill="none" stroke="black" points="4519.28,-351.2 4519.28,-382 4705.76,-382 4705.76,-351.2 4519.28,-351.2"/>
<text text-anchor="start" x="4526.28" y="-363.4" font-family="Arial" font-size="14.00">id </text>
<text text-anchor="start" x="4541.07" y="-363.4" font-family="Arial" font-size="14.00" fill="#666666">[varchar(64)]</text>
<polygon fill="none" stroke="black" points="4519.28,-320.4 4519.28,-351.2 4705.76,-351.2 4705.76,-320.4 4519.28,-320.4"/>
<text text-anchor="start" x="4526.28" y="-332.6" font-family="Arial" font-size="14.00">name </text>
<text text-anchor="start" x="4565.19" y="-332.6" font-family="Arial" font-size="14.00" fill="#666666">[tinytext]</text>
<polygon fill="none" stroke="black" points="4519.28,-289.6 4519.28,-320.4 4705.76,-320.4 4705.76,-289.6 4519.28,-289.6"/>
<text text-anchor="start" x="4526.28" y="-301.8" font-family="Arial" font-size="14.00">description </text>
<text text-anchor="start" x="4597.87" y="-301.8" font-family="Arial" font-size="14.00" fill="#666666">[text]</text>
<polygon fill="none" stroke="black" points="4519.28,-258.8 4519.28,-289.6 4705.76,-289.6 4705.76,-258.8 4519.28,-258.8"/>
<text text-anchor="start" x="4526.28" y="-271" font-family="Arial" font-size="14.00">warning </text>
<text text-anchor="start" x="4579.2" y="-271" font-family="Arial" font-size="14.00" fill="#666666">[tinyint(1)]</text>
</g>
<!-- clients -->
<g id="node16" class="node">
<title>clients</title>
<polygon fill="#efefef" stroke="none" points="4809.78,-428.2 4809.78,-463.8 4995.26,-463.8 4995.26,-428.2 4809.78,-428.2"/>
<polygon fill="none" stroke="black" points="4809.78,-428.2 4809.78,-463.8 4995.26,-463.8 4995.26,-428.2 4809.78,-428.2"/>
<text text-anchor="start" x="4816.78" y="-441.6" font-family="Arial Bold" font-size="18.00">clients</text>
<text text-anchor="start" x="4863.77" y="-441.6" font-family="Arial" font-size="14.00">    </text>
<text text-anchor="start" x="4894.89" y="-441.6" font-family="Arial" font-size="14.00" fill="#666666">[BASE TABLE]</text>
<polygon fill="none" stroke="black" points="4809.78,-397.4 4809.78,-428.2 4995.26,-428.2 4995.26,-397.4 4809.78,-397.4"/>
<text text-anchor="start" x="4816.78" y="-409.6" font-family="Arial" font-size="14.00">id </text>
<text text-anchor="start" x="4831.57" y="-409.6" font-family="Arial" font-size="14.00" fill="#666666">[varchar(86)]</text>
<polygon fill="none" stroke="black" points="4809.78,-366.6 4809.78,-397.4 4995.26,-397.4 4995.26,-366.6 4809.78,-366.6"/>
<text text-anchor="start" x="4816.78" y="-378.8" font-family="Arial" font-size="14.00">secret </text>
<text text-anchor="start" x="4858.8" y="-378.8" font-family="Arial" font-size="14.00" fill="#666666">[varchar(86)]</text>
<polygon fill="none" stroke="black" points="4809.78,-335.8 4809.78,-366.6 4995.26,-366.6 4995.26,-335.8 4809.78,-335.8"/>
<text text-anchor="start" x="4816.78" y="-348" font-family="Arial" font-size="14.00">owner_id </text>
<text text-anchor="start" x="4877.49" y="-348" font-family="Arial" font-size="14.00" fill="#666666">[varchar(32)]</text>
<polygon fill="none" stroke="black" points="4809.78,-305 4809.78,-335.8 4995.26,-335.8 4995.26,-305 4809.78,-305"/>
<text text-anchor="start" x="4816.78" y="-317.2" font-family="Arial" font-size="14.00">name </text>
<text text-anchor="start" x="4855.69" y="-317.2" font-family="Arial" font-size="14.00" fill="#666666">[tinytext]</text>
<polygon fill="none" stroke="black" points="4809.78,-274.2 4809.78,-305 4995.26,-305 4995.26,-274.2 4809.78,-274.2"/>
<text text-anchor="start" x="4816.78" y="-286.4" font-family="Arial" font-size="14.00">description </text>
<text text-anchor="start" x="4888.38" y="-286.4" font-family="Arial" font-size="14.00" fill="#666666">[text]</text>
<polygon fill="none" stroke="black" points="4809.78,-243.4 4809.78,-274.2 4995.26,-274.2 4995.26,-243.4 4809.78,-243.4"/>
<text text-anchor="start" x="4816.78" y="-255.6" font-family="Arial" font-size="14.00">created_at </text>
<text text-anchor="start" x="4886.83" y="-255.6" font-family="Arial" font-size="14.00" fill="#666666">[timestamp]</text>
<polygon fill="none" stroke="black" points="4809.78,-212.6 4809.78,-243.4 4995.26,-243.4 4995.26,-212.6 4809.78,-212.6"/>
<text text-anchor="start" x="4816.78" y="-224.8" font-family="Arial" font-size="14.00">updated_at </text>
<text text-anchor="start" x="4890.74" y="-224.8" font-family="Arial" font-size="14.00" fill="#666666">[timestamp]</text>
</g>
</g>
</svg>
