<?xml version="1.0" encoding="UTF-8" standalone="no"?>
<!DOCTYPE svg PUBLIC "-//W3C//DTD SVG 1.1//EN"
 "http://www.w3.org/Graphics/SVG/1.1/DTD/svg11.dtd">
<!-- Generated by graphviz version 12.1.2 (20240928.0832)
 -->
<!-- Title: secret_logs Pages: 1 -->
<svg width="728pt" height="694pt"
 viewBox="0.00 0.00 728.11 694.40" xmlns="http://www.w3.org/2000/svg" xmlns:xlink="http://www.w3.org/1999/xlink">
<g id="graph0" class="graph" transform="scale(1 1) rotate(0) translate(4 690.4)">
<title>secret_logs</title>
<polygon fill="white" stroke="none" points="-4,4 -4,-690.4 724.11,-690.4 724.11,4 -4,4"/>
<!-- secret_logs -->
<g id="node1" class="node">
<title>secret_logs</title>
<polygon fill="#efefef" stroke="none" points="256.71,-604.6 256.71,-640.2 476.18,-640.2 476.18,-604.6 256.71,-604.6"/>
<polygon fill="none" stroke="black" points="256.71,-604.6 256.71,-640.2 476.18,-640.2 476.18,-604.6 256.71,-604.6"/>
<text text-anchor="start" x="263.71" y="-618" font-family="Arial Bold" font-size="18.00">secret_logs</text>
<text text-anchor="start" x="344.69" y="-618" font-family="Arial" font-size="14.00">    </text>
<text text-anchor="start" x="375.8" y="-618" font-family="Arial" font-size="14.00" fill="#666666">[BASE TABLE]</text>
<polygon fill="none" stroke="black" points="256.71,-573.8 256.71,-604.6 476.18,-604.6 476.18,-573.8 256.71,-573.8"/>
<text text-anchor="start" x="263.71" y="-586" font-family="Arial" font-size="14.00">id </text>
<text text-anchor="start" x="278.5" y="-586" font-family="Arial" font-size="14.00" fill="#666666">[char(36)]</text>
<polygon fill="none" stroke="black" points="256.71,-543 256.71,-573.8 476.18,-573.8 476.18,-543 256.71,-543"/>
<text text-anchor="start" x="263.71" y="-555.2" font-family="Arial" font-size="14.00">secret_id </text>
<text text-anchor="start" x="324.41" y="-555.2" font-family="Arial" font-size="14.00" fill="#666666">[char(36)]</text>
<polygon fill="none" stroke="black" points="256.71,-512.2 256.71,-543 476.18,-543 476.18,-512.2 256.71,-512.2"/>
<text text-anchor="start" x="263.71" y="-524.4" font-family="Arial" font-size="14.00">action </text>
<text text-anchor="start" x="304.96" y="-524.4" font-family="Arial" font-size="14.00" fill="#666666">[varchar(32)]</text>
<polygon fill="none" stroke="black" points="256.71,-481.4 256.71,-512.2 476.18,-512.2 476.18,-481.4 256.71,-481.4"/>
<text text-anchor="start" x="263.71" y="-493.6" font-family="Arial" font-size="14.00">actor_id </text>
<text text-anchor="start" x="317.41" y="-493.6" font-family="Arial" font-size="14.00" fill="#666666">[char(36)]</text>
<polygon fill="none" stroke="black" points="256.71,-450.6 256.71,-481.4 476.18,-481.4 476.18,-450.6 256.71,-450.6"/>
<text text-anchor="start" x="263.71" y="-462.8" font-family="Arial" font-size="14.00">created_at </text>
<text text-anchor="start" x="333.76" y="-462.8" font-family="Arial" font-size="14.00" fill="#666666">[datetime(6)]</text>
<polygon fill="none" stroke="black" stroke-width="3" points="255.21,-449.1 255.21,-641.7 477.68,-641.7 477.68,-449.1 255.21,-449.1"/>
</g>
<!-- secrets -->
<g id="node2" class="node">
<title>secrets</title>
<polygon fill="#efefef" stroke="none" points="122.71,-274.2 122.71,-309.8 310.18,-309.8 310.18,-274.2 122.71,-274.2"/>
<polygon fill="none" stroke="black" points="122.71,-274.2 122.71,-309.8 310.18,-309.8 310.18,-274.2 122.71,-274.2"/>
<text text-anchor="start" x="129.71" y="-287.6" font-family="Arial Bold" font-size="18.00">secrets</text>
<text text-anchor="start" x="178.69" y="-287.6" font-family="Arial" font-size="14.00">    </text>
<text text-anchor="start" x="209.8" y="-287.6" font-family="Arial" font-size="14.00" fill="#666666">[BASE TABLE]</text>
<polygon fill="none" stroke="black" points="122.71,-243.4 122.71,-274.2 310.18,-274.2 310.18,-243.4 122.71,-243.4"/>
<text text-anchor="start" x="129.71" y="-255.6" font-family="Arial" font-size="14.00">id </text>
<text text-anchor="start" x="144.5" y="-255.6" font-family="Arial" font-size="14.00" fill="#666666">[char(36)]</text>
<polygon fill="none" stroke="black" points="122.71,-212.6 122.71,-243.4 310.18,-243.4 310.18,-212.6 122.71,-212.6"/>
<text text-anchor="start" x="129.71" y="-224.8" font-family="Arial" font-size="14.00">group_id </text>
<text text-anchor="start" x="188.09" y="-224.8" font-family="Arial" font-size="14.00" fill="#666666">[char(36)]</text>
<polygon fill="none" stroke="black" points="122.71,-181.8 122.71,-212.6 310.18,-212.6 310.18,-181.8 122.71,-181.8"/>
<text text-anchor="start" x="129.71" y="-194" font-family="Arial" font-size="14.00">name </text>
<text text-anchor="start" x="168.62" y="-194" font-family="Arial" font-size="14.00" fill="#666666">[varchar(255)]</text>
<polygon fill="none" stroke="black" points="122.71,-151 122.71,-181.8 310.18,-181.8 310.18,-151 122.71,-151"/>
<text text-anchor="start" x="129.71" y="-163.2" font-family="Arial" font-size="14.00">encrypted_value </text>
<text text-anchor="start" x="236.34" y="-163.2" font-family="Arial" font-size="14.00" fill="#666666">[blob]</text>
<polygon fill="none" stroke="black" points="122.71,-120.2 122.71,-151 310.18,-151 310.18,-120.2 122.71,-120.2"/>
<text text-anchor="start" x="129.71" y="-132.4" font-family="Arial" font-size="14.00">created_by </text>
<text text-anchor="start" x="202.87" y="-132.4" font-family="Arial" font-size="14.00" fill="#666666">[char(36)]</text>
<polygon fill="none" stroke="black" points="122.71,-89.4 122.71,-120.2 310.18,-120.2 310.18,-89.4 122.71,-89.4"/>
<text text-anchor="start" x="129.71" y="-101.6" font-family="Arial" font-size="14.00">created_at </text>
<text text-anchor="start" x="199.76" y="-101.6" font-family="Arial" font-size="14.00" fill="#666666">[datetime(6)]</text>
<polygon fill="none" stroke="black" points="122.71,-58.6 122.71,-89.4 310.18,-89.4 310.18,-58.6 122.71,-58.6"/>
<text text-anchor="start" x="129.71" y="-70.8" font-family="Arial" font-size="14.00">updated_at </text>
<text text-anchor="start" x="203.67" y="-70.8" font-family="Arial" font-size="14.00" fill="#666666">[datetime(6)]</text>
</g>
<!-- secret_logs&#45;&gt;secrets -->
<g id="edge1" class="edge">
<title>secret_logs:secret_id&#45;&gt;secrets:id</title>
<path fill="none" stroke="black" d="M245.46,-557.6C191.86,-548.52 231.17,-463.85 256.71,-404.4 269.72,-374.12 297.1,-383.26 310.18,-353 326.78,-314.57 353.05,-258.8 311.18,-258.8"/>
<polygon fill="black" stroke="black" points="245.41,-557.6 255.03,-562.86 250.73,-558.01 255.05,-558.35 255.05,-558.35 255.05,-558.35 250.73,-558.01 255.73,-553.89 245.41,-557.6"/>
<text text-anchor="start" x="7" y="-568.4" font-family="Arial" font-size="10.00">FOREIGN KEY (secret_id) REFERENCES secrets (id)</text>
</g>
<!-- users -->
<g id="node3" class="node">
<title>users</title>
<polygon fill="#efefef" stroke="none" points="414.9,-289.6 414.9,-325.2 617.99,-325.2 617.99,-289.6 414.9,-289.6"/>
<polygon fill="none" stroke="black" points="414.9,-289.6 414.9,-325.2 617.99,-325.2 617.99,-289.6 414.9,-289.6"/>
<text text-anchor="start" x="435.7" y="-303" font-family="Arial Bold" font-size="18.00">users</text>
<text text-anchor="start" x="472.7" y="-303" font-family="Arial" font-size="14.00">    </text>
<text text-anchor="start" x="503.81" y="-303" font-family="Arial" font-size="14.00" fill="#666666">[BASE TABLE]</text>
<polygon fill="none" stroke="black" points="414.9,-258.8 414.9,-289.6 617.99,-289.6 617.99,-258.8 414.9,-258.8"/>
<text text-anchor="start" x="421.9" y="-271" font-family="Arial" font-size="14.00">id </text>
<text text-anchor="start" x="436.68" y="-271" font-family="Arial" font-size="14.00" fill="#666666">[char(36)]</text>
<polygon fill="none" stroke="black" points="414.9,-228 414.9,-258.8 617.99,-258.8 617.99,-228 414.9,-228"/>
<text text-anchor="start" x="421.9" y="-240.2" font-family="Arial" font-size="14.00">trap_id </text>
<text text-anchor="start" x="468.59" y="-240.2" font-family="Arial" font-size="14.00" fill="#666666">[varchar(32)]</text>
<polygon fill="none" stroke="black" points="414.9,-197.2 414.9,-228 617.99,-228 617.99,-197.2 414.9,-197.2"/>
<text text-anchor="start" x="421.9" y="-209.4" font-family="Arial" font-size="14.00">password_hash </text>
<text text-anchor="start" x="523.85" y="-209.4" font-family="Arial" font-size="14.00" fill="#666666">[varchar(255)]</text>
<polygon fill="none" stroke="black" points="414.9,-166.4 414.9,-197.2 617.99,-197.2 617.99,-166.4 414.9,-166.4"/>
<text text-anchor="start" x="421.9" y="-178.6" font-family="Arial" font-size="14.00">email </text>
<text text-anchor="start" x="459.24" y="-178.6" font-family="Arial" font-size="14.00" fill="#666666">[varbinary(512)]</text>
<polygon fill="none" stroke="black" points="414.9,-135.6 414.9,-166.4 617.99,-166.4 617.99,-135.6 414.9,-135.6"/>
<text text-anchor="start" x="421.9" y="-147.8" font-family="Arial" font-size="14.00">personal_info </text>
<text text-anchor="start" x="509.85" y="-147.8" font-family="Arial" font-size="14.00" fill="#666666">[blob]</text>
<polygon fill="none" stroke="black" points="414.9,-104.8 414.9,-135.6 617.99,-135.6 617.99,-104.8 414.9,-104.8"/>
<text text-anchor="start" x="421.9" y="-117" font-family="Arial" font-size="14.00">student_number </text>
<text text-anchor="start" x="526.97" y="-117" font-family="Arial" font-size="14.00" fill="#666666">[varchar(8)]</text>
<polygon fill="none" stroke="black" points="414.9,-74 414.9,-104.8 617.99,-104.8 617.99,-74 414.9,-74"/>
<text text-anchor="start" x="421.9" y="-86.2" font-family="Arial" font-size="14.00">created_at </text>
<text text-anchor="start" x="491.95" y="-86.2" font-family="Arial" font-size="14.00" fill="#666666">[datetime(6)]</text>
<polygon fill="none" stroke="black" points="414.9,-43.2 414.9,-74 617.99,-74 617.99,-43.2 414.9,-43.2"/>
<text text-anchor="start" x="421.9" y="-55.4" font-family="Arial" font-size="14.00">updated_at </text>
<text text-anchor="start" x="495.86" y="-55.4" font-family="Arial" font-size="14.00" fill="#666666">[datetime(6)]</text>
</g>
<!-- secret_logs&#45;&gt;users -->
<g id="edge2" class="edge">
<title>secret_logs:actor_id&#45;&gt;users:id</title>
<path fill="none" stroke="black" d="M487.48,-495.25C514.06,-485.9 494.76,-436.46 476.18,-404.4 460.34,-377.07 430.73,-395.73 414.9,-368.4 393.91,-332.17 372.03,-274.2 413.9,-274.2"/>
<polygon fill="black" stroke="black" points="487.4,-495.26 476.84,-492.3 482.12,-496.05 477.84,-496.7 477.84,-496.7 477.84,-496.7 482.12,-496.05 478.18,-501.2 487.4,-495.26"/>
<text text-anchor="start" x="484.18" y="-506.8" font-family="Arial" font-size="10.00">FOREIGN KEY (actor_id) REFERENCES users (id)</text>
</g>
</g>
</svg>
