<?xml version="1.0" encoding="UTF-8" standalone="no"?>
<!DOCTYPE svg PUBLIC "-//W3C//DTD SVG 1.1//EN"
 "http://www.w3.org/Graphics/SVG/1.1/DTD/svg11.dtd">
<!-- Generated by graphviz version 12.1.2 (20240928.0832)
 -->
<!-- Title: tokens_scopes Pages: 1 -->
<svg width="343pt" height="198pt"
 viewBox="0.00 0.00 342.87 197.60" xmlns="http://www.w3.org/2000/svg" xmlns:xlink="http://www.w3.org/1999/xlink">
<g id="graph0" class="graph" transform="scale(1 1) rotate(0) translate(4 193.6)">
<title>tokens_scopes</title>
<polygon fill="white" stroke="none" points="-4,4 -4,-193.6 338.87,-193.6 338.87,4 -4,4"/>
<!-- tokens_scopes -->
<g id="node1" class="node">
<title>tokens_scopes</title>
<polygon fill="#efefef" stroke="none" points="46.2,-107.8 46.2,-143.4 288.67,-143.4 288.67,-107.8 46.2,-107.8"/>
<polygon fill="none" stroke="black" points="46.2,-107.8 46.2,-143.4 288.67,-143.4 288.67,-107.8 46.2,-107.8"/>
<text text-anchor="start" x="53.2" y="-121.2" font-family="Arial Bold" font-size="18.00">tokens_scopes</text>
<text text-anchor="start" x="157.18" y="-121.2" font-family="Arial" font-size="14.00">    </text>
<text text-anchor="start" x="188.3" y="-121.2" font-family="Arial" font-size="14.00" fill="#666666">[BASE TABLE]</text>
<polygon fill="none" stroke="black" points="46.2,-77 46.2,-107.8 288.67,-107.8 288.67,-77 46.2,-77"/>
<text text-anchor="start" x="53.2" y="-89.2" font-family="Arial" font-size="14.00">token_id </text>
<text text-anchor="start" x="110.02" y="-89.2" font-family="Arial" font-size="14.00" fill="#666666">[varchar(86)]</text>
<polygon fill="none" stroke="black" points="46.2,-46.2 46.2,-77 288.67,-77 288.67,-46.2 46.2,-46.2"/>
<text text-anchor="start" x="53.2" y="-58.4" font-family="Arial" font-size="14.00">scope_id </text>
<text text-anchor="start" x="113.13" y="-58.4" font-family="Arial" font-size="14.00" fill="#666666">[varchar(64)]</text>
<polygon fill="none" stroke="black" stroke-width="3" points="44.7,-44.7 44.7,-144.9 290.17,-144.9 290.17,-44.7 44.7,-44.7"/>
</g>
</g>
</svg>
