<?xml version="1.0" encoding="UTF-8" standalone="no"?>
<!DOCTYPE svg PUBLIC "-//W3C//DTD SVG 1.1//EN"
 "http://www.w3.org/Graphics/SVG/1.1/DTD/svg11.dtd">
<!-- Generated by graphviz version 12.1.2 (20240928.0832)
 -->
<!-- Title: user_keys Pages: 1 -->
<svg width="630pt" height="1068pt"
 viewBox="0.00 0.00 629.90 1068.00" xmlns="http://www.w3.org/2000/svg" xmlns:xlink="http://www.w3.org/1999/xlink">
<g id="graph0" class="graph" transform="scale(1 1) rotate(0) translate(4 1064)">
<title>user_keys</title>
<polygon fill="white" stroke="none" points="-4,4 -4,-1064 625.9,-1064 625.9,4 -4,4"/>
<!-- user_keys -->
<g id="node1" class="node">
<title>user_keys</title>
<polygon fill="#efefef" stroke="none" points="49.2,-666.2 49.2,-701.8 259.67,-701.8 259.67,-666.2 49.2,-666.2"/>
<polygon fill="none" stroke="black" points="49.2,-666.2 49.2,-701.8 259.67,-701.8 259.67,-666.2 49.2,-666.2"/>
<text text-anchor="start" x="56.2" y="-679.6" font-family="Arial Bold" font-size="18.00">user_keys</text>
<text text-anchor="start" x="128.19" y="-679.6" font-family="Arial" font-size="14.00">    </text>
<text text-anchor="start" x="159.3" y="-679.6" font-family="Arial" font-size="14.00" fill="#666666">[BASE TABLE]</text>
<polygon fill="none" stroke="black" points="49.2,-635.4 49.2,-666.2 259.67,-666.2 259.67,-635.4 49.2,-635.4"/>
<text text-anchor="start" x="56.2" y="-647.6" font-family="Arial" font-size="14.00">user_id </text>
<text text-anchor="start" x="106.01" y="-647.6" font-family="Arial" font-size="14.00" fill="#666666">[char(36)]</text>
<polygon fill="none" stroke="black" points="49.2,-604.6 49.2,-635.4 259.67,-635.4 259.67,-604.6 49.2,-604.6"/>
<text text-anchor="start" x="56.2" y="-616.8" font-family="Arial" font-size="14.00">key_id </text>
<text text-anchor="start" x="100.56" y="-616.8" font-family="Arial" font-size="14.00" fill="#666666">[char(36)]</text>
<polygon fill="none" stroke="black" points="49.2,-573.8 49.2,-604.6 259.67,-604.6 259.67,-573.8 49.2,-573.8"/>
<text text-anchor="start" x="56.2" y="-586" font-family="Arial" font-size="14.00">public_key </text>
<text text-anchor="start" x="126.24" y="-586" font-family="Arial" font-size="14.00" fill="#666666">[varbinary(4096)]</text>
<polygon fill="none" stroke="black" points="49.2,-543 49.2,-573.8 259.67,-573.8 259.67,-543 49.2,-543"/>
<text text-anchor="start" x="56.2" y="-555.2" font-family="Arial" font-size="14.00">encrypted_private_key </text>
<text text-anchor="start" x="200.95" y="-555.2" font-family="Arial" font-size="14.00" fill="#666666">[blob]</text>
<polygon fill="none" stroke="black" points="49.2,-512.2 49.2,-543 259.67,-543 259.67,-512.2 49.2,-512.2"/>
<text text-anchor="start" x="56.2" y="-524.4" font-family="Arial" font-size="14.00">algorithm </text>
<text text-anchor="start" x="117.67" y="-524.4" font-family="Arial" font-size="14.00" fill="#666666">[varchar(32)]</text>
<polygon fill="none" stroke="black" points="49.2,-481.4 49.2,-512.2 259.67,-512.2 259.67,-481.4 49.2,-481.4"/>
<text text-anchor="start" x="56.2" y="-493.6" font-family="Arial" font-size="14.00">is_active </text>
<text text-anchor="start" x="114.56" y="-493.6" font-family="Arial" font-size="14.00" fill="#666666">[tinyint(1)]</text>
<polygon fill="none" stroke="black" points="49.2,-450.6 49.2,-481.4 259.67,-481.4 259.67,-450.6 49.2,-450.6"/>
<text text-anchor="start" x="56.2" y="-462.8" font-family="Arial" font-size="14.00">created_at </text>
<text text-anchor="start" x="126.25" y="-462.8" font-family="Arial" font-size="14.00" fill="#666666">[datetime(6)]</text>
<polygon fill="none" stroke="black" stroke-width="3" points="47.7,-449.1 47.7,-703.3 261.17,-703.3 261.17,-449.1 47.7,-449.1"/>
</g>
<!-- users -->
<g id="node2" class="node">
<title>users</title>
<polygon fill="#efefef" stroke="none" points="52.89,-289.6 52.89,-325.2 255.99,-325.2 255.99,-289.6 52.89,-289.6"/>
<polygon fill="none" stroke="black" points="52.89,-289.6 52.89,-325.2 255.99,-325.2 255.99,-289.6 52.89,-289.6"/>
<text text-anchor="start" x="73.7" y="-303" font-family="Arial Bold" font-size="18.00">users</text>
<text text-anchor="start" x="110.69" y="-303" font-family="Arial" font-size="14.00">    </text>
<text text-anchor="start" x="141.81" y="-303" font-family="Arial" font-size="14.00" fill="#666666">[BASE TABLE]</text>
<polygon fill="none" stroke="black" points="52.89,-258.8 52.89,-289.6 255.99,-289.6 255.99,-258.8 52.89,-258.8"/>
<text text-anchor="start" x="59.89" y="-271" font-family="Arial" font-size="14.00">id </text>
<text text-anchor="start" x="74.68" y="-271" font-family="Arial" font-size="14.00" fill="#666666">[char(36)]</text>
<polygon fill="none" stroke="black" points="52.89,-228 52.89,-258.8 255.99,-258.8 255.99,-228 52.89,-228"/>
<text text-anchor="start" x="59.89" y="-240.2" font-family="Arial" font-size="14.00">trap_id </text>
<text text-anchor="start" x="106.59" y="-240.2" font-family="Arial" font-size="14.00" fill="#666666">[varchar(32)]</text>
<polygon fill="none" stroke="black" points="52.89,-197.2 52.89,-228 255.99,-228 255.99,-197.2 52.89,-197.2"/>
<text text-anchor="start" x="59.89" y="-209.4" font-family="Arial" font-size="14.00">password_hash </text>
<text text-anchor="start" x="161.84" y="-209.4" font-family="Arial" font-size="14.00" fill="#666666">[varchar(255)]</text>
<polygon fill="none" stroke="black" points="52.89,-166.4 52.89,-197.2 255.99,-197.2 255.99,-166.4 52.89,-166.4"/>
<text text-anchor="start" x="59.89" y="-178.6" font-family="Arial" font-size="14.00">email </text>
<text text-anchor="start" x="97.24" y="-178.6" font-family="Arial" font-size="14.00" fill="#666666">[varbinary(512)]</text>
<polygon fill="none" stroke="black" points="52.89,-135.6 52.89,-166.4 255.99,-166.4 255.99,-135.6 52.89,-135.6"/>
<text text-anchor="start" x="59.89" y="-147.8" font-family="Arial" font-size="14.00">personal_info </text>
<text text-anchor="start" x="147.84" y="-147.8" font-family="Arial" font-size="14.00" fill="#666666">[blob]</text>
<polygon fill="none" stroke="black" points="52.89,-104.8 52.89,-135.6 255.99,-135.6 255.99,-104.8 52.89,-104.8"/>
<text text-anchor="start" x="59.89" y="-117" font-family="Arial" font-size="14.00">student_number </text>
<text text-anchor="start" x="164.96" y="-117" font-family="Arial" font-size="14.00" fill="#666666">[varchar(8)]</text>
<polygon fill="none" stroke="black" points="52.89,-74 52.89,-104.8 255.99,-104.8 255.99,-74 52.89,-74"/>
<text text-anchor="start" x="59.89" y="-86.2" font-family="Arial" font-size="14.00">created_at </text>
<text text-anchor="start" x="129.94" y="-86.2" font-family="Arial" font-size="14.00" fill="#666666">[datetime(6)]</text>
<polygon fill="none" stroke="black" points="52.89,-43.2 52.89,-74 255.99,-74 255.99,-43.2 52.89,-43.2"/>
<text text-anchor="start" x="59.89" y="-55.4" font-family="Arial" font-size="14.00">updated_at </text>
<text text-anchor="start" x="133.85" y="-55.4" font-family="Arial" font-size="14.00" fill="#666666">[datetime(6)]</text>
</g>
<!-- user_keys&#45;&gt;users -->
<g id="edge1" class="edge">
<title>user_keys:user_id&#45;&gt;users:id</title>
<path fill="none" stroke="black" d="M270.53,-648.95C343.93,-620.54 337.25,-274.2 256.99,-274.2"/>
<polygon fill="black" stroke="black" points="270.83,-648.9 260.17,-646.32 265.59,-649.88 261.33,-650.68 261.33,-650.68 261.33,-650.68 265.59,-649.88 261.83,-655.16 270.83,-648.9"/>
<text text-anchor="start" x="267.67" y="-660.8" font-family="Arial" font-size="10.00">FOREIGN KEY (user_id) REFERENCES users (id)</text>
</g>
<!-- group_keys -->
<g id="node3" class="node">
<title>group_keys</title>
<polygon fill="#efefef" stroke="none" points="43.2,-981.2 43.2,-1016.8 265.68,-1016.8 265.68,-981.2 43.2,-981.2"/>
<polygon fill="none" stroke="black" points="43.2,-981.2 43.2,-1016.8 265.68,-1016.8 265.68,-981.2 43.2,-981.2"/>
<text text-anchor="start" x="50.2" y="-994.6" font-family="Arial Bold" font-size="18.00">group_keys</text>
<text text-anchor="start" x="134.19" y="-994.6" font-family="Arial" font-size="14.00">    </text>
<text text-anchor="start" x="165.31" y="-994.6" font-family="Arial" font-size="14.00" fill="#666666">[BASE TABLE]</text>
<polygon fill="none" stroke="black" points="43.2,-950.4 43.2,-981.2 265.68,-981.2 265.68,-950.4 43.2,-950.4"/>
<text text-anchor="start" x="50.2" y="-962.6" font-family="Arial" font-size="14.00">group_id </text>
<text text-anchor="start" x="108.58" y="-962.6" font-family="Arial" font-size="14.00" fill="#666666">[char(36)]</text>
<polygon fill="none" stroke="black" points="43.2,-919.6 43.2,-950.4 265.68,-950.4 265.68,-919.6 43.2,-919.6"/>
<text text-anchor="start" x="50.2" y="-931.8" font-family="Arial" font-size="14.00">user_id </text>
<text text-anchor="start" x="100.01" y="-931.8" font-family="Arial" font-size="14.00" fill="#666666">[char(36)]</text>
<polygon fill="none" stroke="black" points="43.2,-888.8 43.2,-919.6 265.68,-919.6 265.68,-888.8 43.2,-888.8"/>
<text text-anchor="start" x="50.2" y="-901" font-family="Arial" font-size="14.00">key_id </text>
<text text-anchor="start" x="94.56" y="-901" font-family="Arial" font-size="14.00" fill="#666666">[char(36)]</text>
<polygon fill="none" stroke="black" points="43.2,-858 43.2,-888.8 265.68,-888.8 265.68,-858 43.2,-858"/>
<text text-anchor="start" x="50.2" y="-870.2" font-family="Arial" font-size="14.00">encrypted_key </text>
<text text-anchor="start" x="145.14" y="-870.2" font-family="Arial" font-size="14.00" fill="#666666">[blob]</text>
<polygon fill="none" stroke="black" points="43.2,-827.2 43.2,-858 265.68,-858 265.68,-827.2 43.2,-827.2"/>
<text text-anchor="start" x="50.2" y="-839.4" font-family="Arial" font-size="14.00">created_at </text>
<text text-anchor="start" x="120.25" y="-839.4" font-family="Arial" font-size="14.00" fill="#666666">[datetime(6)]</text>
</g>
<!-- group_keys&#45;&gt;user_keys -->
<g id="edge2" class="edge">
<title>group_keys:user_id&#45;&gt;user_keys:user_id</title>
<path fill="none" stroke="black" d="M276.75,-932.37C328.98,-903.72 320.27,-650.8 260.67,-650.8"/>
<polygon fill="black" stroke="black" points="276.68,-932.39 265.86,-930.56 271.52,-933.74 267.32,-934.83 267.32,-934.83 267.32,-934.83 271.52,-933.74 268.14,-939.27 276.68,-932.39"/>
<text text-anchor="start" x="273.68" y="-945" font-family="Arial" font-size="10.00">FOREIGN KEY (user_id, key_id) REFERENCES user_keys (user_id, key_id)</text>
</g>
</g>
</svg>
