<?xml version="1.0" encoding="UTF-8" standalone="no"?>
<!DOCTYPE svg PUBLIC "-//W3C//DTD SVG 1.1//EN"
 "http://www.w3.org/Graphics/SVG/1.1/DTD/svg11.dtd">
<!-- Generated by graphviz version 12.1.2 (20240928.0832)
 -->
<!-- Title: user_statuses Pages: 1 -->
<svg width="529pt" height="664pt"
 viewBox="0.00 0.00 528.83 663.60" xmlns="http://www.w3.org/2000/svg" xmlns:xlink="http://www.w3.org/1999/xlink">
<g id="graph0" class="graph" transform="scale(1 1) rotate(0) translate(4 659.6)">
<title>user_statuses</title>
<polygon fill="white" stroke="none" points="-4,4 -4,-659.6 524.83,-659.6 524.83,4 -4,4"/>
<!-- user_statuses -->
<g id="node1" class="node">
<title>user_statuses</title>
<polygon fill="#efefef" stroke="none" points="46.2,-573.8 46.2,-609.4 279.67,-609.4 279.67,-573.8 46.2,-573.8"/>
<polygon fill="none" stroke="black" points="46.2,-573.8 46.2,-609.4 279.67,-609.4 279.67,-573.8 46.2,-573.8"/>
<text text-anchor="start" x="53.2" y="-587.2" font-family="Arial Bold" font-size="18.00">user_statuses</text>
<text text-anchor="start" x="148.18" y="-587.2" font-family="Arial" font-size="14.00">    </text>
<text text-anchor="start" x="179.3" y="-587.2" font-family="Arial" font-size="14.00" fill="#666666">[BASE TABLE]</text>
<polygon fill="none" stroke="black" points="46.2,-543 46.2,-573.8 279.67,-573.8 279.67,-543 46.2,-543"/>
<text text-anchor="start" x="53.2" y="-555.2" font-family="Arial" font-size="14.00">user_id </text>
<text text-anchor="start" x="103.01" y="-555.2" font-family="Arial" font-size="14.00" fill="#666666">[char(36)]</text>
<polygon fill="none" stroke="black" points="46.2,-512.2 46.2,-543 279.67,-543 279.67,-512.2 46.2,-512.2"/>
<text text-anchor="start" x="53.2" y="-524.4" font-family="Arial" font-size="14.00">status </text>
<text text-anchor="start" x="94.44" y="-524.4" font-family="Arial" font-size="14.00" fill="#666666">[varchar(64)]</text>
<polygon fill="none" stroke="black" points="46.2,-481.4 46.2,-512.2 279.67,-512.2 279.67,-481.4 46.2,-481.4"/>
<text text-anchor="start" x="53.2" y="-493.6" font-family="Arial" font-size="14.00">detail </text>
<text text-anchor="start" x="90.56" y="-493.6" font-family="Arial" font-size="14.00" fill="#666666">[varchar(255)]</text>
<polygon fill="none" stroke="black" points="46.2,-450.6 46.2,-481.4 279.67,-481.4 279.67,-450.6 46.2,-450.6"/>
<text text-anchor="start" x="53.2" y="-462.8" font-family="Arial" font-size="14.00">created_at </text>
<text text-anchor="start" x="123.25" y="-462.8" font-family="Arial" font-size="14.00" fill="#666666">[datetime(6)]</text>
<polygon fill="none" stroke="black" stroke-width="3" points="44.7,-449.1 44.7,-610.9 281.17,-610.9 281.17,-449.1 44.7,-449.1"/>
</g>
<!-- users -->
<g id="node2" class="node">
<title>users</title>
<polygon fill="#efefef" stroke="none" points="61.39,-289.6 61.39,-325.2 264.48,-325.2 264.48,-289.6 61.39,-289.6"/>
<polygon fill="none" stroke="black" points="61.39,-289.6 61.39,-325.2 264.48,-325.2 264.48,-289.6 61.39,-289.6"/>
<text text-anchor="start" x="82.2" y="-303" font-family="Arial Bold" font-size="18.00">users</text>
<text text-anchor="start" x="119.19" y="-303" font-family="Arial" font-size="14.00">    </text>
<text text-anchor="start" x="150.31" y="-303" font-family="Arial" font-size="14.00" fill="#666666">[BASE TABLE]</text>
<polygon fill="none" stroke="black" points="61.39,-258.8 61.39,-289.6 264.48,-289.6 264.48,-258.8 61.39,-258.8"/>
<text text-anchor="start" x="68.39" y="-271" font-family="Arial" font-size="14.00">id </text>
<text text-anchor="start" x="83.17" y="-271" font-family="Arial" font-size="14.00" fill="#666666">[char(36)]</text>
<polygon fill="none" stroke="black" points="61.39,-228 61.39,-258.8 264.48,-258.8 264.48,-228 61.39,-228"/>
<text text-anchor="start" x="68.39" y="-240.2" font-family="Arial" font-size="14.00">trap_id </text>
<text text-anchor="start" x="115.08" y="-240.2" font-family="Arial" font-size="14.00" fill="#666666">[varchar(32)]</text>
<polygon fill="none" stroke="black" points="61.39,-197.2 61.39,-228 264.48,-228 264.48,-197.2 61.39,-197.2"/>
<text text-anchor="start" x="68.39" y="-209.4" font-family="Arial" font-size="14.00">password_hash </text>
<text text-anchor="start" x="170.34" y="-209.4" font-family="Arial" font-size="14.00" fill="#666666">[varchar(255)]</text>
<polygon fill="none" stroke="black" points="61.39,-166.4 61.39,-197.2 264.48,-197.2 264.48,-166.4 61.39,-166.4"/>
<text text-anchor="start" x="68.39" y="-178.6" font-family="Arial" font-size="14.00">email </text>
<text text-anchor="start" x="105.73" y="-178.6" font-family="Arial" font-size="14.00" fill="#666666">[varbinary(512)]</text>
<polygon fill="none" stroke="black" points="61.39,-135.6 61.39,-166.4 264.48,-166.4 264.48,-135.6 61.39,-135.6"/>
<text text-anchor="start" x="68.39" y="-147.8" font-family="Arial" font-size="14.00">personal_info </text>
<text text-anchor="start" x="156.34" y="-147.8" font-family="Arial" font-size="14.00" fill="#666666">[blob]</text>
<polygon fill="none" stroke="black" points="61.39,-104.8 61.39,-135.6 264.48,-135.6 264.48,-104.8 61.39,-104.8"/>
<text text-anchor="start" x="68.39" y="-117" font-family="Arial" font-size="14.00">student_number </text>
<text text-anchor="start" x="173.46" y="-117" font-family="Arial" font-size="14.00" fill="#666666">[varchar(8)]</text>
<polygon fill="none" stroke="black" points="61.39,-74 61.39,-104.8 264.48,-104.8 264.48,-74 61.39,-74"/>
<text text-anchor="start" x="68.39" y="-86.2" font-family="Arial" font-size="14.00">created_at </text>
<text text-anchor="start" x="138.44" y="-86.2" font-family="Arial" font-size="14.00" fill="#666666">[datetime(6)]</text>
<polygon fill="none" stroke="black" points="61.39,-43.2 61.39,-74 264.48,-74 264.48,-43.2 61.39,-43.2"/>
<text text-anchor="start" x="68.39" y="-55.4" font-family="Arial" font-size="14.00">updated_at </text>
<text text-anchor="start" x="142.35" y="-55.4" font-family="Arial" font-size="14.00" fill="#666666">[datetime(6)]</text>
</g>
<!-- user_statuses&#45;&gt;users -->
<g id="edge1" class="edge">
<title>user_statuses:user_id&#45;&gt;users:id</title>
<path fill="none" stroke="black" d="M290.67,-555.77C342.04,-527.12 325.15,-274.2 265.48,-274.2"/>
<polygon fill="black" stroke="black" points="290.67,-555.77 279.85,-553.96 285.51,-557.13 281.32,-558.23 281.32,-558.23 281.32,-558.23 285.51,-557.13 282.14,-562.67 290.67,-555.77"/>
<text text-anchor="start" x="287.67" y="-568.4" font-family="Arial" font-size="10.00">FOREIGN KEY (user_id) REFERENCES users (id)</text>
</g>
</g>
</svg>
