<?xml version="1.0" encoding="UTF-8" standalone="no"?>
<!DOCTYPE svg PUBLIC "-//W3C//DTD SVG 1.1//EN"
 "http://www.w3.org/Graphics/SVG/1.1/DTD/svg11.dtd">
<!-- Generated by graphviz version 12.1.2 (20240928.0832)
 -->
<!-- Title: users Pages: 1 -->
<svg width="3605pt" height="787pt"
 viewBox="0.00 0.00 3605.15 786.80" xmlns="http://www.w3.org/2000/svg" xmlns:xlink="http://www.w3.org/1999/xlink">
<g id="graph0" class="graph" transform="scale(1 1) rotate(0) translate(4 782.8)">
<title>users</title>
<polygon fill="white" stroke="none" points="-4,4 -4,-782.8 3601.15,-782.8 3601.15,4 -4,4"/>
<!-- users -->
<g id="node1" class="node">
<title>users</title>
<polygon fill="#efefef" stroke="none" points="1712.66,-292.6 1712.66,-328.2 1915.75,-328.2 1915.75,-292.6 1712.66,-292.6"/>
<polygon fill="none" stroke="black" points="1712.66,-292.6 1712.66,-328.2 1915.75,-328.2 1915.75,-292.6 1712.66,-292.6"/>
<text text-anchor="start" x="1733.47" y="-306" font-family="Arial Bold" font-size="18.00">users</text>
<text text-anchor="start" x="1770.46" y="-306" font-family="Arial" font-size="14.00">    </text>
<text text-anchor="start" x="1801.58" y="-306" font-family="Arial" font-size="14.00" fill="#666666">[BASE TABLE]</text>
<polygon fill="none" stroke="black" points="1712.66,-261.8 1712.66,-292.6 1915.75,-292.6 1915.75,-261.8 1712.66,-261.8"/>
<text text-anchor="start" x="1719.66" y="-274" font-family="Arial" font-size="14.00">id </text>
<text text-anchor="start" x="1734.45" y="-274" font-family="Arial" font-size="14.00" fill="#666666">[char(36)]</text>
<polygon fill="none" stroke="black" points="1712.66,-231 1712.66,-261.8 1915.75,-261.8 1915.75,-231 1712.66,-231"/>
<text text-anchor="start" x="1719.66" y="-243.2" font-family="Arial" font-size="14.00">trap_id </text>
<text text-anchor="start" x="1766.36" y="-243.2" font-family="Arial" font-size="14.00" fill="#666666">[varchar(32)]</text>
<polygon fill="none" stroke="black" points="1712.66,-200.2 1712.66,-231 1915.75,-231 1915.75,-200.2 1712.66,-200.2"/>
<text text-anchor="start" x="1719.66" y="-212.4" font-family="Arial" font-size="14.00">password_hash </text>
<text text-anchor="start" x="1821.61" y="-212.4" font-family="Arial" font-size="14.00" fill="#666666">[varchar(255)]</text>
<polygon fill="none" stroke="black" points="1712.66,-169.4 1712.66,-200.2 1915.75,-200.2 1915.75,-169.4 1712.66,-169.4"/>
<text text-anchor="start" x="1719.66" y="-181.6" font-family="Arial" font-size="14.00">email </text>
<text text-anchor="start" x="1757" y="-181.6" font-family="Arial" font-size="14.00" fill="#666666">[varbinary(512)]</text>
<polygon fill="none" stroke="black" points="1712.66,-138.6 1712.66,-169.4 1915.75,-169.4 1915.75,-138.6 1712.66,-138.6"/>
<text text-anchor="start" x="1719.66" y="-150.8" font-family="Arial" font-size="14.00">personal_info </text>
<text text-anchor="start" x="1807.61" y="-150.8" font-family="Arial" font-size="14.00" fill="#666666">[blob]</text>
<polygon fill="none" stroke="black" points="1712.66,-107.8 1712.66,-138.6 1915.75,-138.6 1915.75,-107.8 1712.66,-107.8"/>
<text text-anchor="start" x="1719.66" y="-120" font-family="Arial" font-size="14.00">student_number </text>
<text text-anchor="start" x="1824.73" y="-120" font-family="Arial" font-size="14.00" fill="#666666">[varchar(8)]</text>
<polygon fill="none" stroke="black" points="1712.66,-77 1712.66,-107.8 1915.75,-107.8 1915.75,-77 1712.66,-77"/>
<text text-anchor="start" x="1719.66" y="-89.2" font-family="Arial" font-size="14.00">created_at </text>
<text text-anchor="start" x="1789.71" y="-89.2" font-family="Arial" font-size="14.00" fill="#666666">[datetime(6)]</text>
<polygon fill="none" stroke="black" points="1712.66,-46.2 1712.66,-77 1915.75,-77 1915.75,-46.2 1712.66,-46.2"/>
<text text-anchor="start" x="1719.66" y="-58.4" font-family="Arial" font-size="14.00">updated_at </text>
<text text-anchor="start" x="1793.62" y="-58.4" font-family="Arial" font-size="14.00" fill="#666666">[datetime(6)]</text>
<polygon fill="none" stroke="black" stroke-width="3" points="1711.16,-44.7 1711.16,-329.7 1917.25,-329.7 1917.25,-44.7 1711.16,-44.7"/>
</g>
<!-- mails -->
<g id="node2" class="node">
<title>mails</title>
<polygon fill="#efefef" stroke="none" points="79.46,-669.2 79.46,-704.8 256.95,-704.8 256.95,-669.2 79.46,-669.2"/>
<polygon fill="none" stroke="black" points="79.46,-669.2 79.46,-704.8 256.95,-704.8 256.95,-669.2 79.46,-669.2"/>
<text text-anchor="start" x="86.46" y="-682.6" font-family="Arial Bold" font-size="18.00">mails</text>
<text text-anchor="start" x="125.46" y="-682.6" font-family="Arial" font-size="14.00">    </text>
<text text-anchor="start" x="156.58" y="-682.6" font-family="Arial" font-size="14.00" fill="#666666">[BASE TABLE]</text>
<polygon fill="none" stroke="black" points="79.46,-638.4 79.46,-669.2 256.95,-669.2 256.95,-638.4 79.46,-638.4"/>
<text text-anchor="start" x="86.46" y="-650.6" font-family="Arial" font-size="14.00">id </text>
<text text-anchor="start" x="101.25" y="-650.6" font-family="Arial" font-size="14.00" fill="#666666">[char(36)]</text>
<polygon fill="none" stroke="black" points="79.46,-607.6 79.46,-638.4 256.95,-638.4 256.95,-607.6 79.46,-607.6"/>
<text text-anchor="start" x="86.46" y="-619.8" font-family="Arial" font-size="14.00">to </text>
<text text-anchor="start" x="102.03" y="-619.8" font-family="Arial" font-size="14.00" fill="#666666">[text]</text>
<polygon fill="none" stroke="black" points="79.46,-576.8 79.46,-607.6 256.95,-607.6 256.95,-576.8 79.46,-576.8"/>
<text text-anchor="start" x="86.46" y="-589" font-family="Arial" font-size="14.00">subject </text>
<text text-anchor="start" x="134.71" y="-589" font-family="Arial" font-size="14.00" fill="#666666">[varchar(255)]</text>
<polygon fill="none" stroke="black" points="79.46,-546 79.46,-576.8 256.95,-576.8 256.95,-546 79.46,-546"/>
<text text-anchor="start" x="86.46" y="-558.2" font-family="Arial" font-size="14.00">body </text>
<text text-anchor="start" x="120.71" y="-558.2" font-family="Arial" font-size="14.00" fill="#666666">[text]</text>
<polygon fill="none" stroke="black" points="79.46,-515.2 79.46,-546 256.95,-546 256.95,-515.2 79.46,-515.2"/>
<text text-anchor="start" x="86.46" y="-527.4" font-family="Arial" font-size="14.00">operator_id </text>
<text text-anchor="start" x="161.18" y="-527.4" font-family="Arial" font-size="14.00" fill="#666666">[char(36)]</text>
<polygon fill="none" stroke="black" points="79.46,-484.4 79.46,-515.2 256.95,-515.2 256.95,-484.4 79.46,-484.4"/>
<text text-anchor="start" x="86.46" y="-496.6" font-family="Arial" font-size="14.00">created_at </text>
<text text-anchor="start" x="156.51" y="-496.6" font-family="Arial" font-size="14.00" fill="#666666">[datetime(6)]</text>
</g>
<!-- mails&#45;&gt;users -->
<g id="edge1" class="edge">
<title>mails:operator_id&#45;&gt;users:id</title>
<path fill="none" stroke="black" d="M268.1,-529.5C309.34,-519.42 265.43,-442.4 309.21,-410.4 435.58,-318.03 1555.13,-277.2 1711.66,-277.2"/>
<polygon fill="black" stroke="black" points="268.22,-529.49 257.8,-526.09 262.92,-530.06 258.62,-530.53 258.62,-530.53 258.62,-530.53 262.92,-530.06 258.77,-535.04 268.22,-529.49"/>
<text text-anchor="start" x="7" y="-540.6" font-family="Arial" font-size="10.00">FOREIGN KEY (operator_id) REFERENCES users (id)</text>
</g>
<!-- user_keys -->
<g id="node3" class="node">
<title>user_keys</title>
<polygon fill="#efefef" stroke="none" points="360.97,-684.6 360.97,-720.2 571.44,-720.2 571.44,-684.6 360.97,-684.6"/>
<polygon fill="none" stroke="black" points="360.97,-684.6 360.97,-720.2 571.44,-720.2 571.44,-684.6 360.97,-684.6"/>
<text text-anchor="start" x="367.97" y="-698" font-family="Arial Bold" font-size="18.00">user_keys</text>
<text text-anchor="start" x="439.95" y="-698" font-family="Arial" font-size="14.00">    </text>
<text text-anchor="start" x="471.07" y="-698" font-family="Arial" font-size="14.00" fill="#666666">[BASE TABLE]</text>
<polygon fill="none" stroke="black" points="360.97,-653.8 360.97,-684.6 571.44,-684.6 571.44,-653.8 360.97,-653.8"/>
<text text-anchor="start" x="367.97" y="-666" font-family="Arial" font-size="14.00">user_id </text>
<text text-anchor="start" x="417.78" y="-666" font-family="Arial" font-size="14.00" fill="#666666">[char(36)]</text>
<polygon fill="none" stroke="black" points="360.97,-623 360.97,-653.8 571.44,-653.8 571.44,-623 360.97,-623"/>
<text text-anchor="start" x="367.97" y="-635.2" font-family="Arial" font-size="14.00">key_id </text>
<text text-anchor="start" x="412.33" y="-635.2" font-family="Arial" font-size="14.00" fill="#666666">[char(36)]</text>
<polygon fill="none" stroke="black" points="360.97,-592.2 360.97,-623 571.44,-623 571.44,-592.2 360.97,-592.2"/>
<text text-anchor="start" x="367.97" y="-604.4" font-family="Arial" font-size="14.00">public_key </text>
<text text-anchor="start" x="438.01" y="-604.4" font-family="Arial" font-size="14.00" fill="#666666">[varbinary(4096)]</text>
<polygon fill="none" stroke="black" points="360.97,-561.4 360.97,-592.2 571.44,-592.2 571.44,-561.4 360.97,-561.4"/>
<text text-anchor="start" x="367.97" y="-573.6" font-family="Arial" font-size="14.00">encrypted_private_key </text>
<text text-anchor="start" x="512.72" y="-573.6" font-family="Arial" font-size="14.00" fill="#666666">[blob]</text>
<polygon fill="none" stroke="black" points="360.97,-530.6 360.97,-561.4 571.44,-561.4 571.44,-530.6 360.97,-530.6"/>
<text text-anchor="start" x="367.97" y="-542.8" font-family="Arial" font-size="14.00">algorithm </text>
<text text-anchor="start" x="429.44" y="-542.8" font-family="Arial" font-size="14.00" fill="#666666">[varchar(32)]</text>
<polygon fill="none" stroke="black" points="360.97,-499.8 360.97,-530.6 571.44,-530.6 571.44,-499.8 360.97,-499.8"/>
<text text-anchor="start" x="367.97" y="-512" font-family="Arial" font-size="14.00">is_active </text>
<text text-anchor="start" x="426.33" y="-512" font-family="Arial" font-size="14.00" fill="#666666">[tinyint(1)]</text>
<polygon fill="none" stroke="black" points="360.97,-469 360.97,-499.8 571.44,-499.8 571.44,-469 360.97,-469"/>
<text text-anchor="start" x="367.97" y="-481.2" font-family="Arial" font-size="14.00">created_at </text>
<text text-anchor="start" x="438.02" y="-481.2" font-family="Arial" font-size="14.00" fill="#666666">[datetime(6)]</text>
</g>
<!-- user_keys&#45;&gt;users -->
<g id="edge2" class="edge">
<title>user_keys:user_id&#45;&gt;users:id</title>
<path fill="none" stroke="black" d="M582.67,-668.68C680.5,-658.11 540.88,-487.66 624.21,-410.4 713.47,-327.63 1589.93,-277.2 1711.66,-277.2"/>
<polygon fill="black" stroke="black" points="582.76,-668.68 572.55,-664.69 577.44,-668.95 573.11,-669.17 573.11,-669.17 573.11,-669.17 577.44,-668.95 573,-673.68 582.76,-668.68"/>
<text text-anchor="start" x="459.36" y="-653.2" font-family="Arial" font-size="10.00">FOREIGN KEY (user_id) REFERENCES users (id)</text>
</g>
<!-- user_links -->
<g id="node4" class="node">
<title>user_links</title>
<polygon fill="#efefef" stroke="none" points="675.96,-684.6 675.96,-720.2 888.45,-720.2 888.45,-684.6 675.96,-684.6"/>
<polygon fill="none" stroke="black" points="675.96,-684.6 675.96,-720.2 888.45,-720.2 888.45,-684.6 675.96,-684.6"/>
<text text-anchor="start" x="682.96" y="-698" font-family="Arial Bold" font-size="18.00">user_links</text>
<text text-anchor="start" x="756.96" y="-698" font-family="Arial" font-size="14.00">    </text>
<text text-anchor="start" x="788.08" y="-698" font-family="Arial" font-size="14.00" fill="#666666">[BASE TABLE]</text>
<polygon fill="none" stroke="black" points="675.96,-653.8 675.96,-684.6 888.45,-684.6 888.45,-653.8 675.96,-653.8"/>
<text text-anchor="start" x="682.96" y="-666" font-family="Arial" font-size="14.00">user_id </text>
<text text-anchor="start" x="732.77" y="-666" font-family="Arial" font-size="14.00" fill="#666666">[char(36)]</text>
<polygon fill="none" stroke="black" points="675.96,-623 675.96,-653.8 888.45,-653.8 888.45,-623 675.96,-623"/>
<text text-anchor="start" x="682.96" y="-635.2" font-family="Arial" font-size="14.00">service </text>
<text text-anchor="start" x="731.2" y="-635.2" font-family="Arial" font-size="14.00" fill="#666666">[varchar(64)]</text>
<polygon fill="none" stroke="black" points="675.96,-592.2 675.96,-623 888.45,-623 888.45,-592.2 675.96,-592.2"/>
<text text-anchor="start" x="682.96" y="-604.4" font-family="Arial" font-size="14.00">external_id </text>
<text text-anchor="start" x="755.34" y="-604.4" font-family="Arial" font-size="14.00" fill="#666666">[varchar(255)]</text>
<polygon fill="none" stroke="black" points="675.96,-561.4 675.96,-592.2 888.45,-592.2 888.45,-561.4 675.96,-561.4"/>
<text text-anchor="start" x="682.96" y="-573.6" font-family="Arial" font-size="14.00">account_name </text>
<text text-anchor="start" x="778.7" y="-573.6" font-family="Arial" font-size="14.00" fill="#666666">[varchar(255)]</text>
<polygon fill="none" stroke="black" points="675.96,-530.6 675.96,-561.4 888.45,-561.4 888.45,-530.6 675.96,-530.6"/>
<text text-anchor="start" x="682.96" y="-542.8" font-family="Arial" font-size="14.00">access_token </text>
<text text-anchor="start" x="772.46" y="-542.8" font-family="Arial" font-size="14.00" fill="#666666">[varbinary(1024)]</text>
<polygon fill="none" stroke="black" points="675.96,-499.8 675.96,-530.6 888.45,-530.6 888.45,-499.8 675.96,-499.8"/>
<text text-anchor="start" x="682.96" y="-512" font-family="Arial" font-size="14.00">created_at </text>
<text text-anchor="start" x="753.01" y="-512" font-family="Arial" font-size="14.00" fill="#666666">[datetime(6)]</text>
<polygon fill="none" stroke="black" points="675.96,-469 675.96,-499.8 888.45,-499.8 888.45,-469 675.96,-469"/>
<text text-anchor="start" x="682.96" y="-481.2" font-family="Arial" font-size="14.00">updated_at </text>
<text text-anchor="start" x="756.92" y="-481.2" font-family="Arial" font-size="14.00" fill="#666666">[datetime(6)]</text>
</g>
<!-- user_links&#45;&gt;users -->
<g id="edge3" class="edge">
<title>user_links:user_id&#45;&gt;users:id</title>
<path fill="none" stroke="black" d="M899.67,-668.69C997.5,-658.24 859.01,-489.78 940.21,-410.4 1064.61,-288.79 1537.69,-277.2 1711.66,-277.2"/>
<polygon fill="black" stroke="black" points="899.77,-668.68 889.56,-664.69 894.44,-668.95 890.12,-669.17 890.12,-669.17 890.12,-669.17 894.44,-668.95 890.01,-673.68 899.77,-668.68"/>
<text text-anchor="start" x="776.37" y="-653.2" font-family="Arial" font-size="10.00">FOREIGN KEY (user_id) REFERENCES users (id)</text>
</g>
<!-- group_members -->
<g id="node5" class="node">
<title>group_members</title>
<polygon fill="#efefef" stroke="none" points="992.48,-638.4 992.48,-674 1247.94,-674 1247.94,-638.4 992.48,-638.4"/>
<polygon fill="none" stroke="black" points="992.48,-638.4 992.48,-674 1247.94,-674 1247.94,-638.4 992.48,-638.4"/>
<text text-anchor="start" x="999.48" y="-651.8" font-family="Arial Bold" font-size="18.00">group_members</text>
<text text-anchor="start" x="1116.45" y="-651.8" font-family="Arial" font-size="14.00">    </text>
<text text-anchor="start" x="1147.57" y="-651.8" font-family="Arial" font-size="14.00" fill="#666666">[BASE TABLE]</text>
<polygon fill="none" stroke="black" points="992.48,-607.6 992.48,-638.4 1247.94,-638.4 1247.94,-607.6 992.48,-607.6"/>
<text text-anchor="start" x="999.48" y="-619.8" font-family="Arial" font-size="14.00">group_id </text>
<text text-anchor="start" x="1057.85" y="-619.8" font-family="Arial" font-size="14.00" fill="#666666">[char(36)]</text>
<polygon fill="none" stroke="black" points="992.48,-576.8 992.48,-607.6 1247.94,-607.6 1247.94,-576.8 992.48,-576.8"/>
<text text-anchor="start" x="999.48" y="-589" font-family="Arial" font-size="14.00">user_id </text>
<text text-anchor="start" x="1049.28" y="-589" font-family="Arial" font-size="14.00" fill="#666666">[char(36)]</text>
<polygon fill="none" stroke="black" points="992.48,-546 992.48,-576.8 1247.94,-576.8 1247.94,-546 992.48,-546"/>
<text text-anchor="start" x="999.48" y="-558.2" font-family="Arial" font-size="14.00">roles </text>
<text text-anchor="start" x="1033.71" y="-558.2" font-family="Arial" font-size="14.00" fill="#666666">[longtext]</text>
<polygon fill="none" stroke="black" points="992.48,-515.2 992.48,-546 1247.94,-546 1247.94,-515.2 992.48,-515.2"/>
<text text-anchor="start" x="999.48" y="-527.4" font-family="Arial" font-size="14.00">joined_at </text>
<text text-anchor="start" x="1060.19" y="-527.4" font-family="Arial" font-size="14.00" fill="#666666">[datetime(6)]</text>
</g>
<!-- group_members&#45;&gt;users -->
<g id="edge4" class="edge">
<title>group_members:user_id&#45;&gt;users:id</title>
<path fill="none" stroke="black" d="M1259.22,-591.48C1325.02,-581.42 1244.6,-468.17 1300.21,-410.4 1366.85,-341.16 1615.55,-277.2 1711.66,-277.2"/>
<polygon fill="black" stroke="black" points="1259.25,-591.48 1248.96,-587.69 1253.93,-591.85 1249.61,-592.15 1249.61,-592.15 1249.61,-592.15 1253.93,-591.85 1249.59,-596.67 1259.25,-591.48"/>
<text text-anchor="start" x="1255.94" y="-602.2" font-family="Arial" font-size="10.00">FOREIGN KEY (user_id) REFERENCES users (id)</text>
</g>
<!-- invitations -->
<g id="node6" class="node">
<title>invitations</title>
<polygon fill="#efefef" stroke="none" points="1351.96,-684.6 1351.96,-720.2 1566.45,-720.2 1566.45,-684.6 1351.96,-684.6"/>
<polygon fill="none" stroke="black" points="1351.96,-684.6 1351.96,-720.2 1566.45,-720.2 1566.45,-684.6 1351.96,-684.6"/>
<text text-anchor="start" x="1358.96" y="-698" font-family="Arial Bold" font-size="18.00">invitations</text>
<text text-anchor="start" x="1434.96" y="-698" font-family="Arial" font-size="14.00">    </text>
<text text-anchor="start" x="1466.08" y="-698" font-family="Arial" font-size="14.00" fill="#666666">[BASE TABLE]</text>
<polygon fill="none" stroke="black" points="1351.96,-653.8 1351.96,-684.6 1566.45,-684.6 1566.45,-653.8 1351.96,-653.8"/>
<text text-anchor="start" x="1358.96" y="-666" font-family="Arial" font-size="14.00">id </text>
<text text-anchor="start" x="1373.75" y="-666" font-family="Arial" font-size="14.00" fill="#666666">[char(36)]</text>
<polygon fill="none" stroke="black" points="1351.96,-623 1351.96,-653.8 1566.45,-653.8 1566.45,-623 1351.96,-623"/>
<text text-anchor="start" x="1358.96" y="-635.2" font-family="Arial" font-size="14.00">code </text>
<text text-anchor="start" x="1393.21" y="-635.2" font-family="Arial" font-size="14.00" fill="#666666">[varchar(20)]</text>
<polygon fill="none" stroke="black" points="1351.96,-592.2 1351.96,-623 1566.45,-623 1566.45,-592.2 1351.96,-592.2"/>
<text text-anchor="start" x="1358.96" y="-604.4" font-family="Arial" font-size="14.00">created_by </text>
<text text-anchor="start" x="1432.12" y="-604.4" font-family="Arial" font-size="14.00" fill="#666666">[char(36)]</text>
<polygon fill="none" stroke="black" points="1351.96,-561.4 1351.96,-592.2 1566.45,-592.2 1566.45,-561.4 1351.96,-561.4"/>
<text text-anchor="start" x="1358.96" y="-573.6" font-family="Arial" font-size="14.00">used_by </text>
<text text-anchor="start" x="1415.78" y="-573.6" font-family="Arial" font-size="14.00" fill="#666666">[char(36)]</text>
<polygon fill="none" stroke="black" points="1351.96,-530.6 1351.96,-561.4 1566.45,-561.4 1566.45,-530.6 1351.96,-530.6"/>
<text text-anchor="start" x="1358.96" y="-542.8" font-family="Arial" font-size="14.00">expires_at </text>
<text text-anchor="start" x="1427.45" y="-542.8" font-family="Arial" font-size="14.00" fill="#666666">[datetime(6)]</text>
<polygon fill="none" stroke="black" points="1351.96,-499.8 1351.96,-530.6 1566.45,-530.6 1566.45,-499.8 1351.96,-499.8"/>
<text text-anchor="start" x="1358.96" y="-512" font-family="Arial" font-size="14.00">used_at </text>
<text text-anchor="start" x="1412.67" y="-512" font-family="Arial" font-size="14.00" fill="#666666">[datetime(6)]</text>
<polygon fill="none" stroke="black" points="1351.96,-469 1351.96,-499.8 1566.45,-499.8 1566.45,-469 1351.96,-469"/>
<text text-anchor="start" x="1358.96" y="-481.2" font-family="Arial" font-size="14.00">created_at </text>
<text text-anchor="start" x="1429.01" y="-481.2" font-family="Arial" font-size="14.00" fill="#666666">[datetime(6)]</text>
</g>
<!-- invitations&#45;&gt;users -->
<g id="edge5" class="edge">
<title>invitations:created_by&#45;&gt;users:id</title>
<path fill="none" stroke="black" d="M1577.76,-607.03C1651.78,-598.22 1581.88,-489.22 1618.21,-410.4 1648.48,-344.72 1639.34,-277.2 1711.66,-277.2"/>
<polygon fill="black" stroke="black" points="1577.77,-607.03 1567.54,-603.09 1572.44,-607.32 1568.12,-607.56 1568.12,-607.56 1568.12,-607.56 1572.44,-607.32 1568.03,-612.07 1577.77,-607.03"/>
<text text-anchor="start" x="1574.45" y="-617.6" font-family="Arial" font-size="10.00">FOREIGN KEY (created_by) REFERENCES users (id)</text>
</g>
<!-- invitations&#45;&gt;users -->
<g id="edge6" class="edge">
<title>invitations:used_by&#45;&gt;users:id</title>
<path fill="none" stroke="black" d="M1577.82,-576.12C1639.09,-567.4 1585.96,-476.5 1618.21,-410.4 1649.92,-345.41 1639.34,-277.2 1711.66,-277.2"/>
<polygon fill="black" stroke="black" points="1577.76,-576.12 1567.49,-572.29 1572.44,-576.47 1568.12,-576.76 1568.12,-576.76 1568.12,-576.76 1572.44,-576.47 1568.08,-581.27 1577.76,-576.12"/>
<text text-anchor="start" x="1574.45" y="-586.8" font-family="Arial" font-size="10.00">FOREIGN KEY (used_by) REFERENCES users (id)</text>
</g>
<!-- group_member_logs -->
<g id="node7" class="node">
<title>group_member_logs</title>
<polygon fill="#efefef" stroke="none" points="1670.48,-700 1670.48,-735.6 1957.94,-735.6 1957.94,-700 1670.48,-700"/>
<polygon fill="none" stroke="black" points="1670.48,-700 1670.48,-735.6 1957.94,-735.6 1957.94,-700 1670.48,-700"/>
<text text-anchor="start" x="1677.48" y="-713.4" font-family="Arial Bold" font-size="18.00">group_member_logs</text>
<text text-anchor="start" x="1826.45" y="-713.4" font-family="Arial" font-size="14.00">    </text>
<text text-anchor="start" x="1857.57" y="-713.4" font-family="Arial" font-size="14.00" fill="#666666">[BASE TABLE]</text>
<polygon fill="none" stroke="black" points="1670.48,-669.2 1670.48,-700 1957.94,-700 1957.94,-669.2 1670.48,-669.2"/>
<text text-anchor="start" x="1677.48" y="-681.4" font-family="Arial" font-size="14.00">id </text>
<text text-anchor="start" x="1692.26" y="-681.4" font-family="Arial" font-size="14.00" fill="#666666">[char(36)]</text>
<polygon fill="none" stroke="black" points="1670.48,-638.4 1670.48,-669.2 1957.94,-669.2 1957.94,-638.4 1670.48,-638.4"/>
<text text-anchor="start" x="1677.48" y="-650.6" font-family="Arial" font-size="14.00">group_id </text>
<text text-anchor="start" x="1735.85" y="-650.6" font-family="Arial" font-size="14.00" fill="#666666">[char(36)]</text>
<polygon fill="none" stroke="black" points="1670.48,-607.6 1670.48,-638.4 1957.94,-638.4 1957.94,-607.6 1670.48,-607.6"/>
<text text-anchor="start" x="1677.48" y="-619.8" font-family="Arial" font-size="14.00">user_id </text>
<text text-anchor="start" x="1727.28" y="-619.8" font-family="Arial" font-size="14.00" fill="#666666">[char(36)]</text>
<polygon fill="none" stroke="black" points="1670.48,-576.8 1670.48,-607.6 1957.94,-607.6 1957.94,-576.8 1670.48,-576.8"/>
<text text-anchor="start" x="1677.48" y="-589" font-family="Arial" font-size="14.00">action </text>
<text text-anchor="start" x="1718.72" y="-589" font-family="Arial" font-size="14.00" fill="#666666">[varchar(32)]</text>
<polygon fill="none" stroke="black" points="1670.48,-546 1670.48,-576.8 1957.94,-576.8 1957.94,-546 1670.48,-546"/>
<text text-anchor="start" x="1677.48" y="-558.2" font-family="Arial" font-size="14.00">actor_id </text>
<text text-anchor="start" x="1731.17" y="-558.2" font-family="Arial" font-size="14.00" fill="#666666">[char(36)]</text>
<polygon fill="none" stroke="black" points="1670.48,-515.2 1670.48,-546 1957.94,-546 1957.94,-515.2 1670.48,-515.2"/>
<text text-anchor="start" x="1677.48" y="-527.4" font-family="Arial" font-size="14.00">old_roles </text>
<text text-anchor="start" x="1738.18" y="-527.4" font-family="Arial" font-size="14.00" fill="#666666">[longtext]</text>
<polygon fill="none" stroke="black" points="1670.48,-484.4 1670.48,-515.2 1957.94,-515.2 1957.94,-484.4 1670.48,-484.4"/>
<text text-anchor="start" x="1677.48" y="-496.6" font-family="Arial" font-size="14.00">new_roles </text>
<text text-anchor="start" x="1745.18" y="-496.6" font-family="Arial" font-size="14.00" fill="#666666">[longtext]</text>
<polygon fill="none" stroke="black" points="1670.48,-453.6 1670.48,-484.4 1957.94,-484.4 1957.94,-453.6 1670.48,-453.6"/>
<text text-anchor="start" x="1677.48" y="-465.8" font-family="Arial" font-size="14.00">created_at </text>
<text text-anchor="start" x="1747.52" y="-465.8" font-family="Arial" font-size="14.00" fill="#666666">[datetime(6)]</text>
</g>
<!-- group_member_logs&#45;&gt;users -->
<g id="edge7" class="edge">
<title>group_member_logs:actor_id&#45;&gt;users:id</title>
<path fill="none" stroke="black" d="M1968.78,-558.77C2017.94,-530.12 1976.99,-277.2 1916.75,-277.2"/>
<polygon fill="black" stroke="black" points="1968.92,-558.73 1958.1,-556.97 1963.77,-560.11 1959.59,-561.23 1959.59,-561.23 1959.59,-561.23 1963.77,-560.11 1960.42,-565.66 1968.92,-558.73"/>
<text text-anchor="start" x="1965.94" y="-571.4" font-family="Arial" font-size="10.00">FOREIGN KEY (actor_id) REFERENCES users (id)</text>
</g>
<!-- group_member_logs&#45;&gt;users -->
<g id="edge8" class="edge">
<title>group_member_logs:user_id&#45;&gt;users:id</title>
<path fill="none" stroke="black" d="M1969.05,-620.79C2032.32,-591.34 1990.54,-277.2 1916.75,-277.2"/>
<polygon fill="black" stroke="black" points="1969.04,-620.79 1958.31,-618.53 1963.82,-621.93 1959.59,-622.86 1959.59,-622.86 1959.59,-622.86 1963.82,-621.93 1960.23,-627.32 1969.04,-620.79"/>
<text text-anchor="start" x="1965.94" y="-633" font-family="Arial" font-size="10.00">FOREIGN KEY (user_id) REFERENCES users (id)</text>
</g>
<!-- group_keys -->
<g id="node8" class="node">
<title>group_keys</title>
<polygon fill="#efefef" stroke="none" points="2061.97,-653.8 2061.97,-689.4 2284.45,-689.4 2284.45,-653.8 2061.97,-653.8"/>
<polygon fill="none" stroke="black" points="2061.97,-653.8 2061.97,-689.4 2284.45,-689.4 2284.45,-653.8 2061.97,-653.8"/>
<text text-anchor="start" x="2068.97" y="-667.2" font-family="Arial Bold" font-size="18.00">group_keys</text>
<text text-anchor="start" x="2152.96" y="-667.2" font-family="Arial" font-size="14.00">    </text>
<text text-anchor="start" x="2184.07" y="-667.2" font-family="Arial" font-size="14.00" fill="#666666">[BASE TABLE]</text>
<polygon fill="none" stroke="black" points="2061.97,-623 2061.97,-653.8 2284.45,-653.8 2284.45,-623 2061.97,-623"/>
<text text-anchor="start" x="2068.97" y="-635.2" font-family="Arial" font-size="14.00">group_id </text>
<text text-anchor="start" x="2127.35" y="-635.2" font-family="Arial" font-size="14.00" fill="#666666">[char(36)]</text>
<polygon fill="none" stroke="black" points="2061.97,-592.2 2061.97,-623 2284.45,-623 2284.45,-592.2 2061.97,-592.2"/>
<text text-anchor="start" x="2068.97" y="-604.4" font-family="Arial" font-size="14.00">user_id </text>
<text text-anchor="start" x="2118.77" y="-604.4" font-family="Arial" font-size="14.00" fill="#666666">[char(36)]</text>
<polygon fill="none" stroke="black" points="2061.97,-561.4 2061.97,-592.2 2284.45,-592.2 2284.45,-561.4 2061.97,-561.4"/>
<text text-anchor="start" x="2068.97" y="-573.6" font-family="Arial" font-size="14.00">key_id </text>
<text text-anchor="start" x="2113.33" y="-573.6" font-family="Arial" font-size="14.00" fill="#666666">[char(36)]</text>
<polygon fill="none" stroke="black" points="2061.97,-530.6 2061.97,-561.4 2284.45,-561.4 2284.45,-530.6 2061.97,-530.6"/>
<text text-anchor="start" x="2068.97" y="-542.8" font-family="Arial" font-size="14.00">encrypted_key </text>
<text text-anchor="start" x="2163.91" y="-542.8" font-family="Arial" font-size="14.00" fill="#666666">[blob]</text>
<polygon fill="none" stroke="black" points="2061.97,-499.8 2061.97,-530.6 2284.45,-530.6 2284.45,-499.8 2061.97,-499.8"/>
<text text-anchor="start" x="2068.97" y="-512" font-family="Arial" font-size="14.00">created_at </text>
<text text-anchor="start" x="2139.02" y="-512" font-family="Arial" font-size="14.00" fill="#666666">[datetime(6)]</text>
</g>
<!-- group_keys&#45;&gt;users -->
<g id="edge9" class="edge">
<title>group_keys:user_id&#45;&gt;users:id</title>
<path fill="none" stroke="black" d="M2050.66,-607.03C1976.64,-598.22 2046.53,-489.22 2010.21,-410.4 1979.94,-344.72 1989.07,-277.2 1916.75,-277.2"/>
<polygon fill="black" stroke="black" points="2050.65,-607.03 2060.39,-612.07 2055.98,-607.32 2060.3,-607.56 2060.3,-607.56 2060.3,-607.56 2055.98,-607.32 2060.88,-603.09 2050.65,-607.03"/>
<text text-anchor="start" x="2067.97" y="-617.6" font-family="Arial" font-size="10.00">FOREIGN KEY (user_id) REFERENCES users (id)</text>
</g>
<!-- secrets -->
<g id="node9" class="node">
<title>secrets</title>
<polygon fill="#efefef" stroke="none" points="2388.48,-684.6 2388.48,-720.2 2575.94,-720.2 2575.94,-684.6 2388.48,-684.6"/>
<polygon fill="none" stroke="black" points="2388.48,-684.6 2388.48,-720.2 2575.94,-720.2 2575.94,-684.6 2388.48,-684.6"/>
<text text-anchor="start" x="2395.48" y="-698" font-family="Arial Bold" font-size="18.00">secrets</text>
<text text-anchor="start" x="2444.45" y="-698" font-family="Arial" font-size="14.00">    </text>
<text text-anchor="start" x="2475.57" y="-698" font-family="Arial" font-size="14.00" fill="#666666">[BASE TABLE]</text>
<polygon fill="none" stroke="black" points="2388.48,-653.8 2388.48,-684.6 2575.94,-684.6 2575.94,-653.8 2388.48,-653.8"/>
<text text-anchor="start" x="2395.48" y="-666" font-family="Arial" font-size="14.00">id </text>
<text text-anchor="start" x="2410.26" y="-666" font-family="Arial" font-size="14.00" fill="#666666">[char(36)]</text>
<polygon fill="none" stroke="black" points="2388.48,-623 2388.48,-653.8 2575.94,-653.8 2575.94,-623 2388.48,-623"/>
<text text-anchor="start" x="2395.48" y="-635.2" font-family="Arial" font-size="14.00">group_id </text>
<text text-anchor="start" x="2453.85" y="-635.2" font-family="Arial" font-size="14.00" fill="#666666">[char(36)]</text>
<polygon fill="none" stroke="black" points="2388.48,-592.2 2388.48,-623 2575.94,-623 2575.94,-592.2 2388.48,-592.2"/>
<text text-anchor="start" x="2395.48" y="-604.4" font-family="Arial" font-size="14.00">name </text>
<text text-anchor="start" x="2434.39" y="-604.4" font-family="Arial" font-size="14.00" fill="#666666">[varchar(255)]</text>
<polygon fill="none" stroke="black" points="2388.48,-561.4 2388.48,-592.2 2575.94,-592.2 2575.94,-561.4 2388.48,-561.4"/>
<text text-anchor="start" x="2395.48" y="-573.6" font-family="Arial" font-size="14.00">encrypted_value </text>
<text text-anchor="start" x="2502.1" y="-573.6" font-family="Arial" font-size="14.00" fill="#666666">[blob]</text>
<polygon fill="none" stroke="black" points="2388.48,-530.6 2388.48,-561.4 2575.94,-561.4 2575.94,-530.6 2388.48,-530.6"/>
<text text-anchor="start" x="2395.48" y="-542.8" font-family="Arial" font-size="14.00">created_by </text>
<text text-anchor="start" x="2468.63" y="-542.8" font-family="Arial" font-size="14.00" fill="#666666">[char(36)]</text>
<polygon fill="none" stroke="black" points="2388.48,-499.8 2388.48,-530.6 2575.94,-530.6 2575.94,-499.8 2388.48,-499.8"/>
<text text-anchor="start" x="2395.48" y="-512" font-family="Arial" font-size="14.00">created_at </text>
<text text-anchor="start" x="2465.52" y="-512" font-family="Arial" font-size="14.00" fill="#666666">[datetime(6)]</text>
<polygon fill="none" stroke="black" points="2388.48,-469 2388.48,-499.8 2575.94,-499.8 2575.94,-469 2388.48,-469"/>
<text text-anchor="start" x="2395.48" y="-481.2" font-family="Arial" font-size="14.00">updated_at </text>
<text text-anchor="start" x="2469.43" y="-481.2" font-family="Arial" font-size="14.00" fill="#666666">[datetime(6)]</text>
</g>
<!-- secrets&#45;&gt;users -->
<g id="edge10" class="edge">
<title>secrets:created_by&#45;&gt;users:id</title>
<path fill="none" stroke="black" d="M2377.09,-545.03C2329.91,-535.12 2380.15,-452.03 2336.21,-410.4 2265.21,-343.14 2014.55,-277.2 1916.75,-277.2"/>
<polygon fill="black" stroke="black" points="2377.19,-545.04 2386.72,-550.45 2382.5,-545.53 2386.81,-545.94 2386.81,-545.94 2386.81,-545.94 2382.5,-545.53 2387.56,-541.49 2377.19,-545.04"/>
<text text-anchor="start" x="2394.48" y="-556" font-family="Arial" font-size="10.00">FOREIGN KEY (created_by) REFERENCES users (id)</text>
</g>
<!-- secret_logs -->
<g id="node10" class="node">
<title>secret_logs</title>
<polygon fill="#efefef" stroke="none" points="2680.48,-653.8 2680.48,-689.4 2899.94,-689.4 2899.94,-653.8 2680.48,-653.8"/>
<polygon fill="none" stroke="black" points="2680.48,-653.8 2680.48,-689.4 2899.94,-689.4 2899.94,-653.8 2680.48,-653.8"/>
<text text-anchor="start" x="2687.48" y="-667.2" font-family="Arial Bold" font-size="18.00">secret_logs</text>
<text text-anchor="start" x="2768.45" y="-667.2" font-family="Arial" font-size="14.00">    </text>
<text text-anchor="start" x="2799.57" y="-667.2" font-family="Arial" font-size="14.00" fill="#666666">[BASE TABLE]</text>
<polygon fill="none" stroke="black" points="2680.48,-623 2680.48,-653.8 2899.94,-653.8 2899.94,-623 2680.48,-623"/>
<text text-anchor="start" x="2687.48" y="-635.2" font-family="Arial" font-size="14.00">id </text>
<text text-anchor="start" x="2702.26" y="-635.2" font-family="Arial" font-size="14.00" fill="#666666">[char(36)]</text>
<polygon fill="none" stroke="black" points="2680.48,-592.2 2680.48,-623 2899.94,-623 2899.94,-592.2 2680.48,-592.2"/>
<text text-anchor="start" x="2687.48" y="-604.4" font-family="Arial" font-size="14.00">secret_id </text>
<text text-anchor="start" x="2748.17" y="-604.4" font-family="Arial" font-size="14.00" fill="#666666">[char(36)]</text>
<polygon fill="none" stroke="black" points="2680.48,-561.4 2680.48,-592.2 2899.94,-592.2 2899.94,-561.4 2680.48,-561.4"/>
<text text-anchor="start" x="2687.48" y="-573.6" font-family="Arial" font-size="14.00">action </text>
<text text-anchor="start" x="2728.72" y="-573.6" font-family="Arial" font-size="14.00" fill="#666666">[varchar(32)]</text>
<polygon fill="none" stroke="black" points="2680.48,-530.6 2680.48,-561.4 2899.94,-561.4 2899.94,-530.6 2680.48,-530.6"/>
<text text-anchor="start" x="2687.48" y="-542.8" font-family="Arial" font-size="14.00">actor_id </text>
<text text-anchor="start" x="2741.17" y="-542.8" font-family="Arial" font-size="14.00" fill="#666666">[char(36)]</text>
<polygon fill="none" stroke="black" points="2680.48,-499.8 2680.48,-530.6 2899.94,-530.6 2899.94,-499.8 2680.48,-499.8"/>
<text text-anchor="start" x="2687.48" y="-512" font-family="Arial" font-size="14.00">created_at </text>
<text text-anchor="start" x="2757.52" y="-512" font-family="Arial" font-size="14.00" fill="#666666">[datetime(6)]</text>
</g>
<!-- secret_logs&#45;&gt;users -->
<g id="edge11" class="edge">
<title>secret_logs:actor_id&#45;&gt;users:id</title>
<path fill="none" stroke="black" d="M2669.12,-545C2622.21,-534.78 2674.61,-449.26 2628.21,-410.4 2504.89,-307.12 2077.6,-277.2 1916.75,-277.2"/>
<polygon fill="black" stroke="black" points="2669.19,-545 2678.71,-550.45 2674.5,-545.52 2678.81,-545.94 2678.81,-545.94 2678.81,-545.94 2674.5,-545.52 2679.58,-541.49 2669.19,-545"/>
<text text-anchor="start" x="2443.54" y="-530" font-family="Arial" font-size="10.00">FOREIGN KEY (actor_id) REFERENCES users (id)</text>
</g>
<!-- user_statuses -->
<g id="node11" class="node">
<title>user_statuses</title>
<polygon fill="#efefef" stroke="none" points="3004.47,-638.4 3004.47,-674 3237.94,-674 3237.94,-638.4 3004.47,-638.4"/>
<polygon fill="none" stroke="black" points="3004.47,-638.4 3004.47,-674 3237.94,-674 3237.94,-638.4 3004.47,-638.4"/>
<text text-anchor="start" x="3011.47" y="-651.8" font-family="Arial Bold" font-size="18.00">user_statuses</text>
<text text-anchor="start" x="3106.45" y="-651.8" font-family="Arial" font-size="14.00">    </text>
<text text-anchor="start" x="3137.57" y="-651.8" font-family="Arial" font-size="14.00" fill="#666666">[BASE TABLE]</text>
<polygon fill="none" stroke="black" points="3004.47,-607.6 3004.47,-638.4 3237.94,-638.4 3237.94,-607.6 3004.47,-607.6"/>
<text text-anchor="start" x="3011.47" y="-619.8" font-family="Arial" font-size="14.00">user_id </text>
<text text-anchor="start" x="3061.28" y="-619.8" font-family="Arial" font-size="14.00" fill="#666666">[char(36)]</text>
<polygon fill="none" stroke="black" points="3004.47,-576.8 3004.47,-607.6 3237.94,-607.6 3237.94,-576.8 3004.47,-576.8"/>
<text text-anchor="start" x="3011.47" y="-589" font-family="Arial" font-size="14.00">status </text>
<text text-anchor="start" x="3052.71" y="-589" font-family="Arial" font-size="14.00" fill="#666666">[varchar(64)]</text>
<polygon fill="none" stroke="black" points="3004.47,-546 3004.47,-576.8 3237.94,-576.8 3237.94,-546 3004.47,-546"/>
<text text-anchor="start" x="3011.47" y="-558.2" font-family="Arial" font-size="14.00">detail </text>
<text text-anchor="start" x="3048.83" y="-558.2" font-family="Arial" font-size="14.00" fill="#666666">[varchar(255)]</text>
<polygon fill="none" stroke="black" points="3004.47,-515.2 3004.47,-546 3237.94,-546 3237.94,-515.2 3004.47,-515.2"/>
<text text-anchor="start" x="3011.47" y="-527.4" font-family="Arial" font-size="14.00">created_at </text>
<text text-anchor="start" x="3081.52" y="-527.4" font-family="Arial" font-size="14.00" fill="#666666">[datetime(6)]</text>
</g>
<!-- user_statuses&#45;&gt;users -->
<g id="edge12" class="edge">
<title>user_statuses:user_id&#45;&gt;users:id</title>
<path fill="none" stroke="black" d="M2993.52,-622.4C2914.79,-612.15 3021.88,-472.89 2952.21,-410.4 2865.85,-332.95 2032.75,-277.2 1916.75,-277.2"/>
<polygon fill="black" stroke="black" points="2993.15,-622.38 3002.87,-627.47 2998.48,-622.7 3002.8,-622.96 3002.8,-622.96 3002.8,-622.96 2998.48,-622.7 3003.41,-618.49 2993.15,-622.38"/>
<text text-anchor="start" x="2770.31" y="-633" font-family="Arial" font-size="10.00">FOREIGN KEY (user_id) REFERENCES users (id)</text>
</g>
<!-- webhooks -->
<g id="node12" class="node">
<title>webhooks</title>
<polygon fill="#efefef" stroke="none" points="3342.47,-700 3342.47,-735.6 3553.95,-735.6 3553.95,-700 3342.47,-700"/>
<polygon fill="none" stroke="black" points="3342.47,-700 3342.47,-735.6 3553.95,-735.6 3553.95,-700 3342.47,-700"/>
<text text-anchor="start" x="3349.47" y="-713.4" font-family="Arial Bold" font-size="18.00">webhooks</text>
<text text-anchor="start" x="3422.46" y="-713.4" font-family="Arial" font-size="14.00">    </text>
<text text-anchor="start" x="3453.58" y="-713.4" font-family="Arial" font-size="14.00" fill="#666666">[BASE TABLE]</text>
<polygon fill="none" stroke="black" points="3342.47,-669.2 3342.47,-700 3553.95,-700 3553.95,-669.2 3342.47,-669.2"/>
<text text-anchor="start" x="3349.47" y="-681.4" font-family="Arial" font-size="14.00">id </text>
<text text-anchor="start" x="3364.25" y="-681.4" font-family="Arial" font-size="14.00" fill="#666666">[char(36)]</text>
<polygon fill="none" stroke="black" points="3342.47,-638.4 3342.47,-669.2 3553.95,-669.2 3553.95,-638.4 3342.47,-638.4"/>
<text text-anchor="start" x="3349.47" y="-650.6" font-family="Arial" font-size="14.00">name </text>
<text text-anchor="start" x="3388.38" y="-650.6" font-family="Arial" font-size="14.00" fill="#666666">[varchar(255)]</text>
<polygon fill="none" stroke="black" points="3342.47,-607.6 3342.47,-638.4 3553.95,-638.4 3553.95,-607.6 3342.47,-607.6"/>
<text text-anchor="start" x="3349.47" y="-619.8" font-family="Arial" font-size="14.00">url </text>
<text text-anchor="start" x="3368.91" y="-619.8" font-family="Arial" font-size="14.00" fill="#666666">[varchar(2048)]</text>
<polygon fill="none" stroke="black" points="3342.47,-576.8 3342.47,-607.6 3553.95,-607.6 3553.95,-576.8 3342.47,-576.8"/>
<text text-anchor="start" x="3349.47" y="-589" font-family="Arial" font-size="14.00">secret </text>
<text text-anchor="start" x="3391.48" y="-589" font-family="Arial" font-size="14.00" fill="#666666">[varbinary(512)]</text>
<polygon fill="none" stroke="black" points="3342.47,-546 3342.47,-576.8 3553.95,-576.8 3553.95,-546 3342.47,-546"/>
<text text-anchor="start" x="3349.47" y="-558.2" font-family="Arial" font-size="14.00">owner_id </text>
<text text-anchor="start" x="3410.17" y="-558.2" font-family="Arial" font-size="14.00" fill="#666666">[char(36)]</text>
<polygon fill="none" stroke="black" points="3342.47,-515.2 3342.47,-546 3553.95,-546 3553.95,-515.2 3342.47,-515.2"/>
<text text-anchor="start" x="3349.47" y="-527.4" font-family="Arial" font-size="14.00">is_active </text>
<text text-anchor="start" x="3407.82" y="-527.4" font-family="Arial" font-size="14.00" fill="#666666">[tinyint(1)]</text>
<polygon fill="none" stroke="black" points="3342.47,-484.4 3342.47,-515.2 3553.95,-515.2 3553.95,-484.4 3342.47,-484.4"/>
<text text-anchor="start" x="3349.47" y="-496.6" font-family="Arial" font-size="14.00">created_at </text>
<text text-anchor="start" x="3419.51" y="-496.6" font-family="Arial" font-size="14.00" fill="#666666">[datetime(6)]</text>
<polygon fill="none" stroke="black" points="3342.47,-453.6 3342.47,-484.4 3553.95,-484.4 3553.95,-453.6 3342.47,-453.6"/>
<text text-anchor="start" x="3349.47" y="-465.8" font-family="Arial" font-size="14.00">updated_at </text>
<text text-anchor="start" x="3423.42" y="-465.8" font-family="Arial" font-size="14.00" fill="#666666">[datetime(6)]</text>
</g>
<!-- webhooks&#45;&gt;users -->
<g id="edge13" class="edge">
<title>webhooks:owner_id&#45;&gt;users:id</title>
<path fill="none" stroke="black" d="M3331.1,-560.47C3278.42,-549.89 3342.72,-452.01 3290.21,-410.4 3170.04,-315.18 2070.08,-277.2 1916.75,-277.2"/>
<polygon fill="black" stroke="black" points="3331.17,-560.47 3340.73,-565.85 3336.49,-560.95 3340.8,-561.34 3340.8,-561.34 3340.8,-561.34 3336.49,-560.95 3341.54,-556.89 3331.17,-560.47"/>
<text text-anchor="start" x="3348.47" y="-571.4" font-family="Arial" font-size="10.00">FOREIGN KEY (owner_id) REFERENCES users (id)</text>
</g>
</g>
</svg>
