<?xml version="1.0" encoding="UTF-8" standalone="no"?>
<!DOCTYPE svg PUBLIC "-//W3C//DTD SVG 1.1//EN"
 "http://www.w3.org/Graphics/SVG/1.1/DTD/svg11.dtd">
<!-- Generated by graphviz version 12.1.2 (20240928.0832)
 -->
<!-- Title: users Pages: 1 -->
<svg width="291pt" height="690pt"
 viewBox="0.00 0.00 291.04 690.40" xmlns="http://www.w3.org/2000/svg" xmlns:xlink="http://www.w3.org/1999/xlink">
<g id="graph0" class="graph" transform="scale(1 1) rotate(0) translate(4 686.4)">
<title>users</title>
<polygon fill="white" stroke="none" points="-4,4 -4,-686.4 287.04,-686.4 287.04,4 -4,4"/>
<!-- users -->
<g id="node1" class="node">
<title>users</title>
<polygon fill="#efefef" stroke="none" points="46.2,-600.6 46.2,-636.2 236.84,-636.2 236.84,-600.6 46.2,-600.6"/>
<polygon fill="none" stroke="black" points="46.2,-600.6 46.2,-636.2 236.84,-636.2 236.84,-600.6 46.2,-600.6"/>
<text text-anchor="start" x="60.78" y="-614" font-family="Arial Bold" font-size="18.00">users</text>
<text text-anchor="start" x="97.77" y="-614" font-family="Arial" font-size="14.00">    </text>
<text text-anchor="start" x="128.89" y="-614" font-family="Arial" font-size="14.00" fill="#666666">[BASE TABLE]</text>
<polygon fill="none" stroke="black" points="46.2,-569.8 46.2,-600.6 236.84,-600.6 236.84,-569.8 46.2,-569.8"/>
<text text-anchor="start" x="53.2" y="-582" font-family="Arial" font-size="14.00">id </text>
<text text-anchor="start" x="67.99" y="-582" font-family="Arial" font-size="14.00" fill="#666666">[varchar(32)]</text>
<polygon fill="none" stroke="black" points="46.2,-539 46.2,-569.8 236.84,-569.8 236.84,-539 46.2,-539"/>
<text text-anchor="start" x="53.2" y="-551.2" font-family="Arial" font-size="14.00">password </text>
<text text-anchor="start" x="117.01" y="-551.2" font-family="Arial" font-size="14.00" fill="#666666">[varchar(86)]</text>
<polygon fill="none" stroke="black" points="46.2,-508.2 46.2,-539 236.84,-539 236.84,-508.2 46.2,-508.2"/>
<text text-anchor="start" x="53.2" y="-520.4" font-family="Arial" font-size="14.00">salt </text>
<text text-anchor="start" x="78.88" y="-520.4" font-family="Arial" font-size="14.00" fill="#666666">[varchar(86)]</text>
<polygon fill="none" stroke="black" points="46.2,-477.4 46.2,-508.2 236.84,-508.2 236.84,-477.4 46.2,-477.4"/>
<text text-anchor="start" x="53.2" y="-489.6" font-family="Arial" font-size="14.00">email </text>
<text text-anchor="start" x="90.54" y="-489.6" font-family="Arial" font-size="14.00" fill="#666666">[varchar(191)]</text>
<polygon fill="none" stroke="black" points="46.2,-446.6 46.2,-477.4 236.84,-477.4 236.84,-446.6 46.2,-446.6"/>
<text text-anchor="start" x="53.2" y="-458.8" font-family="Arial" font-size="14.00">student_number </text>
<text text-anchor="start" x="158.27" y="-458.8" font-family="Arial" font-size="14.00" fill="#666666">[varchar(8)]</text>
<polygon fill="none" stroke="black" points="46.2,-415.8 46.2,-446.6 236.84,-446.6 236.84,-415.8 46.2,-415.8"/>
<text text-anchor="start" x="53.2" y="-428" font-family="Arial" font-size="14.00">phone_number </text>
<text text-anchor="start" x="151.28" y="-428" font-family="Arial" font-size="14.00" fill="#666666">[tinytext]</text>
<polygon fill="none" stroke="black" points="46.2,-385 46.2,-415.8 236.84,-415.8 236.84,-385 46.2,-385"/>
<text text-anchor="start" x="53.2" y="-397.2" font-family="Arial" font-size="14.00">postcode </text>
<text text-anchor="start" x="113.91" y="-397.2" font-family="Arial" font-size="14.00" fill="#666666">[varchar(8)]</text>
<polygon fill="none" stroke="black" points="46.2,-354.2 46.2,-385 236.84,-385 236.84,-354.2 46.2,-354.2"/>
<text text-anchor="start" x="53.2" y="-366.4" font-family="Arial" font-size="14.00">address </text>
<text text-anchor="start" x="106.9" y="-366.4" font-family="Arial" font-size="14.00" fill="#666666">[text]</text>
<polygon fill="none" stroke="black" points="46.2,-323.4 46.2,-354.2 236.84,-354.2 236.84,-323.4 46.2,-323.4"/>
<text text-anchor="start" x="53.2" y="-335.6" font-family="Arial" font-size="14.00">birthdate </text>
<text text-anchor="start" x="111.57" y="-335.6" font-family="Arial" font-size="14.00" fill="#666666">[varchar(10)]</text>
<polygon fill="none" stroke="black" points="46.2,-292.6 46.2,-323.4 236.84,-323.4 236.84,-292.6 46.2,-292.6"/>
<text text-anchor="start" x="53.2" y="-304.8" font-family="Arial" font-size="14.00">name </text>
<text text-anchor="start" x="92.11" y="-304.8" font-family="Arial" font-size="14.00" fill="#666666">[tinytext]</text>
<polygon fill="none" stroke="black" points="46.2,-261.8 46.2,-292.6 236.84,-292.6 236.84,-261.8 46.2,-261.8"/>
<text text-anchor="start" x="53.2" y="-274" font-family="Arial" font-size="14.00">alphabetic_name </text>
<text text-anchor="start" x="163.72" y="-274" font-family="Arial" font-size="14.00" fill="#666666">[tinytext]</text>
<polygon fill="none" stroke="black" points="46.2,-231 46.2,-261.8 236.84,-261.8 236.84,-231 46.2,-231"/>
<text text-anchor="start" x="53.2" y="-243.2" font-family="Arial" font-size="14.00">nickname </text>
<text text-anchor="start" x="117.01" y="-243.2" font-family="Arial" font-size="14.00" fill="#666666">[tinytext]</text>
<polygon fill="none" stroke="black" points="46.2,-200.2 46.2,-231 236.84,-231 236.84,-200.2 46.2,-200.2"/>
<text text-anchor="start" x="53.2" y="-212.4" font-family="Arial" font-size="14.00">sex </text>
<text text-anchor="start" x="78.88" y="-212.4" font-family="Arial" font-size="14.00" fill="#666666">[tinytext]</text>
<polygon fill="none" stroke="black" points="46.2,-169.4 46.2,-200.2 236.84,-200.2 236.84,-169.4 46.2,-169.4"/>
<text text-anchor="start" x="53.2" y="-181.6" font-family="Arial" font-size="14.00">student_prefix </text>
<text text-anchor="start" x="145.03" y="-181.6" font-family="Arial" font-size="14.00" fill="#666666">[varchar(3)]</text>
<polygon fill="none" stroke="black" points="46.2,-138.6 46.2,-169.4 236.84,-169.4 236.84,-138.6 46.2,-138.6"/>
<text text-anchor="start" x="53.2" y="-150.8" font-family="Arial" font-size="14.00">department </text>
<text text-anchor="start" x="127.91" y="-150.8" font-family="Arial" font-size="14.00" fill="#666666">[text]</text>
<polygon fill="none" stroke="black" points="46.2,-107.8 46.2,-138.6 236.84,-138.6 236.84,-107.8 46.2,-107.8"/>
<text text-anchor="start" x="53.2" y="-120" font-family="Arial" font-size="14.00">affiliation </text>
<text text-anchor="start" x="112.34" y="-120" font-family="Arial" font-size="14.00" fill="#666666">[text]</text>
<polygon fill="none" stroke="black" points="46.2,-77 46.2,-107.8 236.84,-107.8 236.84,-77 46.2,-77"/>
<text text-anchor="start" x="53.2" y="-89.2" font-family="Arial" font-size="14.00">created_at </text>
<text text-anchor="start" x="123.25" y="-89.2" font-family="Arial" font-size="14.00" fill="#666666">[timestamp]</text>
<polygon fill="none" stroke="black" points="46.2,-46.2 46.2,-77 236.84,-77 236.84,-46.2 46.2,-46.2"/>
<text text-anchor="start" x="53.2" y="-58.4" font-family="Arial" font-size="14.00">updated_at </text>
<text text-anchor="start" x="127.16" y="-58.4" font-family="Arial" font-size="14.00" fill="#666666">[timestamp]</text>
<polygon fill="none" stroke="black" stroke-width="3" points="44.7,-44.7 44.7,-637.7 238.34,-637.7 238.34,-44.7 44.7,-44.7"/>
</g>
</g>
</svg>
