<?xml version="1.0" encoding="UTF-8" standalone="no"?>
<!DOCTYPE svg PUBLIC "-//W3C//DTD SVG 1.1//EN"
 "http://www.w3.org/Graphics/SVG/1.1/DTD/svg11.dtd">
<!-- Generated by graphviz version 12.1.2 (20240928.0832)
 -->
<!-- Title: user_statuses Pages: 1 -->
<svg width="334pt" height="228pt"
 viewBox="0.00 0.00 333.87 228.40" xmlns="http://www.w3.org/2000/svg" xmlns:xlink="http://www.w3.org/1999/xlink">
<g id="graph0" class="graph" transform="scale(1 1) rotate(0) translate(4 224.4)">
<title>user_statuses</title>
<polygon fill="white" stroke="none" points="-4,4 -4,-224.4 329.87,-224.4 329.87,4 -4,4"/>
<!-- user_statuses -->
<g id="node1" class="node">
<title>user_statuses</title>
<polygon fill="#efefef" stroke="none" points="46.2,-138.6 46.2,-174.2 279.67,-174.2 279.67,-138.6 46.2,-138.6"/>
<polygon fill="none" stroke="black" points="46.2,-138.6 46.2,-174.2 279.67,-174.2 279.67,-138.6 46.2,-138.6"/>
<text text-anchor="start" x="53.2" y="-152" font-family="Arial Bold" font-size="18.00">user_statuses</text>
<text text-anchor="start" x="148.18" y="-152" font-family="Arial" font-size="14.00">    </text>
<text text-anchor="start" x="179.3" y="-152" font-family="Arial" font-size="14.00" fill="#666666">[BASE TABLE]</text>
<polygon fill="none" stroke="black" points="46.2,-107.8 46.2,-138.6 279.67,-138.6 279.67,-107.8 46.2,-107.8"/>
<text text-anchor="start" x="53.2" y="-120" font-family="Arial" font-size="14.00">user_id </text>
<text text-anchor="start" x="103.01" y="-120" font-family="Arial" font-size="14.00" fill="#666666">[varchar(32)]</text>
<polygon fill="none" stroke="black" points="46.2,-77 46.2,-107.8 279.67,-107.8 279.67,-77 46.2,-77"/>
<text text-anchor="start" x="53.2" y="-89.2" font-family="Arial" font-size="14.00">status </text>
<text text-anchor="start" x="94.44" y="-89.2" font-family="Arial" font-size="14.00" fill="#666666">[varchar(64)]</text>
<polygon fill="none" stroke="black" points="46.2,-46.2 46.2,-77 279.67,-77 279.67,-46.2 46.2,-46.2"/>
<text text-anchor="start" x="53.2" y="-58.4" font-family="Arial" font-size="14.00">detail </text>
<text text-anchor="start" x="90.56" y="-58.4" font-family="Arial" font-size="14.00" fill="#666666">[varchar(255)]</text>
<polygon fill="none" stroke="black" stroke-width="3" points="44.7,-44.7 44.7,-175.7 281.17,-175.7 281.17,-44.7 44.7,-44.7"/>
</g>
</g>
</svg>
