<?xml version="1.0" encoding="UTF-8" standalone="no"?>
<!DOCTYPE svg PUBLIC "-//W3C//DTD SVG 1.1//EN"
 "http://www.w3.org/Graphics/SVG/1.1/DTD/svg11.dtd">
<!-- Generated by graphviz version 12.1.2 (20240928.0832)
 -->
<!-- Title: webhooks Pages: 1 -->
<svg width="670pt" height="1037pt"
 viewBox="0.00 0.00 669.95 1037.20" xmlns="http://www.w3.org/2000/svg" xmlns:xlink="http://www.w3.org/1999/xlink">
<g id="graph0" class="graph" transform="scale(1 1) rotate(0) translate(4 1033.2)">
<title>webhooks</title>
<polygon fill="white" stroke="none" points="-4,4 -4,-1033.2 665.95,-1033.2 665.95,4 -4,4"/>
<!-- webhooks -->
<g id="node1" class="node">
<title>webhooks</title>
<polygon fill="#efefef" stroke="none" points="105.68,-697 105.68,-732.6 317.16,-732.6 317.16,-697 105.68,-697"/>
<polygon fill="none" stroke="black" points="105.68,-697 105.68,-732.6 317.16,-732.6 317.16,-697 105.68,-697"/>
<text text-anchor="start" x="112.68" y="-710.4" font-family="Arial Bold" font-size="18.00">webhooks</text>
<text text-anchor="start" x="185.67" y="-710.4" font-family="Arial" font-size="14.00">    </text>
<text text-anchor="start" x="216.79" y="-710.4" font-family="Arial" font-size="14.00" fill="#666666">[BASE TABLE]</text>
<polygon fill="none" stroke="black" points="105.68,-666.2 105.68,-697 317.16,-697 317.16,-666.2 105.68,-666.2"/>
<text text-anchor="start" x="112.68" y="-678.4" font-family="Arial" font-size="14.00">id </text>
<text text-anchor="start" x="127.47" y="-678.4" font-family="Arial" font-size="14.00" fill="#666666">[char(36)]</text>
<polygon fill="none" stroke="black" points="105.68,-635.4 105.68,-666.2 317.16,-666.2 317.16,-635.4 105.68,-635.4"/>
<text text-anchor="start" x="112.68" y="-647.6" font-family="Arial" font-size="14.00">name </text>
<text text-anchor="start" x="151.59" y="-647.6" font-family="Arial" font-size="14.00" fill="#666666">[varchar(255)]</text>
<polygon fill="none" stroke="black" points="105.68,-604.6 105.68,-635.4 317.16,-635.4 317.16,-604.6 105.68,-604.6"/>
<text text-anchor="start" x="112.68" y="-616.8" font-family="Arial" font-size="14.00">url </text>
<text text-anchor="start" x="132.13" y="-616.8" font-family="Arial" font-size="14.00" fill="#666666">[varchar(2048)]</text>
<polygon fill="none" stroke="black" points="105.68,-573.8 105.68,-604.6 317.16,-604.6 317.16,-573.8 105.68,-573.8"/>
<text text-anchor="start" x="112.68" y="-586" font-family="Arial" font-size="14.00">secret </text>
<text text-anchor="start" x="154.7" y="-586" font-family="Arial" font-size="14.00" fill="#666666">[varbinary(512)]</text>
<polygon fill="none" stroke="black" points="105.68,-543 105.68,-573.8 317.16,-573.8 317.16,-543 105.68,-543"/>
<text text-anchor="start" x="112.68" y="-555.2" font-family="Arial" font-size="14.00">owner_id </text>
<text text-anchor="start" x="173.38" y="-555.2" font-family="Arial" font-size="14.00" fill="#666666">[char(36)]</text>
<polygon fill="none" stroke="black" points="105.68,-512.2 105.68,-543 317.16,-543 317.16,-512.2 105.68,-512.2"/>
<text text-anchor="start" x="112.68" y="-524.4" font-family="Arial" font-size="14.00">is_active </text>
<text text-anchor="start" x="171.04" y="-524.4" font-family="Arial" font-size="14.00" fill="#666666">[tinyint(1)]</text>
<polygon fill="none" stroke="black" points="105.68,-481.4 105.68,-512.2 317.16,-512.2 317.16,-481.4 105.68,-481.4"/>
<text text-anchor="start" x="112.68" y="-493.6" font-family="Arial" font-size="14.00">created_at </text>
<text text-anchor="start" x="182.73" y="-493.6" font-family="Arial" font-size="14.00" fill="#666666">[datetime(6)]</text>
<polygon fill="none" stroke="black" points="105.68,-450.6 105.68,-481.4 317.16,-481.4 317.16,-450.6 105.68,-450.6"/>
<text text-anchor="start" x="112.68" y="-462.8" font-family="Arial" font-size="14.00">updated_at </text>
<text text-anchor="start" x="186.64" y="-462.8" font-family="Arial" font-size="14.00" fill="#666666">[datetime(6)]</text>
<polygon fill="none" stroke="black" stroke-width="3" points="104.18,-449.1 104.18,-734.1 318.66,-734.1 318.66,-449.1 104.18,-449.1"/>
</g>
<!-- users -->
<g id="node3" class="node">
<title>users</title>
<polygon fill="#efefef" stroke="none" points="109.87,-289.6 109.87,-325.2 312.97,-325.2 312.97,-289.6 109.87,-289.6"/>
<polygon fill="none" stroke="black" points="109.87,-289.6 109.87,-325.2 312.97,-325.2 312.97,-289.6 109.87,-289.6"/>
<text text-anchor="start" x="130.68" y="-303" font-family="Arial Bold" font-size="18.00">users</text>
<text text-anchor="start" x="167.67" y="-303" font-family="Arial" font-size="14.00">    </text>
<text text-anchor="start" x="198.79" y="-303" font-family="Arial" font-size="14.00" fill="#666666">[BASE TABLE]</text>
<polygon fill="none" stroke="black" points="109.87,-258.8 109.87,-289.6 312.97,-289.6 312.97,-258.8 109.87,-258.8"/>
<text text-anchor="start" x="116.87" y="-271" font-family="Arial" font-size="14.00">id </text>
<text text-anchor="start" x="131.66" y="-271" font-family="Arial" font-size="14.00" fill="#666666">[char(36)]</text>
<polygon fill="none" stroke="black" points="109.87,-228 109.87,-258.8 312.97,-258.8 312.97,-228 109.87,-228"/>
<text text-anchor="start" x="116.87" y="-240.2" font-family="Arial" font-size="14.00">trap_id </text>
<text text-anchor="start" x="163.57" y="-240.2" font-family="Arial" font-size="14.00" fill="#666666">[varchar(32)]</text>
<polygon fill="none" stroke="black" points="109.87,-197.2 109.87,-228 312.97,-228 312.97,-197.2 109.87,-197.2"/>
<text text-anchor="start" x="116.87" y="-209.4" font-family="Arial" font-size="14.00">password_hash </text>
<text text-anchor="start" x="218.83" y="-209.4" font-family="Arial" font-size="14.00" fill="#666666">[varchar(255)]</text>
<polygon fill="none" stroke="black" points="109.87,-166.4 109.87,-197.2 312.97,-197.2 312.97,-166.4 109.87,-166.4"/>
<text text-anchor="start" x="116.87" y="-178.6" font-family="Arial" font-size="14.00">email </text>
<text text-anchor="start" x="154.22" y="-178.6" font-family="Arial" font-size="14.00" fill="#666666">[varbinary(512)]</text>
<polygon fill="none" stroke="black" points="109.87,-135.6 109.87,-166.4 312.97,-166.4 312.97,-135.6 109.87,-135.6"/>
<text text-anchor="start" x="116.87" y="-147.8" font-family="Arial" font-size="14.00">personal_info </text>
<text text-anchor="start" x="204.83" y="-147.8" font-family="Arial" font-size="14.00" fill="#666666">[blob]</text>
<polygon fill="none" stroke="black" points="109.87,-104.8 109.87,-135.6 312.97,-135.6 312.97,-104.8 109.87,-104.8"/>
<text text-anchor="start" x="116.87" y="-117" font-family="Arial" font-size="14.00">student_number </text>
<text text-anchor="start" x="221.94" y="-117" font-family="Arial" font-size="14.00" fill="#666666">[varchar(8)]</text>
<polygon fill="none" stroke="black" points="109.87,-74 109.87,-104.8 312.97,-104.8 312.97,-74 109.87,-74"/>
<text text-anchor="start" x="116.87" y="-86.2" font-family="Arial" font-size="14.00">created_at </text>
<text text-anchor="start" x="186.92" y="-86.2" font-family="Arial" font-size="14.00" fill="#666666">[datetime(6)]</text>
<polygon fill="none" stroke="black" points="109.87,-43.2 109.87,-74 312.97,-74 312.97,-43.2 109.87,-43.2"/>
<text text-anchor="start" x="116.87" y="-55.4" font-family="Arial" font-size="14.00">updated_at </text>
<text text-anchor="start" x="190.83" y="-55.4" font-family="Arial" font-size="14.00" fill="#666666">[datetime(6)]</text>
</g>
<!-- webhooks&#45;&gt;users -->
<g id="edge2" class="edge">
<title>webhooks:owner_id&#45;&gt;users:id</title>
<path fill="none" stroke="black" d="M328.58,-557.73C444.15,-542.53 436.72,-274.2 313.97,-274.2"/>
<polygon fill="black" stroke="black" points="328.48,-557.74 318.21,-553.89 323.15,-558.08 318.83,-558.36 318.83,-558.36 318.83,-558.36 323.15,-558.08 318.79,-562.87 328.48,-557.74"/>
<text text-anchor="start" x="325.16" y="-568.4" font-family="Arial" font-size="10.00">FOREIGN KEY (owner_id) REFERENCES users (id)</text>
</g>
<!-- webhook_subscribe_events -->
<g id="node2" class="node">
<title>webhook_subscribe_events</title>
<polygon fill="#efefef" stroke="none" points="43.2,-950.4 43.2,-986 379.65,-986 379.65,-950.4 43.2,-950.4"/>
<polygon fill="none" stroke="black" points="43.2,-950.4 43.2,-986 379.65,-986 379.65,-950.4 43.2,-950.4"/>
<text text-anchor="start" x="50.2" y="-963.8" font-family="Arial Bold" font-size="18.00">webhook_subscribe_events</text>
<text text-anchor="start" x="248.16" y="-963.8" font-family="Arial" font-size="14.00">    </text>
<text text-anchor="start" x="279.27" y="-963.8" font-family="Arial" font-size="14.00" fill="#666666">[BASE TABLE]</text>
<polygon fill="none" stroke="black" points="43.2,-919.6 43.2,-950.4 379.65,-950.4 379.65,-919.6 43.2,-919.6"/>
<text text-anchor="start" x="50.2" y="-931.8" font-family="Arial" font-size="14.00">webhook_id </text>
<text text-anchor="start" x="128.81" y="-931.8" font-family="Arial" font-size="14.00" fill="#666666">[char(36)]</text>
<polygon fill="none" stroke="black" points="43.2,-888.8 43.2,-919.6 379.65,-919.6 379.65,-888.8 43.2,-888.8"/>
<text text-anchor="start" x="50.2" y="-901" font-family="Arial" font-size="14.00">event_type </text>
<text text-anchor="start" x="122.59" y="-901" font-family="Arial" font-size="14.00" fill="#666666">[varchar(64)]</text>
<polygon fill="none" stroke="black" points="43.2,-858 43.2,-888.8 379.65,-888.8 379.65,-858 43.2,-858"/>
<text text-anchor="start" x="50.2" y="-870.2" font-family="Arial" font-size="14.00">created_at </text>
<text text-anchor="start" x="120.25" y="-870.2" font-family="Arial" font-size="14.00" fill="#666666">[datetime(6)]</text>
</g>
<!-- webhook_subscribe_events&#45;&gt;webhooks -->
<g id="edge1" class="edge">
<title>webhook_subscribe_events:webhook_id&#45;&gt;webhooks:id</title>
<path fill="none" stroke="black" d="M391,-934.27C492.68,-919.41 430.53,-681.6 318.16,-681.6"/>
<polygon fill="black" stroke="black" points="390.95,-934.28 380.66,-930.49 385.63,-934.65 381.31,-934.95 381.31,-934.95 381.31,-934.95 385.63,-934.65 381.29,-939.47 390.95,-934.28"/>
<text text-anchor="start" x="387.65" y="-945" font-family="Arial" font-size="10.00">FOREIGN KEY (webhook_id) REFERENCES webhooks (id)</text>
</g>
</g>
</svg>
