<?xml version="1.0" encoding="UTF-8" standalone="no"?>
<!DOCTYPE svg PUBLIC "-//W3C//DTD SVG 1.1//EN"
 "http://www.w3.org/Graphics/SVG/1.1/DTD/svg11.dtd">
<!-- Generated by graphviz version 12.1.2 (20240928.0832)
 -->
<!-- Title: oidc Pages: 1 -->
<svg width="316pt" height="346pt"
 viewBox="0.00 0.00 316.17 345.60" xmlns="http://www.w3.org/2000/svg" xmlns:xlink="http://www.w3.org/1999/xlink">
<g id="graph0" class="graph" transform="scale(1 1) rotate(0) translate(4 341.6)">
<title>oidc</title>
<polygon fill="white" stroke="none" points="-4,4 -4,-341.6 312.17,-341.6 312.17,4 -4,4"/>
<!-- clients -->
<g id="node1" class="node">
<title>clients</title>
<polygon fill="#efefef" stroke="none" points="43.2,-258.8 43.2,-294.4 264.97,-294.4 264.97,-258.8 43.2,-258.8"/>
<polygon fill="none" stroke="black" points="43.2,-258.8 43.2,-294.4 264.97,-294.4 264.97,-258.8 43.2,-258.8"/>
<text text-anchor="start" x="68.35" y="-272.2" font-family="Arial Bold" font-size="18.00">clients</text>
<text text-anchor="start" x="115.33" y="-272.2" font-family="Arial" font-size="14.00">    </text>
<text text-anchor="start" x="146.45" y="-272.2" font-family="Arial" font-size="14.00" fill="#666666">[BASE TABLE]</text>
<polygon fill="none" stroke="black" points="43.2,-228 43.2,-258.8 264.97,-258.8 264.97,-228 43.2,-228"/>
<text text-anchor="start" x="50.2" y="-240.2" font-family="Arial" font-size="14.00">client_id </text>
<text text-anchor="start" x="105.45" y="-240.2" font-family="Arial" font-size="14.00" fill="#666666">[char(36)]</text>
<polygon fill="none" stroke="black" points="43.2,-197.2 43.2,-228 264.97,-228 264.97,-197.2 43.2,-197.2"/>
<text text-anchor="start" x="50.2" y="-209.4" font-family="Arial" font-size="14.00">client_secret_hash </text>
<text text-anchor="start" x="170.83" y="-209.4" font-family="Arial" font-size="14.00" fill="#666666">[varchar(255)]</text>
<polygon fill="none" stroke="black" points="43.2,-166.4 43.2,-197.2 264.97,-197.2 264.97,-166.4 43.2,-166.4"/>
<text text-anchor="start" x="50.2" y="-178.6" font-family="Arial" font-size="14.00">name </text>
<text text-anchor="start" x="89.11" y="-178.6" font-family="Arial" font-size="14.00" fill="#666666">[varchar(255)]</text>
<polygon fill="none" stroke="black" points="43.2,-135.6 43.2,-166.4 264.97,-166.4 264.97,-135.6 43.2,-135.6"/>
<text text-anchor="start" x="50.2" y="-147.8" font-family="Arial" font-size="14.00">client_type </text>
<text text-anchor="start" x="121.02" y="-147.8" font-family="Arial" font-size="14.00" fill="#666666">[varchar(20)]</text>
<polygon fill="none" stroke="black" points="43.2,-104.8 43.2,-135.6 264.97,-135.6 264.97,-104.8 43.2,-104.8"/>
<text text-anchor="start" x="50.2" y="-117" font-family="Arial" font-size="14.00">redirect_uris </text>
<text text-anchor="start" x="131.12" y="-117" font-family="Arial" font-size="14.00" fill="#666666">[longtext]</text>
<polygon fill="none" stroke="black" points="43.2,-74 43.2,-104.8 264.97,-104.8 264.97,-74 43.2,-74"/>
<text text-anchor="start" x="50.2" y="-86.2" font-family="Arial" font-size="14.00">created_at </text>
<text text-anchor="start" x="120.25" y="-86.2" font-family="Arial" font-size="14.00" fill="#666666">[datetime(6)]</text>
<polygon fill="none" stroke="black" points="43.2,-43.2 43.2,-74 264.97,-74 264.97,-43.2 43.2,-43.2"/>
<text text-anchor="start" x="50.2" y="-55.4" font-family="Arial" font-size="14.00">updated_at </text>
<text text-anchor="start" x="124.16" y="-55.4" font-family="Arial" font-size="14.00" fill="#666666">[datetime(6)]</text>
</g>
</g>
</svg>
